<svg fill="none" height="508" viewBox="0 0 947 508" width="947" xmlns="http://www.w3.org/2000/svg" xmlns:xlink="http://www.w3.org/1999/xlink"><clipPath id="a"><path d="m0 0h947v507.978h-947z"/></clipPath><g clip-path="url(#a)"><path d="m946.464 268.327c0-81.662-65.166-148.103-146.333-150.159-35.822-29.0535-81.464-46.4719-131.18-46.4719-2.334 0-4.655.0524-6.97.1284-24.958-18.4754-55.839-29.4063-89.276-29.4063-8.377 0-16.589.6969-24.592 2.0151-40.625-27.6958-89.714-43.896763-142.59-43.896763-58.371 0-112.123 19.744163-154.97 52.901663-2.686-.143-5.389-.2195-8.11-.2195-35.059 0-67.312 12.0123-92.869 32.144-85.0627 17.4563-149.037379 92.7383-149.037379 182.9643 0 103.157 83.624779 186.782 186.781379 186.782 18.819 0 36.984-2.795 54.113-7.972 44.218 37.602 101.5 60.305 164.092 60.305 57.209 0 109.985-18.962 152.402-50.933 32.146 20.275 70.212 32.017 111.026 32.017 63.538 0 120.424-28.44 158.652-73.276 67.909-14.419 118.861-74.716 118.861-146.923z" fill="#fbf6eb" stroke="#600" stroke-miterlimit="10"/></g></svg>