<svg fill="none" height="50" viewBox="0 0 50 50" width="50" xmlns="http://www.w3.org/2000/svg"><circle cx="25" cy="25" fill="#600" r="25"/><g fill="#fbf6eb"><path d="m25 14.7522c3.3376 0 3.733.0128 5.0511.0729 1.2187.0556 1.8806.2592 2.321.4304.5835.2268.9999.4976 1.4373.935.4374.4375.7083.8539.9351 1.4373.1712.4405.3748 1.1024.4304 2.3211.0601 1.3181.0728 1.7134.0728 5.051 0 3.3377-.0127 3.733-.0728 5.0511-.0556 1.2187-.2592 1.8806-.4304 2.3211-.2268.5834-.4977.9998-.9351 1.4372-.4374.4375-.8538.7083-1.4373.9351-.4404.1712-1.1023.3748-2.321.4304-1.3179.0601-1.7132.0729-5.0511.0729s-3.7331-.0128-5.0511-.0729c-1.2187-.0556-1.8806-.2592-2.321-.4304-.5835-.2268-.9999-.4976-1.4373-.9351-.4374-.4374-.7083-.8538-.9351-1.4372-.1712-.4405-.3748-1.1024-.4304-2.3211-.0601-1.3181-.0729-1.7134-.0729-5.0511 0-3.3376.0128-3.7329.0729-5.051.0556-1.2187.2592-1.8806.4304-2.3211.2268-.5834.4977-.9998.9351-1.4372.4374-.4375.8538-.7083 1.4373-.9351.4404-.1712 1.1023-.3748 2.321-.4304 1.3181-.0601 1.7135-.0729 5.0511-.0729zm0-2.2522c-3.3948 0-3.8205.0144-5.1537.0752-1.3305.0607-2.2392.272-3.0343.581-.822.3195-1.5191.7469-2.214 1.4418s-1.1223 1.392-1.4417 2.214c-.3091.7951-.5204 1.7038-.5811 3.0342-.0608 1.3333-.0752 1.759-.0752 5.1537 0 3.3948.0144 3.8205.0752 5.1538.0607 1.3304.272 2.2391.5811 3.0342.3194.822.7468 1.5191 1.4417 2.214s1.392 1.1224 2.214 1.4418c.7951.309 1.7038.5203 3.0343.581 1.3332.0608 1.7589.0752 5.1537.0752s3.8205-.0144 5.1537-.0752c1.3305-.0607 2.2392-.272 3.0343-.581.822-.3194 1.5191-.7469 2.214-1.4418s1.1223-1.392 1.4418-2.214c.309-.7951.5203-1.7038.581-3.0342.0608-1.3333.0752-1.759.0752-5.1538 0-3.3947-.0144-3.8204-.0752-5.1537-.0607-1.3304-.272-2.2391-.581-3.0342-.3195-.822-.7469-1.5191-1.4418-2.214s-1.392-1.1223-2.214-1.4418c-.7951-.309-1.7038-.5203-3.0343-.581-1.3332-.0608-1.7589-.0752-5.1537-.0752z"/><path d="m25.0059 18.5872c-3.5452 0-6.419 2.8738-6.419 6.4188 0 3.5451 2.8738 6.4189 6.419 6.4189 3.545 0 6.4188-2.8738 6.4188-6.4189 0-3.545-2.8738-6.4188-6.4188-6.4188zm0 10.5855c-2.3013 0-4.1667-1.8655-4.1667-4.1667 0-2.3011 1.8654-4.1666 4.1667-4.1666 2.3011 0 4.1666 1.8655 4.1666 4.1666 0 2.3012-1.8655 4.1667-4.1666 4.1667z"/><path d="m33.1777 18.3294c0 .8284-.6716 1.4999-1.5 1.4999s-1.5-.6715-1.5-1.4999c0-.8285.6716-1.5001 1.5-1.5001s1.5.6716 1.5 1.5001z"/></g></svg>