<svg width="103" height="45" viewBox="0 0 103 45" fill="none" xmlns="http://www.w3.org/2000/svg">
<path d="M9.67055 3.14999H2.575V10.59H9.67055V3.14999Z" fill="#00C7FD"/>
<path d="M9.48458 41.85V15.09H2.76097V41.85H9.48458ZM54.0464 42.12V35.565C53.0593 35.565 52.2439 35.505 51.6144 35.4C50.9278 35.28 50.3842 35.04 50.0408 34.665C49.6832 34.29 49.4543 33.75 49.3399 33.06C49.2397 32.4 49.1825 31.53 49.1825 30.48V21.12H54.0464V15.09H49.1825V4.66499H42.4589V30.525C42.4589 32.7 42.6449 34.56 43.0025 36.045C43.3601 37.5 43.961 38.7 44.7907 39.6C45.6204 40.5 46.7362 41.145 48.0667 41.535C49.4257 41.925 51.1424 42.12 53.1881 42.12H54.0464ZM92.5712 41.85V2.60999H85.8476V41.85H92.5712ZM35.9785 17.73C34.1044 15.615 31.4722 14.55 28.1533 14.55C26.5511 14.55 25.0633 14.895 23.7472 15.585C22.4311 16.275 21.301 17.235 20.414 18.435L20.0421 18.93V18.48V15.09H13.4043V41.85H20.085V27.6V28.59C20.085 28.425 20.085 28.26 20.085 28.11C20.1565 25.605 20.7431 23.745 21.8589 22.56C23.0462 21.3 24.4768 20.655 26.1219 20.655C28.0675 20.655 29.541 21.285 30.5281 22.5C31.4865 23.7 31.9729 25.425 31.9872 27.63V27.69V27.705V41.85H38.7681V26.655C38.7824 22.845 37.8382 19.845 35.9785 17.73ZM82.3428 28.41C82.3428 26.49 82.0138 24.675 81.37 22.995C80.7263 21.33 79.8107 19.845 78.6663 18.57C77.5218 17.31 76.1199 16.305 74.5033 15.6C72.9011 14.91 71.0986 14.55 69.1674 14.55C67.3362 14.55 65.591 14.925 63.9887 15.645C62.3722 16.38 60.956 17.37 59.7686 18.615C58.5812 19.86 57.6228 21.345 56.9361 23.04C56.2351 24.72 55.8918 26.55 55.8918 28.47C55.8918 30.39 56.2208 32.22 56.8932 33.9C57.5513 35.595 58.4811 37.08 59.6542 38.31C60.8272 39.555 62.2578 40.56 63.9172 41.28C65.5767 42.015 67.4221 42.375 69.3819 42.375C75.0756 42.375 78.6233 39.66 80.7406 37.125L75.9053 33.255C74.8896 34.53 72.4719 36.24 69.4392 36.24C67.5365 36.24 65.9772 35.775 64.8042 34.875C63.6168 33.96 62.8014 32.715 62.3722 31.155L62.3007 30.9H82.3428V28.41ZM62.3579 25.965C62.3579 24 64.5037 20.58 69.1244 20.58C73.7451 20.58 75.891 24 75.891 25.95L62.3579 25.965Z" fill="#0068B5"/>
<path d="M100.225 38.475C100.096 38.16 99.91 37.89 99.6954 37.65C99.4665 37.41 99.209 37.23 98.9086 37.095C98.6082 36.96 98.2792 36.885 97.9358 36.885C97.5925 36.885 97.2635 36.96 96.963 37.095C96.6626 37.23 96.4051 37.425 96.1762 37.65C95.9474 37.89 95.7757 38.16 95.6469 38.475C95.5182 38.79 95.4467 39.135 95.4467 39.495C95.4467 39.855 95.5182 40.2 95.6469 40.515C95.7757 40.83 95.9617 41.1 96.1762 41.34C96.4051 41.58 96.6626 41.76 96.963 41.895C97.2635 42.03 97.5925 42.105 97.9358 42.105C98.2792 42.105 98.6082 42.03 98.9086 41.895C99.209 41.76 99.4665 41.565 99.6954 41.34C99.9243 41.1 100.096 40.83 100.225 40.515C100.353 40.2 100.425 39.855 100.425 39.495C100.425 39.135 100.353 38.79 100.225 38.475ZM99.8242 40.32C99.724 40.575 99.5667 40.815 99.3807 41.01C99.1947 41.205 98.9801 41.355 98.7226 41.475C98.4794 41.58 98.2076 41.64 97.9215 41.64C97.6354 41.64 97.3779 41.58 97.1204 41.475C96.8772 41.37 96.6483 41.205 96.4624 41.01C96.2764 40.815 96.1333 40.59 96.0189 40.32C95.9187 40.065 95.8615 39.78 95.8615 39.48C95.8615 39.18 95.9187 38.91 96.0189 38.64C96.119 38.385 96.2764 38.145 96.4624 37.95C96.6483 37.755 96.8629 37.605 97.1204 37.485C97.3636 37.38 97.6354 37.32 97.9215 37.32C98.2076 37.32 98.4651 37.38 98.7226 37.485C98.9658 37.59 99.1947 37.755 99.3807 37.95C99.5667 38.145 99.7097 38.37 99.8242 38.64C99.9243 38.895 99.9815 39.18 99.9815 39.48C99.9815 39.78 99.9243 40.065 99.8242 40.32ZM98.4079 39.705C98.6082 39.675 98.7655 39.6 98.8943 39.48C99.023 39.345 99.0803 39.15 99.0803 38.895C99.0803 38.61 98.9944 38.385 98.8371 38.235C98.6797 38.085 98.4222 38.01 98.0789 38.01H96.9774V40.995H97.4924V39.78H97.8786L98.5939 40.995H99.1375L98.4079 39.705ZM98.1218 39.27C98.036 39.27 97.9644 39.285 97.8786 39.285H97.4924V38.445H97.8786C97.9644 38.445 98.036 38.445 98.1218 38.445C98.2076 38.445 98.2792 38.46 98.3364 38.49C98.4079 38.52 98.4508 38.565 98.4937 38.61C98.5367 38.67 98.551 38.745 98.551 38.835C98.551 38.925 98.5367 39.015 98.4937 39.06C98.4508 39.12 98.4079 39.165 98.3364 39.18C98.2792 39.24 98.2076 39.255 98.1218 39.27Z" fill="#0068B5"/>
</svg>
