<svg fill="none" height="50" viewBox="0 0 50 50" width="50" xmlns="http://www.w3.org/2000/svg"><circle cx="25" cy="25" fill="#600" r="25"/><path clip-rule="evenodd" d="m38.36 17.3673c-.9048.402-1.8785.6726-2.8997.7949 1.0425-.6251 1.8431-1.6143 2.2196-2.7931-.9744.5791-2.0564.9983-3.2056 1.2255-.9212-.981-2.2344-1.5946-3.6855-1.5946-2.7881 0-5.0488 2.2607-5.0488 5.0488 0 .3954.0451.7809.1312 1.1509-4.1965-.21-7.9165-2.2205-10.4068-5.2752-.4348.7456-.6833 1.6126-.6833 2.5379 0 1.7513.89 3.2967 2.2459 4.2023-.8285-.0263-1.6061-.2535-2.2877-.6316v.0631c0 2.4469 1.7414 4.4869 4.0497 4.952-.4233.1149-.8695.1772-1.3297.1772-.3257 0-.6423-.032-.9507-.091.6423 2.0055 2.5076 3.4656 4.7166 3.5067-1.7275 1.3534-3.9045 2.1614-6.2702 2.1614-.4085 0-.8104-.0238-1.205-.0714 2.2344 1.4322 4.888 2.2689 7.7393 2.2689 9.2864 0 14.3647-7.6934 14.3647-14.3647 0-.219-.0041-.4372-.0148-.6529.9877-.7137 1.844-1.6029 2.5208-2.6151z" fill="#fbf6eb" fill-rule="evenodd"/></svg>