<svg fill="none" height="25" viewBox="0 0 30 25" width="30" xmlns="http://www.w3.org/2000/svg" xmlns:xlink="http://www.w3.org/1999/xlink"><mask id="a" fill="#fff"><path clip-rule="evenodd" d="m11.8388 12.3744-8.8388 8.8388 3.53553 3.5355 8.83887-8.8388 8.8388 8.8388 3.5355-3.5355-8.8388-8.8388 8.8388-8.83887-3.5355-3.53553-8.8388 8.83884-8.83886-8.83883273-3.53554 3.53553273z" fill="#fff" fill-rule="evenodd"/></mask><path clip-rule="evenodd" d="m11.8388 12.3744-8.8388 8.8388 3.53553 3.5355 8.83887-8.8388 8.8388 8.8388 3.5355-3.5355-8.8388-8.8388 8.8388-8.83887-3.5355-3.53553-8.8388 8.83884-8.83886-8.83883273-3.53554 3.53553273z" fill="#ff4d41" fill-rule="evenodd"/><path d="m3 21.2132-.70711-.7071-.7071.7071.7071.7071zm8.8388-8.8388.7071.7071.7071-.7071-.7071-.7071zm-5.30327 12.3743-.7071.7071.7071.7072.70711-.7072zm8.83887-8.8388.7071-.7071-.7071-.7071-.7071.7071zm8.8388 8.8388-.7071.7072.7071.7071.7071-.7071zm3.5355-3.5355.7071.7071.7072-.7071-.7072-.7071zm-8.8388-8.8388-.7071-.7071-.7071.7071.7071.7071zm8.8388-8.83887.7071.70711.7072-.70711-.7072-.7071zm-3.5355-3.53553.7071-.707107-.7071-.707103-.7071.707103zm-8.8388 8.83884-.7071.7071.7071.70706.7071-.70706zm-8.83886-8.83883273.7071-.70710627-.7071-.707111-.70711.707111zm-3.53554 3.53553273-.7071-.70711-.70711.70711.70711.70711zm.70711 18.38476 8.83879-8.8388-1.4142-1.4142-8.83881 8.8388zm3.53553 2.1213-3.53553-3.5355-1.41422 1.4142 3.53554 3.5355zm7.42466-8.8388-8.83887 8.8388 1.41421 1.4142 8.83886-8.8388zm10.253 8.8388-8.8388-8.8388-1.4142 1.4142 8.8388 8.8389zm2.1213-3.5355-3.5355 3.5355 1.4142 1.4143 3.5355-3.5356zm-8.8388-7.4246 8.8388 8.8388 1.4142-1.4142-8.8388-8.8388zm8.8388-10.25307-8.8388 8.83887 1.4142 1.4142 8.8388-8.83886zm-3.5355-2.121323 3.5355 3.535533 1.4142-1.41421-3.5355-3.535537zm-7.4246 8.838833 8.8388-8.838833-1.4142-1.414214-8.8388 8.838837zm-10.25307-8.838826 8.83887 8.838826 1.4142-1.41421-8.83886-8.838829zm-2.12132 3.535536 3.53553-3.535536-1.41421-1.414213-3.53553 3.535529zm8.83879 7.42465-8.83879-8.83887-1.41421 1.41422 8.8388 8.83885z" fill="#600" mask="url(#a)"/></svg>