<svg fill="none" height="50" viewBox="0 0 50 50" width="50" xmlns="http://www.w3.org/2000/svg"><circle cx="25" cy="25" fill="#600" r="25"/><path clip-rule="evenodd" d="m37.2507 16.5312c.427.4434.7347.9953.8924 1.6007.9083 3.7967.6984 9.793.0177 13.7362-.1578.6054-.4655 1.1573-.8925 1.6007-.427.4435-.9585.763-1.5414.9268-2.1341.6044-10.7232.6044-10.7232.6044s-8.5891 0-10.7231-.6044c-.583-.1638-1.1144-.4833-1.5414-.9268-.4271-.4434-.7348-.9953-.8925-1.6007-.9136-3.7802-.6631-9.7802-.0176-13.7179.1577-.6054.4654-1.1573.8924-1.6007.4271-.4434.9585-.763 1.5414-.9268 2.1341-.6044 10.7232-.6227 10.7232-.6227s8.5891 0 10.7231.6044c.583.1638 1.1144.4833 1.5415.9268zm-7.8731 8.4688-7.1252 4.2857v-8.5714z" fill="#fff" fill-rule="evenodd"/></svg>