<svg width="232" height="125" viewBox="0 0 232 125" fill="none" xmlns="http://www.w3.org/2000/svg">
<g clip-path="url(#clip0_392_28846)">
<path d="M188.708 122.01C211.844 122.01 230.598 103.255 230.598 80.12C230.598 56.9848 211.844 38.23 188.708 38.23C165.573 38.23 146.818 56.9848 146.818 80.12C146.818 103.255 165.573 122.01 188.708 122.01Z" fill="#00CCCC" stroke="#330000" stroke-width="1.4" stroke-miterlimit="10"/>
<path d="M42.5892 123.85C65.7244 123.85 84.4792 105.095 84.4792 81.96C84.4792 58.8248 65.7244 40.07 42.5892 40.07C19.454 40.07 0.699219 58.8248 0.699219 81.96C0.699219 105.095 19.454 123.85 42.5892 123.85Z" fill="#00CCCC" stroke="#330000" stroke-width="1.4" stroke-miterlimit="10"/>
<path d="M188.709 80.12L156.469 1.05003L182.469 0.700028C188.829 0.610028 194.049 5.70003 194.139 12.06C194.229 18.42 189.139 23.64 182.779 23.73L176.409 23.82" stroke="#330000" stroke-width="1.4" stroke-linecap="round" stroke-linejoin="round"/>
<path d="M109.819 70.45L82.9395 1.76001" stroke="#330000" stroke-width="1.4" stroke-linejoin="round"/>
<path d="M103.28 80.44L42.1797 81.21L92.0997 23.42L165.28 22.44L122.54 71.95" stroke="#330000" stroke-width="1.4" stroke-linejoin="round"/>
<path d="M65.8887 1.99L106.429 1.44" stroke="#330000" stroke-width="1.4" stroke-linecap="round" stroke-linejoin="round"/>
<path d="M113.9 92.2001C120.378 92.2001 125.63 86.9484 125.63 80.4701C125.63 73.9918 120.378 68.7401 113.9 68.7401C107.422 68.7401 102.17 73.9918 102.17 80.4701C102.17 86.9484 107.422 92.2001 113.9 92.2001Z" fill="#F55D56"/>
<path d="M113.9 92.2001C120.378 92.2001 125.63 86.9484 125.63 80.4701C125.63 73.9918 120.378 68.7401 113.9 68.7401C107.422 68.7401 102.17 73.9918 102.17 80.4701C102.17 86.9484 107.422 92.2001 113.9 92.2001Z" stroke="#330000" stroke-width="1.4" stroke-miterlimit="10"/>
<path d="M124.529 106.53L114.469 81.85" stroke="#330000" stroke-width="1.4" stroke-miterlimit="10"/>
<path d="M116.139 106.64L132.919 106.41" stroke="#330000" stroke-width="1.4" stroke-miterlimit="10"/>
</g>
<defs>
<clipPath id="clip0_392_28846">
<rect width="231.3" height="124.56" fill="white"/>
</clipPath>
</defs>
</svg>
