<svg width="99" height="99" viewBox="0 0 99 99" fill="none" xmlns="http://www.w3.org/2000/svg">
<path d="M97.79 49.3695C97.7677 46.2022 96.4995 43.1709 94.2599 40.9313C92.0202 38.6916 88.9889 37.4235 85.8216 37.4011H78.5382L83.6675 32.2718C85.9348 30.0045 87.2085 26.9294 87.2085 23.7229C87.2085 20.5165 85.9348 17.4414 83.6675 15.1741C81.4002 12.9068 78.3251 11.633 75.1187 11.633C71.9122 11.633 68.8371 12.9068 66.5698 15.1741L61.4405 20.3034V13.0369C61.4405 9.8445 60.1723 6.78291 57.9149 4.52557C55.6576 2.26823 52.596 1 49.4036 1C46.2113 1 43.1497 2.26823 40.8923 4.52557C38.635 6.78291 37.3668 9.8445 37.3668 13.0369V20.3034L32.2375 15.1741C31.1148 14.0514 29.782 13.1608 28.3152 12.5533C26.8484 11.9457 25.2763 11.633 23.6886 11.633C22.1009 11.633 20.5289 11.9457 19.0621 12.5533C17.5953 13.1608 16.2624 14.0514 15.1397 15.1741C14.0171 16.2967 13.1266 17.6295 12.519 19.0963C11.9115 20.5631 11.5987 22.1353 11.5987 23.7229C11.5987 25.3106 11.9115 26.8826 12.519 28.3495C13.1266 29.8163 14.0171 31.1491 15.1397 32.2718L20.2691 37.4011H13.0368C9.8444 37.4011 6.7828 38.6692 4.52546 40.9266C2.26813 43.1839 1 46.2455 1 49.4379C1 52.6302 2.26813 55.6918 4.52546 57.9492C6.7828 60.2065 9.8444 61.4746 13.0368 61.4746H20.3204L15.1911 66.6039C12.9238 68.8712 11.65 71.9463 11.65 75.1528C11.65 78.3592 12.9238 81.4343 15.1911 83.7016C17.4584 85.9689 20.5335 87.2428 23.7399 87.2428C26.9464 87.2428 30.0215 85.9689 32.2888 83.7016L37.4181 78.5723V85.8389C37.4181 89.0312 38.6862 92.0928 40.9436 94.3502C43.2009 96.6075 46.2625 97.8757 49.4549 97.8757C52.6472 97.8757 55.7089 96.6075 57.9663 94.3502C60.2236 92.0928 61.4916 89.0312 61.4916 85.8389V78.4356L66.6209 83.5649C67.7436 84.6876 69.0764 85.5781 70.5433 86.1856C72.0101 86.7932 73.5821 87.1059 75.1698 87.1059C76.7575 87.1059 78.3297 86.7932 79.7965 86.1856C81.2633 85.5781 82.596 84.6876 83.7187 83.5649C84.8413 82.4423 85.7319 81.1094 86.3394 79.6426C86.947 78.1758 87.2597 76.6038 87.2597 75.0161C87.2597 73.4284 86.947 71.8563 86.3394 70.3895C85.7319 68.9226 84.8413 67.5899 83.7187 66.4672L78.5893 61.3379H85.873C89.0314 61.3021 92.0496 60.028 94.2782 57.7898C96.5069 55.5516 97.7678 52.528 97.79 49.3695Z" fill="#FC56AD" stroke="#7B0C00" stroke-width="0.8" stroke-miterlimit="10"/>
<path d="M49.403 69.921C60.7533 69.921 69.9545 60.7199 69.9545 49.3696C69.9545 38.0193 60.7533 28.8181 49.403 28.8181C38.0528 28.8181 28.8516 38.0193 28.8516 49.3696C28.8516 60.7199 38.0528 69.921 49.403 69.921Z" fill="#FDDB93" stroke="#7B0C00" stroke-width="0.8" stroke-miterlimit="10"/>
</svg>
