<svg width="291" height="451" viewBox="0 0 291 451" fill="none" xmlns="http://www.w3.org/2000/svg">
<g clip-path="url(#clip0_392_29660)">
<path d="M222.699 106.54H290.869" stroke="#330000" stroke-width="1.4" stroke-miterlimit="10"/>
<path d="M206.029 72.0201L251.469 45.8101" stroke="#330000" stroke-width="1.4" stroke-miterlimit="10"/>
<path d="M180.82 46.61L201.69 10.49" stroke="#330000" stroke-width="1.4" stroke-miterlimit="10"/>
<path d="M146.189 36.12V0" stroke="#330000" stroke-width="1.4" stroke-miterlimit="10"/>
<path d="M111.559 46.61L90.6895 10.49" stroke="#330000" stroke-width="1.4" stroke-miterlimit="10"/>
<path d="M86.2398 71.9601L38.8398 44.6101" stroke="#330000" stroke-width="1.4" stroke-miterlimit="10"/>
<path d="M69.5398 106.54H1.50977" stroke="#330000" stroke-width="1.4" stroke-miterlimit="10"/>
<path d="M115.391 200.92L182.551 449.94H288.661L233.081 245.26C224.661 214.32 228.871 181.31 244.791 153.48C248.221 147.48 246.141 139.84 240.141 136.41C234.141 132.98 226.501 135.06 223.071 141.06L201.841 178.16" fill="#F55D56"/>
<path d="M162.061 79.62C160.241 72.95 164.181 66.08 170.851 64.26C177.521 62.44 184.391 66.38 186.211 73.05L214.831 177.98L165.001 198.88" fill="#F55D56"/>
<path d="M160.37 164.09L173.32 117.55C175.16 110.89 181.95 107.01 188.61 108.85C195.27 110.69 199.18 117.58 197.34 124.24L145.01 314.28L107.65 449.97L0.929688 449.95L59.5497 247.08C68.0897 216.18 63.9997 183.14 48.1897 155.25C44.7797 149.24 46.8897 141.6 52.8997 138.19C58.9097 134.78 66.5497 136.89 69.9597 142.9L82.3197 164.69" fill="#FFB041"/>
<path d="M108.729 166.73L131.199 81.72C133.039 75.06 129.129 68.17 122.469 66.33C115.809 64.49 108.919 68.4 107.079 75.06L77.0488 183.74" fill="#FFB041"/>
<path d="M130.17 187.63L158.57 76.6399C160.41 69.9799 156.5 63.0899 149.84 61.2499C143.18 59.4099 136.29 63.3199 134.45 69.9799L86.2305 195.67" fill="#FFB041"/>
<path d="M160.709 186.56L180.209 92.2798C182.049 85.6198 178.139 78.7298 171.479 76.8898C164.819 75.0498 157.929 78.9598 156.089 85.6198L123.199 180.67" fill="#FFB041"/>
<path d="M145.77 314.48L182.55 449.94H288.66L233.08 245.26C224.66 214.32 228.87 181.31 244.79 153.48C248.22 147.48 246.14 139.84 240.14 136.41C234.14 132.98 226.5 135.06 223.07 141.06L201.84 178.16" stroke="#330000" stroke-width="1.4" stroke-miterlimit="10"/>
<path d="M162.619 78.4C160.799 71.73 164.179 66.08 170.839 64.27C177.509 62.45 184.379 66.39 186.199 73.06L210.729 163.16" stroke="#330000" stroke-width="1.4" stroke-miterlimit="10"/>
<path d="M160.37 164.09L173.22 117.58C175.06 110.92 181.95 107.01 188.61 108.85C195.27 110.69 199.18 117.58 197.34 124.24L145.01 314.28L107.65 449.97L0.929688 449.95L59.5497 247.08C68.0897 216.18 63.9997 183.14 48.1897 155.25C44.7797 149.24 46.8897 141.6 52.8997 138.19C58.9097 134.78 66.5497 136.89 69.9597 142.9L82.3197 164.69" stroke="#330000" stroke-width="1.4" stroke-miterlimit="10"/>
<path d="M112.131 150.76L131.211 81.72C133.051 75.06 129.141 68.17 122.481 66.33C115.821 64.49 108.931 68.4 107.091 75.06L77.0605 183.74" stroke="#330000" stroke-width="1.4" stroke-miterlimit="10"/>
<path d="M136.249 157.43L158.569 76.6499C160.409 69.9899 156.499 63.0999 149.839 61.2599C143.179 59.4199 136.289 63.3299 134.449 69.9899L112.129 150.77" stroke="#330000" stroke-width="1.4" stroke-miterlimit="10"/>
<path d="M160.37 164.09L180.21 92.27C182.05 85.61 178.14 78.72 171.48 76.88C164.82 75.04 157.93 78.95 156.09 85.61L136.25 157.43" stroke="#330000" stroke-width="1.4" stroke-miterlimit="10"/>
</g>
<defs>
<clipPath id="clip0_392_29660">
<rect width="290.87" height="450.67" fill="white"/>
</clipPath>
</defs>
</svg>
