<?xml version="1.0" standalone="no"?>
<!DOCTYPE svg PUBLIC "-//W3C//DTD SVG 1.0//EN" "http://www.w3.org/TR/2001/REC-SVG-20010904/DTD/svg10.dtd">
<svg xmlns="http://www.w3.org/2000/svg" xmlns:xlink="http://www.w3.org/1999/xlink" id="body_1" width="100" height="100">

<g transform="matrix(2 0 0 2 0 0)">
    <path d="M27.4533 45.0604C 26.045 40.9385 22.9413 37.5058 18.823101 35.515697C 14.704903 33.525597 9.908571 33.140396 5.4863214 34.444798L5.4863214 34.444798L5.2956014 33.884796C 9.713991 32.571396 13.393202 29.676395 15.525501 25.835297C 17.657902 21.994196 18.069101 17.520798 16.669 13.397197L16.669 13.397197L17.269402 13.219296C 18.679602 17.340597 21.785002 20.771896 25.904102 22.760296C 30.023302 24.748695 34.8198 25.131796 39.2414 23.825695L39.2414 23.825695L39.4322 24.385695C 35.013 25.701294 31.333502 28.597794 29.2005 32.440094C 27.0675 36.282394 26.6551 40.756996 28.0537 44.882492L28.0537 44.882492L27.4533 45.0604z" stroke="none" fill="#99FF33" fill-rule="nonzero" />
    <path d="M16.9994 13.2994C 17.7076 15.3786 18.848 17.3073 20.3554 18.9752C 21.8629 20.6432 23.707901 22.017801 25.785 23.0205C 27.8622 24.023201 30.1308 24.6344 32.4613 24.819C 34.7917 25.0037 37.138298 24.7583 39.367 24.0968C 34.864502 25.431099 31.1147 28.379 28.942402 32.292C 26.770102 36.2051 26.353302 40.7629 27.783703 44.9626C 27.076603 42.8832 25.937103 40.954002 24.430403 39.2854C 22.923702 37.6168 21.079403 36.2415 19.002703 35.2379C 16.926003 34.234398 14.657703 33.6223 12.327402 33.4366C 9.997012 33.251 7.650272 33.4954 5.421222 34.1559C 9.921722 32.8223 13.669903 29.875698 15.841202 25.9644C 18.012602 22.053 18.429201 17.4973 16.999401 13.299399L16.999401 13.299399L16.9994 13.2994zM17.5998 13.1215L16.399 13.4774C 17.776001 17.5267 17.3731 21.9203 15.2789 25.692799C 13.1847 29.465199 9.57051 32.3078 5.2304897 33.595898L5.2304897 33.595898L5.6119795 34.715996C 9.954599 33.435295 14.664499 33.813496 18.7085 35.767796C 22.7525 37.722095 25.8003 41.092896 27.1833 45.140594L27.1833 45.140594L28.3841 44.784695C 27.0043 40.733494 27.4064 36.336994 29.5018 32.562294C 31.597301 28.787594 35.2145 25.943893 39.5578 24.656895L39.5578 24.656895L39.1763 23.536894C 34.8343 24.819393 30.124199 24.443094 26.0792 22.490593C 22.034302 20.537992 18.9848 17.168592 17.5998 13.121493z" stroke="none" fill="#7B0C00" fill-rule="nonzero" />
    <path d="M43.7547 46.1013C 43.2465 44.6138 42.1265 43.3751 40.6404 42.6569C 39.1542 41.938698 37.4234 41.799797 35.8275 42.270397L35.8275 42.270397L35.758698 42.068398C 37.353096 41.5944 38.680897 40.549698 39.450397 39.163597C 40.2199 37.777397 40.3682 36.163097 39.863 34.674995L39.863 34.674995L40.0797 34.610794C 40.5886 36.098095 41.7092 37.336296 43.1957 38.053894C 44.6822 38.771393 46.4131 38.909695 48.0087 38.438293L48.0087 38.438293L48.077503 38.640392C 46.482803 39.115192 45.155003 40.160492 44.385204 41.546993C 43.615505 42.933594 43.466705 44.548294 43.971405 46.037094L43.971405 46.037094L43.7547 46.1013z" stroke="none" fill="#FFCC66" fill-rule="nonzero" />
    <path d="M39.9821 34.6397C 40.237602 35.390003 40.6491 36.086002 41.1931 36.688004C 41.7371 37.2899 42.4029 37.785904 43.1525 38.147804C 43.9021 38.509605 44.7208 38.730206 45.561802 38.796803C 46.4028 38.863503 47.249603 38.774902 48.0539 38.5362C 46.429 39.0177 45.0758 40.0815 44.2919 41.493603C 43.508 42.905704 43.3576 44.550503 43.873802 46.066C 43.618603 45.3156 43.2074 44.6194 42.663704 44.017303C 42.120007 43.415207 41.454403 42.918804 40.705006 42.5567C 39.955605 42.1945 39.137005 41.973602 38.296005 41.9066C 37.455105 41.8396 36.608204 41.927902 35.803806 42.166203C 37.427906 41.685 38.780506 40.6216 39.564106 39.210102C 40.347706 37.798603 40.498005 36.154602 39.982105 34.6397L39.982105 34.6397L39.9821 34.6397zM40.1987 34.5755L39.7654 34.7039C 40.2623 36.1652 40.1169 37.7508 39.3612 39.1121C 38.6054 40.4735 37.301197 41.4993 35.734997 41.9641L35.734997 41.9641L35.872696 42.3683C 37.439796 41.9062 39.139496 42.0427 40.598797 42.747902C 42.058197 43.453102 43.157997 44.6696 43.657097 46.130203L43.657097 46.130203L44.090496 46.001804C 43.592495 44.539906 43.737595 42.953304 44.493797 41.591103C 45.249996 40.229004 46.555298 39.202805 48.122696 38.738304L48.122696 38.738304L47.984997 38.334103C 46.4181 38.797 44.718395 38.6612 43.258698 37.9565C 41.798996 37.2519 40.698498 36.036 40.198696 34.5755z" stroke="none" fill="#660000" fill-rule="nonzero" />
    <path d="M34.0838 13.2771C 33.5756 11.789599 32.4556 10.5508995 30.969501 9.8327C 29.483301 9.11453 27.752502 8.97554 26.1566 9.44623L26.1566 9.44623L26.087801 9.24415C 27.682201 8.77019 29.01 7.72548 29.779501 6.33934C 30.549002 4.9532104 30.697302 3.3388903 30.1921 1.85079L30.1921 1.85079L30.4088 1.78659C 30.9177 3.27385 32.0383 4.51212 33.5248 5.22967C 35.0113 5.9472203 36.7422 6.08547 38.3378 5.61412L38.3378 5.61412L38.4066 5.8162C 36.8119 6.29097 35.4841 7.33624 34.7144 8.72282C 33.944603 10.1094 33.795803 11.7241 34.300503 13.2129L34.300503 13.2129L34.0838 13.2771z" stroke="none" fill="#FFCC66" fill-rule="nonzero" />
    <path d="M30.3112 1.81552C 30.5667 2.56582 30.978199 3.26182 31.5222 3.86373C 32.0662 4.46565 32.732 4.9617 33.481598 5.3235397C 34.231197 5.6853795 35.049896 5.9059396 35.8909 5.9725895C 36.731903 6.0392394 37.5787 5.9506693 38.383 5.7119694C 36.7581 6.1934495 35.4049 7.2572594 34.621 8.66937C 33.837097 10.0815 33.6867 11.726299 34.2029 13.2418C 33.9477 12.491401 33.5365 11.7952 32.9928 11.1931C 32.4491 10.5909 31.7835 10.0946 31.034101 9.7324505C 30.284702 9.370301 29.4661 9.149421 28.625202 9.08242C 27.784203 9.01543 26.937302 9.10363 26.132902 9.342C 27.757002 8.86073 29.109602 7.7974 29.893202 6.38591C 30.676802 4.97442 30.827103 3.3304 30.311201 1.8155198L30.311201 1.8155198L30.3112 1.81552zM30.5278 1.7513101L30.0945 1.8797201C 30.5914 3.34101 30.446 4.92654 29.6903 6.2879004C 28.9345 7.6492505 27.6303 8.67508 26.0641 9.13992L26.0641 9.13992L26.2018 9.54411C 27.7689 9.081941 29.4686 9.21844 30.927898 9.92368C 32.3873 10.628901 33.4871 11.845301 33.9862 13.306L33.9862 13.306L34.419598 13.1776C 33.921597 11.7157 34.066696 10.1291 34.8229 8.766911C 35.579098 7.4047403 36.8844 6.3785405 38.451797 5.9140906L38.451797 5.9140906L38.3141 5.5098906C 36.7472 5.9727306 35.047497 5.8369308 33.5878 5.1323104C 32.1281 4.42769 31.0276 3.2117805 30.5278 1.7513103z" stroke="none" fill="#660000" fill-rule="nonzero" />
</g>
</svg>