<svg fill="none" height="50" viewBox="0 0 50 50" width="50" xmlns="http://www.w3.org/2000/svg"><path d="m27.4533 45.0604c-1.4083-4.1219-4.512-7.5546-8.6302-9.5447s-8.91453-2.3753-13.33678-1.0709l-.19072-.56c4.41839-1.3134 8.0976-4.2084 10.2299-8.0495 2.1324-3.8411 2.5436-8.3145 1.1435-12.4381l.6004-.1779c1.4102 4.1213 4.5156 7.5526 8.6347 9.541 4.1192 1.9884 8.9157 2.3715 13.3373 1.0654l.1908.56c-4.4192 1.3156-8.0987 4.2121-10.2317 8.0544s-2.5454 8.3169-1.1468 12.4424z" fill="#9f3"/><path d="m16.9994 13.2994c.7082 2.0792 1.8486 4.0079 3.356 5.6758 1.5075 1.668 3.3525 3.0426 5.4296 4.0453 2.0772 1.0027 4.3458 1.6139 6.6763 1.7985 2.3304.1847 4.677-.0607 6.9057-.7222-4.5025 1.3343-8.2523 4.2822-10.4246 8.1952-2.1723 3.9131-2.5891 8.4709-1.1587 12.6706-.7071-2.0794-1.8466-4.0086-3.3533-5.6772s-3.351-3.0439-5.4277-4.0475c-2.0767-1.0035-4.345-1.6156-6.6753-1.8013-2.33039-.1856-4.67713.0588-6.90618.7193 4.5005-1.3336 8.24868-4.2802 10.41998-8.1915 2.1714-3.9114 2.588-8.4671 1.1582-12.665zm.6004-.1779-1.2008.3559c1.377 4.0493.9741 8.4429-1.1201 12.2154-2.0942 3.7724-5.70839 6.615-10.04841 7.9031l.38149 1.1201c4.34262-1.2807 9.05252-.9025 13.09652 1.0518s7.0918 5.3251 8.4748 9.3728l1.2008-.3559c-1.3798-4.0512-.9777-8.4477 1.1177-12.2224 2.0955-3.7747 5.7127-6.6184 10.056-7.9054l-.3815-1.12c-4.342 1.2825-9.0521.9062-13.0971-1.0463-4.0449-1.9526-7.0944-5.322-8.4794-9.3691z" fill="#7b0c00"/><path d="m43.7547 46.1013c-.5082-1.4875-1.6282-2.7262-3.1143-3.4444-1.4862-.7182-3.217-.8571-4.8129-.3865l-.0688-.202c1.5944-.474 2.9222-1.5187 3.6917-2.9048.7695-1.3862.9178-3.0005.4126-4.4886l.2167-.0642c.5089 1.4873 1.6295 2.7255 3.116 3.4431 1.4865.7175 3.2174.8558 4.813.3844l.0688.2021c-1.5947.4748-2.9225 1.5201-3.6923 2.9066-.7697 1.3866-.9185 3.0013-.4138 4.4901z" fill="#fc6"/><path d="m39.9821 34.6397c.2555.7503.667 1.4463 1.211 2.0483.544.6019 1.2098 1.0979 1.9594 1.4598.7496.3618 1.5683.5824 2.4093.649.841.0667 1.6878-.0219 2.4921-.2606-1.6249.4815-2.9781 1.5453-3.762 2.9574s-.9343 3.0569-.4181 4.5724c-.2552-.7504-.6664-1.4466-1.2101-2.0487s-1.2093-1.0985-1.9587-1.4606c-.7494-.3622-1.568-.5831-2.409-.6501-.8409-.067-1.6878.0213-2.4922.2596 1.6241-.4812 2.9767-1.5446 3.7603-2.9561s.9339-3.0555.418-4.5704zm.2166-.0642-.4333.1284c.4969 1.4613.3515 3.0469-.4042 4.4082-.7558 1.3614-2.06 2.3872-3.6262 2.852l.1377.4042c1.5671-.4621 3.2668-.3256 4.7261.3796 1.4594.7052 2.5592 1.9217 3.0583 3.3823l.4334-.1284c-.498-1.4619-.3529-3.0485.4033-4.4107.7562-1.3621 2.0615-2.3883 3.6289-2.8528l-.1377-.4042c-1.5669.4629-3.2666.3271-4.7263-.3776-1.4597-.7046-2.5602-1.9205-3.06-3.381z" fill="#600"/><path d="m34.0838 13.2771c-.5082-1.4875-1.6282-2.7262-3.1143-3.4444-1.4862-.71817-3.217-.85716-4.8129-.38647l-.0688-.20208c1.5944-.47396 2.9222-1.51867 3.6917-2.90481.7695-1.38613.9178-3.00045.4126-4.48855l.2167-.0642c.5089 1.48726 1.6295 2.72553 3.116 3.44308s3.2174.8558 4.813.38445l.0688.20208c-1.5947.47477-2.9225 1.52004-3.6922 2.90662-.7698 1.38658-.9186 3.00128-.4139 4.49008z" fill="#fc6"/><path d="m30.3112 1.81552c.2555.7503.667 1.4463 1.211 2.04821.544.60192 1.2098 1.09797 1.9594 1.45981s1.5683.5824 2.4093.64905 1.6878-.02192 2.4921-.26062c-1.6249.48148-2.9781 1.54529-3.762 2.9574-.7839 1.41213-.9343 3.05693-.4181 4.57243-.2552-.7504-.6664-1.4466-1.2101-2.0487-.5437-.6022-1.2093-1.0985-1.9587-1.46065s-1.568-.58303-2.4089-.65003c-.841-.06699-1.6879.02121-2.4923.25958 1.6241-.48127 2.9767-1.5446 3.7603-2.95609s.9339-3.05551.418-4.57039zm.2166-.06421-.4333.12841c.4969 1.46129.3515 3.04682-.4042 4.40818-.7558 1.36135-2.06 2.38718-3.6262 2.85202l.1377.40419c1.5671-.46217 3.2668-.32567 4.7261.37957 1.4594.70522 2.5592 1.92162 3.0583 3.38232l.4334-.1284c-.498-1.4619-.3529-3.0485.4033-4.41069.7562-1.36217 2.0615-2.38837 3.6289-2.85282l-.1377-.4042c-1.5669.46284-3.2666.32704-4.7263-.37758s-2.5602-1.92053-3.06-3.381z" fill="#600"/></svg>