<svg width="275" height="133" viewBox="0 0 275 133" fill="none" xmlns="http://www.w3.org/2000/svg">
<g clip-path="url(#clip0_392_29016)">
<path d="M17.7592 0.699951H256.569C265.989 0.699951 273.629 8.33995 273.629 17.76V131.86H0.699219V17.76C0.699219 8.33995 8.33922 0.699951 17.7592 0.699951Z" fill="#F55D56"/>
<path d="M90.269 9.29993H18.389C16.9089 9.29993 15.709 10.4998 15.709 11.9799V32.1699C15.709 33.65 16.9089 34.8499 18.389 34.8499H90.269C91.7491 34.8499 92.949 33.65 92.949 32.1699V11.9799C92.949 10.4998 91.7491 9.29993 90.269 9.29993Z" fill="#00C5CE"/>
<path d="M252.769 9.83997H180.689V17.5H252.769V9.83997Z" fill="#00C5CE"/>
<path d="M252.769 28.5699H180.689V36.2299H252.769V28.5699Z" fill="#0D71BA"/>
<path d="M120.129 28.1C124.917 28.1 128.799 24.2183 128.799 19.43C128.799 14.6417 124.917 10.76 120.129 10.76C115.341 10.76 111.459 14.6417 111.459 19.43C111.459 24.2183 115.341 28.1 120.129 28.1Z" fill="#AF97F7"/>
<path d="M120.129 28.1C115.339 28.1 111.459 24.22 111.459 19.43C111.459 14.64 115.339 10.76 120.129 10.76" fill="#0D71BA"/>
<path d="M152.67 28.1C157.458 28.1 161.34 24.2183 161.34 19.43C161.34 14.6417 157.458 10.76 152.67 10.76C147.882 10.76 144 14.6417 144 19.43C144 24.2183 147.882 28.1 152.67 28.1Z" fill="#AF97F7"/>
<path d="M152.67 28.1C147.88 28.1 144 24.22 144 19.43C144 14.64 147.88 10.76 152.67 10.76" fill="#0D71BA"/>
<path d="M24.069 48.75H250.789C255.399 48.75 259.149 52.5 259.149 57.11V131.87H15.709V57.11C15.709 52.5 19.459 48.75 24.069 48.75Z" fill="#FFF0E0"/>
<path d="M17.7592 0.699951H257.169C266.589 0.699951 274.229 8.33995 274.229 17.76V131.86H0.699219V17.76C0.699219 8.33995 8.33922 0.699951 17.7592 0.699951Z" stroke="#330000" stroke-width="1.4" stroke-miterlimit="10"/>
<path d="M24.069 48.7499H251.149C255.759 48.7499 259.509 52.4999 259.509 57.1099V131.87H15.709V57.1099C15.709 52.4999 19.459 48.7499 24.069 48.7499Z" stroke="#330000" stroke-width="1.4" stroke-miterlimit="10"/>
<path d="M40.0996 131.86V48.7499" stroke="#330000" stroke-width="1.4" stroke-miterlimit="10"/>
<path d="M64.4902 131.86V48.7499" stroke="#330000" stroke-width="1.4" stroke-miterlimit="10"/>
<path d="M88.8789 131.86V48.7499" stroke="#330000" stroke-width="1.4" stroke-miterlimit="10"/>
<path d="M113.27 131.86V48.7499" stroke="#330000" stroke-width="1.4" stroke-miterlimit="10"/>
<path d="M137.66 131.86V48.7499" stroke="#330000" stroke-width="1.4" stroke-miterlimit="10"/>
<path d="M162.061 131.86V48.7499" stroke="#330000" stroke-width="1.4" stroke-miterlimit="10"/>
<path d="M161.949 131.86V48.7499" stroke="#330000" stroke-width="1.4" stroke-miterlimit="10"/>
<path d="M186.34 131.86V48.7499" stroke="#330000" stroke-width="1.4" stroke-miterlimit="10"/>
<path d="M210.73 131.86V48.7499" stroke="#330000" stroke-width="1.4" stroke-miterlimit="10"/>
<path d="M235.119 131.86V48.7499" stroke="#330000" stroke-width="1.4" stroke-miterlimit="10"/>
<path d="M210.629 131.86V48.7499" stroke="#330000" stroke-width="1.4" stroke-miterlimit="10"/>
<path d="M34.2598 47.9299H45.9398V86.9799C45.9398 89.2299 44.1098 91.0599 41.8598 91.0599H38.3398C36.0898 91.0599 34.2598 89.2299 34.2598 86.9799V47.9299Z" fill="#3C1E4C"/>
<path d="M58.748 47.9299H70.428V86.9799C70.428 89.2299 68.598 91.0599 66.348 91.0599H62.828C60.578 91.0599 58.748 89.2299 58.748 86.9799V47.9299Z" fill="#3C1E4C"/>
<path d="M107.738 47.9299H119.418V86.9799C119.418 89.2299 117.588 91.0599 115.338 91.0599H111.818C109.568 91.0599 107.738 89.2299 107.738 86.9799V47.9299Z" fill="#3C1E4C"/>
<path d="M132.02 47.9299H143.7V86.9799C143.7 89.2299 141.87 91.0599 139.62 91.0599H136.1C133.85 91.0599 132.02 89.2299 132.02 86.9799V47.9299Z" fill="#3C1E4C"/>
<path d="M156.809 47.9299H168.489V86.9799C168.489 89.2299 166.659 91.0599 164.409 91.0599H160.889C158.639 91.0599 156.809 89.2299 156.809 86.9799V47.9299Z" fill="#3C1E4C"/>
<path d="M204.779 47.9299H216.459V86.9799C216.459 89.2299 214.629 91.0599 212.379 91.0599H208.859C206.609 91.0599 204.779 89.2299 204.779 86.9799V47.9299Z" fill="#3C1E4C"/>
<path d="M229.559 47.9299H241.239V86.9799C241.239 89.2299 239.409 91.0599 237.159 91.0599H233.639C231.389 91.0599 229.559 89.2299 229.559 86.9799V47.9299Z" fill="#3C1E4C"/>
<path d="M90.269 9.29993H18.389C16.9089 9.29993 15.709 10.4998 15.709 11.9799V32.1699C15.709 33.65 16.9089 34.8499 18.389 34.8499H90.269C91.7491 34.8499 92.949 33.65 92.949 32.1699V11.9799C92.949 10.4998 91.7491 9.29993 90.269 9.29993Z" stroke="#330000" stroke-width="1.4" stroke-miterlimit="10"/>
<path d="M252.769 9.83997H180.689V17.5H252.769V9.83997Z" stroke="#330000" stroke-width="1.4" stroke-miterlimit="10"/>
<path d="M252.769 28.5699H180.689V36.2299H252.769V28.5699Z" stroke="#330000" stroke-width="1.4" stroke-miterlimit="10"/>
<path d="M120.129 28.1C124.917 28.1 128.799 24.2183 128.799 19.43C128.799 14.6417 124.917 10.76 120.129 10.76C115.341 10.76 111.459 14.6417 111.459 19.43C111.459 24.2183 115.341 28.1 120.129 28.1Z" stroke="#330000" stroke-width="1.4" stroke-miterlimit="10"/>
<path d="M152.67 28.1C157.458 28.1 161.34 24.2183 161.34 19.43C161.34 14.6417 157.458 10.76 152.67 10.76C147.882 10.76 144 14.6417 144 19.43C144 24.2183 147.882 28.1 152.67 28.1Z" stroke="#330000" stroke-width="1.4" stroke-miterlimit="10"/>
</g>
<defs>
<clipPath id="clip0_392_29016">
<rect width="274.93" height="132.56" fill="white"/>
</clipPath>
</defs>
</svg>
