<svg width="246" height="246" viewBox="0 0 246 246" fill="none" xmlns="http://www.w3.org/2000/svg">
<path d="M188.834 105.976L74.5688 75.3584L77.7549 20.7438L77.7811 20.7508C125.615 18.7398 172.962 31.4263 213.382 57.0849L188.834 105.976Z" fill="#0066CC"/>
<path d="M100.813 45.4465C97.8667 56.4422 86.5471 62.9665 75.4661 59.9974L74.5688 75.3581L188.869 105.844L195.737 92.2239C184.656 89.2548 178.141 77.9517 181.088 66.956C178.141 77.9517 166.769 84.462 155.682 81.4911C144.594 78.5202 138.001 67.1961 140.947 56.2004C138.001 67.1961 126.629 73.7064 115.541 70.7355C104.454 67.7646 97.8602 56.4404 100.806 45.4447L100.813 45.4465Z" fill="#FBF6EB"/>
<path d="M208.42 66.9219L213.153 57.0727C213.153 57.0727 190.558 41.3415 152.514 29.5805C114.472 17.8129 78.4307 21.5009 78.1302 21.1533C77.8298 20.8058 76.7338 31.2432 76.7338 31.2432C76.7338 31.2432 92.6551 25.9307 143.009 38.6711C186.854 49.7656 208.106 67.0978 208.106 67.0978" fill="#FF4D41"/>
<path d="M121.016 101.943C123.088 101.002 125.902 100.807 128.781 101.578C131.659 102.35 134.01 103.935 135.333 105.794" fill="#FF9933"/>
<path d="M80.748 201.661C91.121 211.967 106.221 216.013 120.351 212.273L80.748 201.661Z" fill="#FF9933"/>
<path d="M26.0579 139.431L74.0771 75.2266L188.368 105.851L198.253 187.587C198.253 187.587 128.475 212.089 112.697 213.3C96.9168 214.518 75.4659 200.865 71.1626 192.691" fill="#FF4D41"/>
<path d="M52.8395 148.821L87.9105 79.5939L148.537 95.382L174.73 102.091L171.468 170.206C171.468 170.206 134.928 209.011 119.471 212.41C106.305 215.305 94.1343 214.49 82.0256 201.456" fill="#FFCC33"/>
<path d="M50.7082 146.31C48.6438 142.763 44.0737 141.539 40.5124 143.578C36.055 146.13 34.5388 151.788 37.1234 156.226C40.3529 161.772 47.4867 163.684 53.0564 160.496C60.0192 156.514 62.3893 147.669 58.3498 140.74C53.3055 132.08 42.159 129.093 33.4603 134.071L33.4507 134.054C33.0937 134.233 32.7415 134.419 32.3923 134.621C20.45 141.449 18.3309 157.698 28.1112 167.41L72.6643 211.66L103.603 181.721C103.603 181.721 56.8355 139.336 57.3273 139.468" fill="#FF4D41"/>
<path d="M174.048 179.359C177.609 177.319 182.179 178.544 184.243 182.091C186.828 186.529 185.312 192.188 180.854 194.739C175.285 197.927 168.151 196.015 164.922 190.47C160.882 183.54 163.252 174.695 170.215 170.714C178.914 165.736 190.06 168.723 195.105 177.383L195.121 177.374C195.341 177.707 195.553 178.044 195.754 178.394C202.683 190.278 196.393 205.41 183.067 208.93L122.358 224.976L111.492 183.385L171.167 169.704" fill="#FF4D41"/>
<path d="M94.7962 89.9068L113.522 94.9245C119.319 96.4776 122.765 102.447 121.212 108.243L120.864 109.541C117.09 123.625 102.591 131.996 88.5071 128.222L84.7894 127.226C77.5573 125.288 73.2566 117.839 75.1945 110.607L78.1706 99.5001C80.1084 92.2679 87.5575 87.9672 94.7896 89.9051L94.7962 89.9068Z" fill="#0066CC"/>
<path d="M154.068 145.79L150.35 144.793C136.266 141.02 127.895 126.521 131.669 112.437L132.017 111.138C133.57 105.342 139.539 101.896 145.335 103.449L164.062 108.467C171.294 110.404 175.594 117.853 173.657 125.086L170.68 136.193C168.743 143.425 161.294 147.726 154.061 145.788L154.068 145.79Z" fill="#0066CC"/>
<path d="M121.017 101.943C123.089 101.002 125.903 100.807 128.781 101.578C131.66 102.349 134.011 103.935 135.333 105.793" stroke="#330000" stroke-width="1.4" stroke-miterlimit="10"/>
<path d="M188.834 105.975L74.5688 75.3581L77.7549 20.7435L77.7811 20.7506C125.615 18.7396 172.962 31.426 213.382 57.0847L188.834 105.975V105.975Z" stroke="#330000" stroke-width="1.4" stroke-miterlimit="10"/>
<path d="M76.7066 31.3696C124.539 29.3652 168.097 41.4231 208.511 67.08" stroke="#330000" stroke-width="1.4" stroke-miterlimit="10"/>
<path d="M100.813 45.4465C97.8667 56.4422 86.5471 62.9665 75.4661 59.9974L74.5688 75.3581L188.869 105.844L195.737 92.2239C184.656 89.2548 178.141 77.9517 181.088 66.956C178.141 77.9517 166.769 84.462 155.682 81.4911C144.594 78.5202 138.001 67.1961 140.947 56.2004C138.001 67.1961 126.629 73.7064 115.541 70.7355C104.454 67.7646 97.8602 56.4404 100.806 45.4447L100.813 45.4465Z" stroke="#330000" stroke-width="1.4" stroke-miterlimit="10"/>
<path d="M82.1255 202.185C91.4796 211.782 106.091 215.999 118.758 212.605" stroke="#330000" stroke-width="1.4" stroke-miterlimit="10"/>
<path d="M198.337 185.593L188.86 105.982L131.711 90.6692L74.5688 75.358L26.5496 139.562" stroke="#330000" stroke-width="1.4" stroke-miterlimit="10"/>
<path d="M104.083 135.319C110.012 145.503 123.086 149.006 133.32 143.153" stroke="#330000" stroke-width="1.4" stroke-miterlimit="10"/>
<path d="M50.7082 146.31C48.6438 142.763 44.0737 141.539 40.5124 143.578C36.055 146.129 34.5388 151.788 37.1234 156.226C40.3529 161.772 47.4867 163.683 53.0564 160.495C60.0192 156.514 62.3893 147.669 58.3498 140.74C53.3055 132.08 42.159 129.093 33.4603 134.071L33.4507 134.054C33.0937 134.232 32.7415 134.419 32.3923 134.621C20.45 141.449 18.3309 157.698 28.1112 167.41L72.6643 211.66L103.402 181.976" stroke="#330000" stroke-width="1.4" stroke-miterlimit="10"/>
<path d="M62.7921 201.059L92.2987 171.509" stroke="#330000" stroke-width="1.4" stroke-miterlimit="10"/>
<path d="M52.2154 191.121L81.722 161.57" stroke="#330000" stroke-width="1.4" stroke-miterlimit="10"/>
<path d="M41.6681 181.07L70.7422 151.875" stroke="#330000" stroke-width="1.4" stroke-miterlimit="10"/>
<path d="M174.048 179.359C177.609 177.319 182.179 178.544 184.243 182.091C186.828 186.529 185.312 192.187 180.854 194.739C175.285 197.927 168.151 196.015 164.922 190.469C160.882 183.54 163.252 174.695 170.215 170.714C178.914 165.736 190.06 168.723 195.105 177.383L195.121 177.373C195.341 177.706 195.553 178.044 195.754 178.393C202.683 190.278 196.393 205.41 183.067 208.93L122.358 224.975L111.454 183.529" stroke="#330000" stroke-width="1.4" stroke-miterlimit="10"/>
<path d="M136.201 220.729L125.43 180.386" stroke="#330000" stroke-width="1.4" stroke-miterlimit="10"/>
<path d="M150.337 217.412L139.559 177.068" stroke="#330000" stroke-width="1.4" stroke-miterlimit="10"/>
<path d="M164.496 213.982L153.718 173.637" stroke="#330000" stroke-width="1.4" stroke-miterlimit="10"/>
<path d="M139.004 164.979C130.172 162.612 123.064 152.106 113.835 157.384L113.822 157.381C108.469 148.195 97.06 153.74 88.228 151.373" stroke="#330000" stroke-width="1.4" stroke-miterlimit="10"/>
<path d="M99.2798 163.211L99.3126 163.219C106.583 167.662 114.982 169.913 123.501 169.701" stroke="#330000" stroke-width="1.4" stroke-miterlimit="10"/>
<path d="M88.3317 79.0458L57.9033 139.313" stroke="#330000" stroke-width="1.4" stroke-miterlimit="10"/>
<path d="M175.104 102.296L171.505 170.019" stroke="#330000" stroke-width="1.4" stroke-miterlimit="10"/>
<path d="M94.7962 89.9068L113.522 94.9245C119.319 96.4776 122.765 102.447 121.212 108.243L120.864 109.541C117.09 123.625 102.591 131.996 88.5071 128.222L84.7894 127.226C77.5573 125.288 73.2566 117.839 75.1944 110.607L78.1706 99.5001C80.1084 92.2679 87.5575 87.9672 94.7896 89.9051L94.7962 89.9068Z" stroke="#330000" stroke-width="1.4" stroke-miterlimit="10"/>
<path d="M154.068 145.79L150.35 144.793C136.266 141.02 127.895 126.521 131.669 112.437L132.017 111.138C133.57 105.342 139.539 101.896 145.335 103.449L164.062 108.467C171.294 110.404 175.594 117.854 173.657 125.086L170.68 136.193C168.743 143.425 161.294 147.726 154.061 145.788L154.068 145.79Z" stroke="#330000" stroke-width="1.4" stroke-miterlimit="10"/>
<path d="M79.1299 95.8147L121.474 107.161" stroke="#330000" stroke-width="1.4" stroke-miterlimit="10"/>
<path d="M76.6035 105.243L117.872 116.301" stroke="#330000" stroke-width="1.4" stroke-miterlimit="10"/>
<path d="M74.9988 114.982L110.382 124.4" stroke="#330000" stroke-width="1.4" stroke-miterlimit="10"/>
<path d="M174.682 121.418L132.338 110.072" stroke="#330000" stroke-width="1.4" stroke-miterlimit="10"/>
<path d="M172.156 130.846L130.973 119.811" stroke="#330000" stroke-width="1.4" stroke-miterlimit="10"/>
<path d="M169.039 140.117L133.324 130.547" stroke="#330000" stroke-width="1.4" stroke-miterlimit="10"/>
</svg>
