<svg width="216" height="256" viewBox="0 0 216 256" fill="none" xmlns="http://www.w3.org/2000/svg">
<g clip-path="url(#clip0_392_28401)">
<path d="M215.249 115.31C215.249 180.99 167.219 234.23 107.969 234.23C48.7192 234.23 0.699219 180.99 0.699219 115.31C0.699219 64.73 29.5092 22.26 69.3492 4.33001C94.7192 -7.07999 107.969 13.36 107.969 13.36C107.969 13.36 120.609 -6.90999 145.439 3.85001C185.919 21.39 215.249 64.25 215.249 115.31Z" fill="#FFE816"/>
<path d="M107.979 194.79C159.761 194.79 201.739 158.785 201.739 114.37C201.739 69.9553 159.761 33.95 107.979 33.95C56.1965 33.95 14.2188 69.9553 14.2188 114.37C14.2188 158.785 56.1965 194.79 107.979 194.79Z" fill="#0D71BA"/>
<mask id="mask0_392_28401" style="mask-type:alpha" maskUnits="userSpaceOnUse" x="14" y="33" width="188" height="162">
<path d="M107.979 194.79C159.761 194.79 201.739 158.785 201.739 114.37C201.739 69.9553 159.761 33.95 107.979 33.95C56.1965 33.95 14.2188 69.9553 14.2188 114.37C14.2188 158.785 56.1965 194.79 107.979 194.79Z" fill="#0D71BA"/>
</mask>
<g mask="url(#mask0_392_28401)">
<path d="M60.1682 21.44H46.9182C43.3228 21.44 40.4082 24.3546 40.4082 27.95V54.34C40.4082 57.9354 43.3228 60.85 46.9182 60.85H60.1682C63.7636 60.85 66.6782 57.9354 66.6782 54.34V27.95C66.6782 24.3546 63.7636 21.44 60.1682 21.44Z" fill="#FFF0E0"/>
<path d="M86.7678 21.44H73.5178C69.9224 21.44 67.0078 24.3546 67.0078 27.95V54.34C67.0078 57.9354 69.9224 60.85 73.5178 60.85H86.7678C90.3632 60.85 93.2778 57.9354 93.2778 54.34V27.95C93.2778 24.3546 90.3632 21.44 86.7678 21.44Z" fill="#FFF0E0"/>
<path d="M113.379 21.44H100.129C96.5338 21.44 93.6191 24.3546 93.6191 27.95V54.34C93.6191 57.9354 96.5338 60.85 100.129 60.85H113.379C116.975 60.85 119.889 57.9354 119.889 54.34V27.95C119.889 24.3546 116.975 21.44 113.379 21.44Z" fill="#FFF0E0"/>
<path d="M139.979 21.44H126.729C123.133 21.44 120.219 24.3546 120.219 27.95V54.34C120.219 57.9354 123.133 60.85 126.729 60.85H139.979C143.574 60.85 146.489 57.9354 146.489 54.34V27.95C146.489 24.3546 143.574 21.44 139.979 21.44Z" fill="#FFF0E0"/>
<path d="M166.578 21.44H153.328C149.733 21.44 146.818 24.3546 146.818 27.95V54.34C146.818 57.9354 149.733 60.85 153.328 60.85H166.578C170.174 60.85 173.088 57.9354 173.088 54.34V27.95C173.088 24.3546 170.174 21.44 166.578 21.44Z" fill="#FFF0E0"/>
</g>
<path d="M107.98 131.85H107.97C85.1057 131.85 66.5703 150.385 66.5703 173.25V213.06C66.5703 235.925 85.1057 254.46 107.97 254.46H107.98C130.845 254.46 149.38 235.925 149.38 213.06V173.25C149.38 150.385 130.845 131.85 107.98 131.85Z" fill="#AF97F7"/>
<path d="M107.98 131.85C79.5895 131.85 55.3095 149.35 45.2695 174.14C61.8795 186.97 83.8695 194.79 107.98 194.79C132.09 194.79 154.08 186.97 170.69 174.14C160.64 149.35 136.37 131.85 107.98 131.85Z" fill="#AF97F7"/>
<path d="M14.38 114.06H0.75" stroke="#330000" stroke-width="1.4" stroke-miterlimit="10"/>
<path d="M215.2 114.06H201.57" stroke="#330000" stroke-width="1.4" stroke-miterlimit="10"/>
<path d="M45.3301 173.88C55.4401 149.22 79.6801 131.85 107.98 131.85C136.28 131.85 160.07 148.89 170.34 173.19L170.69 174.15" stroke="#330000" stroke-width="1.4" stroke-miterlimit="10"/>
<path d="M107.98 132.59V227.9" stroke="#330000" stroke-width="1.4" stroke-miterlimit="10" stroke-linecap="round"/>
<path d="M201.731 114.37C201.731 69.95 159.751 33.95 107.971 33.95C56.1907 33.95 14.2207 69.95 14.2207 114.37C14.2207 146.04 35.5607 173.43 66.5707 186.54V213.05C66.5707 235.92 85.1107 254.45 107.981 254.45C130.851 254.45 149.381 235.91 149.381 213.05V187.35L149.331 186.56C180.371 173.45 201.731 146.05 201.731 114.37V114.37Z" stroke="#330000" stroke-width="1.4" stroke-miterlimit="10"/>
<path d="M66.6905 42.78V54.34C66.6905 57.94 63.7705 60.85 60.1805 60.85H46.9305C44.7005 60.85 42.7305 59.73 41.5605 58.02" stroke="#330000" stroke-width="1.4" stroke-miterlimit="10"/>
<path d="M93.2915 35.52V54.34C93.2915 57.94 90.3715 60.85 86.7815 60.85H73.5315C69.9315 60.85 67.0215 57.93 67.0215 54.34V42.5" stroke="#330000" stroke-width="1.4" stroke-miterlimit="10"/>
<path d="M119.891 35.24V54.34C119.891 57.94 116.971 60.85 113.381 60.85H100.131C96.5311 60.85 93.6211 57.93 93.6211 54.34V35.24" stroke="#330000" stroke-width="1.4" stroke-miterlimit="10"/>
<path d="M146.491 41.38V54.34C146.491 57.94 143.571 60.85 139.981 60.85H126.731C123.131 60.85 120.221 57.93 120.221 54.34V35.52" stroke="#330000" stroke-width="1.4" stroke-miterlimit="10"/>
<path d="M172.59 56.87C171.6 59.21 169.29 60.85 166.59 60.85H153.34C149.74 60.85 146.83 57.93 146.83 54.34V41.66" stroke="#330000" stroke-width="1.4" stroke-miterlimit="10"/>
<path d="M68.0792 225.74C28.5892 208.19 0.699219 165.36 0.699219 115.31C0.699219 65.26 29.5092 22.26 69.3492 4.33001C94.7192 -7.07999 107.969 13.36 107.969 13.36C107.969 13.36 120.609 -6.90999 145.439 3.85001C185.919 21.39 215.249 64.25 215.249 115.31C215.249 166.37 187.279 208.3 147.709 225.81" stroke="#330000" stroke-width="1.4" stroke-miterlimit="10"/>
</g>
<defs>
<clipPath id="clip0_392_28401">
<rect width="215.95" height="255.16" fill="white"/>
</clipPath>
</defs>
</svg>
