<svg width="255" height="430" viewBox="0 0 255 430" fill="none" xmlns="http://www.w3.org/2000/svg">
<g clip-path="url(#clip0_3_2)">
<path d="M80.43 44.63C92.2649 44.63 103.615 49.3307 111.985 57.6983C120.354 66.0659 125.057 77.4151 125.06 89.25C125.06 77.416 129.761 66.0668 138.129 57.6989C146.497 49.331 157.846 44.63 169.68 44.63V44.63C157.845 44.6273 146.496 39.9241 138.128 31.5546C129.761 23.1852 125.06 11.8349 125.06 0C125.06 11.8366 120.358 23.1884 111.988 31.5582C103.618 39.9279 92.2666 44.63 80.43 44.63V44.63Z" fill="#00CCCC" stroke="#2D143B" stroke-width="1.4" stroke-miterlimit="10"/>
<path d="M198.32 218.15C202.018 218.15 205.679 218.878 209.095 220.294C212.511 221.709 215.614 223.783 218.229 226.398C220.843 229.014 222.916 232.118 224.33 235.534C225.744 238.951 226.471 242.612 226.47 246.31C226.47 238.843 229.435 231.682 234.714 226.401C239.993 221.121 247.153 218.153 254.62 218.15V218.15C247.154 218.15 239.994 215.184 234.715 209.905C229.436 204.626 226.47 197.466 226.47 190C226.47 197.466 223.504 204.626 218.225 209.905C212.946 215.184 205.786 218.15 198.32 218.15V218.15Z" fill="#99FF33" stroke="#2D143B" stroke-width="1.4" stroke-miterlimit="10"/>
<path d="M0 240.69C7.46584 240.69 14.6259 243.656 19.9051 248.935C25.1842 254.214 28.15 261.374 28.15 268.84C28.15 265.142 28.8785 261.481 30.2937 258.065C31.709 254.649 33.7835 251.545 36.3985 248.931C39.0135 246.317 42.1179 244.244 45.5344 242.83C48.9509 241.416 52.6124 240.689 56.31 240.69V240.69C48.8432 240.69 41.6821 237.725 36.4014 232.446C31.1207 227.167 28.1527 220.007 28.15 212.54C28.15 216.237 27.4219 219.897 26.0072 223.313C24.5925 226.728 22.519 229.831 19.9051 232.445C17.2911 235.059 14.1879 237.133 10.7725 238.547C7.35722 239.962 3.69671 240.69 0 240.69H0Z" fill="#33CC00" stroke="#2D143B" stroke-width="1.4" stroke-miterlimit="10"/>
<path d="M138.63 227.38C134.32 193.26 139 156.69 152.33 122.38C166.657 85.3651 191.053 53.096 222.76 29.22C230.01 68.244 226.2 108.518 211.76 145.49C198.795 178.575 178.082 208.067 151.36 231.49" fill="#FBF6EB"/>
<path d="M138.63 227.38C134.32 193.26 139 156.69 152.33 122.38C166.657 85.3651 191.053 53.096 222.76 29.22C230.01 68.244 226.2 108.518 211.76 145.49C198.795 178.575 178.082 208.067 151.36 231.49" stroke="#2D143B" stroke-width="1.4" stroke-miterlimit="10"/>
<path d="M110.89 228C115.336 192.242 110.834 155.939 97.79 122.35C83.4544 85.3479 59.0596 53.0905 27.36 29.22C20.1099 68.244 23.9201 108.518 38.36 145.49C51.4777 179.293 72.8839 209.254 100.61 232.62" fill="#FBF6EB"/>
<path d="M110.89 228C115.336 192.242 110.834 155.939 97.79 122.35C83.4544 85.3479 59.0596 53.0905 27.36 29.22C20.1099 68.244 23.9201 108.518 38.36 145.49C51.4777 179.293 72.8839 209.254 100.61 232.62" stroke="#2D143B" stroke-width="1.4" stroke-miterlimit="10"/>
<path d="M208.53 65.81C173.998 102.716 155.016 151.51 155.53 202.05C172.645 183.776 186.098 162.39 195.16 139.05C204.261 115.717 208.8 90.8539 208.53 65.81Z" fill="#EF613B" stroke="#2D143B" stroke-width="1.4" stroke-miterlimit="10"/>
<path d="M54.92 139C63.978 162.342 77.4313 183.729 94.55 202C94.8218 176.962 90.2935 152.104 81.21 128.77C72.1473 105.43 58.6945 84.0445 41.58 65.77C41.3067 90.8081 45.8351 115.667 54.92 139V139Z" fill="#EF613B" stroke="#2D143B" stroke-width="1.4" stroke-miterlimit="10"/>
<path d="M203.32 428.34L183.32 273.57C180.46 255.5 169.4 239.57 153.07 231.28C145.946 227.695 138.155 225.628 130.19 225.209C122.225 224.791 114.261 226.031 106.8 228.85C87.34 236.23 73.8 254.1 71.04 274.72L50.36 428.34H203.32Z" fill="#FBF6EB" stroke="#2D143B" stroke-width="1.4" stroke-miterlimit="10"/>
<path d="M192.97 349.96H61.1L64.2 327.33H190.2L192.97 349.96Z" fill="#FFCC33" stroke="#2D143B" stroke-width="1.4" stroke-miterlimit="10"/>
</g>
<defs>
<clipPath id="clip0_3_2">
<rect width="255" height="430" fill="white"/>
</clipPath>
</defs>
</svg>
