<svg width="197" height="238" viewBox="0 0 197 238" fill="none" xmlns="http://www.w3.org/2000/svg">
<g clip-path="url(#clip0_392_27732)">
<path d="M31.5293 53.51H79.5693V50.07C79.5693 46.88 76.9793 44.29 73.7893 44.29H37.3093C34.1193 44.29 31.5293 46.88 31.5293 50.07V53.51Z" fill="white"/>
<path d="M74.9489 44.42V24.79C74.9489 23.89 74.2189 23.15 73.3089 23.15H37.7689C36.8689 23.15 36.1289 23.88 36.1289 24.79V44.42" fill="white"/>
<path d="M2.85938 79.59L3.17938 232.35C3.17938 234.64 5.03938 236.5 7.32938 236.5H100.319C102.609 236.5 104.469 234.64 104.469 232.35L104.149 79.59" fill="#00C5CE"/>
<path d="M104.479 232.35C104.479 234.64 102.609 236.5 100.309 236.5H6.86922C4.55922 236.5 2.69922 234.64 2.69922 232.35V227.4H104.349" fill="#0D71BA"/>
<path d="M69.3195 28.91C72.1095 28.91 74.3695 31.17 74.3695 33.96C74.3695 36.75 72.1095 39.01 69.3195 39.01C66.5295 39.01 64.2695 36.75 64.2695 33.96C64.2695 31.17 66.5295 28.91 69.3195 28.91Z" fill="#F88C5D"/>
<path d="M103.239 72.95H4.09922C2.22145 72.95 0.699219 74.4722 0.699219 76.35V76.36C0.699219 78.2378 2.22145 79.76 4.09922 79.76H103.239C105.117 79.76 106.639 78.2378 106.639 76.36V76.35C106.639 74.4722 105.117 72.95 103.239 72.95Z" fill="white"/>
<path d="M97.8096 79.93V131.93C97.8096 136.41 94.5296 140.42 90.0696 140.84C84.9496 141.33 80.6396 137.32 80.6396 132.3V103.26C80.6396 99.81 77.8496 97.02 74.3996 97.02H74.0096C70.5596 97.02 67.7696 99.81 67.7696 103.26C67.7696 107.74 64.4896 111.75 60.0296 112.17C54.9096 112.66 50.5996 108.64 50.5996 103.63V80.23" fill="#99FF33"/>
<path d="M34.73 118.53C39.4134 118.53 43.21 114.733 43.21 110.05C43.21 105.367 39.4134 101.57 34.73 101.57C30.0466 101.57 26.25 105.367 26.25 110.05C26.25 114.733 30.0466 118.53 34.73 118.53Z" fill="#A4E92A"/>
<path d="M56.1994 151.9C60.8054 151.9 64.5394 148.166 64.5394 143.56C64.5394 138.954 60.8054 135.22 56.1994 135.22C51.5933 135.22 47.8594 138.954 47.8594 143.56C47.8594 148.166 51.5933 151.9 56.1994 151.9Z" fill="#F88C5D"/>
<path d="M69.3195 28.91C72.1095 28.91 74.3695 31.17 74.3695 33.96C74.3695 36.75 72.1095 39.01 69.3195 39.01C66.5295 39.01 64.2695 36.75 64.2695 33.96C64.2695 31.17 66.5295 28.91 69.3195 28.91Z" fill="#F55D56"/>
<path d="M34.73 118.53C39.4134 118.53 43.21 114.733 43.21 110.05C43.21 105.367 39.4134 101.57 34.73 101.57C30.0466 101.57 26.25 105.367 26.25 110.05C26.25 114.733 30.0466 118.53 34.73 118.53Z" fill="#99FF33"/>
<path d="M56.1994 151.9C60.8054 151.9 64.5394 148.166 64.5394 143.56C64.5394 138.954 60.8054 135.22 56.1994 135.22C51.5933 135.22 47.8594 138.954 47.8594 143.56C47.8594 148.166 51.5933 151.9 56.1994 151.9Z" fill="#99FF33"/>
<path d="M98.6299 31.96C101.645 31.96 104.09 29.5155 104.09 26.5C104.09 23.4845 101.645 21.04 98.6299 21.04C95.6144 21.04 93.1699 23.4845 93.1699 26.5C93.1699 29.5155 95.6144 31.96 98.6299 31.96Z" fill="#F55D56"/>
<path d="M152.86 21.42C158.582 21.42 163.22 16.7817 163.22 11.06C163.22 5.33834 158.582 0.700012 152.86 0.700012C147.138 0.700012 142.5 5.33834 142.5 11.06C142.5 16.7817 147.138 21.42 152.86 21.42Z" fill="#99FF33"/>
<path d="M138.55 44.76C141.565 44.76 144.01 42.3155 144.01 39.3C144.01 36.2846 141.565 33.84 138.55 33.84C135.534 33.84 133.09 36.2846 133.09 39.3C133.09 42.3155 135.534 44.76 138.55 44.76Z" fill="#F55D56"/>
<path d="M180.17 77.15C188.907 77.15 195.99 70.0672 195.99 61.33C195.99 52.5929 188.907 45.51 180.17 45.51C171.432 45.51 164.35 52.5929 164.35 61.33C164.35 70.0672 171.432 77.15 180.17 77.15Z" fill="#99FF33"/>
<path d="M9.36914 72.57C14.9591 64.29 22.7291 57.61 31.8491 53.34L78.6491 53.26C88.0791 57.64 96.0691 64.59 101.729 73.22L9.36914 72.58V72.57Z" fill="#99FF33"/>
<path d="M31.5293 53.51H79.5693V50.07C79.5693 46.88 76.9793 44.29 73.7893 44.29H37.3093C34.1193 44.29 31.5293 46.88 31.5293 50.07V53.51Z" fill="#FFF0E0"/>
<path d="M74.9489 44.42V24.79C74.9489 23.89 74.2189 23.15 73.3089 23.15H37.7689C36.8689 23.15 36.1289 23.88 36.1289 24.79V44.42" fill="#FFF0E0"/>
<path d="M103.239 72.95H4.09922C2.22145 72.95 0.699219 74.4722 0.699219 76.35V76.36C0.699219 78.2378 2.22145 79.76 4.09922 79.76H103.239C105.117 79.76 106.639 78.2378 106.639 76.36V76.35C106.639 74.4722 105.117 72.95 103.239 72.95Z" fill="#FFF0E0"/>
<path d="M69.3195 28.91C72.1095 28.91 74.3695 31.17 74.3695 33.96C74.3695 36.75 72.1095 39.01 69.3195 39.01C66.5295 39.01 64.2695 36.75 64.2695 33.96C64.2695 31.17 66.5295 28.91 69.3195 28.91Z" fill="#F55D56"/>
<path d="M31.5293 53.51H79.5693V50.07C79.5693 46.88 76.9793 44.29 73.7893 44.29H37.3093C34.1193 44.29 31.5293 46.88 31.5293 50.07V53.51Z" stroke="#330000" stroke-width="1.4" stroke-miterlimit="10"/>
<path d="M74.9489 44.42V24.79C74.9489 23.89 74.2189 23.15 73.3089 23.15H37.7689C36.8689 23.15 36.1289 23.88 36.1289 24.79V44.42" stroke="#330000" stroke-width="1.4" stroke-miterlimit="10"/>
<path d="M2.85938 79.59L3.17938 232.35C3.17938 234.64 5.03938 236.5 7.32938 236.5H100.319C102.609 236.5 104.469 234.64 104.469 232.35L104.149 79.59" stroke="#330000" stroke-width="1.4" stroke-miterlimit="10"/>
<path d="M104.479 232.35C104.479 234.64 102.609 236.5 100.309 236.5H6.86922C4.55922 236.5 2.69922 234.64 2.69922 232.35V227.4H104.349" stroke="#330000" stroke-width="1.4" stroke-miterlimit="10"/>
<path d="M69.3195 28.91C72.1095 28.91 74.3695 31.17 74.3695 33.96C74.3695 36.75 72.1095 39.01 69.3195 39.01C66.5295 39.01 64.2695 36.75 64.2695 33.96C64.2695 31.17 66.5295 28.91 69.3195 28.91Z" stroke="#330000" stroke-width="1.4" stroke-miterlimit="10"/>
<path d="M103.239 72.95H4.09922C2.22145 72.95 0.699219 74.4722 0.699219 76.35V76.36C0.699219 78.2378 2.22145 79.76 4.09922 79.76H103.239C105.117 79.76 106.639 78.2378 106.639 76.36V76.35C106.639 74.4722 105.117 72.95 103.239 72.95Z" stroke="#330000" stroke-width="1.4" stroke-miterlimit="10"/>
<path d="M103.519 94.73H98.459" stroke="#330000" stroke-width="1.4" stroke-miterlimit="10"/>
<path d="M50.18 94.73H3" stroke="#330000" stroke-width="1.4" stroke-miterlimit="10"/>
<path d="M103.84 228.15H2.91992" stroke="#330000" stroke-width="1.4" stroke-miterlimit="10"/>
<path d="M97.8096 79.93V131.93C97.8096 136.41 94.5296 140.42 90.0696 140.84C84.9496 141.33 80.6396 137.32 80.6396 132.3V103.26C80.6396 99.81 77.8496 97.02 74.3996 97.02H74.0096C70.5596 97.02 67.7696 99.81 67.7696 103.26C67.7696 107.74 64.4896 111.75 60.0296 112.17C54.9096 112.66 50.5996 108.64 50.5996 103.63V80.23" stroke="#330000" stroke-width="1.4" stroke-miterlimit="10"/>
<path d="M34.73 118.53C39.4134 118.53 43.21 114.733 43.21 110.05C43.21 105.367 39.4134 101.57 34.73 101.57C30.0466 101.57 26.25 105.367 26.25 110.05C26.25 114.733 30.0466 118.53 34.73 118.53Z" stroke="#330000" stroke-width="1.4" stroke-miterlimit="10"/>
<path d="M56.1994 151.9C60.8054 151.9 64.5394 148.166 64.5394 143.56C64.5394 138.954 60.8054 135.22 56.1994 135.22C51.5933 135.22 47.8594 138.954 47.8594 143.56C47.8594 148.166 51.5933 151.9 56.1994 151.9Z" stroke="#330000" stroke-width="1.4" stroke-miterlimit="10"/>
<path d="M31.8491 53.34C22.7291 57.61 14.9591 64.3 9.36914 72.57" stroke="#330000" stroke-width="1.4" stroke-miterlimit="10"/>
<path d="M101.719 73.22C96.0687 64.6 88.0687 57.64 78.6387 53.26" stroke="#330000" stroke-width="1.4" stroke-miterlimit="10"/>
<path d="M31.5293 53.51H79.5693V50.07C79.5693 46.88 76.9793 44.29 73.7893 44.29H37.3093C34.1193 44.29 31.5293 46.88 31.5293 50.07V53.51Z" stroke="#330000" stroke-width="1.4" stroke-miterlimit="10"/>
<path d="M74.9489 44.42V24.79C74.9489 23.89 74.2189 23.15 73.3089 23.15H37.7689C36.8689 23.15 36.1289 23.88 36.1289 24.79V44.42" stroke="#330000" stroke-width="1.4" stroke-miterlimit="10"/>
<path d="M2.85938 79.59L3.17938 232.35C3.17938 234.64 5.03938 236.5 7.32938 236.5H100.319C102.609 236.5 104.469 234.64 104.469 232.35L104.149 79.59" stroke="#330000" stroke-width="1.4" stroke-miterlimit="10"/>
<path d="M69.3195 28.91C72.1095 28.91 74.3695 31.17 74.3695 33.96C74.3695 36.75 72.1095 39.01 69.3195 39.01C66.5295 39.01 64.2695 36.75 64.2695 33.96C64.2695 31.17 66.5295 28.91 69.3195 28.91Z" fill="#99FF33" stroke="#330000" stroke-width="1.4" stroke-miterlimit="10"/>
<path d="M103.239 72.95H4.09922C2.22145 72.95 0.699219 74.4722 0.699219 76.35V76.36C0.699219 78.2378 2.22145 79.76 4.09922 79.76H103.239C105.117 79.76 106.639 78.2378 106.639 76.36V76.35C106.639 74.4722 105.117 72.95 103.239 72.95Z" stroke="#330000" stroke-width="1.4" stroke-miterlimit="10"/>
<path d="M103.519 94.73H98.459" stroke="#330000" stroke-width="1.4" stroke-miterlimit="10"/>
<path d="M50.18 94.73H3" stroke="#330000" stroke-width="1.4" stroke-miterlimit="10"/>
<path d="M103.84 228.15H2.91992" stroke="#330000" stroke-width="1.4" stroke-miterlimit="10"/>
<path d="M97.8096 79.93V131.93C97.8096 136.41 94.5296 140.42 90.0696 140.84C84.9496 141.33 80.6396 137.32 80.6396 132.3V103.26C80.6396 99.81 77.8496 97.02 74.3996 97.02H74.0096C70.5596 97.02 67.7696 99.81 67.7696 103.26C67.7696 107.74 64.4896 111.75 60.0296 112.17C54.9096 112.66 50.5996 108.64 50.5996 103.63V80.23" stroke="#330000" stroke-width="1.4" stroke-miterlimit="10"/>
<path d="M34.73 118.53C39.4134 118.53 43.21 114.733 43.21 110.05C43.21 105.367 39.4134 101.57 34.73 101.57C30.0466 101.57 26.25 105.367 26.25 110.05C26.25 114.733 30.0466 118.53 34.73 118.53Z" stroke="#330000" stroke-width="1.4" stroke-miterlimit="10"/>
<path d="M56.1994 151.9C60.8054 151.9 64.5394 148.166 64.5394 143.56C64.5394 138.954 60.8054 135.22 56.1994 135.22C51.5933 135.22 47.8594 138.954 47.8594 143.56C47.8594 148.166 51.5933 151.9 56.1994 151.9Z" stroke="#330000" stroke-width="1.4" stroke-miterlimit="10"/>
<path d="M98.6299 31.96C101.645 31.96 104.09 29.5155 104.09 26.5C104.09 23.4845 101.645 21.04 98.6299 21.04C95.6144 21.04 93.1699 23.4845 93.1699 26.5C93.1699 29.5155 95.6144 31.96 98.6299 31.96Z" fill="#99FF33" stroke="#330000" stroke-width="1.4" stroke-miterlimit="10"/>
<path d="M152.86 21.42C158.582 21.42 163.22 16.7817 163.22 11.06C163.22 5.33834 158.582 0.700012 152.86 0.700012C147.138 0.700012 142.5 5.33834 142.5 11.06C142.5 16.7817 147.138 21.42 152.86 21.42Z" stroke="#330000" stroke-width="1.4" stroke-miterlimit="10"/>
<path d="M138.55 44.76C141.565 44.76 144.01 42.3155 144.01 39.3C144.01 36.2846 141.565 33.84 138.55 33.84C135.534 33.84 133.09 36.2846 133.09 39.3C133.09 42.3155 135.534 44.76 138.55 44.76Z" fill="#99FF33" stroke="#330000" stroke-width="1.4" stroke-miterlimit="10"/>
<path d="M180.17 77.15C188.907 77.15 195.99 70.0672 195.99 61.33C195.99 52.5929 188.907 45.51 180.17 45.51C171.432 45.51 164.35 52.5929 164.35 61.33C164.35 70.0672 171.432 77.15 180.17 77.15Z" stroke="#330000" stroke-width="1.4" stroke-miterlimit="10"/>
</g>
<defs>
<clipPath id="clip0_392_27732">
<rect width="196.69" height="237.2" fill="white"/>
</clipPath>
</defs>
</svg>
