<svg width="207" height="114" viewBox="0 0 207 114" fill="none" xmlns="http://www.w3.org/2000/svg">
<g clip-path="url(#clip0_392_27939)">
<path d="M145.91 94.38C131.41 110.12 108.48 116.76 86.8998 109.45C65.5198 102.21 51.4098 83.28 49.2598 62.2" fill="#0086C8"/>
<path d="M49.5391 48.72C50.0191 45.36 50.8191 42 51.9491 38.67C61.8391 9.47 93.5291 -6.18 122.729 3.72C151.929 13.61 167.579 45.3 157.679 74.5C156.529 77.88 155.089 81.09 153.399 84.09L151.599 87.66C151.599 87.66 96.2291 75.3 86.0191 71.53C75.8091 67.77 66.8491 59.7 66.8491 59.7" fill="#F55D56"/>
<path d="M52.4004 75.96C62.3004 96.01 143.68 111.69 106.41 112.33C106.41 112.33 82.9704 111.85 68.8104 99.12C54.6504 86.4 55.1904 81.56 55.1904 81.56" fill="#F55D56"/>
<path d="M49.7087 66.35C51.4087 82.94 158.009 96.41 125.959 107.97C125.959 107.97 132.779 105.21 141.209 98.58C149.629 91.95 149.989 90.87 149.989 90.87C149.989 90.87 99.4587 79.76 88.5287 76C77.5987 72.24 49.4688 60.23 49.4688 60.23L49.7188 66.34L49.7087 66.35Z" fill="#F4AD4D"/>
<path d="M130.63 6.48C130.63 6.48 136.36 10.42 138.87 12.39C141.38 14.36 141.57 14.74 141.57 14.74C144.9 17.48 130.17 23.11 132.06 25.03C134.69 27.68 150.87 26.27 155.33 32.62C155.33 32.62 158.04 37.84 158.76 41.42C159.48 45 160.51 51.55 160.51 51.55C159.57 46.97 142.67 49.61 123.37 48.07C104.42 46.55 91.4897 38.59 91.0597 33.31C90.5597 27.19 151.21 18.58 130.04 6.73" fill="#0086C8"/>
<path d="M141.569 14.75C144.899 17.49 130.169 23.12 132.059 25.04C134.689 27.69 150.869 26.28 155.329 32.63" fill="#F88C5D"/>
<path d="M111.97 76.29C64.6703 61.63 55.0603 24.12 68.7103 14.46C68.7103 14.46 58.7703 21.36 53.5803 34.98C48.3803 48.6 48.9203 53.08 48.9203 53.08C48.9203 53.08 106.98 77.45 111.28 78.35" fill="#F88C5D"/>
<path d="M57.6395 27.26C26.0095 20.24 3.36953 19.49 0.959531 26.61C-2.64047 37.22 40.1495 61.31 96.5295 80.42C152.91 99.52 201.52 106.4 205.12 95.79C207.5 88.77 189.61 75.87 160.93 62.41L160.17 62.35L158.55 70.21C164.73 74.57 167.91 78.38 167.01 81.03C164.63 88.06 134.31 84.14 99.2895 72.27C64.2695 60.4 37.8095 45.09 40.1895 38.06C41.0795 35.42 45.9095 34.33 53.4295 34.61" fill="#00C5CE"/>
<path d="M145.91 94.38C131.41 110.12 108.48 116.76 86.8998 109.45C65.5198 102.21 51.4098 83.28 49.2598 62.2" stroke="#330000" stroke-width="1.5" stroke-miterlimit="10"/>
<path d="M49.5391 48.72C50.0191 45.36 50.8191 42 51.9491 38.67C61.8391 9.47 93.5291 -6.18 122.729 3.72C151.929 13.61 167.579 45.3 157.679 74.5C156.529 77.88 155.089 81.09 153.399 84.09" stroke="#330000" stroke-width="1.5" stroke-miterlimit="10"/>
<path d="M158.55 70.21C164.73 74.57 167.91 78.38 167.01 81.03C164.63 88.06 134.31 84.14 99.2898 72.27C64.2698 60.4 37.8098 45.09 40.1898 38.06C41.0798 35.42 45.9098 34.33 53.4298 34.61" stroke="#330000" stroke-width="1.5" stroke-miterlimit="10"/>
<path d="M160.93 62.41C189.61 75.87 207.49 88.77 205.12 95.79C201.52 106.4 152.91 99.52 96.5295 80.42C40.1495 61.31 -2.64047 37.22 0.959531 26.61C3.36953 19.5 25.9995 20.24 57.6395 27.26" stroke="#330000" stroke-width="1.5" stroke-miterlimit="10"/>
<path d="M52.4004 75.96C62.3004 96.01 143.68 111.69 106.41 112.33" stroke="#330000" stroke-width="1.5" stroke-miterlimit="10"/>
<path d="M125.959 107.97C158.009 96.41 51.409 82.94 49.709 66.35" stroke="#330000" stroke-width="1.5" stroke-miterlimit="10"/>
<path d="M130.049 6.73C151.229 18.58 90.5695 27.19 91.0695 33.31C91.4995 38.59 104.429 46.55 123.379 48.07C142.679 49.62 159.579 46.97 160.519 51.55" stroke="#330000" stroke-width="1.5" stroke-miterlimit="10"/>
<path d="M141.569 14.75C144.899 17.49 130.169 23.12 132.059 25.04C134.689 27.69 150.869 26.28 155.329 32.63" stroke="#330000" stroke-width="1.5" stroke-miterlimit="10"/>
<path d="M68.709 14.45C55.059 24.11 64.669 61.63 111.969 76.28" stroke="#330000" stroke-width="1.5" stroke-miterlimit="10"/>
</g>
<defs>
<clipPath id="clip0_392_27939">
<rect width="206.08" height="113.17" fill="white"/>
</clipPath>
</defs>
</svg>
