<svg width="239" height="317" viewBox="0 0 239 317" fill="none" xmlns="http://www.w3.org/2000/svg">
<g clip-path="url(#clip0_392_27572)">
<path d="M63.9992 109.97H0.699219C0.699219 115.02 9.05922 121.4 20.1192 121.4C20.7192 121.4 21.3092 121.33 21.8992 121.28C26.7092 126.75 32.8492 130.04 39.5492 130.04C46.2492 130.04 52.3792 126.75 57.1992 121.28C57.7892 121.33 58.3692 121.4 58.9792 121.4C67.3292 121.4 74.6092 116.79 78.3992 109.97H64.0092H63.9992Z" fill="#56A500"/>
<path d="M67.2 177.18H18C20.95 182.48 26.6 186.06 33.1 186.06C33.57 186.06 34.02 186 34.48 185.97C38.22 190.22 42.99 192.78 48.2 192.78C53.41 192.78 58.17 190.22 61.92 185.97C62.38 186.01 62.83 186.06 63.3 186.06C69.79 186.06 75.45 182.47 78.4 177.18H67.22H67.2Z" fill="#56A500"/>
<path d="M223.32 141.26H160.02C163.81 148.08 171.09 152.69 179.44 152.69C180.04 152.69 180.63 152.62 181.22 152.57C186.03 158.04 192.17 161.33 198.87 161.33C205.57 161.33 211.7 158.04 216.52 152.57C217.11 152.62 217.69 152.69 218.3 152.69C229.38 152.69 237.72 145.32 237.72 141.26H223.33H223.32Z" fill="#A4E92A"/>
<path d="M171.759 195.25H220.959C218.009 200.55 212.359 204.13 205.859 204.13C205.389 204.13 204.939 204.07 204.479 204.04C200.739 208.29 195.969 210.85 190.759 210.85C185.549 210.85 180.789 208.29 177.039 204.04C176.579 204.08 176.129 204.13 175.659 204.13C169.169 204.13 163.509 200.54 160.559 195.25H171.739H171.759Z" fill="#56A500"/>
<path d="M171.069 141.26H131.509V130.73C131.509 115.49 138.299 101.73 149.239 91.84C147.269 91.72 145.349 91.42 143.499 90.94H142.999L142.859 90.77C138.789 89.62 135.069 87.64 131.899 85.01C128.709 88.38 124.199 90.5 119.199 90.5C114.199 90.5 109.689 88.38 106.499 85.01C103.229 87.72 99.3685 89.75 95.1385 90.88L95.0485 90.94H94.9085C93.0585 91.42 91.1385 91.73 89.1685 91.84C94.8285 96.96 99.3685 103.11 102.439 109.97H67.4785C84.6285 109.97 100.429 120.59 106.899 135.62V177.17H67.4785C86.6085 177.17 102.619 190.39 106.899 208.19V221.33C106.899 254.29 98.5085 286.79 82.4085 316.2H155.999C140.739 288.33 132.419 257.68 131.589 226.5C135.779 208.57 151.849 195.23 171.069 195.23H131.509V172.86C135.569 154.75 151.729 141.24 171.069 141.24V141.26Z" fill="#660000"/>
<path d="M237.709 70.19C237.709 60.92 230.779 53.29 221.819 52.15C221.239 43.34 213.919 36.37 204.969 36.37C204.149 36.37 203.349 36.45 202.559 36.56C199.379 23.79 187.879 14.32 174.129 14.32C170.739 14.32 167.499 14.92 164.469 15.98C161.349 11.18 155.949 8.01001 149.799 8.01001C146.139 8.01001 142.739 9.14001 139.929 11.06C135.189 4.78001 127.679 0.700012 119.199 0.700012C110.719 0.700012 103.209 4.78001 98.4692 11.06C95.6592 9.14001 92.2692 8.01001 88.5992 8.01001C82.4492 8.01001 77.0492 11.19 73.9292 15.98C70.8992 14.92 67.6592 14.32 64.2692 14.32C50.5192 14.32 39.0092 23.79 35.8392 36.56C35.0492 36.45 34.2492 36.37 33.4292 36.37C24.4692 36.37 17.1592 43.34 16.5792 52.15C7.62922 53.3 0.699219 60.93 0.699219 70.19H30.2092C30.8792 79.53 38.6392 86.9 48.1492 86.9C54.2292 86.9 59.5992 83.87 62.8592 79.26C68.3092 86.9 77.2292 91.9 87.3292 91.9C94.6092 91.9 101.289 89.31 106.489 85C109.679 88.37 114.179 90.49 119.189 90.49C124.199 90.49 128.699 88.38 131.889 85C137.089 89.31 143.769 91.9 151.049 91.9C161.149 91.9 170.069 86.9 175.519 79.26C178.779 83.88 184.149 86.9 190.229 86.9C199.739 86.9 207.509 79.53 208.169 70.19H237.679H237.709Z" fill="#A4E92A"/>
<path d="M63.9992 109.97H0.699219C0.699219 115.02 9.05922 121.4 20.1192 121.4C20.7192 121.4 21.3092 121.33 21.8992 121.28C26.7092 126.75 32.8492 130.04 39.5492 130.04C46.2492 130.04 52.3792 126.75 57.1992 121.28C57.7892 121.33 58.3692 121.4 58.9792 121.4C67.3292 121.4 74.6092 116.79 78.3992 109.97H64.0092H63.9992Z" stroke="#330000" stroke-width="1.4" stroke-miterlimit="10"/>
<path d="M67.2 177.18H18C20.95 182.48 26.6 186.06 33.1 186.06C33.57 186.06 34.02 186 34.48 185.97C38.22 190.22 42.99 192.78 48.2 192.78C53.41 192.78 58.17 190.22 61.92 185.97C62.38 186.01 62.83 186.06 63.3 186.06C69.79 186.06 75.45 182.47 78.4 177.18H67.22H67.2Z" stroke="#330000" stroke-width="1.4" stroke-miterlimit="10"/>
<path d="M223.32 141.26H160.02C163.81 148.08 171.09 152.69 179.44 152.69C180.04 152.69 180.63 152.62 181.22 152.57C186.03 158.04 192.17 161.33 198.87 161.33C205.57 161.33 211.7 158.04 216.52 152.57C217.11 152.62 217.69 152.69 218.3 152.69C229.38 152.69 237.72 145.32 237.72 141.26H223.33H223.32Z" stroke="#330000" stroke-width="1.4" stroke-miterlimit="10"/>
<path d="M171.759 195.25H220.959C218.009 200.55 212.359 204.13 205.859 204.13C205.389 204.13 204.939 204.07 204.479 204.04C200.739 208.29 195.969 210.85 190.759 210.85C185.549 210.85 180.789 208.29 177.039 204.04C176.579 204.08 176.129 204.13 175.659 204.13C169.169 204.13 163.509 200.54 160.559 195.25H171.739H171.759Z" stroke="#330000" stroke-width="1.4" stroke-miterlimit="10"/>
<path d="M171.069 141.26H131.509V130.73C131.509 115.49 138.299 101.73 149.239 91.84C147.269 91.72 145.349 91.42 143.499 90.94H142.999L142.859 90.77C138.789 89.62 135.069 87.64 131.899 85.01C128.709 88.38 124.199 90.5 119.199 90.5C114.199 90.5 109.689 88.38 106.499 85.01C103.229 87.72 99.3685 89.75 95.1385 90.88L95.0485 90.94H94.9085C93.0585 91.42 91.1385 91.73 89.1685 91.84C94.8285 96.96 99.3685 103.11 102.439 109.97H67.4785C84.6285 109.97 100.429 120.59 106.899 135.62V177.17H67.4785C86.6085 177.17 102.619 190.39 106.899 208.19V221.33C106.899 254.29 98.5085 286.79 82.4085 316.2H155.999C140.739 288.33 132.419 257.68 131.589 226.5C135.779 208.57 151.849 195.23 171.069 195.23H131.509V172.86C135.569 154.75 151.729 141.24 171.069 141.24V141.26Z" stroke="#330000" stroke-width="1.4" stroke-miterlimit="10"/>
<path d="M237.709 70.19C237.709 60.92 230.779 53.29 221.819 52.15C221.239 43.34 213.919 36.37 204.969 36.37C204.149 36.37 203.349 36.45 202.559 36.56C199.379 23.79 187.879 14.32 174.129 14.32C170.739 14.32 167.499 14.92 164.469 15.98C161.349 11.18 155.949 8.01001 149.799 8.01001C146.139 8.01001 142.739 9.14001 139.929 11.06C135.189 4.78001 127.679 0.700012 119.199 0.700012C110.719 0.700012 103.209 4.78001 98.4692 11.06C95.6592 9.14001 92.2692 8.01001 88.5992 8.01001C82.4492 8.01001 77.0492 11.19 73.9292 15.98C70.8992 14.92 67.6592 14.32 64.2692 14.32C50.5192 14.32 39.0092 23.79 35.8392 36.56C35.0492 36.45 34.2492 36.37 33.4292 36.37C24.4692 36.37 17.1592 43.34 16.5792 52.15C7.62922 53.3 0.699219 60.93 0.699219 70.19H30.2092C30.8792 79.53 38.6392 86.9 48.1492 86.9C54.2292 86.9 59.5992 83.87 62.8592 79.26C68.3092 86.9 77.2292 91.9 87.3292 91.9C94.6092 91.9 101.289 89.31 106.489 85C109.679 88.37 114.179 90.49 119.189 90.49C124.199 90.49 128.699 88.38 131.889 85C137.089 89.31 143.769 91.9 151.049 91.9C161.149 91.9 170.069 86.9 175.519 79.26C178.779 83.88 184.149 86.9 190.229 86.9C199.739 86.9 207.509 79.53 208.169 70.19H237.679H237.709Z" stroke="#330000" stroke-width="1.4" stroke-miterlimit="10"/>
</g>
<defs>
<clipPath id="clip0_392_27572">
<rect width="238.41" height="316.92" fill="white"/>
</clipPath>
</defs>
</svg>
