<svg width="239" height="317" viewBox="0 0 239 317" fill="none" xmlns="http://www.w3.org/2000/svg">
<g clip-path="url(#clip0_392_29728)">
<path d="M63.9992 110H0.699219C0.699219 115 9.05922 121.4 20.1192 121.4C20.7192 121.4 21.3092 121.33 21.8992 121.28C26.7092 126.75 32.8992 130.04 39.5392 130.04C46.1792 130.04 52.3692 126.75 57.1892 121.28C57.7792 121.28 58.3592 121.4 58.9592 121.4C62.9202 121.405 66.8105 120.351 70.2268 118.346C73.6432 116.342 76.4613 113.46 78.3892 110H63.9992Z" fill="#FF3333"/>
<path d="M67.2 177.18H18C19.4964 179.872 21.6855 182.115 24.3405 183.677C26.9956 185.238 30.0199 186.061 33.1 186.06C33.57 186.06 34.02 186 34.48 185.97C38.22 190.22 42.99 192.77 48.19 192.77C53.39 192.77 58.19 190.22 61.91 185.97C62.37 185.97 62.82 186.06 63.29 186.06C66.3697 186.059 69.3932 185.235 72.0478 183.674C74.7025 182.113 76.892 179.871 78.39 177.18H67.2Z" fill="#F55D56"/>
<path d="M223.32 141.26H160C161.922 144.725 164.737 147.612 168.152 149.622C171.567 151.632 175.458 152.691 179.42 152.69C180.02 152.69 180.61 152.62 181.2 152.57C186.01 158.04 192.15 161.33 198.84 161.33C205.53 161.33 211.67 158.04 216.49 152.57C217.08 152.62 217.66 152.69 218.26 152.69C229.35 152.69 237.69 145.33 237.69 141.26H223.32Z" fill="#F55D56"/>
<path d="M171.759 195.25H220.999C219.504 197.944 217.316 200.188 214.66 201.749C212.005 203.311 208.98 204.133 205.899 204.13C205.439 204.13 204.979 204.07 204.519 204.04C200.779 208.29 196.009 210.84 190.809 210.84C185.609 210.84 180.809 208.29 177.089 204.04C176.629 204.04 176.179 204.13 175.709 204.13C172.63 204.132 169.607 203.31 166.953 201.748C164.299 200.187 162.112 197.943 160.619 195.25H171.759Z" fill="#FF3333"/>
<path d="M171.069 141.26H131.509V130.73C131.509 115.49 138.299 101.73 149.229 91.84C147.295 91.7248 145.376 91.4234 143.499 90.94H142.999L142.859 90.77C138.834 89.6321 135.088 87.6707 131.859 85.01C130.228 86.7429 128.259 88.1237 126.074 89.0675C123.889 90.0113 121.534 90.4982 119.154 90.4982C116.774 90.4982 114.42 90.0113 112.235 89.0675C110.05 88.1237 108.081 86.7429 106.449 85.01C103.129 87.7603 99.254 89.7625 95.0894 90.88L94.9995 90.94H94.8595C92.9806 91.4291 91.0578 91.7305 89.1195 91.84C94.7712 96.9037 99.3074 103.088 102.439 110H67.4395C84.5895 110 100.439 120.62 106.859 135.65V177.21H67.4795C76.5757 177.204 85.4095 180.258 92.5597 185.881C99.7098 191.504 104.761 199.369 106.899 208.21V221.35C106.844 254.533 98.4212 287.166 82.4095 316.23H155.999C140.84 288.695 132.472 257.94 131.589 226.52C133.68 217.621 138.718 209.689 145.886 204.015C153.053 198.34 161.928 195.255 171.069 195.26H131.509V172.88C133.533 163.901 138.553 155.877 145.743 150.13C152.933 144.384 161.865 141.255 171.069 141.26Z" fill="#0066CC"/>
<path d="M237.709 70.19C237.694 65.7729 236.074 61.5117 233.151 58.2003C230.228 54.8888 226.2 52.7528 221.819 52.19C221.543 47.9132 219.652 43.9011 216.529 40.9659C213.406 38.0306 209.285 36.3914 204.999 36.38C204.192 36.3874 203.387 36.4509 202.589 36.57C201.613 32.6083 199.819 28.8947 197.322 25.6683C194.824 22.4418 191.679 19.774 188.088 17.8364C184.498 15.8988 180.541 14.7344 176.473 14.4181C172.405 14.1019 168.316 14.6407 164.469 16C163.201 14.0444 161.554 12.3621 159.626 11.0519C157.698 9.74178 155.527 8.83027 153.242 8.37096C150.957 7.91166 148.603 7.91382 146.318 8.37733C144.034 8.84084 141.865 9.75634 139.939 11.07C137.524 7.85305 134.393 5.24226 130.794 3.44417C127.195 1.64609 123.227 0.710022 119.204 0.710022C115.181 0.710022 111.213 1.64609 107.615 3.44417C104.016 5.24226 100.885 7.85305 98.4692 11.07C96.5424 9.75745 94.3728 8.84288 92.0877 8.37999C89.8027 7.9171 87.4482 7.9152 85.1625 8.3744C82.8767 8.83361 80.7056 9.74467 78.7767 11.0541C76.8477 12.3636 75.1997 14.0451 73.9292 16C70.084 14.6457 65.9979 14.1107 61.9336 14.4294C57.8692 14.7481 53.9165 15.9135 50.3294 17.8507C46.7422 19.7879 43.6 22.454 41.1045 25.6778C38.609 28.9017 36.8155 32.6118 35.8392 36.57C35.0447 36.4506 34.2427 36.3871 33.4392 36.38C29.1541 36.3807 25.0294 38.0102 21.9007 40.9383C18.7721 43.8665 16.8734 47.8743 16.5892 52.15C12.2012 52.7137 8.16846 54.8554 5.24427 58.1753C2.32009 61.4951 0.704469 65.766 0.699219 70.19H30.2092C30.4787 73.8911 31.8855 77.4183 34.237 80.289C36.5885 83.1597 39.7697 85.2334 43.3452 86.2264C46.9207 87.2193 50.7157 87.0829 54.2107 85.8359C57.7057 84.5888 60.7299 82.2921 62.8692 79.26C65.2583 82.6306 68.3179 85.4713 71.8561 87.6042C75.3944 89.7371 79.335 91.1162 83.4311 91.6551C87.5272 92.194 91.6904 91.881 95.6599 90.7358C99.6294 89.5906 103.32 87.6379 106.499 85C108.132 86.7303 110.101 88.1088 112.286 89.0509C114.471 89.9931 116.825 90.479 119.204 90.479C121.583 90.479 123.938 89.9931 126.122 89.0509C128.307 88.1088 130.276 86.7303 131.909 85C135.089 87.6374 138.78 89.5895 142.75 90.7339C146.72 91.8783 150.883 92.1903 154.98 91.6505C159.076 91.1107 163.016 89.7306 166.554 87.5967C170.092 85.4629 173.151 82.6213 175.539 79.25C177.68 82.2782 180.703 84.5714 184.197 85.8159C187.69 87.0605 191.482 87.1957 195.056 86.2031C198.629 85.2106 201.808 83.1386 204.159 80.2706C206.51 77.4025 207.917 73.8784 208.189 70.18L237.709 70.19Z" fill="#F55D56"/>
<path d="M63.9992 110H0.699219C0.699219 115 9.05922 121.4 20.1192 121.4C20.7192 121.4 21.3092 121.33 21.8992 121.28C26.7092 126.75 32.8992 130.04 39.5392 130.04C46.1792 130.04 52.3692 126.75 57.1892 121.28C57.7792 121.28 58.3592 121.4 58.9592 121.4C62.9202 121.405 66.8105 120.351 70.2268 118.346C73.6432 116.342 76.4613 113.46 78.3892 110H63.9992Z" stroke="#330000" stroke-width="1.4" stroke-miterlimit="10"/>
<path d="M67.2 177.18H18C19.4964 179.872 21.6855 182.115 24.3405 183.677C26.9956 185.238 30.0199 186.061 33.1 186.06C33.57 186.06 34.02 186 34.48 185.97C38.22 190.22 42.99 192.77 48.19 192.77C53.39 192.77 58.19 190.22 61.91 185.97C62.37 185.97 62.82 186.06 63.29 186.06C66.3697 186.059 69.3932 185.235 72.0478 183.674C74.7025 182.113 76.892 179.871 78.39 177.18H67.2Z" stroke="#330000" stroke-width="1.4" stroke-miterlimit="10"/>
<path d="M223.32 141.26H160C161.922 144.725 164.737 147.612 168.152 149.622C171.567 151.632 175.458 152.691 179.42 152.69C180.02 152.69 180.61 152.62 181.2 152.57C186.01 158.04 192.15 161.33 198.84 161.33C205.53 161.33 211.67 158.04 216.49 152.57C217.08 152.62 217.66 152.69 218.26 152.69C229.35 152.69 237.69 145.33 237.69 141.26H223.32Z" stroke="#330000" stroke-width="1.4" stroke-miterlimit="10"/>
<path d="M171.759 195.25H220.999C219.504 197.944 217.316 200.188 214.66 201.749C212.005 203.311 208.98 204.133 205.899 204.13C205.439 204.13 204.979 204.07 204.519 204.04C200.779 208.29 196.009 210.84 190.809 210.84C185.609 210.84 180.809 208.29 177.089 204.04C176.629 204.04 176.179 204.13 175.709 204.13C172.63 204.132 169.607 203.31 166.953 201.748C164.299 200.187 162.112 197.943 160.619 195.25H171.759Z" stroke="#330000" stroke-width="1.4" stroke-miterlimit="10"/>
<path d="M171.069 141.26H131.509V130.73C131.509 115.49 138.299 101.73 149.229 91.84C147.295 91.7248 145.376 91.4234 143.499 90.94H142.999L142.859 90.77C138.834 89.6321 135.088 87.6707 131.859 85.01C130.228 86.7429 128.259 88.1237 126.074 89.0675C123.889 90.0113 121.534 90.4982 119.154 90.4982C116.774 90.4982 114.42 90.0113 112.235 89.0675C110.05 88.1237 108.081 86.7429 106.449 85.01C103.129 87.7603 99.254 89.7625 95.0894 90.88L94.9995 90.94H94.8595C92.9806 91.4291 91.0578 91.7305 89.1195 91.84C94.7712 96.9037 99.3074 103.088 102.439 110H67.4395C84.5895 110 100.439 120.62 106.859 135.65V177.21H67.4795C76.5757 177.204 85.4095 180.258 92.5597 185.881C99.7098 191.504 104.761 199.369 106.899 208.21V221.35C106.844 254.533 98.4212 287.166 82.4095 316.23H155.999C140.84 288.695 132.472 257.94 131.589 226.52C133.68 217.621 138.718 209.689 145.886 204.015C153.053 198.34 161.928 195.255 171.069 195.26H131.509V172.88C133.533 163.901 138.553 155.877 145.743 150.13C152.933 144.384 161.865 141.255 171.069 141.26V141.26Z" stroke="#330000" stroke-width="1.4" stroke-miterlimit="10"/>
<path d="M237.709 70.19C237.694 65.7729 236.074 61.5117 233.151 58.2003C230.228 54.8888 226.2 52.7528 221.819 52.19C221.543 47.9132 219.652 43.9011 216.529 40.9659C213.406 38.0306 209.285 36.3914 204.999 36.38C204.192 36.3874 203.387 36.4509 202.589 36.57C201.613 32.6083 199.819 28.8947 197.322 25.6683C194.824 22.4418 191.679 19.774 188.088 17.8364C184.498 15.8988 180.541 14.7344 176.473 14.4181C172.405 14.1019 168.316 14.6407 164.469 16C163.201 14.0444 161.554 12.3621 159.626 11.0519C157.698 9.74178 155.527 8.83027 153.242 8.37096C150.957 7.91166 148.603 7.91382 146.318 8.37733C144.034 8.84084 141.865 9.75634 139.939 11.07C137.524 7.85305 134.393 5.24226 130.794 3.44417C127.195 1.64609 123.227 0.710022 119.204 0.710022C115.181 0.710022 111.213 1.64609 107.615 3.44417C104.016 5.24226 100.885 7.85305 98.4692 11.07C96.5424 9.75745 94.3728 8.84288 92.0877 8.37999C89.8027 7.9171 87.4482 7.9152 85.1625 8.3744C82.8767 8.83361 80.7056 9.74467 78.7767 11.0541C76.8477 12.3636 75.1997 14.0451 73.9292 16C70.084 14.6457 65.9979 14.1107 61.9336 14.4294C57.8692 14.7481 53.9165 15.9135 50.3294 17.8507C46.7422 19.7879 43.6 22.454 41.1045 25.6778C38.609 28.9017 36.8155 32.6118 35.8392 36.57C35.0447 36.4506 34.2427 36.3871 33.4392 36.38C29.1541 36.3807 25.0294 38.0102 21.9007 40.9383C18.7721 43.8665 16.8734 47.8743 16.5892 52.15C12.2012 52.7137 8.16846 54.8554 5.24427 58.1753C2.32009 61.4951 0.704469 65.766 0.699219 70.19H30.2092C30.4787 73.891 31.8855 77.4183 34.237 80.289C36.5885 83.1597 39.7697 85.2334 43.3452 86.2264C46.9207 87.2193 50.7157 87.0829 54.2107 85.8359C57.7057 84.5888 60.7299 82.2921 62.8692 79.26C65.2583 82.6306 68.3179 85.4713 71.8561 87.6042C75.3944 89.7371 79.335 91.1162 83.4311 91.6551C87.5272 92.194 91.6904 91.881 95.6599 90.7358C99.6294 89.5906 103.32 87.6379 106.499 85C108.132 86.7303 110.101 88.1088 112.286 89.0509C114.471 89.9931 116.825 90.479 119.204 90.479C121.583 90.479 123.938 89.9931 126.122 89.0509C128.307 88.1088 130.276 86.7303 131.909 85C135.089 87.6374 138.78 89.5895 142.75 90.7339C146.72 91.8783 150.883 92.1903 154.98 91.6505C159.076 91.1107 163.016 89.7306 166.554 87.5967C170.092 85.4629 173.151 82.6213 175.539 79.25C177.68 82.2782 180.703 84.5714 184.197 85.8159C187.69 87.0605 191.482 87.1957 195.056 86.2031C198.629 85.2106 201.808 83.1386 204.159 80.2706C206.51 77.4026 207.917 73.8784 208.189 70.18L237.709 70.19Z" stroke="#330000" stroke-width="1.4" stroke-miterlimit="10"/>
</g>
<defs>
<clipPath id="clip0_392_29728">
<rect width="238.41" height="316.92" fill="white"/>
</clipPath>
</defs>
</svg>
