<svg width="183" height="303" viewBox="0 0 183 303" fill="none" xmlns="http://www.w3.org/2000/svg">
<g clip-path="url(#clip0_392_29166)">
<path d="M165.999 73.6799H16.8086V256.7H165.999V73.6799Z" fill="#FFE816" stroke="#330000" stroke-width="1.4" stroke-miterlimit="10"/>
<path d="M16.8086 256.7V73.6799" stroke="#330000" stroke-width="1.4" stroke-miterlimit="10"/>
<path d="M166.01 73.6799V256.7" stroke="#330000" stroke-width="1.4" stroke-miterlimit="10"/>
<path d="M145.04 268.34H37.7695V282.5H145.04V268.34Z" fill="#FFE816" stroke="#330000" stroke-width="1.4" stroke-miterlimit="10"/>
<path d="M166.009 62.0399C146.129 47.7499 120.029 39.0599 91.4086 39.0599C62.7886 39.0599 36.6886 47.7499 16.8086 62.0399H166.009Z" fill="#F55D56" stroke="#330000" stroke-width="1.4" stroke-miterlimit="10"/>
<path d="M145.049 32.9699C128.869 26.9299 110.639 23.5399 91.3693 23.5399C72.0993 23.5399 53.9393 26.9199 37.7793 32.9399" stroke="#330000" stroke-width="1.4" stroke-miterlimit="10"/>
<path d="M119.738 41.49V25.37" stroke="#330000" stroke-width="1.4" stroke-miterlimit="10"/>
<path d="M91.4102 23.54L91.6002 7.84998" stroke="#330000" stroke-width="1.4" stroke-miterlimit="10"/>
<path d="M63.0801 41.86V25.37" stroke="#330000" stroke-width="1.4" stroke-miterlimit="10"/>
<path d="M107.3 159.52H75.5098V90.7899C75.5098 90.7899 81.9198 86.4299 91.3998 86.4299C100.88 86.4299 107.29 90.7899 107.29 90.7899V159.52H107.3Z" fill="#FFF0E0" stroke="#330000" stroke-width="1.4" stroke-miterlimit="10"/>
<path d="M61.4089 159.52H29.6289V90.7899C29.6289 90.7899 36.0389 86.4299 45.5189 86.4299C54.9989 86.4299 61.4089 90.7899 61.4089 90.7899V159.52Z" fill="#FFF0E0" stroke="#330000" stroke-width="1.4" stroke-miterlimit="10"/>
<path d="M153.198 159.52H121.408V90.7899C121.408 90.7899 127.818 86.4299 137.298 86.4299C146.778 86.4299 153.188 90.7899 153.188 90.7899V159.52H153.198Z" fill="#FFF0E0" stroke="#330000" stroke-width="1.4" stroke-miterlimit="10"/>
<path d="M182.119 62.0399H0.699219V73.6799H182.119V62.0399Z" fill="#FFCB5E" stroke="#330000" stroke-width="1.4" stroke-miterlimit="10"/>
<path d="M91.41 231.96C96.3309 231.96 100.32 227.971 100.32 223.05C100.32 218.129 96.3309 214.14 91.41 214.14C86.4891 214.14 82.5 218.129 82.5 223.05C82.5 227.971 86.4891 231.96 91.41 231.96Z" fill="#F55D56" stroke="#330000" stroke-width="1.4" stroke-miterlimit="10"/>
<path d="M65.5189 225.79H29.6289" stroke="#330000" stroke-width="1.4" stroke-miterlimit="10"/>
<path d="M153.199 225.79H117.299" stroke="#330000" stroke-width="1.4" stroke-miterlimit="10"/>
<path d="M182.119 256.7H0.699219V268.34H182.119V256.7Z" fill="#F4AD4D" stroke="#330000" stroke-width="1.4" stroke-miterlimit="10"/>
<path d="M36.0386 282.5H146.769C157.379 282.5 165.999 291.12 165.999 301.73H16.8086C16.8086 291.12 25.4286 282.5 36.0386 282.5Z" fill="#0066CC" stroke="#330000" stroke-width="1.4" stroke-miterlimit="10"/>
<path d="M16.8086 175.55H166.009" stroke="#330000" stroke-width="1.4" stroke-miterlimit="10"/>
<path d="M37.1289 209.89C52.8089 199.3 71.6989 193.12 92.0389 193.12C112.379 193.12 130.259 198.98 145.679 209.05" stroke="#330000" stroke-width="1.4" stroke-miterlimit="10"/>
<path d="M78.9492 10.84C78.9492 4.85 84.5292 0 91.4092 0C98.2892 0 103.869 4.85 103.869 10.84H78.9492Z" fill="#2D153A"/>
</g>
<defs>
<clipPath id="clip0_392_29166">
<rect width="182.82" height="302.42" fill="white"/>
</clipPath>
</defs>
</svg>
