<svg width="417" height="302" viewBox="0 0 417 302" fill="none" xmlns="http://www.w3.org/2000/svg">
<g clip-path="url(#clip0_392_29235)">
<path d="M415.52 0.75H399.43H16.84H0.75V16.84V284.52V300.62H16.84H399.43H415.52V284.52V16.84V0.75Z" fill="#F55D56"/>
<path d="M399.42 16.84H16.8398V284.52H399.42V16.84Z" fill="#FEDC94"/>
<path d="M245.16 245.06C297.39 192.83 297.36 108.26 245.08 55.99C209.94 20.84 160.2 9.31003 115.5 21.4C93.7204 27.29 73.1304 38.8 56.0204 55.91C3.7904 108.14 3.8204 192.71 56.1004 244.98C108.37 297.25 192.94 297.29 245.17 245.06H245.16Z" fill="#0066CC" stroke="#330000" stroke-width="1.5" stroke-miterlimit="10"/>
<path d="M107.42 139.33C103.63 154.09 107.52 170.41 119.09 181.99C130.66 193.56 146.99 197.46 161.75 193.66" stroke="#330000" stroke-width="1.5" stroke-miterlimit="10"/>
<path d="M193.621 162.18C197.651 147.28 193.811 130.7 182.091 118.98C171.201 108.09 156.101 104 142.061 106.72" stroke="#330000" stroke-width="1.5" stroke-miterlimit="10"/>
<path d="M182.11 182.01C199.52 164.6 199.51 136.41 182.08 118.99C164.66 101.57 136.47 101.55 119.06 118.96C101.65 136.37 101.66 164.56 119.09 181.98C130.57 193.46 146.71 197.38 161.37 193.75C168.97 191.87 176.17 187.95 182.11 182.01Z" fill="#FFCC66"/>
<path d="M159.901 159.8C165.041 154.66 165.041 146.33 159.901 141.18C154.751 136.03 146.421 136.03 141.281 141.18C136.141 146.32 136.141 154.65 141.281 159.8C144.671 163.19 149.441 164.35 153.771 163.28C156.021 162.72 158.141 161.57 159.901 159.81V159.8Z" fill="#FBF6EB"/>
<path d="M338.271 114.32C356.529 114.32 371.331 99.5186 371.331 81.2601C371.331 63.0015 356.529 48.2001 338.271 48.2001C320.012 48.2001 305.211 63.0015 305.211 81.2601C305.211 99.5186 320.012 114.32 338.271 114.32Z" fill="#00CCCC"/>
<path d="M210.63 231.61L204.35 220.13L231.24 196.12L245.36 221.92L210.63 231.61Z" fill="#F55D56"/>
<path d="M338.271 93.98C345.296 93.98 350.991 88.2851 350.991 81.26C350.991 74.235 345.296 68.54 338.271 68.54C331.246 68.54 325.551 74.235 325.551 81.26C325.551 88.2851 331.246 93.98 338.271 93.98Z" fill="#FBF6EB"/>
<path d="M378.16 173.8H338.02V263.26H378.16V173.8Z" fill="#FBF6EB"/>
<path d="M323.15 247.52H300.33V263.26H323.15V247.52Z" fill="#F55D56"/>
<path d="M285.451 247.52H262.631V263.26H285.451V247.52Z" fill="#F55D56"/>
<path d="M367.241 210.66H348.961V223.24H367.241V210.66Z" fill="#F55D56"/>
<path d="M245.16 245.06C297.39 192.83 297.36 108.26 245.08 55.99C209.94 20.84 160.2 9.31003 115.5 21.4C93.7204 27.29 73.1304 38.8 56.0204 55.91C3.7904 108.14 3.8204 192.71 56.1004 244.98C108.37 297.25 192.94 297.29 245.17 245.06H245.16Z" stroke="#330000" stroke-width="1.5" stroke-miterlimit="10"/>
<path d="M38.5712 120.61C28.3312 159.21 38.3712 202.06 68.6912 232.38C99.0112 262.7 141.861 272.74 180.461 262.5" stroke="#330000" stroke-width="1.5" stroke-miterlimit="10"/>
<path d="M262.46 180.89C272.94 142.15 262.95 99.04 232.49 68.58C202.03 38.12 158.92 28.13 120.18 38.61" stroke="#330000" stroke-width="1.5" stroke-miterlimit="10"/>
<path d="M55.7899 125.29C47.1599 157.93 55.66 194.15 81.2999 219.78C106.93 245.41 143.14 253.91 175.77 245.29" stroke="#330000" stroke-width="1.5" stroke-miterlimit="10"/>
<path d="M245.251 176.22C254.121 143.44 245.661 106.96 219.891 81.1901C194.121 55.4201 157.641 46.9601 124.861 55.8301" stroke="#330000" stroke-width="1.5" stroke-miterlimit="10"/>
<path d="M72.9996 129.97C65.9796 156.65 72.9496 186.24 93.8896 207.18C114.83 228.12 144.42 235.09 171.1 228.07" stroke="#330000" stroke-width="1.5" stroke-miterlimit="10"/>
<path d="M228.041 171.54C235.291 144.72 228.381 114.88 207.291 93.79C186.201 72.7 156.361 65.78 129.541 73.04" stroke="#330000" stroke-width="1.5" stroke-miterlimit="10"/>
<path d="M90.2107 134.65C84.8007 155.37 90.2307 178.32 106.491 194.58C122.751 210.84 145.711 216.27 166.431 210.86" stroke="#330000" stroke-width="1.5" stroke-miterlimit="10"/>
<path d="M210.051 169.52C216.911 148 211.791 123.49 194.691 106.39C178.291 89.99 155.081 84.61 134.221 90.25" stroke="#330000" stroke-width="1.5" stroke-miterlimit="10"/>
<path d="M107.42 139.33C103.63 154.09 107.52 170.41 119.09 181.99C130.66 193.56 146.99 197.46 161.75 193.66" stroke="#330000" stroke-width="1.5" stroke-miterlimit="10"/>
<path d="M193.621 162.18C197.651 147.28 193.811 130.7 182.091 118.98C171.201 108.09 156.101 104 142.061 106.72" stroke="#330000" stroke-width="1.5" stroke-miterlimit="10"/>
<path d="M182.11 182.01C199.52 164.6 199.51 136.41 182.08 118.99C164.66 101.57 136.47 101.55 119.06 118.96C101.65 136.37 101.66 164.56 119.09 181.98C130.57 193.46 146.71 197.38 161.37 193.75C168.97 191.87 176.17 187.95 182.11 182.01Z" stroke="#330000" stroke-width="1.5" stroke-miterlimit="10"/>
<path d="M159.901 159.8C165.041 154.66 165.041 146.33 159.901 141.18C154.751 136.03 146.421 136.03 141.281 141.18C136.141 146.32 136.141 154.65 141.281 159.8C144.671 163.19 149.441 164.35 153.771 163.28C156.021 162.72 158.141 161.57 159.901 159.81V159.8Z" stroke="#330000" stroke-width="1.5" stroke-miterlimit="10"/>
<path d="M415.52 0.75H399.43H16.84H0.75V16.84V284.52V300.62H16.84H399.43H415.52V284.52V16.84V0.75Z" stroke="#330000" stroke-width="1.5" stroke-miterlimit="10" stroke-linecap="round"/>
<path d="M399.42 16.84H16.8398V284.52H399.42V16.84Z" stroke="#330000" stroke-width="1.5" stroke-miterlimit="10"/>
<path d="M338.271 114.32C356.529 114.32 371.331 99.5185 371.331 81.26C371.331 63.0014 356.529 48.2 338.271 48.2C320.012 48.2 305.211 63.0014 305.211 81.26C305.211 99.5185 320.012 114.32 338.271 114.32Z" stroke="#330000" stroke-width="1.5" stroke-miterlimit="10"/>
<path d="M332.36 92.52L305.21 169.52L237.66 209.5" stroke="#330000" stroke-width="1.5" stroke-miterlimit="10"/>
<path d="M355.03 28.24L340.74 68.78" stroke="#330000" stroke-width="1.5" stroke-miterlimit="10"/>
<path d="M210.63 231.61L204.35 220.13L231.24 196.12L245.36 221.92L210.63 231.61Z" stroke="#330000" stroke-width="1.5" stroke-miterlimit="10"/>
<path d="M242.369 192.52L254.389 214.49" stroke="#330000" stroke-width="1.5" stroke-miterlimit="10"/>
<path d="M338.271 93.98C345.296 93.98 350.991 88.2851 350.991 81.26C350.991 74.235 345.296 68.54 338.271 68.54C331.246 68.54 325.551 74.235 325.551 81.26C325.551 88.2851 331.246 93.98 338.271 93.98Z" stroke="#330000" stroke-width="1.5" stroke-miterlimit="10"/>
<path d="M378.16 173.8H338.02V263.26H378.16V173.8Z" stroke="#330000" stroke-width="1.5" stroke-miterlimit="10"/>
<path d="M323.15 247.52H300.33V263.26H323.15V247.52Z" stroke="#330000" stroke-width="1.5" stroke-miterlimit="10"/>
<path d="M285.451 247.52H262.631V263.26H285.451V247.52Z" stroke="#330000" stroke-width="1.5" stroke-miterlimit="10"/>
<path d="M358.1 210.66V186.92" stroke="#330000" stroke-width="1.5" stroke-miterlimit="10"/>
<path d="M358.1 250.14V223.24" stroke="#330000" stroke-width="1.5" stroke-miterlimit="10"/>
<path d="M367.241 210.66H348.961V223.24H367.241V210.66Z" stroke="#330000" stroke-width="1.5" stroke-miterlimit="10"/>
</g>
<defs>
<clipPath id="clip0_392_29235">
<rect width="416.27" height="301.37" fill="white"/>
</clipPath>
</defs>
</svg>
