<svg fill="none" height="166" viewBox="0 0 269 166" width="269" xmlns="http://www.w3.org/2000/svg" xmlns:xlink="http://www.w3.org/1999/xlink"><clipPath id="a"><path d="m0 0h257v79h-257z" transform="matrix(.935975 -.352066 .352068 .935974 0 91.4789)"/></clipPath><g clip-path="url(#a)"><path d="m65.4292 123.267 29.8876-5.435 6.3382-1.153 24.22-4.397-4.209-9.686-.602-.875-106.2364 28.897 37.9707-5.037" fill="#0cc"/><path d="m211.373 68.3705-26.06 15.61-5.528 3.3099-21.113 12.6545-3.218-10.0581-.124-1.0544 98.945-48.2825-31.877 21.2367" fill="#0cc"/><path d="m146.63 116.696c10.508-3.953 15.835-15.645 11.896-26.1158-3.938-10.4703-15.65-15.7537-26.159-11.8008s-15.835 15.6453-11.897 26.1156c3.939 10.47 15.651 15.754 26.16 11.801z" fill="#0cc"/><path d="m104.714 136.031c6.121-2.302 9.223-9.113 6.929-15.211-2.294-6.099-9.116-9.176-15.2365-6.873-6.1209 2.302-9.2233 9.112-6.9294 15.211 2.294 6.098 9.1156 9.175 15.2369 6.873z" fill="#0cc"/><path d="m101.616 127.795c1.556-.585 2.344-2.316 1.761-3.866s-2.317-2.332-3.8726-1.747c-1.5558.585-2.3443 2.316-1.7613 3.866.5831 1.55 2.3169 2.333 3.8729 1.747z" fill="#ff4d41"/><path d="m63.1891 139.046c4.7003-1.768 7.0827-6.998 5.3212-11.681-1.7616-4.683-7-7.046-11.7003-5.278s-7.0827 6.998-5.3212 11.681c1.7616 4.683 7 7.046 11.7003 5.278z" fill="#0cc"/><path d="m60.8107 132.723c1.1954-.45 1.8012-1.78 1.3532-2.971s-1.7801-1.792-2.9755-1.342-1.8012 1.78-1.3532 2.971c.4479 1.191 1.7801 1.791 2.9755 1.342z" fill="#ff4d41"/><path d="m190.897 103.613c6.121-2.302 9.224-9.1124 6.93-15.2109s-9.116-9.1758-15.237-6.8734-9.223 9.1126-6.929 15.2111c2.294 6.0982 9.115 9.1762 15.236 6.8732z" fill="#0cc"/><path d="m187.8 95.3775c1.555-.5852 2.344-2.3162 1.761-3.8662-.583-1.5501-2.317-2.3322-3.873-1.747s-2.344 2.3161-1.761 3.8662c.583 1.55 2.317 2.3322 3.873 1.747z" fill="#ff4d41"/><path d="m224.115 78.5139c4.7-1.7681 7.083-6.9977 5.321-11.6808s-7-7.0462-11.7-5.2782c-4.701 1.7681-7.083 6.9977-5.321 11.6808 1.761 4.6831 6.999 7.0462 11.7 5.2782z" fill="#0cc"/><path d="m221.736 72.1909c1.196-.4497 1.802-1.7796 1.354-2.9706s-1.781-1.7919-2.976-1.3423-1.801 1.7796-1.353 2.9706c.448 1.1909 1.78 1.7919 2.975 1.3423z" fill="#ff4d41"/><path d="m126.049 94.6757 21.546-8.1044-4.515-2.9278-15.564 5.8544z" fill="#06c"/><path d="m129.768 79.7572-9.943-32.8864.946-.3559 14.196 31.2867" fill="#0cc"/><g stroke="#300" stroke-miterlimit="10" stroke-width="1.5"><path d="m107.717 115.58 18.158-3.298"/><path d="m65.4293 123.267 25.1463-4.573"/><path d="m119.911 102.038-105.0834 28.58 37.5628-4.982"/><path d="m146.63 116.696c10.508-3.953 15.835-15.645 11.896-26.1158-3.938-10.4703-15.65-15.7537-26.159-11.8008s-15.835 15.6453-11.897 26.1156c3.939 10.47 15.651 15.754 26.16 11.801z"/><path d="m119.098 95.5032-30.9132 7.5768"/><path d="m153.369 82.6121 28.243-14.6746"/><path d="m104.714 136.031c6.121-2.302 9.223-9.113 6.929-15.211-2.294-6.099-9.116-9.176-15.2365-6.873-6.1209 2.302-9.2233 9.112-6.9294 15.211 2.294 6.098 9.1156 9.175 15.2369 6.873z"/><path d="m101.616 127.795c1.556-.585 2.344-2.316 1.761-3.866s-2.317-2.332-3.8726-1.747c-1.5558.585-2.3443 2.316-1.7613 3.866.5831 1.55 2.3169 2.333 3.8729 1.747z"/><path d="m63.1891 139.046c4.7003-1.768 7.0827-6.998 5.3212-11.681-1.7616-4.683-7-7.046-11.7003-5.278s-7.0827 6.998-5.3212 11.681c1.7616 4.683 7 7.046 11.7003 5.278z"/><path d="m60.8107 132.723c1.1954-.45 1.8012-1.78 1.3532-2.971s-1.7801-1.792-2.9755-1.342-1.8012 1.78-1.3532 2.971c.4479 1.191 1.7801 1.791 2.9755 1.342z"/><path d="m190.897 103.613c6.121-2.302 9.224-9.1124 6.93-15.2109s-9.116-9.1758-15.237-6.8734-9.223 9.1126-6.929 15.2111c2.294 6.0982 9.115 9.1762 15.236 6.8732z"/><path d="m187.8 95.3775c1.555-.5852 2.344-2.3162 1.761-3.8662-.583-1.5501-2.317-2.3322-3.873-1.747s-2.344 2.3161-1.761 3.8662c.583 1.55 2.317 2.3322 3.873 1.747z"/><path d="m224.115 78.5139c4.7-1.7681 7.083-6.9977 5.321-11.6808s-7-7.0462-11.7-5.2782c-4.701 1.7681-7.083 6.9977-5.321 11.6808 1.761 4.6831 6.999 7.0462 11.7 5.2782z"/><path d="m221.736 72.1909c1.196-.4497 1.802-1.7796 1.354-2.9706s-1.781-1.7919-2.976-1.3423-1.801 1.7796-1.353 2.9706c.448 1.1909 1.78 1.7919 2.975 1.3423z"/><path d="m126.049 94.6757 21.546-8.1044-4.515-2.9278-15.564 5.8544z"/><path d="m129.768 79.7572-9.943-32.8864.946-.3559 14.196 31.2867"/><path d="m175.166 90.2092-15.836 9.4882"/><path d="m212.051 68.1094-21.946 13.1471"/><path d="m157.064 88.0626 98.124-47.8563-31.795 21.1071"/></g></g></svg>