<svg fill="none" height="25" viewBox="0 0 24 25" width="24" xmlns="http://www.w3.org/2000/svg"><mask height="17" maskUnits="userSpaceOnUse" width="11" x="6" y="4"><path d="m6.99689 12.54c-.00055.4414.18904.8617.52032 1.1534l7.43929 6.5448c.5127.4302 1.2751.3724 1.7172-.1302.442-.5025.402-1.2661-.0902-1.7197l-6.5054-5.7229c-.0361-.0316-.0568-.0773-.0568-.1254 0-.048.0207-.0937.0568-.1254l6.5054-5.72291c.4922-.4536.5322-1.21714.0902-1.71971-.4421-.50256-1.2045-.56033-1.7172-.13011l-7.43662 6.54273c-.33208.2922-.52257.7131-.52299 1.1554z" fill="#fff"/></mask><path d="m6.99689 12.54c-.00055.4414.18904.8617.52032 1.1534l7.43929 6.5448c.5127.4302 1.2751.3724 1.7172-.1302.442-.5025.402-1.2661-.0902-1.7197l-6.5054-5.7229c-.0361-.0316-.0568-.0773-.0568-.1254 0-.048.0207-.0937.0568-.1254l6.5054-5.72291c.4922-.4536.5322-1.21714.0902-1.71971-.4421-.50256-1.2045-.56033-1.7172-.13011l-7.43662 6.54273c-.33208.2922-.52257.7131-.52299 1.1554z" fill="#fbf6eb"/></svg>