<svg width="24" height="24" viewBox="0 0 24 24" fill="none" xmlns="http://www.w3.org/2000/svg">
<path d="M11.6806 16.803C11.2569 16.8035 10.8534 16.6215 10.5734 16.3035L4.29042 9.16173C3.87741 8.66952 3.93287 7.93762 4.41533 7.51327C4.89779 7.08891 5.63079 7.12733 6.06625 7.59979L11.5602 13.845C11.5906 13.8797 11.6345 13.8995 11.6806 13.8995C11.7268 13.8995 11.7706 13.8797 11.801 13.845L17.295 7.59979C17.5709 7.27105 18.0031 7.1175 18.4246 7.19857C18.846 7.27964 19.1904 7.5826 19.3246 7.99022C19.4588 8.39784 19.3617 8.84617 19.0709 9.16173L12.7898 16.3009C12.5093 16.6197 12.1053 16.8026 11.6806 16.803Z" fill="#FBF6EB"/>
<mask id="mask0_369_37875" style="mask-type:alpha" maskUnits="userSpaceOnUse" x="4" y="7" width="16" height="10">
<path d="M11.6806 16.803C11.2569 16.8035 10.8534 16.6215 10.5734 16.3035L4.29042 9.16173C3.87741 8.66952 3.93287 7.93762 4.41533 7.51327C4.89779 7.08891 5.63079 7.12733 6.06625 7.59979L11.5602 13.845C11.5906 13.8797 11.6345 13.8995 11.6806 13.8995C11.7268 13.8995 11.7706 13.8797 11.801 13.845L17.295 7.59979C17.5709 7.27105 18.0031 7.1175 18.4246 7.19857C18.846 7.27964 19.1904 7.5826 19.3246 7.99022C19.4588 8.39784 19.3617 8.84617 19.0709 9.16173L12.7898 16.3009C12.5093 16.6197 12.1053 16.8026 11.6806 16.803Z" fill="white"/>
</mask>
<g mask="url(#mask0_369_37875)">
</g>
</svg>
