<svg fill="none" height="289" viewBox="0 0 1286 289" width="1286" xmlns="http://www.w3.org/2000/svg"><path d="m1043.61 95.9395c127.18 0 231.47 66.9805 241.57 191.5605h-1284.18c0-133.86 135.11-224.6005 268.97-224.6005 62.973-.078 123.487 24.4361 168.65 68.3205 30.685-20.362 66.705-31.196 103.53-31.14 10.66-.001 21.301.899 31.81 2.69 23.683-31.7014 54.459-57.4171 89.864-75.089s74.456-26.80892 114.026-26.67965c39.57.12928 78.56 9.52125 113.849 27.42405 35.289 17.9029 65.896 43.8192 89.371 75.6746 20.4-5.4325 41.43-8.1757 62.54-8.1605z" fill="#fbf6eb" stroke="#7b0c00" stroke-miterlimit="10" stroke-width="1.2"/></svg>