<svg fill="none" height="2341" viewBox="0 0 1440 2341" width="1440" xmlns="http://www.w3.org/2000/svg" xmlns:xlink="http://www.w3.org/1999/xlink"><mask id="a" height="2341" maskUnits="userSpaceOnUse" width="1440" x="0" y="0"><path d="m0 0h1440v2341h-1440z" fill="#c4c4c4"/></mask><path d="m0 0h1440v2341h-1440z" fill="#fc6"/><g mask="url(#a)"><path d="m1481.44-30.3102 2.19 2.19 2.11 2.28c6 6.55 12 13.33 17.54 20.15l-239.41 202.6002c-1-1.18-4.86-6.44-5.89-7.61l-.92-.82.1-.11-1.51-1.65 16-14.82 192.64-218.3302c5.84 5.16 11.62 10.58 17.15 16.12zm-48.65-41-180.86 255.7102c-2.32-1.639-4.76-3.109-7.3-4.4l142.15-279.1302c15.98 8.1482 31.36 17.4355 46.01 27.79zm92.69 95.28c9.64 14.0942 18.37 28.7909 26.13 44l-279.15 142.1002c-1.69-3.288-3.59-6.464-5.68-9.51zm-175.58-139.4298-111.11 292.87c-2.69-1.017-5.45-1.84-8.26-2.46l68-305.78c17.47 3.894 34.63 9.03 51.37 15.37zm217.87 219.74c6.5 16.943 11.74 34.344 15.67 52.06l-305.86 67.66c-.58-2.568-1.35-5.091-2.29-7.55zm-308.87-241.71-34.82 311.3c-2.92-.322-5.86-.439-8.8-.35l-9.8-313.09c17.84-.553 35.69.162 53.42 2.14zm331.1 334.62c1.89 18.41 2.35 36.939 1.38 55.42l-312.78-16.61c.12-2.271.07-4.548-.17-6.81zm-424.51-333.35 43.23 310.24c-2.87.4-5.71 1.005-8.5 1.81l-87.16-300.89c17.19-4.969 34.71-8.699 52.43-11.16zm421.35 429.89c-3.05 17.93-7.43 35.609-13.1 52.89l-297.62-97.7c.82-2.469 1.45-4.996 1.89-7.56zm-511.84-405.42 119.15 289.69c-2.63 1.081-5.17 2.351-7.62 3.8l-159.67-269.5002c15.45-9.1425 31.54-17.1598 48.14-23.9898zm484.1 495.87c-7.3 16.101-15.72 31.675-25.18 46.61l-264.57-167.69c1.67-2.625 3.15-5.362 4.44-8.19zm-565.74-449.4802 187.83 250.6802c-2.37 1.774-4.6 3.716-6.69 5.81l.13-.14-222.479-220.5002.859-.86c12.605-12.604 26.089-24.2967 40.35-34.99zm517.84 528.1902c-9.51 12.072-19.72 23.572-30.58 34.44-1.44 1.44-2.89 2.866-4.35 4.28l-218-224.94.85-.84c2.11-2.11 4.1-4.344 5.94-6.69zm-341.26-266.62c-1.8 2.235-3.43 4.598-4.89 7.07l-269.87-159.0002c9.102-15.4358 19.302-30.1972 30.52-44.17zm82.63 85.4 194.25 245.74c-13.74 10.858-28.2 20.771-43.29 29.67l-159-269.86c2.81-1.663 5.49-3.517 8.04-5.55zm-90.45-72.67c-1.17 2.592-2.16 5.266-2.95 8l-301.06-86.49c4.955-17.214 11.137-34.0508 18.5-50.3802zm76.24 81.42 129.85 285.05c-16.34 7.445-33.19 13.702-50.43 18.72l-87.36-300.82c2.71-.792 5.37-1.778 7.94-2.95zm-80.65-67.06c-.49 2.886-.79 5.803-.88 8.73l-313.1-9.17c.528-17.845 2.322-35.63 5.37-53.22zm67.1 71.32 53.08 308.71c-18.15 3.116-36.52 4.837-54.94 5.15l-5.19-313.2c2.36-.038 4.72-.259 7.05-.66zm-67.82-56c.23 2.91.67 5.8 1.3 8.65l-305.63 68.67c-3.925-17.434-6.598-35.125-8-52.94zm55.65 56.44-31.23 311.68c-18.31-1.837-36.45-5.077-54.26-9.69l78.48-303.25c2.3.606 4.64 1.03 7.01 1.27zm-281.78 162.15-29.45-34s4.061-13.71 11.171-9.65 28.939 6.09 58.389-7.11 81-30.21 121.85-30.46 45.45 4.82 45.45 4.82l53-92.84c2.76 1.532 5.63 2.869 8.58 4l-111.43 292.75c-16.45-6.285-32.46-13.693-47.9-22.17l71.35-130zm229.19-203.72c.92 2.693 2.03 5.316 3.33 7.85l-278.81 142.83c-8.178-15.982-15.196-32.531-21-49.52zm24 30-176.12 259c-13.53-9.195-26.528-19.151-38.93-29.82l204.6-237.21c3.33 2.884 6.82 5.575 10.45 8.06zm-17.45-16.55c1.59 2.414 3.35 4.711 5.27 6.87l-87.48 77.56zm-229.12 214.64c-11.868-13.39-22.763-27.614-32.6-42.56z" fill="#ffe2a4"/><path d="m937.48 481.64c-11.868-13.39-22.763-27.613-32.6-42.56m576.56-469.3902 2.19 2.19 2.11 2.28c6 6.55 12 13.33 17.54 20.15l-239.41 202.6002c-1-1.18-4.86-6.44-5.89-7.61l-.92-.82.1-.11-1.51-1.65 16-14.82 192.64-218.3302c5.84 5.16 11.62 10.58 17.15 16.12zm-48.65-41-180.86 255.7102c-2.32-1.639-4.76-3.109-7.3-4.4l142.15-279.1302c15.98 8.1482 31.36 17.4355 46.01 27.79zm92.69 95.28c9.64 14.0942 18.37 28.7909 26.13 44l-279.15 142.1002c-1.69-3.288-3.59-6.464-5.68-9.51zm-175.58-139.4298-111.11 292.87c-2.69-1.017-5.45-1.84-8.26-2.46l68-305.78c17.47 3.894 34.63 9.03 51.37 15.37zm217.87 219.74c6.5 16.943 11.74 34.344 15.67 52.06l-305.86 67.66c-.58-2.568-1.35-5.091-2.29-7.55zm-308.87-241.71-34.82 311.3c-2.92-.322-5.86-.439-8.8-.35l-9.8-313.09c17.84-.553 35.69.162 53.42 2.14zm331.1 334.62c1.89 18.41 2.35 36.939 1.38 55.42l-312.78-16.61c.12-2.271.07-4.548-.17-6.81zm-424.51-333.35 43.23 310.24c-2.87.4-5.71 1.005-8.5 1.81l-87.16-300.89c17.19-4.969 34.71-8.699 52.43-11.16zm421.35 429.89c-3.05 17.93-7.43 35.609-13.1 52.89l-297.62-97.7c.82-2.469 1.45-4.996 1.89-7.56zm-511.84-405.42 119.15 289.69c-2.63 1.081-5.17 2.351-7.62 3.8l-159.67-269.5002c15.45-9.1425 31.54-17.1598 48.14-23.9898zm484.1 495.87c-7.3 16.101-15.72 31.675-25.18 46.61l-264.57-167.69c1.67-2.625 3.15-5.362 4.44-8.19zm-565.74-449.4802 187.83 250.6802c-2.37 1.774-4.6 3.716-6.69 5.81l.13-.14-222.479-220.5002.859-.86c12.605-12.604 26.089-24.2967 40.35-34.99zm517.84 528.1902c-9.51 12.072-19.72 23.572-30.58 34.44-1.44 1.44-2.89 2.866-4.35 4.28l-218-224.94.85-.84c2.11-2.11 4.1-4.344 5.94-6.69zm-341.26-266.62c-1.8 2.235-3.43 4.598-4.89 7.07l-269.87-159.0002c9.102-15.4358 19.302-30.1972 30.52-44.17zm82.63 85.4 194.25 245.74c-13.74 10.858-28.2 20.771-43.29 29.67l-159-269.86c2.81-1.663 5.49-3.517 8.04-5.55zm-90.45-72.67c-1.17 2.592-2.16 5.266-2.95 8l-301.06-86.49c4.955-17.214 11.137-34.0508 18.5-50.3802zm76.24 81.42 129.85 285.05c-16.34 7.445-33.19 13.702-50.43 18.72l-87.36-300.82c2.71-.792 5.37-1.778 7.94-2.95zm-80.65-67.06c-.49 2.886-.79 5.803-.88 8.73l-313.1-9.17c.528-17.845 2.322-35.63 5.37-53.22zm67.1 71.32 53.08 308.71c-18.15 3.116-36.52 4.837-54.94 5.15l-5.19-313.2c2.36-.038 4.72-.259 7.05-.66zm-67.82-56c.23 2.91.67 5.8 1.3 8.65l-305.63 68.67c-3.925-17.434-6.598-35.125-8-52.94zm55.65 56.44-31.23 311.68c-18.31-1.837-36.45-5.077-54.26-9.69l78.48-303.25c2.3.606 4.64 1.03 7.01 1.27zm-281.78 162.15-29.45-34s4.061-13.71 11.171-9.65 28.939 6.09 58.389-7.11 81-30.21 121.85-30.46 45.45 4.82 45.45 4.82l53-92.84c2.76 1.532 5.63 2.869 8.58 4l-111.43 292.75c-16.45-6.285-32.46-13.693-47.9-22.17l71.35-130zm229.19-203.72c.92 2.693 2.03 5.316 3.33 7.85l-278.81 142.83c-8.178-15.982-15.196-32.531-21-49.52zm24 30-176.12 259c-13.53-9.195-26.528-19.151-38.93-29.82l204.6-237.21c3.33 2.884 6.82 5.575 10.45 8.06zm-17.45-16.55c1.59 2.414 3.35 4.711 5.27 6.87l-87.48 77.56z" stroke="#7b0c00" stroke-miterlimit="10" stroke-width=".8"/><path d="m-25.3496-46.4302 192.6096 218.3302 16 14.82-1.51 1.65.1.11-.92.82c-1 1.17-4.93 6.43-5.89 7.61l-239.3696-202.6002c5.58-6.82 11.48-13.6 17.53-20.15l2.11-2.28 2.19-2.19c5.5-5.54 11.31-10.96 17.15-16.12zm77.51-52.7 142.1496 279.1302c-2.533 1.288-4.969 2.759-7.29 4.4l-180.86956-255.7402c14.65046-10.3545 30.02686-19.6418 46.00996-27.79zm119.9996 299.6902c-2.093 3.046-3.99 6.222-5.68 9.51l-279.15-142.0702c7.763-15.2091 16.4907-29.9058 26.1304-44zm-31.75-331.39 68 305.78c-2.808.62-5.569 1.443-8.26 2.46l-111.1496-292.87c16.7486-6.342 33.9296-11.478 51.4096-15.37zm23.24 347.24c-.942 2.459-1.707 4.982-2.29 7.55l-305.86-67.62c3.938-17.715 9.176-35.115 15.67-52.06zm69.81-356-9.8 313.09c-2.937-.089-5.878.028-8.8.35l-34.86-311.28c17.747-1.98 35.612-2.695 53.46-2.14zm-72.95 368.81c-.231 2.262-.288 4.539-.17 6.81l-312.8 16.58c-.979-18.481-.521-37.01 1.37-55.42zm165.37-354.22-87.16 300.89c-2.786-.806-5.627-1.411-8.5-1.81l43.23-310.24c17.721 2.461 35.243 6.191 52.43 11.16zm-164.95 366.36c.444 2.563 1.075 5.09 1.89 7.56l-297.62 97.7c-5.67-17.281-10.049-34.96-13.1-52.89zm251.15-329.0002-159.67 269.4502c-2.443-1.451-4.99-2.721-7.62-3.8l119.15-289.7c16.602 6.835 32.69 14.8555 48.14 23.9998zm-246.93 342.5502c1.291 2.828 2.775 5.565 4.44 8.19l-264.5896 167.69c-9.4624-14.935-17.8754-30.509-25.1804-46.61zm320.78-285.2202.86.86-222.48 220.5002.13.14c-2.088-2.094-4.324-4.036-6.69-5.81l187.83-250.6802c14.262 10.6933 27.746 22.386 40.35 34.99zm-312.06 299.4502c1.846 2.348 3.833 4.582 5.95 6.69l.85.84-217.9996 224.94c-1.4733-1.414-2.9266-2.84-4.36-4.28-10.8629-10.868-21.074-22.368-30.58-34.44zm339.38-269.000199c11.213 13.975599 21.409 28.736699 30.51 44.169999l-269.87 159.0002c-1.453-2.472-3.084-4.835-4.88-7.07zm-318.79 287.080199-158.9996 269.86c-15.0849-8.899-29.54823-18.812-43.28997-29.67l194.19957-245.74c2.567 2.032 5.27 3.887 8.09 5.55zm367.87-207.0902c7.364 16.3294 13.546 33.1662 18.5 50.3802l-301.06 86.49c-.789-2.734-1.775-5.408-2.95-8zm-353.81 213.2402-87.36 300.82c-17.238-5.018-34.092-11.275-50.4296-18.72l129.8496-285c2.575 1.154 5.228 2.123 7.94 2.9zm381.32-123.67c3.047 17.591 4.845 35.375 5.38 53.22l-313.11 9.17c-.087-2.927-.381-5.845-.88-8.73zm-368.66 125.64-5.18 313.2c-18.417-.313-36.784-2.035-54.94-5.15l53.08-308.71c2.327.4 4.68.621 7.04.66zm373.06-32.34c-1.401 17.815-4.075 35.506-8 52.94l-305.59-68.6c.635-2.85 1.07-5.74 1.3-8.65zm-360.93 30.87 78.49 303.25c-17.815 4.612-35.958 7.852-54.27 9.69l-31.23-311.68c2.366-.236 4.71-.658 7.01-1.26zm93.76 138.78 71.35 130c-15.44 8.478-31.444 15.885-47.9 22.17l-111.43-292.82c2.95-1.131 5.817-2.468 8.58-4l53 92.84s4.56-5.08 45.44-4.82 92.41 17.28 121.89 30.48 51.28 11.17 58.39 7.11 11.17 9.65 11.17 9.65l-29.45 34zm248.32-77.95c-5.803 16.989-12.821 33.538-21 49.52l-278.82-142.78c1.289-2.536 2.398-5.159 3.32-7.85zm-310-79.19 204.53 237.22c-12.396 10.693-25.39 20.672-38.92 29.89l-176.12-259c3.639-2.498 7.132-5.202 10.46-8.1zm89.21 75.87-87.48-77.56c1.921-2.16 3.683-4.456 5.27-6.87zm179.46 87.7c-9.836 14.946-20.731 29.17-32.6 42.56z" fill="#ffe2a4"/><path d="m534.06 439.08c-9.836 14.947-20.731 29.17-32.6 42.56m-526.8096-528.0702 192.6096 218.3302 16 14.82-1.51 1.65.1.11-.92.82c-1 1.17-4.93 6.43-5.89 7.61l-239.3696-202.6002c5.58-6.82 11.48-13.6 17.53-20.15l2.11-2.28 2.19-2.19c5.5-5.54 11.31-10.96 17.15-16.12zm77.51-52.7 142.1496 279.1302c-2.533 1.288-4.969 2.759-7.29 4.4l-180.86956-255.7402c14.65056-10.3545 30.02686-19.6418 46.00996-27.79zm119.9996 299.6902c-2.093 3.046-3.99 6.222-5.68 9.51l-279.15-142.0702c7.763-15.2091 16.4907-29.9058 26.1304-44zm-31.75-331.39 68 305.78c-2.808.62-5.569 1.443-8.26 2.46l-111.1496-292.87c16.7486-6.342 33.9296-11.478 51.4096-15.37zm23.24 347.24c-.942 2.459-1.707 4.982-2.29 7.55l-305.86-67.62c3.938-17.715 9.176-35.115 15.67-52.06zm69.81-356-9.8 313.09c-2.937-.089-5.878.028-8.8.35l-34.86-311.28c17.747-1.98 35.612-2.695 53.46-2.14zm-72.95 368.81c-.231 2.262-.288 4.539-.17 6.81l-312.8 16.58c-.979-18.481-.521-37.01 1.37-55.42zm165.37-354.22-87.16 300.89c-2.786-.806-5.627-1.411-8.5-1.81l43.23-310.24c17.721 2.461 35.243 6.191 52.43 11.16zm-164.95 366.36c.444 2.563 1.075 5.09 1.89 7.56l-297.62 97.7c-5.67-17.281-10.049-34.96-13.1-52.89zm251.15-329.0002-159.67 269.4502c-2.443-1.451-4.99-2.721-7.62-3.8l119.15-289.7c16.602 6.835 32.69 14.8555 48.14 23.9998zm-246.93 342.5502c1.291 2.828 2.775 5.565 4.44 8.19l-264.5896 167.69c-9.4624-14.935-17.8754-30.509-25.1804-46.61zm320.78-285.2202.86.86-222.48 220.5002.13.14c-2.088-2.094-4.324-4.036-6.69-5.81l187.83-250.6802c14.262 10.6933 27.746 22.386 40.35 34.99zm-312.06 299.4502c1.846 2.348 3.833 4.582 5.95 6.69l.85.84-217.9996 224.94c-1.4733-1.414-2.9266-2.84-4.36-4.28-10.8629-10.868-21.074-22.368-30.58-34.44zm339.38-269.000199c11.213 13.975599 21.409 28.736699 30.51 44.169999l-269.87 159.0002c-1.453-2.472-3.084-4.835-4.88-7.07zm-318.79 287.080199-158.9996 269.86c-15.0849-8.899-29.54823-18.812-43.28997-29.67l194.19957-245.74c2.567 2.032 5.27 3.887 8.09 5.55zm367.87-207.0902c7.364 16.3294 13.546 33.1662 18.5 50.3802l-301.06 86.49c-.789-2.734-1.775-5.408-2.95-8zm-353.81 213.2402-87.36 300.82c-17.238-5.018-34.092-11.275-50.4296-18.72l129.8496-285c2.575 1.154 5.228 2.123 7.94 2.9zm381.32-123.67c3.047 17.591 4.845 35.375 5.38 53.22l-313.11 9.17c-.087-2.927-.381-5.845-.88-8.73zm-368.66 125.64-5.18 313.2c-18.417-.313-36.784-2.035-54.94-5.15l53.08-308.71c2.327.4 4.68.621 7.04.66zm373.06-32.34c-1.401 17.815-4.075 35.506-8 52.94l-305.59-68.6c.635-2.85 1.07-5.74 1.3-8.65zm-360.93 30.87 78.49 303.25c-17.815 4.612-35.958 7.852-54.27 9.69l-31.23-311.68c2.366-.236 4.71-.658 7.01-1.26zm93.76 138.78 71.35 130c-15.44 8.478-31.444 15.885-47.9 22.17l-111.43-292.82c2.95-1.131 5.817-2.468 8.58-4l53 92.84s4.56-5.08 45.44-4.82 92.41 17.28 121.89 30.48 51.28 11.17 58.39 7.11 11.17 9.65 11.17 9.65l-29.45 34zm248.32-77.95c-5.803 16.989-12.821 33.538-21 49.52l-278.82-142.78c1.289-2.536 2.398-5.159 3.32-7.85zm-310-79.19 204.53 237.22c-12.396 10.693-25.39 20.672-38.92 29.89l-176.12-259c3.639-2.498 7.132-5.202 10.46-8.1zm89.21 75.87-87.48-77.56c1.921-2.159 3.683-4.456 5.27-6.87z" stroke="#7b0c00" stroke-miterlimit="10" stroke-width=".8"/><path d="m1481.44-30.3102 2.19 2.19 2.11 2.28c6 6.55 12 13.33 17.54 20.15l-239.41 202.6002c-1-1.18-4.86-6.44-5.89-7.61l-.92-.82.1-.11-1.51-1.65 16-14.82 192.64-218.3302c5.84 5.16 11.62 10.58 17.15 16.12zm-48.65-41-180.86 255.7102c-2.32-1.639-4.76-3.109-7.3-4.4l142.15-279.1302c15.98 8.1482 31.36 17.4355 46.01 27.79zm92.69 95.28c9.64 14.0942 18.37 28.7909 26.13 44l-279.15 142.1002c-1.69-3.288-3.59-6.464-5.68-9.51zm-175.58-139.4298-111.11 292.87c-2.69-1.017-5.45-1.84-8.26-2.46l68-305.78c17.47 3.894 34.63 9.03 51.37 15.37zm217.87 219.74c6.5 16.943 11.74 34.344 15.67 52.06l-305.86 67.66c-.58-2.568-1.35-5.091-2.29-7.55zm-308.87-241.71-34.82 311.3c-2.92-.322-5.86-.439-8.8-.35l-9.8-313.09c17.84-.553 35.69.162 53.42 2.14zm331.1 334.62c1.89 18.41 2.35 36.939 1.38 55.42l-312.78-16.61c.12-2.271.07-4.548-.17-6.81zm-424.51-333.35 43.23 310.24c-2.87.4-5.71 1.005-8.5 1.81l-87.16-300.89c17.19-4.969 34.71-8.699 52.43-11.16zm421.35 429.89c-3.05 17.93-7.43 35.609-13.1 52.89l-297.62-97.7c.82-2.469 1.45-4.996 1.89-7.56zm-511.84-405.42 119.15 289.69c-2.63 1.081-5.17 2.351-7.62 3.8l-159.67-269.5002c15.45-9.1425 31.54-17.1598 48.14-23.9898zm484.1 495.87c-7.3 16.101-15.72 31.675-25.18 46.61l-264.57-167.69c1.67-2.625 3.15-5.362 4.44-8.19zm-565.74-449.4802 187.83 250.6802c-2.37 1.774-4.6 3.716-6.69 5.81l.13-.14-222.479-220.5002.859-.86c12.605-12.604 26.089-24.2967 40.35-34.99zm517.84 528.1902c-9.51 12.072-19.72 23.572-30.58 34.44-1.44 1.44-2.89 2.866-4.35 4.28l-218-224.94.85-.84c2.11-2.11 4.1-4.344 5.94-6.69zm-341.26-266.62c-1.8 2.235-3.43 4.598-4.89 7.07l-269.87-159.0002c9.102-15.4358 19.302-30.1972 30.52-44.17zm82.63 85.4 194.25 245.74c-13.74 10.858-28.2 20.771-43.29 29.67l-159-269.86c2.81-1.663 5.49-3.517 8.04-5.55zm-90.45-72.67c-1.17 2.592-2.16 5.266-2.95 8l-301.06-86.49c4.955-17.214 11.137-34.0508 18.5-50.3802zm76.24 81.42 129.85 285.05c-16.34 7.445-33.19 13.702-50.43 18.72l-87.36-300.82c2.71-.792 5.37-1.778 7.94-2.95zm-80.65-67.06c-.49 2.886-.79 5.803-.88 8.73l-313.1-9.17c.528-17.845 2.322-35.63 5.37-53.22zm67.1 71.32 53.08 308.71c-18.15 3.116-36.52 4.837-54.94 5.15l-5.19-313.2c2.36-.038 4.72-.259 7.05-.66zm-67.82-56c.23 2.91.67 5.8 1.3 8.65l-305.63 68.67c-3.925-17.434-6.598-35.125-8-52.94zm55.65 56.44-31.23 311.68c-18.31-1.837-36.45-5.077-54.26-9.69l78.48-303.25c2.3.606 4.64 1.03 7.01 1.27zm-281.78 162.15-29.45-34s4.061-13.71 11.171-9.65 28.939 6.09 58.389-7.11 81-30.21 121.85-30.46 45.45 4.82 45.45 4.82l53-92.84c2.76 1.532 5.63 2.869 8.58 4l-111.43 292.75c-16.45-6.285-32.46-13.693-47.9-22.17l71.35-130zm229.19-203.72c.92 2.693 2.03 5.316 3.33 7.85l-278.81 142.83c-8.178-15.982-15.196-32.531-21-49.52zm24 30-176.12 259c-13.53-9.195-26.528-19.151-38.93-29.82l204.6-237.21c3.33 2.884 6.82 5.575 10.45 8.06zm-17.45-16.55c1.59 2.414 3.35 4.711 5.27 6.87l-87.48 77.56zm-229.12 214.64c-11.868-13.39-22.763-27.614-32.6-42.56z" fill="#ffe2a4"/><path d="m937.48 481.64c-11.868-13.39-22.763-27.613-32.6-42.56m576.56-469.3902 2.19 2.19 2.11 2.28c6 6.55 12 13.33 17.54 20.15l-239.41 202.6002c-1-1.18-4.86-6.44-5.89-7.61l-.92-.82.1-.11-1.51-1.65 16-14.82 192.64-218.3302c5.84 5.16 11.62 10.58 17.15 16.12zm-48.65-41-180.86 255.7102c-2.32-1.639-4.76-3.109-7.3-4.4l142.15-279.1302c15.98 8.1482 31.36 17.4355 46.01 27.79zm92.69 95.28c9.64 14.0942 18.37 28.7909 26.13 44l-279.15 142.1002c-1.69-3.288-3.59-6.464-5.68-9.51zm-175.58-139.4298-111.11 292.87c-2.69-1.017-5.45-1.84-8.26-2.46l68-305.78c17.47 3.894 34.63 9.03 51.37 15.37zm217.87 219.74c6.5 16.943 11.74 34.344 15.67 52.06l-305.86 67.66c-.58-2.568-1.35-5.091-2.29-7.55zm-308.87-241.71-34.82 311.3c-2.92-.322-5.86-.439-8.8-.35l-9.8-313.09c17.84-.553 35.69.162 53.42 2.14zm331.1 334.62c1.89 18.41 2.35 36.939 1.38 55.42l-312.78-16.61c.12-2.271.07-4.548-.17-6.81zm-424.51-333.35 43.23 310.24c-2.87.4-5.71 1.005-8.5 1.81l-87.16-300.89c17.19-4.969 34.71-8.699 52.43-11.16zm421.35 429.89c-3.05 17.93-7.43 35.609-13.1 52.89l-297.62-97.7c.82-2.469 1.45-4.996 1.89-7.56zm-511.84-405.42 119.15 289.69c-2.63 1.081-5.17 2.351-7.62 3.8l-159.67-269.5002c15.45-9.1425 31.54-17.1598 48.14-23.9898zm484.1 495.87c-7.3 16.101-15.72 31.675-25.18 46.61l-264.57-167.69c1.67-2.625 3.15-5.362 4.44-8.19zm-565.74-449.4802 187.83 250.6802c-2.37 1.774-4.6 3.716-6.69 5.81l.13-.14-222.479-220.5002.859-.86c12.605-12.604 26.089-24.2967 40.35-34.99zm517.84 528.1902c-9.51 12.072-19.72 23.572-30.58 34.44-1.44 1.44-2.89 2.866-4.35 4.28l-218-224.94.85-.84c2.11-2.11 4.1-4.344 5.94-6.69zm-341.26-266.62c-1.8 2.235-3.43 4.598-4.89 7.07l-269.87-159.0002c9.102-15.4358 19.302-30.1972 30.52-44.17zm82.63 85.4 194.25 245.74c-13.74 10.858-28.2 20.771-43.29 29.67l-159-269.86c2.81-1.663 5.49-3.517 8.04-5.55zm-90.45-72.67c-1.17 2.592-2.16 5.266-2.95 8l-301.06-86.49c4.955-17.214 11.137-34.0508 18.5-50.3802zm76.24 81.42 129.85 285.05c-16.34 7.445-33.19 13.702-50.43 18.72l-87.36-300.82c2.71-.792 5.37-1.778 7.94-2.95zm-80.65-67.06c-.49 2.886-.79 5.803-.88 8.73l-313.1-9.17c.528-17.845 2.322-35.63 5.37-53.22zm67.1 71.32 53.08 308.71c-18.15 3.116-36.52 4.837-54.94 5.15l-5.19-313.2c2.36-.038 4.72-.259 7.05-.66zm-67.82-56c.23 2.91.67 5.8 1.3 8.65l-305.63 68.67c-3.925-17.434-6.598-35.125-8-52.94zm55.65 56.44-31.23 311.68c-18.31-1.837-36.45-5.077-54.26-9.69l78.48-303.25c2.3.606 4.64 1.03 7.01 1.27zm-281.78 162.15-29.45-34s4.061-13.71 11.171-9.65 28.939 6.09 58.389-7.11 81-30.21 121.85-30.46 45.45 4.82 45.45 4.82l53-92.84c2.76 1.532 5.63 2.869 8.58 4l-111.43 292.75c-16.45-6.285-32.46-13.693-47.9-22.17l71.35-130zm229.19-203.72c.92 2.693 2.03 5.316 3.33 7.85l-278.81 142.83c-8.178-15.982-15.196-32.531-21-49.52zm24 30-176.12 259c-13.53-9.195-26.528-19.151-38.93-29.82l204.6-237.21c3.33 2.884 6.82 5.575 10.45 8.06zm-17.45-16.55c1.59 2.414 3.35 4.711 5.27 6.87l-87.48 77.56z" stroke="#7b0c00" stroke-miterlimit="10" stroke-width=".8"/><path d="m-25.3496-46.4302 192.6096 218.3302 16 14.82-1.51 1.65.1.11-.92.82c-1 1.17-4.93 6.43-5.89 7.61l-239.3696-202.6002c5.58-6.82 11.48-13.6 17.53-20.15l2.11-2.28 2.19-2.19c5.5-5.54 11.31-10.96 17.15-16.12zm77.51-52.7 142.1496 279.1302c-2.533 1.288-4.969 2.759-7.29 4.4l-180.86956-255.7402c14.65046-10.3545 30.02686-19.6418 46.00996-27.79zm119.9996 299.6902c-2.093 3.046-3.99 6.222-5.68 9.51l-279.15-142.0702c7.763-15.2091 16.4907-29.9058 26.1304-44zm-31.75-331.39 68 305.78c-2.808.62-5.569 1.443-8.26 2.46l-111.1496-292.87c16.7486-6.342 33.9296-11.478 51.4096-15.37zm23.24 347.24c-.942 2.459-1.707 4.982-2.29 7.55l-305.86-67.62c3.938-17.715 9.176-35.115 15.67-52.06zm69.81-356-9.8 313.09c-2.937-.089-5.878.028-8.8.35l-34.86-311.28c17.747-1.98 35.612-2.695 53.46-2.14zm-72.95 368.81c-.231 2.262-.288 4.539-.17 6.81l-312.8 16.58c-.979-18.481-.521-37.01 1.37-55.42zm165.37-354.22-87.16 300.89c-2.786-.806-5.627-1.411-8.5-1.81l43.23-310.24c17.721 2.461 35.243 6.191 52.43 11.16zm-164.95 366.36c.444 2.563 1.075 5.09 1.89 7.56l-297.62 97.7c-5.67-17.281-10.049-34.96-13.1-52.89zm251.15-329.0002-159.67 269.4502c-2.443-1.451-4.99-2.721-7.62-3.8l119.15-289.7c16.602 6.835 32.69 14.8555 48.14 23.9998zm-246.93 342.5502c1.291 2.828 2.775 5.565 4.44 8.19l-264.5896 167.69c-9.4624-14.935-17.8754-30.509-25.1804-46.61zm320.78-285.2202.86.86-222.48 220.5002.13.14c-2.088-2.094-4.324-4.036-6.69-5.81l187.83-250.6802c14.262 10.6933 27.746 22.386 40.35 34.99zm-312.06 299.4502c1.846 2.348 3.833 4.582 5.95 6.69l.85.84-217.9996 224.94c-1.4733-1.414-2.9266-2.84-4.36-4.28-10.8629-10.868-21.074-22.368-30.58-34.44zm339.38-269.000199c11.213 13.975599 21.409 28.736699 30.51 44.169999l-269.87 159.0002c-1.453-2.472-3.084-4.835-4.88-7.07zm-318.79 287.080199-158.9996 269.86c-15.0849-8.899-29.54823-18.812-43.28997-29.67l194.19957-245.74c2.567 2.032 5.27 3.887 8.09 5.55zm367.87-207.0902c7.364 16.3294 13.546 33.1662 18.5 50.3802l-301.06 86.49c-.789-2.734-1.775-5.408-2.95-8zm-353.81 213.2402-87.36 300.82c-17.238-5.018-34.092-11.275-50.4296-18.72l129.8496-285c2.575 1.154 5.228 2.123 7.94 2.9zm381.32-123.67c3.047 17.591 4.845 35.375 5.38 53.22l-313.11 9.17c-.087-2.927-.381-5.845-.88-8.73zm-368.66 125.64-5.18 313.2c-18.417-.313-36.784-2.035-54.94-5.15l53.08-308.71c2.327.4 4.68.621 7.04.66zm373.06-32.34c-1.401 17.815-4.075 35.506-8 52.94l-305.59-68.6c.635-2.85 1.07-5.74 1.3-8.65zm-360.93 30.87 78.49 303.25c-17.815 4.612-35.958 7.852-54.27 9.69l-31.23-311.68c2.366-.236 4.71-.658 7.01-1.26zm93.76 138.78 71.35 130c-15.44 8.478-31.444 15.885-47.9 22.17l-111.43-292.82c2.95-1.131 5.817-2.468 8.58-4l53 92.84s4.56-5.08 45.44-4.82 92.41 17.28 121.89 30.48 51.28 11.17 58.39 7.11 11.17 9.65 11.17 9.65l-29.45 34zm248.32-77.95c-5.803 16.989-12.821 33.538-21 49.52l-278.82-142.78c1.289-2.536 2.398-5.159 3.32-7.85zm-310-79.19 204.53 237.22c-12.396 10.693-25.39 20.672-38.92 29.89l-176.12-259c3.639-2.498 7.132-5.202 10.46-8.1zm89.21 75.87-87.48-77.56c1.921-2.16 3.683-4.456 5.27-6.87zm179.46 87.7c-9.836 14.946-20.731 29.17-32.6 42.56z" fill="#ffe2a4"/><g stroke="#7b0c00" stroke-miterlimit="10"><path d="m534.06 439.08c-9.836 14.947-20.731 29.17-32.6 42.56m-526.8096-528.0702 192.6096 218.3302 16 14.82-1.51 1.65.1.11-.92.82c-1 1.17-4.93 6.43-5.89 7.61l-239.3696-202.6002c5.58-6.82 11.48-13.6 17.53-20.15l2.11-2.28 2.19-2.19c5.5-5.54 11.31-10.96 17.15-16.12zm77.51-52.7 142.1496 279.1302c-2.533 1.288-4.969 2.759-7.29 4.4l-180.86956-255.7402c14.65056-10.3545 30.02686-19.6418 46.00996-27.79zm119.9996 299.6902c-2.093 3.046-3.99 6.222-5.68 9.51l-279.15-142.0702c7.763-15.2091 16.4907-29.9058 26.1304-44zm-31.75-331.39 68 305.78c-2.808.62-5.569 1.443-8.26 2.46l-111.1496-292.87c16.7486-6.342 33.9296-11.478 51.4096-15.37zm23.24 347.24c-.942 2.459-1.707 4.982-2.29 7.55l-305.86-67.62c3.938-17.715 9.176-35.115 15.67-52.06zm69.81-356-9.8 313.09c-2.937-.089-5.878.028-8.8.35l-34.86-311.28c17.747-1.98 35.612-2.695 53.46-2.14zm-72.95 368.81c-.231 2.262-.288 4.539-.17 6.81l-312.8 16.58c-.979-18.481-.521-37.01 1.37-55.42zm165.37-354.22-87.16 300.89c-2.786-.806-5.627-1.411-8.5-1.81l43.23-310.24c17.721 2.461 35.243 6.191 52.43 11.16zm-164.95 366.36c.444 2.563 1.075 5.09 1.89 7.56l-297.62 97.7c-5.67-17.281-10.049-34.96-13.1-52.89zm251.15-329.0002-159.67 269.4502c-2.443-1.451-4.99-2.721-7.62-3.8l119.15-289.7c16.602 6.835 32.69 14.8555 48.14 23.9998zm-246.93 342.5502c1.291 2.828 2.775 5.565 4.44 8.19l-264.5896 167.69c-9.4624-14.935-17.8754-30.509-25.1804-46.61zm320.78-285.2202.86.86-222.48 220.5002.13.14c-2.088-2.094-4.324-4.036-6.69-5.81l187.83-250.6802c14.262 10.6933 27.746 22.386 40.35 34.99zm-312.06 299.4502c1.846 2.348 3.833 4.582 5.95 6.69l.85.84-217.9996 224.94c-1.4733-1.414-2.9266-2.84-4.36-4.28-10.8629-10.868-21.074-22.368-30.58-34.44zm339.38-269.000199c11.213 13.975599 21.409 28.736699 30.51 44.169999l-269.87 159.0002c-1.453-2.472-3.084-4.835-4.88-7.07zm-318.79 287.080199-158.9996 269.86c-15.0849-8.899-29.54823-18.812-43.28997-29.67l194.19957-245.74c2.567 2.032 5.27 3.887 8.09 5.55zm367.87-207.0902c7.364 16.3294 13.546 33.1662 18.5 50.3802l-301.06 86.49c-.789-2.734-1.775-5.408-2.95-8zm-353.81 213.2402-87.36 300.82c-17.238-5.018-34.092-11.275-50.4296-18.72l129.8496-285c2.575 1.154 5.228 2.123 7.94 2.9zm381.32-123.67c3.047 17.591 4.845 35.375 5.38 53.22l-313.11 9.17c-.087-2.927-.381-5.845-.88-8.73zm-368.66 125.64-5.18 313.2c-18.417-.313-36.784-2.035-54.94-5.15l53.08-308.71c2.327.4 4.68.621 7.04.66zm373.06-32.34c-1.401 17.815-4.075 35.506-8 52.94l-305.59-68.6c.635-2.85 1.07-5.74 1.3-8.65zm-360.93 30.87 78.49 303.25c-17.815 4.612-35.958 7.852-54.27 9.69l-31.23-311.68c2.366-.236 4.71-.658 7.01-1.26zm93.76 138.78 71.35 130c-15.44 8.478-31.444 15.885-47.9 22.17l-111.43-292.82c2.95-1.131 5.817-2.468 8.58-4l53 92.84s4.56-5.08 45.44-4.82 92.41 17.28 121.89 30.48 51.28 11.17 58.39 7.11 11.17 9.65 11.17 9.65l-29.45 34zm248.32-77.95c-5.803 16.989-12.821 33.538-21 49.52l-278.82-142.78c1.289-2.536 2.398-5.159 3.32-7.85zm-310-79.19 204.53 237.22c-12.396 10.693-25.39 20.672-38.92 29.89l-176.12-259c3.639-2.498 7.132-5.202 10.46-8.1zm89.21 75.87-87.48-77.56c1.921-2.159 3.683-4.456 5.27-6.87z" stroke-width=".8"/><path d="m1280.46 184.598c31.85-13.195 46.98-49.714 33.79-81.569-13.2-31.8544-49.72-46.9812-81.57-33.7866-31.86 13.1945-46.98 49.7146-33.79 81.5686 13.2 31.855 49.72 46.982 81.57 33.787z" fill="#ffd270" stroke-width=".8"/><path d="m1275.63 172.948c25.42-10.53 37.5-39.673 26.97-65.093-10.53-25.4207-39.68-37.4922-65.1-26.9627-25.42 10.5294-37.49 39.6727-26.96 65.0927 10.53 25.421 39.67 37.492 65.09 26.963z" fill="#ffe1a3" stroke-width=".8"/><path d="m1270.8 161.288c18.99-7.862 28-29.623 20.14-48.604-7.87-18.9808-29.63-27.9944-48.61-20.1322s-27.99 29.6232-20.13 48.6042 29.62 27.995 48.6 20.132z" fill="#ffd270" stroke-width=".8"/><path d="m1256.57 151.51c13.58 0 24.59-11.01 24.59-24.59 0-13.581-11.01-24.59-24.59-24.59-13.59 0-24.59 11.009-24.59 24.59 0 13.58 11 24.59 24.59 24.59z" fill="#ffe1a3" stroke-width=".8"/><path d="m1427.76 256.003c40.16-40.162 40.16-105.277 0-145.438-40.16-40.1616-105.27-40.1617-145.43 0-40.17 40.161-40.17 105.276 0 145.438 40.16 40.161 105.27 40.161 145.43 0z" fill="#ffd270" stroke-width=".8"/><path d="m1386.45 259.106c41.87-17.343 61.75-65.346 44.41-107.217-17.35-41.87-65.35-61.7535-107.22-44.41-41.87 17.343-61.75 65.346-44.41 107.216 17.34 41.871 65.35 61.754 107.22 44.411z" fill="#ffe1a3" stroke-width=".8"/><path d="m1378.49 239.908c31.27-12.952 46.12-48.799 33.17-80.066-12.95-31.268-48.8-46.116-80.07-33.165-31.26 12.952-46.11 48.798-33.16 80.066s48.8 46.116 80.06 33.165z" fill="#ffd270" stroke-width=".8"/><path d="m1355.05 223.79c22.36 0 40.5-18.132 40.5-40.5 0-22.367-18.14-40.5-40.5-40.5-22.37 0-40.5 18.133-40.5 40.5 0 22.368 18.13 40.5 40.5 40.5z" fill="#ffe1a3" stroke-width=".8"/><path d="m1280.46 184.598c31.85-13.195 46.98-49.714 33.79-81.569-13.2-31.8544-49.72-46.9812-81.57-33.7866-31.86 13.1945-46.98 49.7146-33.79 81.5686 13.2 31.855 49.72 46.982 81.57 33.787z" fill="#ffd270" stroke-width=".8"/><path d="m1275.63 172.948c25.42-10.53 37.5-39.673 26.97-65.093-10.53-25.4207-39.68-37.4922-65.1-26.9627-25.42 10.5294-37.49 39.6727-26.96 65.0927 10.53 25.421 39.67 37.492 65.09 26.963z" fill="#ffe1a3" stroke-width=".8"/><path d="m1270.8 161.288c18.99-7.862 28-29.623 20.14-48.604-7.87-18.9808-29.63-27.9944-48.61-20.1322s-27.99 29.6232-20.13 48.6042 29.62 27.995 48.6 20.132z" fill="#ffd270" stroke-width=".8"/><path d="m1256.57 151.51c13.58 0 24.59-11.01 24.59-24.59 0-13.581-11.01-24.59-24.59-24.59-13.59 0-24.59 11.009-24.59 24.59 0 13.58 11 24.59 24.59 24.59z" fill="#ffe1a3" stroke-width=".8"/><path d="m1427.76 256.003c40.16-40.162 40.16-105.277 0-145.438-40.16-40.1616-105.27-40.1617-145.43 0-40.17 40.161-40.17 105.276 0 145.438 40.16 40.161 105.27 40.161 145.43 0z" fill="#ffd270" stroke-width=".8"/><path d="m1386.45 259.106c41.87-17.343 61.75-65.346 44.41-107.217-17.35-41.87-65.35-61.7535-107.22-44.41-41.87 17.343-61.75 65.346-44.41 107.216 17.34 41.871 65.35 61.754 107.22 44.411z" fill="#ffe1a3" stroke-width=".8"/><path d="m1378.49 239.908c31.27-12.952 46.12-48.799 33.17-80.066-12.95-31.268-48.8-46.116-80.07-33.165-31.26 12.952-46.11 48.798-33.16 80.066s48.8 46.116 80.06 33.165z" fill="#ffd270" stroke-width=".8"/><path d="m1355.05 223.79c22.36 0 40.5-18.132 40.5-40.5 0-22.367-18.14-40.5-40.5-40.5-22.37 0-40.5 18.133-40.5 40.5 0 22.368 18.13 40.5 40.5 40.5z" fill="#ffe1a3" stroke-width=".8"/><path d="m240.968 157.002c13.195-31.855-1.932-68.3746-33.787-81.5692-31.854-13.1946-68.374 1.9323-81.568 33.7872-13.195 31.854 1.932 68.374 33.786 81.568 31.855 13.195 68.375-1.932 81.569-33.786z" fill="#ffd270" stroke-width=".8"/><path d="m229.318 152.176c10.529-25.421-1.542-54.5638-26.962-65.0933-25.421-10.5295-54.564 1.542-65.093 26.9623-10.53 25.42 1.542 54.564 26.962 65.093 25.42 10.53 54.563-1.542 65.093-26.962z" fill="#ffe1a3" stroke-width=".8"/><path d="m217.658 147.346c7.862-18.981-1.151-40.741-20.132-48.6036-18.982-7.8623-40.742 1.1513-48.605 20.1326-7.862 18.981 1.152 40.742 20.133 48.604s40.742-1.151 48.604-20.133z" fill="#ffd270" stroke-width=".8"/><path d="m183.29 157.71c13.581 0 24.59-11.01 24.59-24.59 0-13.581-11.009-24.59-24.59-24.59-13.58 0-24.59 11.009-24.59 24.59 0 13.58 11.01 24.59 24.59 24.59z" fill="#ffe1a3" stroke-width=".8"/><path d="m157.524 262.2c40.161-40.161 40.161-105.276 0-145.437-40.162-40.1619-105.2764-40.1619-145.438 0-40.1615 40.161-40.1615 105.276 0 145.437 40.1616 40.162 105.276 40.162 145.438 0z" fill="#ffd270" stroke-width=".8"/><path d="m160.617 220.885c17.343-41.871-2.54-89.873-44.411-107.217-41.8702-17.3429-89.8727 2.54-107.21608 44.411-17.3434 41.871 2.53988 89.873 44.41058 107.217 41.8706 17.343 89.8735-2.54 107.2165-44.411z" fill="#ffe1a3" stroke-width=".8"/><path d="m141.419 212.933c12.951-31.268-1.897-67.115-33.165-80.066-31.2675-12.952-67.1143 1.896-80.0659 33.164-12.9515 31.268 1.8968 67.115 33.1645 80.066 31.2678 12.952 67.1144-1.896 80.0664-33.164z" fill="#ffd270" stroke-width=".8"/><path d="m84.8105 229.98c22.3675 0 40.5005-18.132 40.5005-40.5s-18.133-40.5-40.5005-40.5-40.5 18.132-40.5 40.5 18.1325 40.5 40.5 40.5z" fill="#ffe1a3" stroke-width=".8"/><path d="m240.968 157.002c13.195-31.855-1.932-68.3746-33.787-81.5692-31.854-13.1946-68.374 1.9323-81.568 33.7872-13.195 31.854 1.932 68.374 33.786 81.568 31.855 13.195 68.375-1.932 81.569-33.786z" fill="#ffd270" stroke-width=".8"/><path d="m229.318 152.176c10.529-25.421-1.542-54.5638-26.962-65.0933-25.421-10.5295-54.564 1.542-65.093 26.9623-10.53 25.42 1.542 54.564 26.962 65.093 25.42 10.53 54.563-1.542 65.093-26.962z" fill="#ffe1a3" stroke-width=".8"/><path d="m217.658 147.346c7.862-18.981-1.151-40.741-20.132-48.6036-18.982-7.8623-40.742 1.1513-48.605 20.1326-7.862 18.981 1.152 40.742 20.133 48.604s40.742-1.151 48.604-20.133z" fill="#ffd270" stroke-width=".8"/><path d="m183.29 157.71c13.581 0 24.59-11.01 24.59-24.59 0-13.581-11.009-24.59-24.59-24.59-13.58 0-24.59 11.009-24.59 24.59 0 13.58 11.01 24.59 24.59 24.59z" fill="#ffe1a3" stroke-width=".8"/><path d="m157.524 262.2c40.161-40.161 40.161-105.276 0-145.437-40.162-40.1619-105.2764-40.1619-145.438 0-40.1615 40.161-40.1615 105.276 0 145.437 40.1616 40.162 105.276 40.162 145.438 0z" fill="#ffd270" stroke-width=".8"/><path d="m160.617 220.885c17.343-41.871-2.54-89.873-44.411-107.217-41.8702-17.3429-89.8727 2.54-107.21608 44.411-17.3434 41.871 2.53988 89.873 44.41058 107.217 41.8706 17.343 89.8735-2.54 107.2165-44.411z" fill="#ffe1a3" stroke-width=".8"/><path d="m141.419 212.933c12.951-31.268-1.897-67.115-33.165-80.066-31.2675-12.952-67.1143 1.896-80.0659 33.164-12.9515 31.268 1.8968 67.115 33.1645 80.066 31.2678 12.952 67.1144-1.896 80.0664-33.164z" fill="#ffd270" stroke-width=".8"/><path d="m84.8105 229.98c22.3675 0 40.5005-18.132 40.5005-40.5s-18.133-40.5-40.5005-40.5-40.5 18.132-40.5 40.5 18.1325 40.5 40.5 40.5z" fill="#ffe1a3" stroke-width=".8"/><path d="m517.998 210.603c40.162-40.162 40.162-105.277 0-145.4381-40.161-40.1615-105.276-40.1615-145.437 0-40.162 40.1611-40.162 105.2761 0 145.4381 40.161 40.161 105.276 40.161 145.437 0z" fill="#ffd270" stroke-width=".8"/><path d="m521.1 169.288c17.344-41.871-2.539-89.8733-44.41-107.2167s-89.873 2.5399-107.217 44.4107c-17.343 41.871 2.54 89.873 44.411 107.216 41.871 17.344 89.873-2.539 107.216-44.41z" fill="#ffe1a3" stroke-width=".8"/><path d="m499.694 162.993c12.861-31.136-1.955-66.8032-33.091-79.6639-31.137-12.8608-66.804 1.9546-79.664 33.0909-12.861 31.137 1.954 66.804 33.091 79.664 31.136 12.861 66.803-1.954 79.664-33.091z" fill="#ffd270" stroke-width=".796312"/><path d="m445.28 178.38c22.368 0 40.5-18.133 40.5-40.5 0-22.368-18.132-40.5001-40.5-40.5001-22.367 0-40.5 18.1321-40.5 40.5001 0 22.367 18.133 40.5 40.5 40.5z" fill="#ffe1a3" stroke-width=".8"/><path d="m517.998 210.603c40.162-40.162 40.162-105.277 0-145.4381-40.161-40.1615-105.276-40.1615-145.437 0-40.162 40.1611-40.162 105.2761 0 145.4381 40.161 40.161 105.276 40.161 145.437 0z" fill="#ffd270" stroke-width=".8"/><path d="m521.1 169.288c17.344-41.871-2.539-89.8733-44.41-107.2167s-89.873 2.5399-107.217 44.4107c-17.343 41.871 2.54 89.873 44.411 107.216 41.871 17.344 89.873-2.539 107.216-44.41z" fill="#ffe1a3" stroke-width=".8"/><path d="m499.694 162.993c12.861-31.136-1.955-66.8032-33.091-79.6639-31.137-12.8608-66.804 1.9546-79.664 33.0909-12.861 31.137 1.954 66.804 33.091 79.664 31.136 12.861 66.803-1.954 79.664-33.091z" fill="#ffd270" stroke-width=".796312"/><g stroke-width=".8"><path d="m445.28 178.38c22.368 0 40.5-18.133 40.5-40.5 0-22.368-18.132-40.5001-40.5-40.5001-22.367 0-40.5 18.1321-40.5 40.5001 0 22.367 18.133 40.5 40.5 40.5z" fill="#ffe1a3"/><path d="m719.901 580.35c174.301 0 315.599-141.299 315.599-315.6 0-174.3012-141.298-315.6001-315.599-315.6001s-315.6 141.2989-315.6 315.6001c0 174.301 141.299 315.6 315.6 315.6z" fill="#ffd270"/><path d="m719.901 556.37c161.058 0 291.619-130.563 291.619-291.62s-130.561-291.6201-291.619-291.6201c-161.057 0-291.62 130.5631-291.62 291.6201s130.563 291.62 291.62 291.62z" fill="#ffe1a3"/><path d="m719.901 532.38c147.807 0 267.63-119.822 267.63-267.63s-119.823-267.62988-267.63-267.62988c-147.808 0-267.63 119.82188-267.63 267.62988s119.822 267.63 267.63 267.63z" fill="#ffd270"/><path d="m719.901 508.39c134.558 0 243.64-109.081 243.64-243.64s-109.082-243.6401-243.64-243.6401c-134.559 0-243.64 109.0811-243.64 243.6401s109.081 243.64 243.64 243.64z" fill="#ffe1a3"/><path d="m719.901 484.4c121.309 0 219.65-98.341 219.65-219.65s-98.341-219.6499-219.65-219.6499-219.65 98.3409-219.65 219.6499 98.341 219.65 219.65 219.65z" fill="#ffd270"/><path d="m719.901 460.41c108.06 0 195.66-87.6 195.66-195.66s-87.6-195.6602-195.66-195.6602-195.66 87.6002-195.66 195.6602 87.6 195.66 195.66 195.66z" fill="#ffe1a3"/><path d="m719.901 580.35c174.301 0 315.599-141.299 315.599-315.6 0-174.3012-141.298-315.6001-315.599-315.6001s-315.6 141.2989-315.6 315.6001c0 174.301 141.299 315.6 315.6 315.6z" fill="#ffd270"/><path d="m719.901 556.37c161.058 0 291.619-130.563 291.619-291.62s-130.561-291.6201-291.619-291.6201c-161.057 0-291.62 130.5631-291.62 291.6201s130.563 291.62 291.62 291.62z" fill="#ffe1a3"/><path d="m719.901 532.38c147.807 0 267.63-119.822 267.63-267.63s-119.823-267.62988-267.63-267.62988c-147.808 0-267.63 119.82188-267.63 267.62988s119.822 267.63 267.63 267.63z" fill="#ffd270"/><path d="m719.901 508.39c134.558 0 243.64-109.081 243.64-243.64s-109.082-243.6401-243.64-243.6401c-134.559 0-243.64 109.0811-243.64 243.6401s109.081 243.64 243.64 243.64z" fill="#ffe1a3"/><path d="m719.901 484.4c121.309 0 219.65-98.341 219.65-219.65s-98.341-219.6499-219.65-219.6499-219.65 98.3409-219.65 219.6499 98.341 219.65 219.65 219.65z" fill="#ffd270"/><path d="m719.901 460.41c108.06 0 195.66-87.6 195.66-195.66s-87.6-195.6602-195.66-195.6602-195.66 87.6002-195.66 195.6602 87.6 195.66 195.66 195.66z" fill="#ffe1a3"/><path d="m1262.95 1901.2-.5-673.13-79 667.71c-22.81-2.7-45.62-6.39-67.78-11l138.84-670.89c2.95.61 6.13 1.12 9.47 1.52l-.08.64c.8 0 1.57-.08 2.33-.16l71.15 681.39c-24.73 2.58-49.57 3.89-74.43 3.92zm148.44-15.57-141.91-670.25c.95-.2 1.89-.45 2.82-.75l211.88 651.51c-23.9 7.77-48.2 14.28-72.79 19.49zm-364.72-18.49c-23.44-7.17-46.51-15.52-69.11-25l265.62-631.52c1.46.61 2.95 1.14 4.46 1.6zm507.72-28-279.29-625.6c1-.43 1.9-.91 2.81-1.43l343.37 592.89c-21.68 12.54-44.01 23.94-66.89 34.15zm-644.93-30.06c-22.451-12.41-44.204-26.05-65.16-40.85l395.42-559.47c.37.25.75.49 1.14.7zm774.61-45-403.32-553.8c.95-.69 1.86-1.43 2.73-2.21l458.62 508.93c-18.51 16.69-37.86 32.4-58 47.08zm-900.68-44.27c-19.38-17.29-37.772-35.65-55.09-55l510.8-456.6.28.28zm1011.63-55.72-509.08-458.48c.77-.86 1.5-1.77 2.18-2.7l554 403c-14.69 20.19-30.41 39.61-47.1 58.18zm-1115-59.86c-14.784-20.83-28.421-42.45-40.85-64.77l598.52-333.36c.31.55.62 1 .91 1.46zm1203-61.12-593.07-343c.53-.91 1-1.84 1.43-2.8l625.79 278.84c-10.21 22.9-21.61 45.25-34.16 66.96zm-1277.08-71.54c-9.718-22.91-18.252-46.3-25.57-70.08l654.86-201.31c.36 1.18.78 2.34 1.26 3.48zm1338.16-65.57-651.63-211.52c.31-.95.56-1.91.77-2.88l670.3 141.64c-5.2 24.58-11.68 48.87-19.44 72.76zm-1381.8-75.82c-4.75-23.73-8.37-48-10.77-72.15l681.75-67.66c.18 1.8.45 3.58.79 5.29zm1412.88-71-681.44-70.81c.13-1.22.19-2.45.19-3.68v-.9h685.1v.9c0 24.86-1.28 49.71-3.84 74.44zm-742.18-74.07h-685.09v-.45c0-23.84 1.16-48 3.46-71.68l681.91 66c-.18 1.87-.27 3.77-.27 5.64zm60.74-4.25c-.12-1-.28-2.09-.5-3.11l669.94-143.36c5.24 24.5 9.19 49.26 11.83 74.18zm-1.28-6c-.32-.99-.69-1.96-1.12-2.91l625.11-280.35c10.26 22.877 19.31 46.28 27.11 70.11zm-58.43-1-672-133.15c4.77-24 10.79-48.06 17.91-71.39l655.27 200c-.47 1.36-.85 2.89-1.17 4.47zm55.89-4.66c-.57-.98-1.2-1.94-1.88-2.85l553.15-404.35c14.74 20.161 28.43 41.076 41 62.66zm-53.47-3.45-631.15-266.54c9.8-23.194 20.816-45.855 33-67.89l599.37 331.85c-.45.82-.85 1.65-1.21 2.51zm49.48-2c-.81-.9-1.67-1.75-2.57-2.56l457.61-509.86c18.53 16.631 36.18 34.211 52.89 52.67zm-47.4-1.92-559.54-395.38c14.905-21.07 30.966-41.298 48.11-60.59l512 455.19c-.18.2-.36.44-.56.71zm.82-1-457.25-510.17c19.309-17.301 39.574-33.503 60.7-48.53l397 558.33c-.15.1-.3.21-.44.33zm1.45-1-332.88-598.83c22.063-12.254 44.762-23.326 68-33.17l267.25 630.82c-.9.42-1.69.8-2.36 1.17zm39.91-.84c-.92-.67-1.87-1.28-2.85-1.85l342-593.63c21.65 12.472 42.63 26.064 62.86 40.72zm-33.19-1.86-202.48-654.5c22.48-7 45.7-13 69-17.83l140.2 670.6c-2.38.51-4.65 1.08-6.71 1.72zm27.55-1.4c-.91-.41-1.84-.77-2.79-1.07l.51-1.57c-1.14.06-2.27.14-3.37.23l-.11.55c-.68-.15-1.38-.27-2.07-.36-1.2.11-2.37.24-3.52.38l-81.89-680.19c21.6-2.61 43.8-4.39 66-5.29l25.23 617.45 62.56-614.06c24.91 2.546 49.68 6.391 74.19 11.52l-135 644.56.69 17 207-642.29c23.9 7.717 47.39 16.683 70.35 26.86z" fill="#ffe2a4"/><path d="m101.73 1897.3 71.15-681.39c.76.08 1.53.13 2.33.16l-.08-.64c3.34-.4 6.52-.91 9.47-1.52l138.83 670.89c-22.15 4.59-45 8.28-67.77 11l-79-667.71-.56 673.11c-24.841-.02-49.663-1.32-74.37-3.9zm-146.83-31.16 211.88-651.51c.925.3 1.867.55 2.82.75l-141.91 670.25c-24.58954-5.21-48.8867-11.72-72.79-19.49zm236.54-654c1.61-.5 3.11-1 4.46-1.6l265.62 631.56c-22.604 9.48-45.67 17.83-69.11 25zm-373.64 592.86 343.3-592.89c.91.52 1.85 1 2.81 1.43l-279.22 625.61c-22.879-10.21-45.206-21.6-66.89-34.15zm380.42-595.5c.392-.21.773-.45 1.14-.7l395.42 559.47c-20.956 14.8-42.709 28.44-65.16 40.85zm-501.27 507.5 458.65-508.93c.871.78 1.782 1.52 2.73 2.21l-403.32 553.8c-20.156-14.68-39.535-30.39-58.06-47.08zm502.76-508.5.28-.28 510.79 456.58c-17.317 19.35-35.71 37.71-55.09 55zm-602.76 397.5 554-403c.68.93 1.41 1.84 2.18 2.7l-509.03 458.39c-16.708-18.54-32.445-37.93-47.15-58.09zm603.55-398.4c.29-.42.6-.91.91-1.46l598.52 333.36c-12.423 22.3-26.054 43.91-40.83 64.73zm-678.58 268.61 625.79-278.84c.427.96.904 1.89 1.43 2.8l-593.07 343c-12.543-21.72-23.942-44.09-34.15-67zm680.67-272.51c.48-1.14.901-2.3 1.26-3.48l654.86 201.31c-7.327 23.77-15.875 47.15-25.61 70.04zm-727.06 129.5 670.3-141.64c.206.97.463 1.93.77 2.88l-651.63 211.56c-7.756-23.91-14.245-48.21-19.44-72.8zm729.47-137.58c.34-1.71.61-3.49.79-5.29l681.75 67.67c-2.4 24.15-6 48.42-10.77 72.15zm-745-11v-.9h685.1v.9c-.004 1.23.06 2.46.19 3.68l-681.44 70.81c-2.55-24.74-3.822-49.6-3.81-74.47zm746 0c0-1.87-.09-3.77-.27-5.64l681.91-66c2.3 23.72 3.46 47.84 3.46 71.68v.45h-685zm-742-76.09c2.644-24.92 6.593-49.68 11.83-74.18l670 143.35c-.22 1-.38 2.07-.5 3.11zm31.44-146.861c7.806-23.828 16.858-47.231 27.12-70.11l625.17 280.341c-.426.95-.8 1.92-1.12 2.91zm708.4 207.581 655.27-200.001c7.12 23.33 13.14 47.351 17.91 71.391l-672 133.15c-.3-1.58-.68-3.11-1.12-4.55zm-647-344.541c12.57-21.583 26.256-42.498 41-62.66l553.14 404.241c-.678.91-1.306 1.87-1.88 2.85zm644.48 338.471 599.46-331.861c12.184 22.035 23.2 44.697 33 67.89l-631.16 266.471c-.359-.86-.763-1.7-1.21-2.51zm-556.2-459.241c16.734-18.467 34.418-36.051 52.98-52.68l457.61 509.861c-.901.81-1.759 1.66-2.57 2.56zm554.76 457.121 512-455.191c17.182 19.286 33.28 39.511 48.22 60.58l-559.56 395.311c-.176-.25-.366-.49-.57-.71zm-.67-.59 397-558.331c21.126 15.027 41.392 31.23 60.7 48.53l-457.19 510.121c-.133-.12-.273-.23-.42-.33zm-3.38-1.77 267.34-630.831c23.239 9.844 45.937 20.916 68 33.17l-332.9 598.781c-.763-.42-1.547-.8-2.35-1.13zm-439.48-554.481c20.232-14.656 41.214-28.247 62.86-40.72l342 593.631c-.982.57-1.933 1.18-2.85 1.85zm428.46 551.181 140.2-670.601c23.33 4.87 46.55 10.87 69 17.83l-202.46 654.491c-2.06-.64-4.33-1.21-6.74-1.72zm-298.59-625.951c22.9683-10.175 46.4538-19.141 70.36-26.86l207.05 642.251.69-17-135-644.561c24.5126-5.128 49.2763-8.974 74.19-11.52l62.56 614.061 25.2-617.421c22.17.9 44.36 2.68 66 5.29l-81.89 680.191c-1.15-.14-2.32-.27-3.52-.38-.7.09-1.39.21-2.07.36l-.11-.55c-1.1-.09-2.23-.17-3.37-.23l.51 1.57c-.95.3-1.881.66-2.79 1.07z" fill="#ffe2a4"/><path d="m1262.95 1901.2-.5-673.13-79 667.71c-22.81-2.7-45.62-6.39-67.78-11l138.84-670.89c2.95.61 6.13 1.12 9.47 1.52l-.08.64c.8 0 1.57-.08 2.33-.16l71.15 681.39c-24.73 2.58-49.57 3.89-74.43 3.92zm148.44-15.57-141.91-670.25c.95-.2 1.89-.45 2.82-.75l211.88 651.51c-23.9 7.77-48.2 14.28-72.79 19.49zm-364.72-18.49c-23.44-7.17-46.51-15.52-69.11-25l265.62-631.52c1.46.61 2.95 1.14 4.46 1.6zm507.72-28-279.29-625.6c1-.43 1.9-.91 2.81-1.43l343.37 592.89c-21.68 12.54-44.01 23.94-66.89 34.15zm-644.93-30.06c-22.451-12.41-44.204-26.05-65.16-40.85l395.42-559.47c.37.25.75.49 1.14.7zm774.61-45-403.32-553.8c.95-.69 1.86-1.43 2.73-2.21l458.62 508.93c-18.51 16.69-37.86 32.4-58 47.08zm-900.68-44.27c-19.38-17.29-37.772-35.65-55.09-55l510.8-456.6.28.28zm1011.63-55.72-509.08-458.48c.77-.86 1.5-1.77 2.18-2.7l554 403c-14.69 20.19-30.41 39.61-47.1 58.18zm-1115-59.86c-14.784-20.83-28.421-42.45-40.85-64.77l598.52-333.36c.31.55.62 1 .91 1.46zm1203-61.12-593.07-343c.53-.91 1-1.84 1.43-2.8l625.79 278.84c-10.21 22.9-21.61 45.25-34.16 66.96zm-1277.08-71.54c-9.718-22.91-18.252-46.3-25.57-70.08l654.86-201.31c.36 1.18.78 2.34 1.26 3.48zm1338.16-65.57-651.63-211.52c.31-.95.56-1.91.77-2.88l670.3 141.64c-5.2 24.58-11.68 48.87-19.44 72.76zm-1381.8-75.82c-4.75-23.73-8.37-48-10.77-72.15l681.75-67.66c.18 1.8.45 3.58.79 5.29zm1412.88-71-681.44-70.81c.13-1.22.19-2.45.19-3.68v-.9h685.1v.9c0 24.86-1.28 49.71-3.84 74.44zm-742.18-74.07h-685.09v-.45c0-23.84 1.16-48 3.46-71.68l681.91 66c-.18 1.87-.27 3.77-.27 5.64zm60.74-4.25c-.12-1-.28-2.09-.5-3.11l669.94-143.36c5.24 24.5 9.19 49.26 11.83 74.18zm-1.28-6c-.32-.99-.69-1.96-1.12-2.91l625.11-280.35c10.26 22.877 19.31 46.28 27.11 70.11zm-58.43-1-672-133.15c4.77-24 10.79-48.06 17.91-71.39l655.27 200c-.47 1.36-.85 2.89-1.17 4.47zm55.89-4.66c-.57-.98-1.2-1.94-1.88-2.85l553.15-404.35c14.74 20.161 28.43 41.076 41 62.66zm-53.47-3.45-631.15-266.54c9.8-23.194 20.816-45.855 33-67.89l599.37 331.85c-.45.82-.85 1.65-1.21 2.51zm49.48-2c-.81-.9-1.67-1.75-2.57-2.56l457.61-509.86c18.53 16.631 36.18 34.211 52.89 52.67zm-47.4-1.92-559.54-395.38c14.905-21.07 30.966-41.298 48.11-60.59l512 455.19c-.18.2-.36.44-.56.71zm.82-1-457.25-510.17c19.309-17.301 39.574-33.503 60.7-48.53l397 558.33c-.15.1-.3.21-.44.33zm1.45-1-332.88-598.83c22.063-12.254 44.762-23.326 68-33.17l267.25 630.82c-.9.42-1.69.8-2.36 1.17zm39.91-.84c-.92-.67-1.87-1.28-2.85-1.85l342-593.63c21.65 12.472 42.63 26.064 62.86 40.72zm-33.19-1.86-202.48-654.5c22.48-7 45.7-13 69-17.83l140.2 670.6c-2.38.51-4.65 1.08-6.71 1.72zm27.55-1.4c-.91-.41-1.84-.77-2.79-1.07l.51-1.57c-1.14.06-2.27.14-3.37.23l-.11.55c-.68-.15-1.38-.27-2.07-.36-1.2.11-2.37.24-3.52.38l-81.89-680.19c21.6-2.61 43.8-4.39 66-5.29l25.23 617.45 62.56-614.06c24.91 2.546 49.68 6.391 74.19 11.52l-135 644.56.69 17 207-642.29c23.9 7.717 47.39 16.683 70.35 26.86z" fill="#ffe2a4"/><path d="m101.73 1897.3 71.15-681.39c.76.08 1.53.13 2.33.16l-.08-.64c3.34-.4 6.52-.91 9.47-1.52l138.83 670.89c-22.15 4.59-45 8.28-67.77 11l-79-667.71-.56 673.11c-24.841-.02-49.663-1.32-74.37-3.9zm-146.83-31.16 211.88-651.51c.925.3 1.867.55 2.82.75l-141.91 670.25c-24.58954-5.21-48.8867-11.72-72.79-19.49zm236.54-654c1.61-.5 3.11-1 4.46-1.6l265.62 631.56c-22.604 9.48-45.67 17.83-69.11 25zm-373.64 592.86 343.3-592.89c.91.52 1.85 1 2.81 1.43l-279.22 625.61c-22.879-10.21-45.206-21.6-66.89-34.15zm380.42-595.5c.392-.21.773-.45 1.14-.7l395.42 559.47c-20.956 14.8-42.709 28.44-65.16 40.85zm-501.27 507.5 458.65-508.93c.871.78 1.782 1.52 2.73 2.21l-403.32 553.8c-20.156-14.68-39.535-30.39-58.06-47.08zm502.76-508.5.28-.28 510.79 456.58c-17.317 19.35-35.71 37.71-55.09 55zm-602.76 397.5 554-403c.68.93 1.41 1.84 2.18 2.7l-509.03 458.39c-16.708-18.54-32.445-37.93-47.15-58.09zm603.55-398.4c.29-.42.6-.91.91-1.46l598.52 333.36c-12.423 22.3-26.054 43.91-40.83 64.73zm-678.58 268.61 625.79-278.84c.427.96.904 1.89 1.43 2.8l-593.07 343c-12.543-21.72-23.942-44.09-34.15-67zm680.67-272.51c.48-1.14.901-2.3 1.26-3.48l654.86 201.31c-7.327 23.77-15.875 47.15-25.61 70.04zm-727.06 129.5 670.3-141.64c.206.97.463 1.93.77 2.88l-651.63 211.56c-7.756-23.91-14.245-48.21-19.44-72.8zm729.47-137.58c.34-1.71.61-3.49.79-5.29l681.75 67.67c-2.4 24.15-6 48.42-10.77 72.15zm-745-11v-.9h685.1v.9c-.004 1.23.06 2.46.19 3.68l-681.44 70.81c-2.55-24.74-3.822-49.6-3.81-74.47zm746 0c0-1.87-.09-3.77-.27-5.64l681.91-66c2.3 23.72 3.46 47.84 3.46 71.68v.45h-685zm-742-76.09c2.644-24.92 6.593-49.68 11.83-74.18l670 143.35c-.22 1-.38 2.07-.5 3.11zm31.44-146.861c7.806-23.828 16.858-47.231 27.12-70.11l625.17 280.341c-.426.95-.8 1.92-1.12 2.91zm708.4 207.581 655.27-200.001c7.12 23.33 13.14 47.351 17.91 71.391l-672 133.15c-.3-1.58-.68-3.11-1.12-4.55zm-647-344.541c12.57-21.583 26.256-42.498 41-62.66l553.14 404.241c-.678.91-1.306 1.87-1.88 2.85zm644.48 338.471 599.46-331.861c12.184 22.035 23.2 44.697 33 67.89l-631.16 266.471c-.359-.86-.763-1.7-1.21-2.51zm-556.2-459.241c16.734-18.467 34.418-36.051 52.98-52.68l457.61 509.861c-.901.81-1.759 1.66-2.57 2.56zm554.76 457.121 512-455.191c17.182 19.286 33.28 39.511 48.22 60.58l-559.56 395.311c-.176-.25-.366-.49-.57-.71zm-.67-.59 397-558.331c21.126 15.027 41.392 31.23 60.7 48.53l-457.19 510.121c-.133-.12-.273-.23-.42-.33zm-3.38-1.77 267.34-630.831c23.239 9.844 45.937 20.916 68 33.17l-332.9 598.781c-.763-.42-1.547-.8-2.35-1.13zm-439.48-554.481c20.232-14.656 41.214-28.247 62.86-40.72l342 593.631c-.982.57-1.933 1.18-2.85 1.85zm428.46 551.181 140.2-670.601c23.33 4.87 46.55 10.87 69 17.83l-202.46 654.491c-2.06-.64-4.33-1.21-6.74-1.72zm-298.59-625.951c22.9683-10.175 46.4538-19.141 70.36-26.86l207.05 642.251.69-17-135-644.561c24.5126-5.128 49.2763-8.974 74.19-11.52l62.56 614.061 25.2-617.421c22.17.9 44.36 2.68 66 5.29l-81.89 680.191c-1.15-.14-2.32-.27-3.52-.38-.7.09-1.39.21-2.07.36l-.11-.55c-1.1-.09-2.23-.17-3.37-.23l.51 1.57c-.95.3-1.881.66-2.79 1.07z" fill="#ffe2a4"/><path d="m37.9596 567.496c31.8546-13.194 46.9815-49.714 33.7869-81.568-13.1946-31.855-49.7141-46.982-81.5687-33.787-31.8546 13.194-46.9815 49.714-33.7869 81.569 13.1946 31.854 49.71418 46.981 81.5687 33.786z" fill="#ffd270"/><path d="m33.1338 555.846c25.4204-10.529 37.4919-39.673 26.9624-65.093-10.5294-25.42-39.6726-37.492-65.09294-26.962-25.42036 10.529-37.49186 39.672-26.96236 65.093 10.5294 25.42 39.67256 37.492 65.0929 26.962z" fill="#ffe1a3"/><path d="m28.3048 544.187c18.9811-7.862 27.9947-29.623 20.1325-48.604s-29.623-27.995-48.604138-20.133c-18.981062 7.862-27.994762 29.623-20.132462 48.604 7.8622 18.981 29.62302 27.995 48.6041 20.133z" fill="#ffd270"/><path d="m14.0705 534.409c13.5806 0 24.59-11.009 24.59-24.59 0-13.58-11.0094-24.59-24.59-24.59-13.580713 0-24.59 11.01-24.59 24.59 0 13.581 11.009287 24.59 24.59 24.59z" fill="#ffe1a3"/><path d="m143.157 484.054c40.161-40.162 40.161-105.276 0-145.438-40.162-40.161-105.2766-40.161-145.43814 0-40.16156 40.162-40.16156 105.276 0 145.438 40.16154 40.161 105.27614 40.161 145.43814 0z" fill="#ffd270"/><path d="m101.844 487.156c41.871-17.343 61.754-65.346 44.411-107.216-17.344-41.871-65.3462-61.754-107.2168-44.411-41.87071 17.344-61.754 65.346-44.41059 107.217 17.34339 41.87 65.34589 61.754 107.21639 44.41z" fill="#ffe1a3"/><path d="m93.892 467.958c31.268-12.951 46.116-48.798 33.165-80.066-12.952-31.268-48.7989-46.116-80.0667-33.165-31.2678 12.952-46.116002 48.799-33.1645 80.067 12.9516 31.267 48.7984 46.116 80.0662 33.164z" fill="#ffd270"/><path d="m70.4297 451.84c22.3675 0 40.5003-18.133 40.5003-40.5 0-22.368-18.1328-40.5-40.5003-40.5s-40.5 18.132-40.5 40.5c0 22.367 18.1325 40.5 40.5 40.5z" fill="#ffe1a3"/><path d="m37.9596 567.496c31.8546-13.194 46.9815-49.714 33.7869-81.568-13.1946-31.855-49.7141-46.982-81.5687-33.787-31.8546 13.194-46.9815 49.714-33.7869 81.569 13.1946 31.854 49.71418 46.981 81.5687 33.786z" fill="#ffd270"/><path d="m33.1338 555.846c25.4204-10.529 37.4919-39.673 26.9624-65.093-10.5294-25.42-39.6726-37.492-65.09294-26.962-25.42036 10.529-37.49186 39.672-26.96236 65.093 10.5294 25.42 39.67256 37.492 65.0929 26.962z" fill="#ffe1a3"/><path d="m28.3048 544.187c18.9811-7.862 27.9947-29.623 20.1325-48.604s-29.623-27.995-48.604138-20.133c-18.981062 7.862-27.994762 29.623-20.132462 48.604 7.8622 18.981 29.62302 27.995 48.6041 20.133z" fill="#ffd270"/><path d="m14.0705 534.409c13.5806 0 24.59-11.009 24.59-24.59 0-13.58-11.0094-24.59-24.59-24.59-13.580713 0-24.59 11.01-24.59 24.59 0 13.581 11.009287 24.59 24.59 24.59z" fill="#ffe1a3"/><path d="m143.157 484.054c40.161-40.162 40.161-105.276 0-145.438-40.162-40.161-105.2766-40.161-145.43814 0-40.16156 40.162-40.16156 105.276 0 145.438 40.16154 40.161 105.27614 40.161 145.43814 0z" fill="#ffd270"/><path d="m101.844 487.156c41.871-17.343 61.754-65.346 44.411-107.216-17.344-41.871-65.3462-61.754-107.2168-44.411-41.87071 17.344-61.754 65.346-44.41059 107.217 17.34339 41.87 65.34589 61.754 107.21639 44.41z" fill="#ffe1a3"/><path d="m93.892 467.958c31.268-12.951 46.116-48.798 33.165-80.066-12.952-31.268-48.7989-46.116-80.0667-33.165-31.2678 12.952-46.116002 48.799-33.1645 80.067 12.9516 31.267 48.7984 46.116 80.0662 33.164z" fill="#ffd270"/><path d="m70.4297 451.84c22.3675 0 40.5003-18.133 40.5003-40.5 0-22.368-18.1328-40.5-40.5003-40.5s-40.5 18.132-40.5 40.5c0 22.367 18.1325 40.5 40.5 40.5z" fill="#ffe1a3"/><path d="m141.96 1309.6c31.854-13.2 46.981-49.72 33.787-81.57-13.195-31.85-49.715-46.98-81.5692-33.79-31.8546 13.2-46.9815 49.72-33.7869 81.57 13.1946 31.86 49.7141 46.98 81.5691 33.79z" fill="#ffd270"/><path d="m137.134 1297.95c25.42-10.53 37.492-39.67 26.962-65.09-10.529-25.42-39.672-37.5-65.0927-26.97-25.4204 10.53-37.4919 39.68-26.9624 65.1 10.5294 25.42 39.6721 37.49 65.0931 26.96z" fill="#ffe1a3"/><path d="m132.305 1286.29c18.981-7.86 27.995-29.62 20.132-48.6-7.862-18.99-29.623-28-48.604-20.14-18.9809 7.86-27.9946 29.63-20.1323 48.61 7.8622 18.98 29.6233 27.99 48.6043 20.13z" fill="#ffd270"/><path d="m118.07 1276.51c13.581 0 24.59-11.01 24.59-24.59s-11.009-24.59-24.59-24.59c-13.58 0-24.5895 11.01-24.5895 24.59s11.0095 24.59 24.5895 24.59z" fill="#ffe1a3"/><path d="m247.157 1226.16c40.161-40.17 40.161-105.28 0-145.44-40.162-40.16-105.277-40.16-145.438 0-40.1617 40.16-40.1617 105.27 0 145.44 40.161 40.16 105.276 40.16 145.438 0z" fill="#ffd270"/><path d="m205.844 1229.26c41.871-17.34 61.754-65.35 44.411-107.22-17.344-41.87-65.346-61.75-107.217-44.41-41.871 17.35-61.7538 65.35-44.4104 107.22s65.3454 61.75 107.2164 44.41z" fill="#ffe1a3"/><path d="m197.892 1210.06c31.268-12.95 46.116-48.8 33.165-80.07-12.952-31.26-48.799-46.11-80.067-33.16-31.267 12.95-46.116 48.8-33.164 80.07 12.951 31.26 48.798 46.11 80.066 33.16z" fill="#ffd270"/><path d="m174.43 1193.94c22.367 0 40.5-18.13 40.5-40.5s-18.133-40.5-40.5-40.5c-22.368 0-40.5 18.13-40.5 40.5s18.132 40.5 40.5 40.5z" fill="#ffe1a3"/><path d="m1304.92 1309.6c-31.86-13.2-46.99-49.72-33.79-81.57 13.19-31.85 49.71-46.98 81.57-33.79 31.85 13.2 46.98 49.72 33.78 81.57-13.19 31.86-49.71 46.98-81.56 33.79z" fill="#ffd270"/><path d="m1309.74 1297.95c-25.42-10.53-37.49-39.67-26.96-65.09s39.67-37.5 65.09-26.97 37.49 39.68 26.96 65.1-39.67 37.49-65.09 26.96z" fill="#ffe1a3"/><path d="m1314.57 1286.29c-18.98-7.86-27.99-29.62-20.13-48.6 7.86-18.99 29.62-28 48.6-20.14s28 29.63 20.13 48.61c-7.86 18.98-29.62 27.99-48.6 20.13z" fill="#ffd270"/><path d="m1328.8 1276.51c-13.58 0-24.59-11.01-24.59-24.59s11.01-24.59 24.59-24.59c13.59 0 24.59 11.01 24.59 24.59s-11 24.59-24.59 24.59z" fill="#ffe1a3"/><path d="m1199.72 1226.16c-40.16-40.17-40.16-105.28 0-145.44s105.27-40.16 145.44 0c40.16 40.16 40.16 105.27 0 145.44-40.17 40.16-105.28 40.16-145.44 0z" fill="#ffd270"/><path d="m1241.03 1229.26c-41.87-17.34-61.75-65.35-44.41-107.22s65.35-61.75 107.22-44.41c41.87 17.35 61.75 65.35 44.41 107.22-17.35 41.87-65.35 61.75-107.22 44.41z" fill="#ffe1a3"/><path d="m1248.98 1210.06c-31.26-12.95-46.11-48.8-33.16-80.07 12.95-31.26 48.8-46.11 80.06-33.16 31.27 12.95 46.12 48.8 33.17 80.07-12.95 31.26-48.8 46.11-80.07 33.16z" fill="#ffd270"/><path d="m1272.45 1193.94c-22.37 0-40.5-18.13-40.5-40.5s18.13-40.5 40.5-40.5c22.36 0 40.5 18.13 40.5 40.5s-18.14 40.5-40.5 40.5z" fill="#ffe1a3"/><path d="m1463.63 1661.45c32.31-12.03 48.75-47.97 36.72-80.29-12.03-32.31-47.97-48.75-80.29-36.72-32.31 12.03-48.75 47.98-36.72 80.29s47.98 48.75 80.29 36.72z" fill="#ffd270"/><path d="m1459.23 1649.64c25.78-9.6 38.91-38.29 29.31-64.08-9.6-25.78-38.29-38.9-64.08-29.3-25.78 9.6-38.9 38.28-29.3 64.07 9.6 25.78 38.28 38.91 64.07 29.31z" fill="#ffe1a3"/><path d="m1454.83 1637.81c19.25-7.17 29.05-28.59 21.88-47.84-7.17-19.26-28.59-29.05-47.84-21.89-19.26 7.17-29.05 28.59-21.89 47.85 7.17 19.25 28.59 29.05 47.85 21.88z" fill="#ffd270"/><path d="m1441.88 1627.46c13.58 0 24.59-11.01 24.59-24.59s-11.01-24.59-24.59-24.59-24.59 11.01-24.59 24.59 11.01 24.59 24.59 24.59z" fill="#ffe1a3"/><path d="m1480.87 1783.93c40.16-40.16 40.16-105.27 0-145.43-40.16-40.17-105.27-40.17-145.44 0-40.16 40.16-40.16 105.27 0 145.43 40.17 40.17 105.28 40.17 145.44 0z" fill="#ffd270"/></g><path d="m1443.02 1791.57c42.6-15.86 64.27-63.25 48.41-105.86-15.86-42.6-63.25-64.27-105.86-48.41-42.6 15.86-64.27 63.26-48.41 105.86s63.25 64.27 105.86 48.41z" fill="#ffe1a3" stroke-width=".802436"/><path d="m1429.5 1768.72c31.71-11.81 47.85-47.1 36.04-78.81-11.8-31.72-47.09-47.86-78.81-36.05-31.71 11.81-47.85 47.09-36.04 78.81 11.8 31.71 47.09 47.85 78.81 36.05z" fill="#ffd270" stroke-width=".8"/><path d="m1408.15 1751.71c22.37 0 40.5-18.13 40.5-40.5s-18.13-40.5-40.5-40.5-40.5 18.13-40.5 40.5 18.13 40.5 40.5 40.5z" fill="#ffe1a3" stroke-width=".8"/><path d="m1623.61 2314.09c174.3 0 315.6-141.3 315.6-315.6s-141.3-315.6-315.6-315.6-315.6 141.3-315.6 315.6 141.3 315.6 315.6 315.6z" fill="#ffd270" stroke-width=".8"/><path d="m1623.61 2290.11c161.06 0 291.62-130.56 291.62-291.62s-130.56-291.62-291.62-291.62-291.62 130.56-291.62 291.62 130.56 291.62 291.62 291.62z" fill="#ffe1a3" stroke-width=".8"/><path d="m1623.61 2266.12c147.81 0 267.63-119.82 267.63-267.63s-119.82-267.63-267.63-267.63-267.63 119.82-267.63 267.63 119.82 267.63 267.63 267.63z" fill="#ffd270" stroke-width=".8"/><path d="m1623.61 2242.13c134.56 0 243.64-109.08 243.64-243.64s-109.08-243.64-243.64-243.64-243.64 109.08-243.64 243.64 109.08 243.64 243.64 243.64z" fill="#ffe1a3" stroke-width=".8"/><path d="m1623.61 2218.14c121.31 0 219.65-98.34 219.65-219.65s-98.34-219.65-219.65-219.65-219.65 98.34-219.65 219.65 98.34 219.65 219.65 219.65z" fill="#ffd270" stroke-width=".8"/><path d="m1623.61 2194.15c108.06 0 195.66-87.6 195.66-195.66s-87.6-195.66-195.66-195.66-195.66 87.6-195.66 195.66 87.6 195.66 195.66 195.66z" fill="#ffe1a3" stroke-width=".8"/><path d="m1463.63 1661.45c32.31-12.03 48.75-47.97 36.72-80.29-12.03-32.31-47.97-48.75-80.29-36.72-32.31 12.03-48.75 47.98-36.72 80.29s47.98 48.75 80.29 36.72z" fill="#ffd270" stroke-width=".8"/><path d="m1459.23 1649.64c25.78-9.6 38.91-38.29 29.31-64.08-9.6-25.78-38.29-38.9-64.08-29.3-25.78 9.6-38.9 38.28-29.3 64.07 9.6 25.78 38.28 38.91 64.07 29.31z" fill="#ffe1a3" stroke-width=".8"/><path d="m1454.83 1637.81c19.25-7.17 29.05-28.59 21.88-47.84-7.17-19.26-28.59-29.05-47.84-21.89-19.26 7.17-29.05 28.59-21.89 47.85 7.17 19.25 28.59 29.05 47.85 21.88z" fill="#ffd270" stroke-width=".8"/><path d="m1441.88 1627.46c13.58 0 24.59-11.01 24.59-24.59s-11.01-24.59-24.59-24.59-24.59 11.01-24.59 24.59 11.01 24.59 24.59 24.59z" fill="#ffe1a3" stroke-width=".8"/><path d="m1480.87 1783.93c40.16-40.16 40.16-105.27 0-145.43-40.16-40.17-105.27-40.17-145.44 0-40.16 40.16-40.16 105.27 0 145.43 40.17 40.17 105.28 40.17 145.44 0z" fill="#ffd270" stroke-width=".8"/><path d="m1443.02 1791.57c42.6-15.86 64.27-63.25 48.41-105.86-15.86-42.6-63.25-64.27-105.86-48.41-42.6 15.86-64.27 63.26-48.41 105.86s63.25 64.27 105.86 48.41z" fill="#ffe1a3" stroke-width=".802436"/><path d="m1429.5 1768.72c31.71-11.81 47.85-47.1 36.04-78.81-11.8-31.72-47.09-47.86-78.81-36.05-31.71 11.81-47.85 47.09-36.04 78.81 11.8 31.71 47.09 47.85 78.81 36.05z" fill="#ffd270" stroke-width=".8"/><path d="m1408.15 1751.71c22.37 0 40.5-18.13 40.5-40.5s-18.13-40.5-40.5-40.5-40.5 18.13-40.5 40.5 18.13 40.5 40.5 40.5z" fill="#ffe1a3" stroke-width=".8"/><path d="m1623.61 2314.09c174.3 0 315.6-141.3 315.6-315.6s-141.3-315.6-315.6-315.6-315.6 141.3-315.6 315.6 141.3 315.6 315.6 315.6z" fill="#ffd270" stroke-width=".8"/><path d="m1623.61 2290.11c161.06 0 291.62-130.56 291.62-291.62s-130.56-291.62-291.62-291.62-291.62 130.56-291.62 291.62 130.56 291.62 291.62 291.62z" fill="#ffe1a3" stroke-width=".8"/><path d="m1623.61 2266.12c147.81 0 267.63-119.82 267.63-267.63s-119.82-267.63-267.63-267.63-267.63 119.82-267.63 267.63 119.82 267.63 267.63 267.63z" fill="#ffd270" stroke-width=".8"/><path d="m1623.61 2242.13c134.56 0 243.64-109.08 243.64-243.64s-109.08-243.64-243.64-243.64-243.64 109.08-243.64 243.64 109.08 243.64 243.64 243.64z" fill="#ffe1a3" stroke-width=".8"/><path d="m1623.61 2218.14c121.31 0 219.65-98.34 219.65-219.65s-98.34-219.65-219.65-219.65-219.65 98.34-219.65 219.65 98.34 219.65 219.65 219.65z" fill="#ffd270" stroke-width=".8"/><path d="m1623.61 2194.15c108.06 0 195.66-87.6 195.66-195.66s-87.6-195.66-195.66-195.66-195.66 87.6-195.66 195.66 87.6 195.66 195.66 195.66z" fill="#ffe1a3" stroke-width=".8"/><path d="m55.8543 1624.6c12.0297-32.32-4.4127-68.26-36.7252-80.29s-68.259 4.41-80.2887 36.72c-12.0298 32.31 4.4127 68.26 36.7252 80.29 32.31244 12.03 68.259-4.41 80.2887-36.72z" fill="#ffd270" stroke-width=".8"/><path d="m44.0361 1620.2c9.5999-25.79-3.5213-54.48-29.3071-64.08s-54.4716 3.53-64.0715 29.31c-9.5999 25.79 3.5214 54.47 29.3072 64.07 25.78576 9.6 54.4715-3.52 64.0714-29.3z" fill="#ffe1a3" stroke-width=".8"/><path d="m32.2095 1615.79c7.1682-19.25-2.6293-40.67-21.8832-47.84-19.25398-7.17-40.6733 2.63-47.8414 21.88-7.1681 19.26 2.6293 40.68 21.8833 47.85 19.25392 7.16 40.6732-2.63 47.8413-21.89z" fill="#ffd270" stroke-width=".8"/><path d="m-2.66977 1627.46c13.58067 0 24.58997-11.01 24.58997-24.59s-11.0093-24.59-24.58997-24.59c-13.58063 0-24.59003 11.01-24.59003 24.59s11.0094 24.59 24.59003 24.59z" fill="#ffe1a3" stroke-width=".8"/><path d="m103.777 1783.93c40.161-40.16 40.161-105.28 0-145.44-40.1618-40.16-105.27651-40.16-145.438 0-40.1615 40.16-40.1616 105.28 0 145.44 40.16147 40.16 105.2762 40.16 145.438 0z" fill="#ffd270" stroke-width=".8"/><path d="m107.98 1739.77c15.813-42.47-5.8-89.72-48.2724-105.53-42.4725-15.81-89.7217 5.8-105.534 48.27-15.8122 42.48 5.8001 89.72 48.27268 105.54 42.47252 15.81 89.72182-5.8 105.53372-48.28z" fill="#ffe1a3" stroke-width=".8"/><path d="m88.5064 1732.52c11.8086-31.71-4.3314-67-36.0486-78.81-31.7173-11.8-67.0015 4.34-78.8097 36.05-11.8081 31.72 4.3313 67 36.04857 78.81 31.71723 11.81 67.00163-4.33 78.80973-36.05z" fill="#ffd270" stroke-width=".8"/><path d="m31.0606 1751.71c22.3675 0 40.4999-18.13 40.4999-40.5s-18.1324-40.5-40.4999-40.5c-22.36758 0-40.50005 18.13-40.50005 40.5s18.13247 40.5 40.50005 40.5z" fill="#ffe1a3" stroke-width=".8"/><path d="m-184.4 2314.09c174.3011 0 315.6-141.3 315.6-315.6s-141.2989-315.6-315.6-315.6c-174.301 0-315.6 141.3-315.6 315.6s141.299 315.6 315.6 315.6z" fill="#ffd270" stroke-width=".8"/><path d="m-184.4 2290.11c161.0577 0 291.62-130.56 291.62-291.62s-130.5623-291.62-291.62-291.62c-161.057 0-291.62 130.56-291.62 291.62s130.563 291.62 291.62 291.62z" fill="#ffe1a3" stroke-width=".8"/><path d="m-184.4 2266.12c147.8077 0 267.6297-119.82 267.6297-267.63s-119.822-267.63-267.6297-267.63c-147.808 0-267.63 119.82-267.63 267.63s119.822 267.63 267.63 267.63z" fill="#ffd270" stroke-width=".8"/><path d="m-184.4 2242.13c134.5586 0 243.64-109.08 243.64-243.64s-109.0814-243.64-243.64-243.64c-134.559 0-243.64 109.08-243.64 243.64s109.081 243.64 243.64 243.64z" fill="#ffe1a3" stroke-width=".8"/><path d="m-184.4 2218.14c121.3095 0 219.6502-98.34 219.6502-219.65s-98.3407-219.65-219.6502-219.65c-121.309 0-219.65 98.34-219.65 219.65s98.341 219.65 219.65 219.65z" fill="#ffd270" stroke-width=".8"/><path d="m-184.4 2194.15c108.0605 0 195.6604-87.6 195.6604-195.66s-87.5999-195.66-195.6604-195.66c-108.06 0-195.66 87.6-195.66 195.66s87.6 195.66 195.66 195.66z" fill="#ffe1a3" stroke-width=".8"/><path d="m55.8543 1624.6c12.0297-32.32-4.4127-68.26-36.7252-80.29s-68.259 4.41-80.2887 36.72c-12.0298 32.31 4.4127 68.26 36.7252 80.29 32.31244 12.03 68.259-4.41 80.2887-36.72z" fill="#ffd270" stroke-width=".8"/><path d="m44.0361 1620.2c9.5999-25.79-3.5213-54.48-29.3071-64.08s-54.4716 3.53-64.0715 29.31c-9.5999 25.79 3.5214 54.47 29.3072 64.07 25.78576 9.6 54.4715-3.52 64.0714-29.3z" fill="#ffe1a3" stroke-width=".8"/><path d="m32.2095 1615.79c7.1682-19.25-2.6293-40.67-21.8832-47.84-19.25398-7.17-40.6733 2.63-47.8414 21.88-7.1681 19.26 2.6293 40.68 21.8833 47.85 19.25392 7.16 40.6732-2.63 47.8413-21.89z" fill="#ffd270" stroke-width=".8"/><path d="m-2.66977 1627.46c13.58067 0 24.58997-11.01 24.58997-24.59s-11.0093-24.59-24.58997-24.59c-13.58063 0-24.59003 11.01-24.59003 24.59s11.0094 24.59 24.59003 24.59z" fill="#ffe1a3" stroke-width=".8"/><path d="m103.777 1783.93c40.161-40.16 40.161-105.28 0-145.44-40.1618-40.16-105.27651-40.16-145.438 0-40.1615 40.16-40.1616 105.28 0 145.44 40.16147 40.16 105.2762 40.16 145.438 0z" fill="#ffd270" stroke-width=".8"/><path d="m107.98 1739.77c15.813-42.47-5.8-89.72-48.2724-105.53-42.4725-15.81-89.7217 5.8-105.534 48.27-15.8122 42.48 5.8001 89.72 48.27268 105.54 42.47252 15.81 89.72182-5.8 105.53372-48.28z" fill="#ffe1a3" stroke-width=".8"/><path d="m88.5064 1732.52c11.8086-31.71-4.3314-67-36.0486-78.81-31.7173-11.8-67.0015 4.34-78.8097 36.05-11.8081 31.72 4.3313 67 36.04857 78.81 31.71723 11.81 67.00163-4.33 78.80973-36.05z" fill="#ffd270" stroke-width=".8"/><path d="m31.0606 1751.71c22.3675 0 40.4999-18.13 40.4999-40.5s-18.1324-40.5-40.4999-40.5c-22.36758 0-40.50005 18.13-40.50005 40.5s18.13247 40.5 40.50005 40.5z" fill="#ffe1a3" stroke-width=".8"/><path d="m-184.4 2314.09c174.3011 0 315.6-141.3 315.6-315.6s-141.2989-315.6-315.6-315.6c-174.301 0-315.6 141.3-315.6 315.6s141.299 315.6 315.6 315.6z" fill="#ffd270" stroke-width=".8"/><path d="m-184.4 2290.11c161.0577 0 291.62-130.56 291.62-291.62s-130.5623-291.62-291.62-291.62c-161.057 0-291.62 130.56-291.62 291.62s130.563 291.62 291.62 291.62z" fill="#ffe1a3" stroke-width=".8"/><path d="m-184.4 2266.12c147.8077 0 267.6297-119.82 267.6297-267.63s-119.822-267.63-267.6297-267.63c-147.808 0-267.63 119.82-267.63 267.63s119.822 267.63 267.63 267.63z" fill="#ffd270" stroke-width=".8"/><path d="m-184.4 2242.13c134.5586 0 243.64-109.08 243.64-243.64s-109.0814-243.64-243.64-243.64c-134.559 0-243.64 109.08-243.64 243.64s109.081 243.64 243.64 243.64z" fill="#ffe1a3" stroke-width=".8"/><path d="m-184.4 2218.14c121.3095 0 219.6502-98.34 219.6502-219.65s-98.3407-219.65-219.6502-219.65c-121.309 0-219.65 98.34-219.65 219.65s98.341 219.65 219.65 219.65z" fill="#ffd270" stroke-width=".8"/><path d="m-184.4 2194.15c108.0605 0 195.6604-87.6 195.6604-195.66s-87.5999-195.66-195.6604-195.66c-108.06 0-195.66 87.6-195.66 195.66s87.6 195.66 195.66 195.66z" fill="#ffe1a3" stroke-width=".8"/><path d="m1484.08 533.705c13.2-31.854-1.93-68.374-33.78-81.569-31.86-13.194-68.38 1.933-81.57 33.787-13.2 31.855 1.93 68.374 33.79 81.569 31.85 13.195 68.37-1.932 81.56-33.787z" fill="#ffd270" stroke-width=".8"/><path d="m1472.44 528.88c10.52-25.421-1.55-54.564-26.97-65.093-25.42-10.53-54.56 1.542-65.09 26.962s1.54 54.564 26.96 65.093c25.42 10.53 54.57-1.542 65.1-26.962z" fill="#ffe1a3" stroke-width=".8"/><path d="m1460.78 524.06c7.86-18.981-1.16-40.742-20.14-48.604s-40.74 1.152-48.6 20.133 1.15 40.742 20.13 48.604 40.74-1.152 48.61-20.133z" fill="#ffd270" stroke-width=".8"/><path d="m1426.41 534.41c13.58 0 24.59-11.009 24.59-24.59s-11.01-24.59-24.59-24.59-24.59 11.009-24.59 24.59 11.01 24.59 24.59 24.59z" fill="#ffe1a3" stroke-width=".8"/><path d="m1442.76 484.065c40.16-40.162 40.16-105.276 0-145.438-40.16-40.161-105.28-40.161-145.44 0-40.16 40.162-40.16 105.277 0 145.438 40.16 40.162 105.28 40.162 145.44 0z" fill="#ffd270" stroke-width=".8"/><path d="m1445.86 442.75c17.34-41.87-2.54-89.873-44.42-107.216-41.87-17.344-89.87 2.54-107.21 44.41-17.35 41.871 2.54 89.873 44.41 107.217 41.87 17.343 89.87-2.54 107.22-44.411z" fill="#ffe1a3" stroke-width=".8"/><path d="m1426.66 434.798c12.95-31.268-1.9-67.115-33.17-80.066-31.27-12.952-67.11 1.897-80.06 33.164-12.96 31.268 1.89 67.115 33.16 80.067 31.27 12.951 67.12-1.897 80.07-33.165z" fill="#ffd270" stroke-width=".8"/><path d="m1370.04 451.84c22.37 0 40.5-18.132 40.5-40.5 0-22.367-18.13-40.5-40.5-40.5s-40.5 18.133-40.5 40.5c0 22.368 18.13 40.5 40.5 40.5z" fill="#ffe1a3" stroke-width=".8"/><path d="m1484.08 533.705c13.2-31.854-1.93-68.374-33.78-81.569-31.86-13.194-68.38 1.933-81.57 33.787-13.2 31.855 1.93 68.374 33.79 81.569 31.85 13.195 68.37-1.932 81.56-33.787z" fill="#ffd270" stroke-width=".8"/><path d="m1472.44 528.88c10.52-25.421-1.55-54.564-26.97-65.093-25.42-10.53-54.56 1.542-65.09 26.962s1.54 54.564 26.96 65.093c25.42 10.53 54.57-1.542 65.1-26.962z" fill="#ffe1a3" stroke-width=".8"/><path d="m1460.78 524.06c7.86-18.981-1.16-40.742-20.14-48.604s-40.74 1.152-48.6 20.133 1.15 40.742 20.13 48.604 40.74-1.152 48.61-20.133z" fill="#ffd270" stroke-width=".8"/><path d="m1426.41 534.41c13.58 0 24.59-11.009 24.59-24.59s-11.01-24.59-24.59-24.59-24.59 11.009-24.59 24.59 11.01 24.59 24.59 24.59z" fill="#ffe1a3" stroke-width=".8"/><path d="m1442.76 484.065c40.16-40.162 40.16-105.276 0-145.438-40.16-40.161-105.28-40.161-145.44 0-40.16 40.162-40.16 105.277 0 145.438 40.16 40.162 105.28 40.162 145.44 0z" fill="#ffd270" stroke-width=".8"/><path d="m1445.86 442.75c17.34-41.87-2.54-89.873-44.42-107.216-41.87-17.344-89.87 2.54-107.21 44.41-17.35 41.871 2.54 89.873 44.41 107.217 41.87 17.343 89.87-2.54 107.22-44.411z" fill="#ffe1a3" stroke-width=".8"/><path d="m1426.66 434.798c12.95-31.268-1.9-67.115-33.17-80.066-31.27-12.952-67.11 1.897-80.06 33.164-12.96 31.268 1.89 67.115 33.16 80.067 31.27 12.951 67.12-1.897 80.07-33.165z" fill="#ffd270" stroke-width=".8"/><path d="m1370.04 451.84c22.37 0 40.5-18.132 40.5-40.5 0-22.367-18.13-40.5-40.5-40.5s-40.5 18.133-40.5 40.5c0 22.368 18.13 40.5 40.5 40.5z" fill="#ffe1a3" stroke-width=".8"/></g></g></svg>