<svg width="1442" height="661" viewBox="0 0 1442 661" fill="none" xmlns="http://www.w3.org/2000/svg">
<mask id="mask0_369_18250" style="mask-type:alpha" maskUnits="userSpaceOnUse" x="0" y="0" width="1442" height="661">
<rect width="1442" height="661" transform="matrix(1 0 0 -1 0 661)" fill="#FEDC94"/>
</mask>
<g mask="url(#mask0_369_18250)">
<g clip-path="url(#clip0_369_18250)">
<path d="M1111.39 416.021C1143.28 416.021 1169.13 390.026 1169.13 357.959C1169.13 325.892 1143.28 299.897 1111.39 299.897C1079.49 299.897 1053.64 325.892 1053.64 357.959C1053.64 390.026 1079.49 416.021 1111.39 416.021Z" fill="#FFD270" stroke="#7B0C00" stroke-width="0.3602" stroke-miterlimit="10"/>
<path d="M1139.01 85.45C1168.47 13.9503 1134.7 -68.0203 1063.59 -97.6365C992.475 -127.253 910.95 -93.2993 881.495 -21.7995C852.04 49.7002 885.808 131.671 956.919 161.287C1028.03 190.903 1109.56 156.95 1139.01 85.45Z" fill="#FFD270" stroke="#7B0C00" stroke-miterlimit="10"/>
<path d="M1112.99 74.6151C1136.5 17.5619 1109.55 -47.8466 1052.81 -71.4788C996.067 -95.111 931.014 -68.0179 907.51 -10.9647C884.007 46.0885 910.952 111.497 967.695 135.129C1024.44 158.761 1089.49 131.668 1112.99 74.6151Z" fill="#FFE1A3" stroke="#7B0C00" stroke-miterlimit="10"/>
<path d="M1086.98 63.7801C1104.53 21.1731 1084.41 -27.6734 1042.03 -45.3218C999.659 -62.9701 951.078 -42.7372 933.525 -0.130297C915.973 42.4766 936.096 91.3231 978.471 108.972C1020.85 126.62 1069.43 106.387 1086.98 63.7801Z" fill="#FFD270" stroke="#7B0C00" stroke-miterlimit="10"/>
<path d="M1010.25 87.0152C1040.57 87.0152 1065.14 62.3058 1065.14 31.8253C1065.14 1.3447 1040.57 -23.3647 1010.25 -23.3647C979.938 -23.3647 955.363 1.3447 955.363 31.8253C955.363 62.3058 979.938 87.0152 1010.25 87.0152Z" fill="#FFE1A3" stroke="#7B0C00" stroke-miterlimit="10"/>
<path d="M1002.52 246.669C1051.04 128.894 995.417 -6.1293 878.282 -54.9135C761.147 -103.698 626.858 -47.7692 578.339 70.0062C529.82 187.782 585.444 322.805 702.579 371.589C819.714 420.373 954.003 364.445 1002.52 246.669Z" fill="#FFD270" stroke="#7B0C00" stroke-miterlimit="10"/>
<path d="M959.669 228.822C998.385 134.843 953.999 27.101 860.531 -11.8263C767.063 -50.7537 659.907 -6.12549 621.192 87.8535C582.476 181.832 626.861 289.574 720.329 328.502C813.797 367.429 920.953 322.801 959.669 228.822Z" fill="#FFE1A3" stroke="#7B0C00" stroke-miterlimit="10"/>
<path d="M916.817 210.974C945.729 140.792 912.582 60.3309 842.781 31.2603C772.98 2.18961 692.957 35.5176 664.044 105.7C635.132 175.883 668.278 256.344 738.08 285.414C807.881 314.485 887.904 281.157 916.817 210.974Z" fill="#FFD270" stroke="#7B0C00" stroke-miterlimit="10"/>
<path d="M790.431 249.248C840.366 249.248 880.846 208.546 880.846 158.338C880.846 108.13 840.366 67.4279 790.431 67.4279C740.496 67.4279 700.015 108.13 700.015 158.338C700.015 208.546 740.496 249.248 790.431 249.248Z" fill="#FFE1A3" stroke="#7B0C00" stroke-miterlimit="10"/>
</g>
<g clip-path="url(#clip1_369_18250)">
<path d="M620.709 909.238C684.739 935.868 758.146 905.338 784.668 841.046C811.189 776.754 780.783 703.047 716.754 676.417C652.724 649.786 579.318 680.317 552.796 744.609C526.274 808.9 556.68 882.607 620.709 909.238Z" fill="#FFD270" stroke="#7B0C00" stroke-miterlimit="10"/>
<path d="M630.412 885.717C681.505 906.967 740.079 882.605 761.243 831.303C782.406 780.002 758.143 721.187 707.051 699.938C655.959 678.688 597.384 703.05 576.221 754.351C555.057 805.653 579.32 864.467 630.412 885.717Z" fill="#FFE1A3" stroke="#7B0C00" stroke-miterlimit="10"/>
<path d="M476.334 785.838C581.804 829.704 702.721 779.414 746.408 673.512C790.095 567.61 740.01 446.199 634.54 402.332C529.069 358.466 408.153 408.757 364.465 514.659C320.778 620.561 370.863 741.972 476.334 785.838Z" fill="#FFD270" stroke="#7B0C00" stroke-miterlimit="10"/>
<path d="M492.316 747.094C576.477 782.097 672.962 741.968 707.822 657.464C742.683 572.959 702.717 476.079 618.557 441.076C534.396 406.073 437.911 446.202 403.051 530.707C368.19 615.211 408.156 712.091 492.316 747.094Z" fill="#FFE1A3" stroke="#7B0C00" stroke-miterlimit="10"/>
<path d="M508.299 708.351C571.149 734.491 643.204 704.523 669.237 641.416C695.271 578.308 665.425 505.959 602.574 479.819C539.724 453.679 467.67 483.647 441.636 546.755C415.603 609.862 445.449 682.211 508.299 708.351Z" fill="#FFD270" stroke="#7B0C00" stroke-miterlimit="10"/>
<path d="M474.025 594.086C474.025 639.232 510.474 675.831 555.437 675.831C600.399 675.831 636.849 639.232 636.849 594.086C636.849 548.939 600.399 512.341 555.437 512.341C510.474 512.341 474.025 548.939 474.025 594.086Z" fill="#FFE1A3" stroke="#7B0C00" stroke-miterlimit="10"/>
</g>
<g clip-path="url(#clip2_369_18250)">
<path d="M1199.62 129.56C1163.91 129.56 1134.97 158.676 1134.97 194.593C1134.97 230.51 1163.91 259.627 1199.62 259.627C1235.33 259.627 1264.28 230.51 1264.28 194.593C1264.28 158.676 1235.33 129.56 1199.62 129.56Z" fill="#FFD270" stroke="#7B0C00" stroke-miterlimit="10"/>
<path d="M1168.69 482.183C1135.71 562.268 1173.52 654.082 1253.14 687.254C1332.76 720.427 1424.05 682.396 1457.03 602.311C1490.01 522.226 1452.2 430.412 1372.57 397.24C1292.95 364.067 1201.67 402.098 1168.69 482.183Z" fill="#FFD270" stroke="#7B0C00" stroke-miterlimit="10"/>
<path d="M1197.82 494.319C1171.5 558.223 1201.68 631.486 1265.21 657.956C1328.74 684.426 1401.58 654.079 1427.9 590.175C1454.21 526.271 1424.04 453.009 1360.51 426.539C1296.98 400.069 1224.14 430.415 1197.82 494.319Z" fill="#FFE1A3" stroke="#7B0C00" stroke-miterlimit="10"/>
<path d="M1226.95 506.455C1207.3 554.178 1229.83 608.89 1277.27 628.657C1324.72 648.425 1379.12 625.763 1398.77 578.039C1418.42 530.316 1395.89 475.604 1348.44 455.837C1301 436.069 1246.6 458.732 1226.95 506.455Z" fill="#FFD270" stroke="#7B0C00" stroke-miterlimit="10"/>
<path d="M1312.86 480.43C1278.92 480.43 1251.4 508.106 1251.4 542.247C1251.4 576.388 1278.92 604.064 1312.86 604.064C1346.8 604.064 1374.32 576.388 1374.32 542.247C1374.32 508.106 1346.8 480.43 1312.86 480.43Z" fill="#FFE1A3" stroke="#7B0C00" stroke-miterlimit="10"/>
<path d="M1321.51 301.605C1267.19 433.522 1329.47 584.759 1460.62 639.401C1591.78 694.043 1742.14 631.399 1796.46 499.481C1850.79 367.564 1788.5 216.327 1657.35 161.685C1526.2 107.043 1375.84 169.687 1321.51 301.605Z" fill="#FFD270" stroke="#7B0C00" stroke-miterlimit="10"/>
<path d="M1369.5 321.595C1326.15 426.859 1375.84 547.538 1480.5 591.14C1585.15 634.742 1705.13 584.755 1748.48 479.491C1791.83 374.227 1742.13 253.548 1637.48 209.946C1532.82 166.344 1412.84 216.331 1369.5 321.595Z" fill="#FFE1A3" stroke="#7B0C00" stroke-miterlimit="10"/>
<path d="M1417.48 341.585C1385.1 420.196 1422.22 510.318 1500.37 542.879C1578.53 575.441 1668.13 538.111 1700.5 459.501C1732.87 380.891 1695.76 290.768 1617.6 258.207C1539.45 225.645 1449.85 262.975 1417.48 341.585Z" fill="#FFD270" stroke="#7B0C00" stroke-miterlimit="10"/>
</g>
</g>
<defs>
<clipPath id="clip0_369_18250">
<rect width="610" height="510.316" fill="white" transform="translate(559.998 -93.424)"/>
</clipPath>
<clipPath id="clip1_369_18250">
<rect width="551.503" height="457" fill="white" transform="translate(795 385.751) rotate(90)"/>
</clipPath>
<clipPath id="clip2_369_18250">
<rect width="683" height="571.594" fill="white" transform="translate(1817 700.178) rotate(-180)"/>
</clipPath>
</defs>
</svg>
