<svg fill="none" height="3097" viewBox="0 0 375 3097" width="375" xmlns="http://www.w3.org/2000/svg" xmlns:xlink="http://www.w3.org/1999/xlink"><mask id="a" height="3097" maskUnits="userSpaceOnUse" width="375" x="0" y="0"><path d="m0 0h375v3097h-375z" fill="#c4c4c4"/></mask><mask id="b" height="118" maskUnits="userSpaceOnUse" width="377" x="2" y="0"><path d="m2 0h377v118h-377z" fill="#c4c4c4"/></mask><path d="m0 0h375v3097h-375z" fill="#fc6"/><g mask="url(#a)"><g mask="url(#b)"><path d="m424.038-16.3611.673.6731.649.7008c1.844 2.0133 3.688 4.0972 5.391 6.19345l-73.587 62.27245c-.307-.3627-1.494-1.9795-1.81-2.3391l-.283-.252.031-.0339-.464-.5071 4.918-4.5552 59.211-67.1073c1.795 1.5861 3.571 3.252 5.271 4.9548zm-14.953-12.602-55.591 78.5966c-.714-.5037-1.464-.9557-2.244-1.3524l43.693-85.7952c4.912 2.5045 9.638 5.3591 14.142 8.5418zm28.489 29.285831c2.963 4.332079 5.646 8.849349 8.032 13.524069l-85.802 43.6768c-.519-1.0105-1.102-1.9868-1.745-2.9231zm-53.967-42.856031-34.152 90.0183c-.827-.3126-1.675-.5653-2.538-.7561l20.901-93.9865c5.368 1.1969 10.645 2.7757 15.789 4.7243zm66.966 67.5406c1.997 5.2078 3.607 10.5563 4.816 16.0015l-94.011 20.7964c-.179-.7893-.414-1.5648-.704-2.3206zm-94.936-74.2935-10.703 95.6831c-.898-.0989-1.802-.1349-2.705-.1075l-3.012-96.2333c5.482-.1699 10.969.0499 16.42.6577zm101.769 102.8509c.58 5.6587.722 11.3537.424 17.0343l-96.138-5.1054c.038-.698.02-1.3979-.053-2.0932zm-130.481-102.4605 13.288 95.3573c-.883.1229-1.756.3089-2.613.5563l-26.79-92.4834c5.283-1.5273 10.669-2.6736 16.115-3.4302zm129.509 132.1337c-.937 5.5111-2.283 10.9449-4.026 16.2566l-91.479-30.0297c.252-.7588.447-1.5356.581-2.3237zm-157.322-124.6125 36.623 89.041c-.808.3322-1.591.7225-2.342 1.1679l-49.078-82.8352c4.749-2.81 9.694-5.2743 14.797-7.3737zm148.796 152.4136c-2.245 4.949-4.831 9.736-7.74 14.326l-81.319-51.5418c.511-.8069.967-1.648 1.364-2.5173zm-173.889-138.1549 57.732 77.0506c-.727.5454-1.414 1.1422-2.056 1.7858l.04-.043-68.383-67.7743.264-.2643c3.875-3.874 8.019-7.468 12.403-10.7548zm159.166 162.3479c-2.922 3.711-6.06 7.245-9.399 10.586-.443.442-.888.881-1.337 1.315l-67.006-69.1388.261-.2582c.649-.6486 1.259-1.3352 1.826-2.0563zm-104.892-81.9501c-.553.6871-1.055 1.4134-1.503 2.1731l-82.949-48.87121c2.798-4.74445 5.933-9.2816 9.381-13.57638zm25.398 26.2491 59.706 75.532c-4.224 3.338-8.669 6.385-13.306 9.12l-48.871-82.9461c.862-.511 1.687-1.081 2.471-1.7059zm-27.801-22.3363c-.361.7968-.664 1.6186-.907 2.4589l-92.536-26.5841c1.523-5.291 3.423-10.466 5.687-15.4851zm23.433 25.0258 39.912 87.6145c-5.022 2.289-10.202 4.212-15.501 5.754l-26.851-92.4618c.834-.2433 1.65-.5463 2.44-.9067zm-24.789-20.612c-.151.8872-.242 1.7837-.27 2.6833l-96.237-2.8186c.162-5.4848.714-10.9513 1.651-16.358zm20.624 21.9213 16.315 94.8872c-5.58.958-11.225 1.487-16.886 1.583l-1.595-96.2673c.726-.0117 1.45-.0795 2.166-.2029zm-20.845-17.2125c.071.8945.204 1.783.399 2.6588l-93.94 21.1068c-1.206-5.3585-2.028-10.7963-2.459-16.272zm17.105 17.3478-9.599 95.7999c-5.627-.565-11.203-1.56-16.678-2.978l24.122-93.2092c.707.1863 1.428.3168 2.155.3904zm-86.61 49.8399-9.052-10.451s1.248-4.214 3.434-2.966c2.185 1.248 8.895 1.872 17.947-2.185 9.052-4.058 24.896-9.286 37.452-9.363s13.97 1.482 13.97 1.482l16.29-28.5361c.85.4709 1.731.8818 2.638 1.2294l-34.25 89.9817c-5.058-1.932-9.977-4.209-14.723-6.815l21.931-39.957zm70.445-62.6171c.284.8276.626 1.634 1.024 2.4128l-85.697 43.9013c-2.514-4.912-4.671-9.999-6.455-15.221zm7.377 9.221-54.133 79.6081c-4.159-2.826-8.154-5.887-11.966-9.166l62.887-72.9103c1.023.8865 2.095 1.7137 3.212 2.4774zm-5.363-5.0869c.488.7421 1.029 1.4479 1.619 2.1116l-26.888 23.8394zm-70.424 65.973c-3.648-4.116-6.997-8.487-10.02-13.081z" fill="#ffe2a4"/><path d="m256.843 140.995c-3.648-4.116-6.997-8.487-10.02-13.081m177.215-144.2751.673.6731.649.7008c1.844 2.0133 3.688 4.0972 5.391 6.19345l-73.587 62.27245c-.307-.3627-1.494-1.9795-1.81-2.3391l-.283-.252.031-.0339-.464-.5071 4.918-4.5552 59.211-67.1073c1.795 1.5861 3.571 3.252 5.271 4.9548zm-14.953-12.602-55.591 78.5966c-.714-.5037-1.464-.9557-2.244-1.3524l43.693-85.7952c4.912 2.5045 9.638 5.3591 14.142 8.5418zm28.489 29.285831c2.963 4.332079 5.646 8.849349 8.032 13.524069l-85.802 43.6768c-.519-1.0105-1.102-1.9868-1.745-2.9231zm-53.967-42.856031-34.152 90.0183c-.827-.3126-1.675-.5653-2.538-.7561l20.901-93.9865c5.368 1.1969 10.645 2.7757 15.789 4.7243zm66.966 67.5406c1.997 5.2078 3.607 10.5563 4.816 16.0015l-94.011 20.7964c-.179-.7893-.414-1.5648-.704-2.3206zm-94.936-74.2935-10.703 95.6831c-.898-.0989-1.802-.1349-2.705-.1075l-3.012-96.2333c5.482-.1699 10.969.0499 16.42.6577zm101.769 102.8509c.58 5.6586.722 11.3537.424 17.0343l-96.138-5.1054c.038-.698.02-1.3979-.053-2.0932zm-130.48-102.4605 13.287 95.3573c-.883.1229-1.756.3089-2.613.5563l-26.79-92.4834c5.283-1.5273 10.669-2.6736 16.116-3.4302zm129.508 132.1337c-.937 5.5111-2.283 10.9449-4.026 16.2566l-91.479-30.0297c.252-.7588.447-1.5356.581-2.3237zm-157.322-124.6125 36.623 89.041c-.808.3322-1.591.7225-2.343 1.1679l-49.077-82.8352c4.749-2.81 9.694-5.2743 14.797-7.3737zm148.796 152.4136c-2.245 4.949-4.831 9.736-7.74 14.326l-81.319-51.5418c.511-.8069.967-1.648 1.364-2.5173zm-173.889-138.1549 57.732 77.0506c-.727.5454-1.414 1.1422-2.056 1.7858l.04-.043-68.383-67.7743.264-.2643c3.875-3.874 8.019-7.468 12.403-10.7548zm159.166 162.3479c-2.922 3.711-6.06 7.245-9.399 10.586-.443.442-.888.881-1.337 1.315l-67.006-69.1388.261-.2582c.649-.6486 1.259-1.3352 1.826-2.0563zm-104.892-81.9501c-.553.6871-1.055 1.4134-1.503 2.1731l-82.949-48.87122c2.798-4.74443 5.933-9.28159 9.381-13.57637zm25.398 26.2491 59.706 75.532c-4.224 3.338-8.669 6.385-13.306 9.12l-48.871-82.9461c.862-.511 1.687-1.081 2.471-1.7059zm-27.801-22.3363c-.361.7968-.664 1.6186-.907 2.4589l-92.536-26.5841c1.523-5.291 3.423-10.466 5.687-15.4851zm23.433 25.0258 39.912 87.6145c-5.022 2.289-10.202 4.212-15.501 5.754l-26.851-92.4618c.834-.2433 1.65-.5463 2.44-.9067zm-24.789-20.612c-.151.8871-.242 1.7837-.27 2.6833l-96.237-2.8186c.162-5.4848.714-10.9513 1.651-16.358zm20.624 21.9214 16.315 94.8871c-5.58.958-11.225 1.487-16.886 1.583l-1.595-96.2673c.726-.0117 1.45-.0795 2.166-.2028zm-20.845-17.2126c.071.8945.204 1.7829.399 2.6588l-93.94 21.1068c-1.206-5.3585-2.028-10.7963-2.459-16.272zm17.105 17.3478-9.599 95.7999c-5.627-.565-11.203-1.56-16.678-2.978l24.122-93.2092c.707.1863 1.428.3168 2.155.3904zm-86.61 49.8399-9.052-10.451s1.248-4.214 3.434-2.966c2.185 1.248 8.895 1.872 17.947-2.185 9.052-4.058 24.896-9.286 37.452-9.363s13.97 1.482 13.97 1.482l16.29-28.5361c.85.4709 1.731.8818 2.638 1.2294l-34.25 89.9817c-5.058-1.932-9.977-4.209-14.723-6.815l21.931-39.957zm70.445-62.6171c.284.8276.626 1.634 1.024 2.4128l-85.697 43.9013c-2.514-4.912-4.671-9.999-6.455-15.221zm7.377 9.221-54.133 79.6081c-4.159-2.826-8.154-5.887-11.966-9.166l62.887-72.9103c1.023.8865 2.095 1.7137 3.212 2.4774zm-5.363-5.0869c.488.7421 1.029 1.4479 1.62 2.1116l-26.889 23.8394z" stroke="#7b0c00" stroke-miterlimit="10" stroke-width=".25"/><path d="m-39.0991-21.316 59.2018 67.1072 4.9178 4.5552-.4641.5071.0308.0339-.2828.252c-.3074.3596-1.5153 1.9764-1.8104 2.3391l-73.5743-62.27244c1.7151-2.09626 3.5286-4.18016 5.3882-6.19346l.6485-.7008.6731-.6731c1.6905-1.7028 3.4763-3.3687 5.2714-4.9547zm23.8239-16.1982 43.6921 85.7951c-.7786.3961-1.5274.848-2.2407 1.3524l-55.5933-78.6058c4.5031-3.1827 9.2292-6.0373 14.1419-8.5417zm36.884 92.1145c-.6435.9363-1.2266 1.9126-1.7459 2.9231l-85.8013-43.6675c2.3859-4.67479 5.0686-9.19205 8.0315-13.524136zm-9.7589-101.8581 20.9009 93.9865c-.8633.1908-1.7118.4435-2.5388.7561l-34.16381-90.0183c5.14798-1.9492 10.42866-3.5279 15.80171-4.7243zm7.1432 106.7299c-.2896.7558-.5249 1.5313-.7039 2.3206l-94.011-20.7841c1.2103-5.4449 2.8201-10.7932 4.8164-16.0015zm21.4572-109.4224-3.0122 96.2333c-.903-.0273-1.8068.0086-2.7048.1076l-10.7148-95.677c5.4548-.6084 10.9459-.8282 16.4318-.6577zm-22.4223 113.3598c-.0712.6953-.0887 1.3951-.0523 2.0931l-96.1442 5.0962c-.3009-5.6805-.1601-11.3757.4211-17.0343zm50.8291-108.8753-26.79 92.4834c-.8565-.2477-1.7296-.4337-2.6126-.5563l13.2874-95.3573c5.4469.7566 10.8324 1.9029 16.1152 3.4302zm-50.7001 112.6067c.1363.7878.3305 1.5645.581 2.3237l-91.4784 30.0297c-1.743-5.3117-3.0889-10.7455-4.0265-16.2566zm77.1951-101.1235-49.0772 82.8198c-.7511-.446-1.5339-.8364-2.3421-1.168l36.6227-89.044c5.1027 2.1009 10.0477 4.5662 14.7966 7.3768zm-75.898 105.2883c.3969.8693.8528 1.7104 1.3647 2.5173l-81.326 51.542c-2.9084-4.59-5.4944-9.377-7.7395-14.326zm98.5969-87.667.264.2643-68.3824 67.7743.0399.043c-.6418-.6436-1.329-1.2404-2.0563-1.7858l57.7328-77.0505c4.383 3.2867 8.528 6.8807 12.402 10.7547zm-95.9166 92.0408c.5673.7219 1.1781 1.4086 1.8288 2.0563l.2613.2582-67.0059 69.139c-.4528-.434-.8995-.873-1.3401-1.316-3.3389-3.34-6.4774-6.875-9.3993-10.585zm104.3136-82.6815c3.447 4.29562 6.581 8.8327 9.378 13.57637l-82.9489 48.87123c-.4467-.7597-.948-1.4859-1.4999-2.1731zm-97.985 88.2387-48.8712 82.9463c-4.6366-2.736-9.0821-5.782-13.3059-9.12l59.6905-75.5322c.789.6248 1.6198 1.1947 2.4866 1.7059zm113.071-63.6525c2.263 5.0191 4.163 10.1941 5.686 15.4851l-92.5356 26.5841c-.2427-.8403-.5457-1.6621-.9067-2.4589zm-108.7494 65.5428-26.85151 92.462c-5.298569-1.542-10.47887-3.465-15.50048-5.754l39.91149-87.5994c.7913.3547 1.6069.6526 2.4405.8914zm117.2054-38.012c.936 5.4069 1.488 10.8732 1.653 16.3581l-96.2393 2.8185c-.0269-.8997-.1173-1.7963-.2705-2.6833zm-113.3141 38.6175-1.5922 96.2675c-5.661-.097-11.3064-.626-16.8867-1.583l16.315-94.8874c.715.1231 1.4384.1909 2.1639.2029zm114.6661-9.9402c-.431 5.4757-1.253 10.9135-2.459 16.272l-93.9281-21.0854c.1952-.8758.3287-1.7642.3996-2.6587zm-110.9378 9.4884 24.1252 93.2093c-5.4759 1.417-11.0525 2.413-16.6808 2.978l-9.599-95.8c.7272-.0726 1.4476-.2021 2.1546-.3873zm28.8187 42.6563 21.9306 39.958c-4.7459 2.605-9.6651 4.882-14.7229 6.814l-34.2498-90.0031c.9067-.3477 1.788-.7585 2.6372-1.2294l16.2904 28.5355s1.4016-1.561 13.9667-1.481c12.5652.08 28.4039 5.311 37.4649 9.368 9.061 4.058 15.762 3.434 17.947 2.186 2.186-1.248 3.433 2.966 3.433 2.966l-9.052 10.45zm76.3251-23.959c-1.784 5.222-3.941 10.308-6.455 15.221l-85.6995-43.8862c.396-.7795.737-1.5857 1.0205-2.4128zm-95.2835-24.3405 62.8655 72.9135c-3.81 3.286-7.804 6.354-11.963 9.187l-54.1329-79.6078c1.1185-.7676 2.192-1.5989 3.2151-2.4897zm27.4202 23.3195-26.8884-23.839c.5904-.6637 1.1317-1.3694 1.6198-2.1116zm55.1603 26.956c-3.024 4.594-6.372 8.966-10.021 13.082z" fill="#ffe2a4"/><g stroke="#7b0c00" stroke-miterlimit="10" stroke-width=".25"><path d="m132.845 127.913c-3.024 4.594-6.372 8.966-10.021 13.082m-161.9231-162.311 59.2018 67.1072 4.9178 4.5552-.4641.5071.0308.0339-.2828.252c-.3074.3596-1.5153 1.9764-1.8104 2.3391l-73.5743-62.27244c1.7151-2.09626 3.5286-4.18016 5.3882-6.19346l.6485-.7008.6731-.6731c1.6905-1.7028 3.4763-3.3687 5.2714-4.9547zm23.8239-16.1982 43.6921 85.7951c-.7786.3961-1.5274.848-2.2407 1.3524l-55.5933-78.6058c4.5031-3.1827 9.2292-6.0373 14.1419-8.5417zm36.884 92.1145c-.6435.9363-1.2266 1.9126-1.7459 2.9231l-85.8013-43.6675c2.3859-4.67478 5.0686-9.19206 8.0315-13.524137zm-9.7589-101.8581 20.9009 93.9865c-.8633.1908-1.7118.4435-2.5389.7561l-34.16371-90.0183c5.14798-1.9492 10.42866-3.5279 15.80171-4.7243zm7.1432 106.7299c-.2896.7558-.5249 1.5313-.7039 2.3206l-94.011-20.7841c1.2103-5.4449 2.8201-10.7932 4.8164-16.0015zm21.4572-109.4224-3.0122 96.2333c-.903-.0273-1.8068.0086-2.7048.1076l-10.7148-95.677c5.4548-.6084 10.9459-.8282 16.4318-.6577zm-22.4223 113.3598c-.0712.6953-.0887 1.3951-.0523 2.0931l-96.1442 5.0962c-.3009-5.6805-.1601-11.3757.4211-17.0343zm50.8291-108.8753-26.79 92.4834c-.8565-.2477-1.7296-.4337-2.6126-.5563l13.2874-95.3573c5.4468.7566 10.8324 1.9029 16.1152 3.4302zm-50.7001 112.6067c.1363.7878.3305 1.5645.581 2.3237l-91.4784 30.0297c-1.743-5.3117-3.0889-10.7455-4.0265-16.2566zm77.1951-101.1235-49.0772 82.8198c-.7511-.446-1.5339-.8364-2.3421-1.168l36.6227-89.044c5.1027 2.1009 10.0477 4.5662 14.7966 7.3768zm-75.898 105.2883c.3969.8693.8528 1.7104 1.3647 2.5173l-81.326 51.542c-2.9084-4.59-5.4944-9.377-7.7395-14.326zm98.5969-87.667.264.2643-68.3824 67.7743.0399.043c-.6418-.6436-1.329-1.2404-2.0563-1.7858l57.7328-77.0505c4.383 3.2867 8.528 6.8807 12.402 10.7547zm-95.9166 92.0408c.5673.7219 1.1781 1.4086 1.8288 2.0563l.2613.2582-67.0059 69.139c-.4528-.434-.8995-.873-1.3401-1.316-3.3389-3.34-6.4774-6.875-9.3993-10.585zm104.3136-82.6815c3.447 4.29562 6.581 8.8327 9.378 13.57637l-82.9489 48.87123c-.4467-.7597-.948-1.4859-1.4999-2.1731zm-97.985 88.2387-48.8712 82.9463c-4.6366-2.736-9.0821-5.782-13.3059-9.12l59.6905-75.5322c.789.6248 1.6198 1.1947 2.4866 1.7059zm113.071-63.6525c2.263 5.0191 4.163 10.1941 5.686 15.4851l-92.5356 26.5841c-.2427-.8403-.5457-1.6621-.9067-2.4589zm-108.7494 65.5428-26.85151 92.462c-5.298571-1.542-10.47887-3.465-15.50048-5.754l39.91149-87.5994c.7913.3547 1.6069.6526 2.4405.8914zm117.2054-38.012c.936 5.4069 1.488 10.8732 1.653 16.3581l-96.2393 2.8185c-.0269-.8997-.1173-1.7963-.2705-2.6833zm-113.3141 38.6175-1.5922 96.2675c-5.661-.097-11.3064-.626-16.8867-1.583l16.315-94.8873c.715.123 1.4384.1908 2.1639.2028zm114.6661-9.9402c-.431 5.4757-1.253 10.9135-2.459 16.272l-93.9281-21.0854c.1952-.8758.3287-1.7642.3996-2.6587zm-110.9378 9.4884 24.1252 93.2093c-5.476 1.417-11.0526 2.413-16.6808 2.978l-9.599-95.8c.7272-.0726 1.4476-.2021 2.1546-.3873zm28.8187 42.6563 21.9306 39.958c-4.7459 2.605-9.6651 4.882-14.7229 6.814l-34.2498-90.0031c.9067-.3477 1.788-.7585 2.6372-1.2295l16.2904 28.5356s1.4016-1.561 13.9667-1.481c12.5652.08 28.4039 5.311 37.4649 9.368 9.061 4.058 15.762 3.434 17.947 2.186s3.433 2.966 3.433 2.966l-9.052 10.45zm76.3251-23.959c-1.784 5.222-3.941 10.308-6.455 15.221l-85.6995-43.8862c.396-.7795.737-1.5857 1.0205-2.4128zm-95.2835-24.3406 62.8655 72.9136c-3.81 3.286-7.804 6.354-11.963 9.187l-54.1329-79.6078c1.1185-.7676 2.192-1.5989 3.2151-2.4897zm27.4202 23.3196-26.8884-23.839c.5904-.6637 1.1317-1.3694 1.6198-2.1116z"/><path d="m334.384 64.1063c9.791-4.0556 14.44-15.2805 10.384-25.0715-4.055-9.791-15.28-14.4405-25.071-10.3849s-14.441 15.2805-10.385 25.0715 15.28 14.4405 25.072 10.3849z" fill="#ffd270"/><path d="m332.901 60.5255c7.813-3.2364 11.523-12.194 8.287-20.0074-3.236-7.8133-12.194-11.5237-20.007-8.2873-7.814 3.2364-11.524 12.194-8.288 20.0074 3.237 7.8133 12.194 11.5237 20.008 8.2873z" fill="#ffe1a3"/><path d="m331.416 56.9417c5.835-2.4166 8.605-9.1052 6.188-14.9393-2.416-5.8342-9.105-8.6046-14.939-6.1881-5.834 2.4166-8.604 9.1052-6.188 14.9393 2.417 5.8341 9.105 8.6046 14.939 6.1881z" fill="#ffd270"/><path d="m327.039 53.9361c4.174 0 7.558-3.3839 7.558-7.5581 0-4.1743-3.384-7.5582-7.558-7.5582-4.175 0-7.559 3.3839-7.559 7.5582 0 4.1742 3.384 7.5581 7.559 7.5581z" fill="#ffe1a3"/><path d="m379.661 86.054c12.345-12.3443 12.345-32.3584 0-44.7027-12.344-12.3443-32.358-12.3443-44.702 0-12.345 12.3443-12.345 32.3584 0 44.7027 12.344 12.3443 32.358 12.3443 44.702 0z" fill="#ffd270"/><path d="m366.962 87.008c12.87-5.3308 18.982-20.0851 13.651-32.9547-5.331-12.8697-20.085-18.9811-32.955-13.6503-12.87 5.3307-18.981 20.0851-13.65 32.9547 5.33 12.8696 20.085 18.9811 32.954 13.6503z" fill="#ffe1a3"/><path d="m364.519 81.107c9.61-3.9809 14.174-14.999 10.193-24.6096-3.98-9.6107-14.999-14.1745-24.609-10.1937-9.611 3.9809-14.175 14.999-10.194 24.6097 3.981 9.6106 14.999 14.1745 24.61 10.1936z" fill="#ffd270"/><path d="m357.31 76.153c6.875 0 12.448-5.5733 12.448-12.4483s-5.573-12.4484-12.448-12.4484-12.449 5.5734-12.449 12.4484 5.574 12.4483 12.449 12.4483z" fill="#ffe1a3"/><path d="m39.6282 66.1063c-9.791-4.0556-14.4405-15.2805-10.3849-25.0715 4.0555-9.791 15.2804-14.4405 25.0714-10.3849 9.7911 4.0556 14.4406 15.2805 10.385 25.0715s-15.2805 14.4405-25.0715 10.3849z" fill="#ffd270"/><path d="m41.1111 62.5255c-7.8133-3.2364-11.5237-12.194-8.2873-20.0074 3.2364-7.8133 12.194-11.5237 20.0074-8.2873 7.8133 3.2364 11.5237 12.194 8.2873 20.0074-3.2364 7.8133-12.194 11.5237-20.0074 8.2873z" fill="#ffe1a3"/><path d="m42.5953 58.9417c-5.8342-2.4166-8.6046-9.1052-6.188-14.9393 2.4165-5.8342 9.1051-8.6046 14.9392-6.1881 5.8342 2.4166 8.6046 9.1052 6.188 14.9393-2.4165 5.8341-9.1051 8.6046-14.9392 6.1881z" fill="#ffd270"/><path d="m46.9731 55.9361c-4.1742 0-7.5581-3.3839-7.5581-7.5581 0-4.1743 3.3839-7.5582 7.5581-7.5582 4.1743 0 7.5581 3.3839 7.5581 7.5582 0 4.1742-3.3838 7.5581-7.5581 7.5581z" fill="#ffe1a3"/><path d="m-5.64966 88.054c-12.34434-12.3443-12.34424-32.3584.00001-44.7027 12.34429-12.3443 32.35835-12.3443 44.70265 0s12.3443 32.3584 0 44.7027c-12.3443 12.344-32.35837 12.344-44.70266 0z" fill="#ffd270"/><path d="m7.0493 89.008c-12.86963-5.3308-18.9811-20.0851-13.65032-32.9547 5.33078-12.8697 20.08512-18.9811 32.95472-13.6503 12.8697 5.3307 18.9811 20.0851 13.6503 32.9547-5.3307 12.8696-20.0851 18.9811-32.9547 13.6503z" fill="#ffe1a3"/><path d="m9.4929 83.107c-9.610659-3.9809-14.17452-14.999-10.193649-24.6096 3.980869-9.6107 14.998949-14.1745 24.609649-10.1937 9.6107 3.9809 14.1745 14.999 10.1937 24.6097-3.9809 9.6106-14.999 14.1745-24.6097 10.1936z" fill="#ffd270"/><path d="m16.7021 78.153c-6.87507 0-12.44837-5.5733-12.44837-12.4483s5.5733-12.4484 12.44837-12.4484c6.875 0 12.4483 5.5734 12.4483 12.4484s-5.5733 12.4483-12.4483 12.4483z" fill="#ffe1a3"/><path d="m189.964 171.335c53.574 0 97.005-43.431 97.005-97.005 0-53.5743-43.431-97.0048-97.005-97.0048s-97.005 43.4305-97.005 97.0048c0 53.574 43.431 97.005 97.005 97.005z" fill="#ffd270"/><path d="m189.964 163.964c49.504 0 89.634-40.13 89.634-89.6341 0-49.5035-40.13-89.6341-89.634-89.6341-49.503 0-89.634 40.1306-89.634 89.6341 0 49.5041 40.131 89.6341 89.634 89.6341z" fill="#ffe1a3"/><path d="m189.966 156.59c45.431 0 82.26-36.829 82.26-82.2602s-36.829-82.26046-82.26-82.26046c-45.432 0-82.261 36.82926-82.261 82.26046s36.829 82.2602 82.261 82.2602z" fill="#ffd270"/><path d="m189.963 149.217c41.359 0 74.887-33.528 74.887-74.8869 0-41.3588-33.528-74.886741-74.887-74.886741s-74.887 33.527941-74.887 74.886741c0 41.3589 33.528 74.8869 74.887 74.8869z" fill="#ffe1a3"/><path d="m189.964 141.843c37.287 0 67.513-30.226 67.513-67.5126 0-37.2864-30.226-67.51302-67.513-67.51302-37.286 0-67.513 30.22662-67.513 67.51302 0 37.2866 30.227 67.5126 67.513 67.5126z" fill="#ffd270"/><path d="m189.964 134.469c33.214 0 60.139-26.925 60.139-60.1393 0-33.214-26.925-60.1393-60.139-60.1393s-60.14 26.9253-60.14 60.1393c0 33.2143 26.926 60.1393 60.14 60.1393z" fill="#ffe1a3"/></g></g><path d="m307.322 667.347-.177-238.475-27.988 236.554c-8.081-.956-16.162-2.263-24.013-3.897l49.188-237.68c1.045.216 2.172.396 3.355.538l-.028.227c.283 0 .556-.029.825-.057l25.207 241.401c-8.76.915-17.561 1.379-26.369 1.389zm52.589-5.516-50.275-237.455c.337-.069.671-.158.999-.265l75.064 230.815c-8.469 2.754-17.076 5.059-25.788 6.905zm-129.212-6.551c-8.304-2.541-16.476-5.497-24.484-8.857l94.103-223.733c.517.216 1.044.405 1.58.567zm179.874-9.92-98.946-221.635c.354-.153.673-.323.995-.507l121.648 210.047c-7.682 4.444-15.592 8.483-23.697 12.099zm-228.484-10.649c-7.954-4.398-15.661-9.23-23.085-14.473l140.088-198.207c.13.09.265.173.404.248zm274.426-15.943-142.887-196.198c.336-.244.659-.506.967-.783l162.479 180.302c-6.556 5.911-13.415 11.479-20.548 16.679zm-319.09-15.684c-6.866-6.124-13.382-12.629-19.517-19.485l180.965-161.763.099.099zm358.397-19.74-180.355-162.429c.273-.305.531-.627.772-.956l196.27 142.773c-5.203 7.154-10.773 14.034-16.687 20.612zm-395.018-21.207c-5.2383-7.38-10.0695-15.04-14.4727-22.947l212.0417-118.101c.11.195.22.354.323.517zm426.195-21.653-210.111-121.517c.186-.322.355-.653.506-.992l221.703 98.786c-3.618 8.113-7.657 16.031-12.102 23.723zm-452.4403-25.345c-3.4429-8.116-6.4665-16.402-9.0589-24.828l232.0022-71.32c.127.419.276.83.446 1.233zm474.0793-23.23-230.858-74.937c.109-.335.2-.676.273-1.02l237.472 50.18c-1.841 8.707-4.14 17.311-6.887 25.777zm-489.5399-26.862c-1.6829-8.407-2.9654-17.005-3.8156-25.561l241.5285-23.97c.064.638.159 1.268.28 1.874zm500.5509-25.153-241.419-25.087c.046-.433.069-.868.068-1.303v-.319h242.715v.319c0 8.808-.454 17.611-1.361 26.372zm-262.937-26.242h-242.712v-.159c0-8.446.411-17.005 1.2258-25.395l241.5852 23.383c-.064.662-.096 1.335-.096 1.998zm21.518-1.505c-.042-.354-.099-.741-.177-1.102l237.345-50.789c1.855 8.681 3.254 17.453 4.191 26.28zm-.453-2.126c-.114-.35-.246-.695-.397-1.031l221.462-99.321c3.636 8.104 6.842 16.395 9.605 24.838zm-20.7-.354-238.0746-47.172c1.6899-8.503 3.8226-17.027 6.3451-25.292l232.1475 70.855c-.167.482-.302 1.024-.415 1.584zm19.8-1.651c-.203-.349-.426-.686-.666-1.01l195.968-143.252c5.224 7.143 10.072 14.553 14.526 22.199zm-18.943-1.222-223.602-94.429c3.472-8.217 7.3744-16.246 11.6911-24.052l212.3429 117.567c-.158.288-.301.585-.429.889zm17.529-.709c-.287-.318-.591-.621-.91-.907l162.121-180.631c6.564 5.891 12.818 12.12 18.737 18.659zm-16.792-.68-198.232-140.074c5.28-7.465 10.97-14.631 17.044-21.466l181.39 161.264c-.064.07-.128.155-.199.251zm.29-.354-161.993-180.742c6.841-6.129 14.02-11.869 21.505-17.193l140.648 197.804c-.055.035-.107.074-.156.116zm.514-.355-117.932-212.151c7.817-4.342 15.858-8.264 24.091-11.752l94.681 223.485c-.319.149-.599.284-.837.415zm14.139-.297c-.325-.236-.662-.455-1.01-.656l121.163-210.309c7.669 4.419 15.102 9.234 22.27 14.426zm-11.758-.659-71.734-231.874c7.964-2.48 16.19-4.606 24.445-6.317l49.669 237.578c-.843.181-1.647.383-2.377.609zm9.76-.496c-.322-.145-.652-.272-.988-.379l.18-.556c-.404.021-.804.049-1.194.081l-.039.195c-.241-.053-.489-.096-.733-.128-.425.039-.84.085-1.247.135l-29.012-240.976c7.653-.924 15.518-1.555 23.382-1.874l8.939 218.748 22.163-217.547c8.827.902 17.6 2.264 26.284 4.081l-47.827 228.353.244 6.023 73.336-227.549c8.468 2.734 16.787 5.911 24.923 9.516z" fill="#ffe2a4" stroke="#7b0c00" stroke-miterlimit="10" stroke-width=".25"/><path d="m421.129 710h-79.035v662.35h79.035z" fill="#ffd479"/><path d="m307.322 1262.34-.177-238.48-27.988 236.56c-8.081-.96-16.162-2.26-24.013-3.9l49.188-237.68c1.045.22 2.172.4 3.355.54l-.028.23c.283 0 .556-.03.825-.06l25.207 241.4c-8.76.92-17.561 1.38-26.369 1.39zm52.589-5.52-50.275-237.45c.337-.07.671-.16.999-.27l75.064 230.82c-8.469 2.75-17.076 5.06-25.788 6.9zm-129.212-6.55c-8.304-2.54-16.476-5.49-24.484-8.85l94.103-223.74c.517.22 1.044.41 1.58.57zm179.874-9.92-98.946-221.63c.354-.16.673-.33.995-.51l121.648 210.05c-7.682 4.44-15.592 8.48-23.697 12.1zm-228.484-10.65c-7.954-4.39-15.661-9.23-23.085-14.47l140.088-198.21c.13.09.265.18.404.25zm274.426-15.94-142.887-196.2c.336-.24.659-.5.967-.78l162.479 180.3c-6.556 5.91-13.415 11.48-20.548 16.68zm-319.09-15.68c-6.866-6.13-13.382-12.63-19.517-19.49l180.965-161.76.099.1zm358.397-19.74-180.355-162.43c.273-.31.531-.63.772-.96l196.27 142.77c-5.203 7.16-10.773 14.04-16.687 20.62zm-395.018-21.21c-5.2383-7.38-10.0695-15.04-14.4727-22.95l212.0417-118.1c.11.2.22.36.323.52zm426.195-21.65-210.111-121.52c.186-.32.355-.65.506-.99l221.703 98.78c-3.618 8.12-7.657 16.03-12.102 23.73zm-452.4403-25.35c-3.4429-8.11-6.4665-16.4-9.0589-24.83l232.0022-71.32c.127.42.276.83.446 1.24zm474.0793-23.23-230.858-74.94c.109-.33.2-.67.273-1.02l237.472 50.18c-1.841 8.71-4.14 17.32-6.887 25.78zm-489.5399-26.86c-1.6829-8.41-2.9654-17.01-3.8156-25.56l241.5285-23.97c.064.64.159 1.27.28 1.87zm500.5509-25.15-241.419-25.09c.046-.43.069-.87.068-1.3v-.32h242.715v.32c0 8.8-.454 17.61-1.361 26.37zm-262.937-26.24h-242.712v-.16c0-8.45.411-17.01 1.2258-25.399l241.5852 23.379c-.064.67-.096 1.34-.096 2zm21.518-1.51c-.042-.35-.099-.74-.177-1.1l237.345-50.791c1.855 8.68 3.254 17.452 4.191 26.28zm-.453-2.13c-.114-.35-.246-.69-.397-1.03l221.462-99.319c3.636 8.105 6.842 16.396 9.605 24.839zm-20.7-.35-238.0746-47.172c1.6899-8.503 3.8226-17.027 6.3451-25.292l232.1475 70.854c-.167.48-.302 1.02-.415 1.58zm19.8-1.65c-.203-.35-.426-.69-.666-1.01l195.968-143.253c5.224 7.143 10.072 14.552 14.526 22.199zm-18.943-1.22-223.602-94.433c3.472-8.217 7.3744-16.245 11.6911-24.051l212.3429 117.564c-.158.29-.301.59-.429.89zm17.529-.71c-.287-.32-.591-.62-.91-.91l162.121-180.631c6.564 5.892 12.818 12.12 18.737 18.66zm-16.792-.68-198.232-140.076c5.28-7.465 10.97-14.631 17.044-21.466l181.39 161.262c-.064.07-.128.16-.199.25zm.29-.36-161.993-180.738c6.841-6.129 14.02-11.869 21.505-17.193l140.648 197.803c-.055.036-.107.075-.156.118zm.514-.351-117.932-212.152c7.817-4.341 15.858-8.264 24.091-11.751l94.681 223.485c-.319.149-.599.283-.837.414zm14.139-.298c-.325-.236-.662-.454-1.01-.655l121.163-210.309c7.669 4.418 15.102 9.233 22.27 14.426zm-11.758-.659-71.734-231.874c7.964-2.48 16.19-4.605 24.445-6.317l49.669 237.579c-.843.18-1.647.382-2.377.609zm9.76-.496c-.322-.145-.652-.271-.988-.379l.18-.556c-.404.021-.804.05-1.194.082l-.039.195c-.241-.054-.489-.096-.733-.128-.425.039-.84.085-1.247.135l-29.012-240.976c7.653-.925 15.518-1.555 23.382-1.874l8.939 218.748 22.163-217.547c8.827.902 17.6 2.264 26.284 4.081l-47.827 228.353.244 6.023 73.336-227.549c8.468 2.734 16.787 5.91 24.923 9.516z" fill="#ffe2a4" stroke="#7b0c00" stroke-miterlimit="10" stroke-width=".25"/><path d="m421.129 1319h-79.035v662.35h79.035z" fill="#ffd479"/><path d="m307.322 1871.34-.177-238.48-27.988 236.56c-8.081-.96-16.162-2.26-24.013-3.9l49.188-237.68c1.045.22 2.172.4 3.355.54l-.028.23c.283 0 .556-.03.825-.06l25.207 241.4c-8.76.92-17.561 1.38-26.369 1.39zm52.589-5.52-50.275-237.45c.337-.07.671-.16.999-.27l75.064 230.82c-8.469 2.75-17.076 5.06-25.788 6.9zm-129.212-6.55c-8.304-2.54-16.476-5.49-24.484-8.85l94.103-223.74c.517.22 1.044.41 1.58.57zm179.874-9.92-98.946-221.63c.354-.16.673-.33.995-.51l121.648 210.05c-7.682 4.44-15.592 8.48-23.697 12.1zm-228.484-10.65c-7.954-4.39-15.661-9.23-23.085-14.47l140.088-198.21c.13.09.265.18.404.25zm274.426-15.94-142.887-196.2c.336-.24.659-.5.967-.78l162.479 180.3c-6.556 5.91-13.415 11.48-20.548 16.68zm-319.09-15.68c-6.866-6.13-13.382-12.63-19.517-19.49l180.965-161.76.099.1zm358.397-19.74-180.355-162.43c.273-.31.531-.63.772-.96l196.27 142.77c-5.203 7.16-10.773 14.04-16.687 20.62zm-395.018-21.21c-5.2383-7.38-10.0695-15.04-14.4727-22.95l212.0417-118.1c.11.2.22.36.323.52zm426.195-21.65-210.111-121.52c.186-.32.355-.65.506-.99l221.703 98.78c-3.618 8.12-7.657 16.03-12.102 23.73zm-452.4403-25.35c-3.4429-8.11-6.4665-16.4-9.0589-24.83l232.0022-71.32c.127.42.276.83.446 1.24zm474.0793-23.23-230.858-74.94c.109-.33.2-.67.273-1.02l237.472 50.18c-1.841 8.71-4.14 17.32-6.887 25.78zm-489.5399-26.86c-1.6829-8.41-2.9654-17.01-3.8156-25.56l241.5285-23.97c.064.64.159 1.27.28 1.87zm500.5509-25.15-241.419-25.09c.046-.43.069-.87.068-1.3v-.32h242.715v.32c0 8.8-.454 17.61-1.361 26.37zm-262.937-26.24h-242.712v-.16c0-8.45.411-17.01 1.2258-25.4l241.5852 23.38c-.064.67-.096 1.34-.096 2zm21.518-1.51c-.042-.35-.099-.74-.177-1.1l237.345-50.79c1.855 8.68 3.254 17.45 4.191 26.28zm-.453-2.13c-.114-.35-.246-.69-.397-1.03l221.462-99.32c3.636 8.11 6.842 16.4 9.605 24.84zm-20.7-.35-238.0746-47.17c1.6899-8.51 3.8226-17.03 6.3451-25.29l232.1475 70.85c-.167.48-.302 1.02-.415 1.58zm19.8-1.65c-.203-.35-.426-.69-.666-1.01l195.968-143.25c5.224 7.14 10.072 14.55 14.526 22.2zm-18.943-1.22-223.602-94.43c3.472-8.22 7.3744-16.25 11.6911-24.05l212.3429 117.56c-.158.29-.301.59-.429.89zm17.529-.71c-.287-.32-.591-.62-.91-.91l162.121-180.63c6.564 5.89 12.818 12.12 18.737 18.66zm-16.792-.68-198.232-140.08c5.28-7.46 10.97-14.63 17.044-21.46l181.39 161.26c-.064.07-.128.16-.199.25zm.29-.36-161.993-180.74c6.841-6.13 14.02-11.87 21.505-17.19l140.648 197.8c-.055.04-.107.08-.156.12zm.514-.35-117.932-212.15c7.817-4.34 15.858-8.27 24.091-11.75l94.681 223.48c-.319.15-.599.28-.837.42zm14.139-.3c-.325-.23-.662-.45-1.01-.65l121.163-210.31c7.669 4.42 15.102 9.23 22.27 14.42zm-11.758-.66-71.734-231.87c7.964-2.48 16.19-4.61 24.445-6.32l49.669 237.58c-.843.18-1.647.38-2.377.61zm9.76-.49c-.322-.15-.652-.28-.988-.38l.18-.56c-.404.02-.804.05-1.194.08l-.039.2c-.241-.06-.489-.1-.733-.13-.425.04-.84.09-1.247.13l-29.012-240.97c7.653-.93 15.518-1.56 23.382-1.88l8.939 218.75 22.163-217.54c8.827.9 17.6 2.26 26.284 4.08l-47.827 228.35.244 6.02 73.336-227.55c8.468 2.74 16.787 5.91 24.923 9.52z" fill="#ffe2a4" stroke="#7b0c00" stroke-miterlimit="10" stroke-width=".25"/><path d="m421.129 1917.01h-79.035v662.35h79.035z" fill="#ffd479"/><path d="m307.322 2469.35-.177-238.48-27.988 236.56c-8.081-.96-16.162-2.27-24.013-3.9l49.188-237.68c1.045.22 2.172.4 3.355.54l-.028.22c.283 0 .556-.02.825-.05l25.207 241.4c-8.76.91-17.561 1.38-26.369 1.39zm52.589-5.52-50.275-237.45c.337-.07.671-.16.999-.27l75.064 230.82c-8.469 2.75-17.076 5.06-25.788 6.9zm-129.212-6.55c-8.304-2.54-16.476-5.5-24.484-8.86l94.103-223.73c.517.22 1.044.41 1.58.57zm179.874-9.92-98.946-221.63c.354-.16.673-.33.995-.51l121.648 210.05c-7.682 4.44-15.592 8.48-23.697 12.09zm-228.484-10.65c-7.954-4.4-15.661-9.23-23.085-14.47l140.088-198.21c.13.09.265.17.404.25zm274.426-15.94-142.887-196.2c.336-.24.659-.51.967-.78l162.479 180.3c-6.556 5.91-13.415 11.48-20.548 16.68zm-319.09-15.69c-6.866-6.12-13.382-12.62-19.517-19.48l180.965-161.76.099.1zm358.397-19.74-180.355-162.42c.273-.31.531-.63.772-.96l196.27 142.77c-5.203 7.16-10.773 14.04-16.687 20.61zm-395.018-21.2c-5.2383-7.38-10.0695-15.04-14.4727-22.95l212.0417-118.1c.11.19.22.35.323.52zm426.195-21.66-210.111-121.51c.186-.32.355-.66.506-.99l221.703 98.78c-3.618 8.11-7.657 16.03-12.102 23.72zm-452.4403-25.34c-3.4429-8.12-6.4665-16.4-9.0589-24.83l232.0022-71.32c.127.42.276.83.446 1.23zm474.0793-23.23-230.858-74.94c.109-.33.2-.67.273-1.02l237.472 50.18c-1.841 8.71-4.14 17.31-6.887 25.78zm-489.5399-26.86c-1.6829-8.41-2.9654-17.01-3.8156-25.56l241.5285-23.97c.064.63.159 1.26.28 1.87zm500.5509-25.16-241.419-25.08c.046-.44.069-.87.068-1.31v-.31h242.715v.31c0 8.81-.454 17.61-1.361 26.38zm-262.937-26.24h-242.712v-.16c0-8.44.411-17 1.2258-25.39l241.5852 23.38c-.064.66-.096 1.34-.096 2zm21.518-1.5c-.042-.36-.099-.74-.177-1.1l237.345-50.79c1.855 8.68 3.254 17.45 4.191 26.28zm-.453-2.13c-.114-.35-.246-.69-.397-1.03l221.462-99.32c3.636 8.1 6.842 16.39 9.605 24.84zm-20.7-.35-238.0746-47.17c1.6899-8.51 3.8226-17.03 6.3451-25.3l232.1475 70.86c-.167.48-.302 1.02-.415 1.58zm19.8-1.65c-.203-.35-.426-.69-.666-1.01l195.968-143.26c5.224 7.15 10.072 14.56 14.526 22.2zm-18.943-1.23-223.602-94.42c3.472-8.22 7.3744-16.25 11.6911-24.06l212.3429 117.57c-.158.29-.301.59-.429.89zm17.529-.7c-.287-.32-.591-.63-.91-.91l162.121-180.63c6.564 5.89 12.818 12.12 18.737 18.66zm-16.792-.68-198.232-140.08c5.28-7.46 10.97-14.63 17.044-21.46l181.39 161.26c-.064.07-.128.15-.199.25zm.29-.36-161.993-180.74c6.841-6.13 14.02-11.87 21.505-17.19l140.648 197.8c-.055.04-.107.07-.156.12zm.514-.35-117.932-212.15c7.817-4.35 15.858-8.27 24.091-11.76l94.681 223.49c-.319.15-.599.28-.837.41zm14.139-.3c-.325-.24-.662-.46-1.01-.66l121.163-210.31c7.669 4.42 15.102 9.24 22.27 14.43zm-11.758-.66-71.734-231.87c7.964-2.48 16.19-4.61 24.445-6.32l49.669 237.58c-.843.18-1.647.38-2.377.61zm9.76-.5c-.322-.14-.652-.27-.988-.37l.18-.56c-.404.02-.804.05-1.194.08l-.039.2c-.241-.06-.489-.1-.733-.13-.425.04-.84.08-1.247.13l-29.012-240.97c7.653-.93 15.518-1.56 23.382-1.88l8.939 218.75 22.163-217.55c8.827.91 17.6 2.27 26.284 4.08l-47.827 228.36.244 6.02 73.336-227.55c8.468 2.74 16.787 5.91 24.923 9.52z" fill="#ffe2a4" stroke="#7b0c00" stroke-miterlimit="10" stroke-width=".25"/><path d="m421.129 2515.02h-79.035v662.35h79.035z" fill="#ffd479"/><path d="m307.322 3067.35-.177-238.47-27.988 236.55c-8.081-.95-16.162-2.26-24.013-3.89l49.188-237.68c1.045.21 2.172.39 3.355.53l-.028.23c.283 0 .556-.03.825-.06l25.207 241.41c-8.76.91-17.561 1.37-26.369 1.38zm52.589-5.51-50.275-237.46c.337-.07.671-.15.999-.26l75.064 230.81c-8.469 2.76-17.076 5.06-25.788 6.91zm-129.212-6.55c-8.304-2.54-16.476-5.5-24.484-8.86l94.103-223.73c.517.21 1.044.4 1.58.56zm179.874-9.92-98.946-221.64c.354-.15.673-.32.995-.5l121.648 210.04c-7.682 4.45-15.592 8.49-23.697 12.1zm-228.484-10.65c-7.954-4.4-15.661-9.23-23.085-14.47l140.088-198.21c.13.09.265.17.404.25zm274.426-15.94-142.887-196.2c.336-.25.659-.51.967-.79l162.479 180.31c-6.556 5.91-13.415 11.48-20.548 16.68zm-319.09-15.69c-6.866-6.12-13.382-12.63-19.517-19.48l180.965-161.77.099.1zm358.397-19.74-180.355-162.43c.273-.3.531-.62.772-.95l196.27 142.77c-5.203 7.15-10.773 14.03-16.687 20.61zm-395.018-21.21c-5.2383-7.38-10.0695-15.04-14.4727-22.94l212.0417-118.1c.11.19.22.35.323.51zm426.195-21.65-210.111-121.52c.186-.32.355-.65.506-.99l221.703 98.79c-3.618 8.11-7.657 16.03-12.102 23.72zm-452.4403-25.34c-3.4429-8.12-6.4665-16.41-9.0589-24.83l232.0022-71.32c.127.42.276.83.446 1.23zm474.0793-23.23-230.858-74.94c.109-.34.2-.68.273-1.02l237.472 50.18c-1.841 8.71-4.14 17.31-6.887 25.78zm-489.5399-26.86c-1.6829-8.41-2.9654-17.01-3.8156-25.57l241.5285-23.97c.064.64.159 1.27.28 1.88zm500.5509-25.16-241.419-25.08c.046-.44.069-.87.068-1.31v-.32h242.715v.32c0 8.81-.454 17.61-1.361 26.37zm-262.937-26.24h-242.712v-.16c0-8.45.411-17 1.2258-25.39l241.5852 23.38c-.064.66-.096 1.33-.096 2zm21.518-1.51c-.042-.35-.099-.74-.177-1.1l237.345-50.79c1.855 8.68 3.254 17.46 4.191 26.28zm-.453-2.12c-.114-.35-.246-.7-.397-1.03l221.462-99.32c3.636 8.1 6.842 16.39 9.605 24.83zm-20.7-.36-238.0746-47.17c1.6899-8.5 3.8226-17.02 6.3451-25.29l232.1475 70.86c-.167.48-.302 1.02-.415 1.58zm19.8-1.65c-.203-.34-.426-.68-.666-1.01l195.968-143.25c5.224 7.14 10.072 14.55 14.526 22.2zm-18.943-1.22-223.602-94.43c3.472-8.21 7.3744-16.24 11.6911-24.05l212.3429 117.57c-.158.29-.301.58-.429.89zm17.529-.71c-.287-.32-.591-.62-.91-.9l162.121-180.64c6.564 5.9 12.818 12.12 18.737 18.66zm-16.792-.68-198.232-140.07c5.28-7.47 10.97-14.63 17.044-21.47l181.39 161.27c-.064.07-.128.15-.199.25zm.29-.35-161.993-180.74c6.841-6.13 14.02-11.87 21.505-17.2l140.648 197.81c-.055.03-.107.07-.156.11zm.514-.36-117.932-212.15c7.817-4.34 15.858-8.26 24.091-11.75l94.681 223.49c-.319.14-.599.28-.837.41zm14.139-.29c-.325-.24-.662-.46-1.01-.66l121.163-210.31c7.669 4.42 15.102 9.24 22.27 14.43zm-11.758-.66-71.734-231.88c7.964-2.48 16.19-4.6 24.445-6.31l49.669 237.57c-.843.19-1.647.39-2.377.61zm9.76-.5c-.322-.14-.652-.27-.988-.38l.18-.55c-.404.02-.804.05-1.194.08l-.039.19c-.241-.05-.489-.09-.733-.12-.425.03-.84.08-1.247.13l-29.012-240.98c7.653-.92 15.518-1.55 23.382-1.87l8.939 218.75 22.163-217.55c8.827.9 17.6 2.27 26.284 4.08l-47.827 228.36.244 6.02 73.336-227.55c8.468 2.73 16.787 5.91 24.923 9.52z" fill="#ffe2a4" stroke="#7b0c00" stroke-miterlimit="10" stroke-width=".25"/><path d="m66.6915 667.347.1772-238.475 27.9878 236.554c8.0815-.956 16.1625-2.263 24.0125-3.897l-49.1874-237.68c-1.0451.216-2.1717.396-3.355.538l.0283.227c-.2834 0-.5562-.029-.8254-.057l-25.2068 241.401c8.7599.915 17.5612 1.379 26.3688 1.389zm-52.5889-5.516 50.2755-237.455c-.3378-.069-.6713-.158-.9991-.265l-75.0642 230.815c8.4684 2.754 17.07631 5.059 25.7878 6.905zm129.2124-6.551c8.304-2.541 16.475-5.497 24.484-8.857l-94.1034-223.733c-.5168.216-1.0442.405-1.5801.567zm-179.874-9.92 98.946-221.635c-.3543-.153-.6731-.323-.9955-.507l-121.6481 210.047c7.6824 4.444 15.5925 8.483 23.6976 12.099zm228.484-10.649c7.954-4.398 15.66-9.23 23.085-14.473l-140.0886-198.207c-.1301.09-.265.173-.4039.248zm-274.4266-15.943 142.8869-196.198c-.3357-.244-.6585-.506-.9671-.783l-162.4782 180.302c6.5558 5.911 13.4144 11.479 20.5478 16.679zm319.0906-15.684c6.865-6.124 13.381-12.629 19.517-19.485l-180.965-161.763-.0992.099zm-358.398-19.74 180.3557-162.429c-.2728-.305-.5314-.627-.7723-.956l-196.2694 142.773c5.203 7.154 10.772 14.034 16.686 20.612zm395.019-21.207c5.238-7.38 10.069-15.04 14.472-22.947l-212.0415-118.101c-.1098.195-.2196.354-.3224.517zm-426.195-21.653 210.111-121.517c-.1863-.322-.3555-.653-.5066-.992l-221.7034 98.786c3.619 8.113 7.658 16.031 12.103 23.723zm452.44-25.345c3.443-8.116 6.466-16.402 9.059-24.828l-232.0019-71.32c-.1273.419-.2763.83-.4464 1.233zm-474.079-23.23 230.8572-74.937c-.1087-.335-.1998-.676-.2728-1.02l-237.4714 50.18c1.84 8.707 4.139 17.311 6.887 25.777zm489.54-26.862c1.682-8.407 2.965-17.005 3.815-25.561l-241.5281-23.97c-.0638.638-.1594 1.268-.2799 1.874zm-500.551-25.153 241.4183-25.087c-.0461-.433-.0686-.868-.0673-1.303v-.319h-242.715v.319c0 8.808.454 17.611 1.36 26.372zm262.9371-26.242h242.7119v-.159c0-8.446-.411-17.005-1.226-25.395l-241.5851 23.383c.0637.662.0956 1.335.0956 1.998zm-21.5188-1.505c.0425-.354.0992-.741.1771-1.102l-237.3444-50.789c-1.855 8.681-3.254 17.453-4.191 26.28zm.4535-2.126c.1134-.35.2459-.695.3968-1.031l-221.4616-99.321c-3.636 8.104-6.842 16.395-9.605 24.838zm20.7004-.354 238.0738-47.172c-1.69-8.503-3.822-17.027-6.345-25.292l-232.1469 70.855c.1666.482.3012 1.024.4146 1.584zm-19.8005-1.651c.2033-.349.4257-.686.666-1.01l-195.9687-143.252c-5.223 7.143-10.072 14.553-14.525 22.199zm18.9431-1.222 223.6022-94.429c-3.472-8.217-7.375-16.246-11.691-24.052l-212.3434 117.567c.1583.288.3014.585.4287.889zm-17.5296-.709c.2874-.318.5913-.621.9105-.907l-162.1207-180.631c-6.564 5.891-12.819 12.12-18.738 18.659zm16.7927-.68 198.2321-140.074c-5.28-7.465-10.97-14.631-17.044-21.466l-181.39 161.264c.0638.07.1276.155.1984.251zm-.2905-.354 161.9936-180.742c-6.841-6.129-14.021-11.869-21.505-17.193l-140.648 197.804c.0544.035.1064.074.1559.116zm-.5137-.355 117.9313-212.151c-7.816-4.342-15.857-8.264-24.09-11.752l-94.6809 223.485c.3189.149.5987.284.8361.415zm-14.1392-.297c.3249-.236.6619-.455 1.0097-.656l-121.1626-210.309c-7.6689 4.419-15.1023 9.234-22.2699 14.426zm11.7585-.659 71.734-231.874c-7.964-2.48-16.19-4.606-24.445-6.317l-49.6697 237.578c.8431.181 1.6473.383 2.3771.609zm-9.7603-.496c.322-.145.652-.272.9884-.379l-.1807-.556c.4039.021.8042.049 1.194.081l.0389.195c.2409-.053.4889-.096.7333-.128.4252.039.8397.085 1.2471.135l29.0118-240.976c-7.6524-.924-15.5174-1.555-23.3823-1.874l-8.9384 218.748-22.1636-217.547c-8.8264.902-17.5996 2.264-26.2838 4.081l47.8274 228.353-.2445 6.023-73.3353-227.549c-8.4685 2.734-16.7877 5.911-24.9234 9.516z" fill="#ffe2a4" stroke="#7b0c00" stroke-miterlimit="10" stroke-width=".25"/><path d="m-47.1157 710h79.0356v662.35h-79.0356z" fill="#ffd479"/><path d="m66.6915 1262.34.1772-238.48 27.9878 236.56c8.0815-.96 16.1625-2.26 24.0125-3.9l-49.1874-237.68c-1.0451.22-2.1717.4-3.355.54l.0283.23c-.2834 0-.5562-.03-.8254-.06l-25.2068 241.4c8.7599.92 17.5612 1.38 26.3688 1.39zm-52.5889-5.52 50.2755-237.45c-.3378-.07-.6713-.16-.9991-.27l-75.0642 230.82c8.4684 2.75 17.07631 5.06 25.7878 6.9zm129.2124-6.55c8.304-2.54 16.475-5.49 24.484-8.85l-94.1034-223.74c-.5168.22-1.0442.41-1.5801.57zm-179.874-9.92 98.946-221.63c-.3543-.16-.6731-.33-.9955-.51l-121.6481 210.05c7.6824 4.44 15.5925 8.48 23.6976 12.1zm228.484-10.65c7.954-4.39 15.66-9.23 23.085-14.47l-140.0886-198.21c-.1301.09-.265.18-.4039.25zm-274.4266-15.94 142.8869-196.2c-.3357-.24-.6585-.5-.9671-.78l-162.4782 180.3c6.5558 5.91 13.4144 11.48 20.5478 16.68zm319.0906-15.68c6.865-6.13 13.381-12.63 19.517-19.49l-180.965-161.76-.0992.1zm-358.398-19.74 180.3557-162.43c-.2728-.31-.5314-.63-.7723-.96l-196.2694 142.77c5.203 7.16 10.772 14.04 16.686 20.62zm395.019-21.21c5.238-7.38 10.069-15.04 14.472-22.95l-212.0415-118.1c-.1098.2-.2196.36-.3224.52zm-426.195-21.65 210.111-121.52c-.1863-.32-.3555-.65-.5066-.99l-221.7034 98.78c3.619 8.12 7.658 16.03 12.103 23.73zm452.44-25.35c3.443-8.11 6.466-16.4 9.059-24.83l-232.0019-71.32c-.1273.42-.2763.83-.4464 1.24zm-474.079-23.23 230.8572-74.94c-.1087-.33-.1998-.67-.2728-1.02l-237.4714 50.18c1.84 8.71 4.139 17.32 6.887 25.78zm489.54-26.86c1.682-8.41 2.965-17.01 3.815-25.56l-241.5281-23.97c-.0638.64-.1594 1.27-.2799 1.87zm-500.551-25.15 241.4183-25.09c-.0461-.43-.0686-.87-.0673-1.3v-.32h-242.715v.32c0 8.8.454 17.61 1.36 26.37zm262.9371-26.24h242.7119v-.16c0-8.45-.411-17.01-1.226-25.399l-241.5851 23.379c.0637.67.0956 1.34.0956 2zm-21.5188-1.51c.0425-.35.0992-.74.1771-1.1l-237.3444-50.791c-1.855 8.68-3.254 17.452-4.191 26.28zm.4535-2.13c.1134-.35.2459-.69.3968-1.03l-221.4616-99.319c-3.636 8.105-6.842 16.396-9.605 24.839zm20.7004-.35 238.0738-47.172c-1.69-8.503-3.822-17.027-6.345-25.292l-232.1469 70.854c.1666.48.3012 1.02.4146 1.58zm-19.8005-1.65c.2033-.35.4257-.69.666-1.01l-195.9687-143.253c-5.223 7.143-10.072 14.552-14.525 22.199zm18.9431-1.22 223.6022-94.433c-3.472-8.217-7.375-16.245-11.691-24.051l-212.3434 117.564c.1583.29.3014.59.4287.89zm-17.5296-.71c.2874-.32.5913-.62.9105-.91l-162.1207-180.631c-6.564 5.892-12.819 12.12-18.738 18.66zm16.7927-.68 198.2321-140.076c-5.28-7.465-10.97-14.631-17.044-21.466l-181.39 161.262c.0638.07.1276.16.1984.25zm-.2905-.36 161.9936-180.738c-6.841-6.129-14.021-11.869-21.505-17.193l-140.648 197.803c.0544.036.1064.075.1559.118zm-.5137-.351 117.9313-212.152c-7.816-4.341-15.857-8.264-24.09-11.751l-94.6809 223.485c.3189.149.5987.283.8361.414zm-14.1392-.298c.3249-.236.6619-.454 1.0097-.655l-121.1626-210.309c-7.6689 4.418-15.1023 9.233-22.2699 14.426zm11.7585-.659 71.734-231.874c-7.964-2.48-16.19-4.605-24.445-6.317l-49.6697 237.579c.8431.18 1.6473.382 2.3771.609zm-9.7603-.496c.322-.145.652-.271.9884-.379l-.1807-.556c.4039.021.8042.05 1.194.082l.0389.195c.2409-.054.4889-.096.7333-.128.4252.039.8397.085 1.2471.135l29.0118-240.976c-7.6524-.925-15.5174-1.555-23.3823-1.874l-8.9384 218.748-22.1636-217.547c-8.8264.902-17.5996 2.264-26.2838 4.081l47.8274 228.353-.2445 6.023-73.3353-227.549c-8.4685 2.734-16.7877 5.91-24.9234 9.516z" fill="#ffe2a4" stroke="#7b0c00" stroke-miterlimit="10" stroke-width=".25"/><path d="m-47.1157 1319h79.0356v662.35h-79.0356z" fill="#ffd479"/><path d="m66.6915 1871.34.1772-238.48 27.9878 236.56c8.0815-.96 16.1625-2.26 24.0125-3.9l-49.1874-237.68c-1.0451.22-2.1717.4-3.355.54l.0283.23c-.2834 0-.5562-.03-.8254-.06l-25.2068 241.4c8.7599.92 17.5612 1.38 26.3688 1.39zm-52.5889-5.52 50.2755-237.45c-.3378-.07-.6713-.16-.9991-.27l-75.0642 230.82c8.4684 2.75 17.07631 5.06 25.7878 6.9zm129.2124-6.55c8.304-2.54 16.475-5.49 24.484-8.85l-94.1034-223.74c-.5168.22-1.0442.41-1.5801.57zm-179.874-9.92 98.946-221.63c-.3543-.16-.6731-.33-.9955-.51l-121.6481 210.05c7.6824 4.44 15.5925 8.48 23.6976 12.1zm228.484-10.65c7.954-4.39 15.66-9.23 23.085-14.47l-140.0886-198.21c-.1301.09-.265.18-.4039.25zm-274.4266-15.94 142.8869-196.2c-.3357-.24-.6585-.5-.9671-.78l-162.4782 180.3c6.5558 5.91 13.4144 11.48 20.5478 16.68zm319.0906-15.68c6.865-6.13 13.381-12.63 19.517-19.49l-180.965-161.76-.0992.1zm-358.398-19.74 180.3557-162.43c-.2728-.31-.5314-.63-.7723-.96l-196.2694 142.77c5.203 7.16 10.772 14.04 16.686 20.62zm395.019-21.21c5.238-7.38 10.069-15.04 14.472-22.95l-212.0415-118.1c-.1098.2-.2196.36-.3224.52zm-426.195-21.65 210.111-121.52c-.1863-.32-.3555-.65-.5066-.99l-221.7034 98.78c3.619 8.12 7.658 16.03 12.103 23.73zm452.44-25.35c3.443-8.11 6.466-16.4 9.059-24.83l-232.0019-71.32c-.1273.42-.2763.83-.4464 1.24zm-474.079-23.23 230.8572-74.94c-.1087-.33-.1998-.67-.2728-1.02l-237.4714 50.18c1.84 8.71 4.139 17.32 6.887 25.78zm489.54-26.86c1.682-8.41 2.965-17.01 3.815-25.56l-241.5281-23.97c-.0638.64-.1594 1.27-.2799 1.87zm-500.551-25.15 241.4183-25.09c-.0461-.43-.0686-.87-.0673-1.3v-.32h-242.715v.32c0 8.8.454 17.61 1.36 26.37zm262.9371-26.24h242.7119v-.16c0-8.45-.411-17.01-1.226-25.4l-241.5851 23.38c.0637.67.0956 1.34.0956 2zm-21.5188-1.51c.0425-.35.0992-.74.1771-1.1l-237.3444-50.79c-1.855 8.68-3.254 17.45-4.191 26.28zm.4535-2.13c.1134-.35.2459-.69.3968-1.03l-221.4616-99.32c-3.636 8.11-6.842 16.4-9.605 24.84zm20.7004-.35 238.0738-47.17c-1.69-8.51-3.822-17.03-6.345-25.29l-232.1469 70.85c.1666.48.3012 1.02.4146 1.58zm-19.8005-1.65c.2033-.35.4257-.69.666-1.01l-195.9687-143.25c-5.223 7.14-10.072 14.55-14.525 22.2zm18.9431-1.22 223.6022-94.43c-3.472-8.22-7.375-16.25-11.691-24.05l-212.3434 117.56c.1583.29.3014.59.4287.89zm-17.5296-.71c.2874-.32.5913-.62.9105-.91l-162.1207-180.63c-6.564 5.89-12.819 12.12-18.738 18.66zm16.7927-.68 198.2321-140.08c-5.28-7.46-10.97-14.63-17.044-21.46l-181.39 161.26c.0638.07.1276.16.1984.25zm-.2905-.36 161.9936-180.74c-6.841-6.13-14.021-11.87-21.505-17.19l-140.648 197.8c.0544.04.1064.08.1559.12zm-.5137-.35 117.9313-212.15c-7.816-4.34-15.857-8.27-24.09-11.75l-94.6809 223.48c.3189.15.5987.28.8361.42zm-14.1392-.3c.3249-.23.6619-.45 1.0097-.65l-121.1626-210.31c-7.6689 4.42-15.1023 9.23-22.2699 14.42zm11.7585-.66 71.734-231.87c-7.964-2.48-16.19-4.61-24.445-6.32l-49.6697 237.58c.8431.18 1.6473.38 2.3771.61zm-9.7603-.49c.322-.15.652-.28.9884-.38l-.1807-.56c.4039.02.8042.05 1.194.08l.0389.2c.2409-.06.4889-.1.7333-.13.4252.04.8397.09 1.2471.13l29.0118-240.97c-7.6524-.93-15.5174-1.56-23.3823-1.88l-8.9384 218.75-22.1636-217.54c-8.8264.9-17.5996 2.26-26.2838 4.08l47.8274 228.35-.2445 6.02-73.3353-227.55c-8.4685 2.74-16.7877 5.91-24.9234 9.52z" fill="#ffe2a4" stroke="#7b0c00" stroke-miterlimit="10" stroke-width=".25"/><path d="m-47.1157 1917.01h79.0356v662.35h-79.0356z" fill="#ffd479"/><path d="m66.6915 2469.35.1772-238.48 27.9878 236.56c8.0815-.96 16.1625-2.27 24.0125-3.9l-49.1874-237.68c-1.0451.22-2.1717.4-3.355.54l.0283.22c-.2834 0-.5562-.02-.8254-.05l-25.2068 241.4c8.7599.91 17.5612 1.38 26.3688 1.39zm-52.5889-5.52 50.2755-237.45c-.3378-.07-.6713-.16-.9991-.27l-75.0642 230.82c8.4684 2.75 17.07631 5.06 25.7878 6.9zm129.2124-6.55c8.304-2.54 16.475-5.5 24.484-8.86l-94.1034-223.73c-.5168.22-1.0442.41-1.5801.57zm-179.874-9.92 98.946-221.63c-.3543-.16-.6731-.33-.9955-.51l-121.6481 210.05c7.6824 4.44 15.5925 8.48 23.6976 12.09zm228.484-10.65c7.954-4.4 15.66-9.23 23.085-14.47l-140.0886-198.21c-.1301.09-.265.17-.4039.25zm-274.4266-15.94 142.8869-196.2c-.3357-.24-.6585-.51-.9671-.78l-162.4782 180.3c6.5558 5.91 13.4144 11.48 20.5478 16.68zm319.0906-15.69c6.865-6.12 13.381-12.62 19.517-19.48l-180.965-161.76-.0992.1zm-358.398-19.74 180.3557-162.42c-.2728-.31-.5314-.63-.7723-.96l-196.2694 142.77c5.203 7.16 10.772 14.04 16.686 20.61zm395.019-21.2c5.238-7.38 10.069-15.04 14.472-22.95l-212.0415-118.1c-.1098.19-.2196.35-.3224.52zm-426.195-21.66 210.111-121.51c-.1863-.32-.3555-.66-.5066-.99l-221.7034 98.78c3.619 8.11 7.658 16.03 12.103 23.72zm452.44-25.34c3.443-8.12 6.466-16.4 9.059-24.83l-232.0019-71.32c-.1273.42-.2763.83-.4464 1.23zm-474.079-23.23 230.8572-74.94c-.1087-.33-.1998-.67-.2728-1.02l-237.4714 50.18c1.84 8.71 4.139 17.31 6.887 25.78zm489.54-26.86c1.682-8.41 2.965-17.01 3.815-25.56l-241.5281-23.97c-.0638.63-.1594 1.26-.2799 1.87zm-500.551-25.16 241.4183-25.08c-.0461-.44-.0686-.87-.0673-1.31v-.31h-242.715v.31c0 8.81.454 17.61 1.36 26.38zm262.9371-26.24h242.7119v-.16c0-8.44-.411-17-1.226-25.39l-241.5851 23.38c.0637.66.0956 1.34.0956 2zm-21.5188-1.5c.0425-.36.0992-.74.1771-1.1l-237.3444-50.79c-1.855 8.68-3.254 17.45-4.191 26.28zm.4535-2.13c.1134-.35.2459-.69.3968-1.03l-221.4616-99.32c-3.636 8.1-6.842 16.39-9.605 24.84zm20.7004-.35 238.0738-47.17c-1.69-8.51-3.822-17.03-6.345-25.3l-232.1469 70.86c.1666.48.3012 1.02.4146 1.58zm-19.8005-1.65c.2033-.35.4257-.69.666-1.01l-195.9687-143.26c-5.223 7.15-10.072 14.56-14.525 22.2zm18.9431-1.23 223.6022-94.42c-3.472-8.22-7.375-16.25-11.691-24.06l-212.3434 117.57c.1583.29.3014.59.4287.89zm-17.5296-.7c.2874-.32.5913-.63.9105-.91l-162.1207-180.63c-6.564 5.89-12.819 12.12-18.738 18.66zm16.7927-.68 198.2321-140.08c-5.28-7.46-10.97-14.63-17.044-21.46l-181.39 161.26c.0638.07.1276.15.1984.25zm-.2905-.36 161.9936-180.74c-6.841-6.13-14.021-11.87-21.505-17.19l-140.648 197.8c.0544.04.1064.07.1559.12zm-.5137-.35 117.9313-212.15c-7.816-4.35-15.857-8.27-24.09-11.76l-94.6809 223.49c.3189.15.5987.28.8361.41zm-14.1392-.3c.3249-.24.6619-.46 1.0097-.66l-121.1626-210.31c-7.6689 4.42-15.1023 9.24-22.2699 14.43zm11.7585-.66 71.734-231.87c-7.964-2.48-16.19-4.61-24.445-6.32l-49.6697 237.58c.8431.18 1.6473.38 2.3771.61zm-9.7603-.5c.322-.14.652-.27.9884-.37l-.1807-.56c.4039.02.8042.05 1.194.08l.0389.2c.2409-.06.4889-.1.7333-.13.4252.04.8397.08 1.2471.13l29.0118-240.97c-7.6524-.93-15.5174-1.56-23.3823-1.88l-8.9384 218.75-22.1636-217.55c-8.8264.91-17.5996 2.27-26.2838 4.08l47.8274 228.36-.2445 6.02-73.3353-227.55c-8.4685 2.74-16.7877 5.91-24.9234 9.52z" fill="#ffe2a4" stroke="#7b0c00" stroke-miterlimit="10" stroke-width=".25"/><path d="m-47.1157 2515.02h79.0356v662.35h-79.0356z" fill="#ffd479"/><g stroke="#7b0c00" stroke-miterlimit="10" stroke-width=".25"><path d="m66.6915 3067.35.1772-238.47 27.9878 236.55c8.0815-.95 16.1625-2.26 24.0125-3.89l-49.1874-237.68c-1.0451.21-2.1717.39-3.355.53l.0283.23c-.2834 0-.5562-.03-.8254-.06l-25.2068 241.41c8.7599.91 17.5612 1.37 26.3688 1.38zm-52.5889-5.51 50.2755-237.46c-.3378-.07-.6713-.15-.9991-.26l-75.0642 230.81c8.4684 2.76 17.07631 5.06 25.7878 6.91zm129.2124-6.55c8.304-2.54 16.475-5.5 24.484-8.86l-94.1034-223.73c-.5168.21-1.0442.4-1.5801.56zm-179.874-9.92 98.946-221.64c-.3543-.15-.6731-.32-.9955-.5l-121.6481 210.04c7.6824 4.45 15.5925 8.49 23.6976 12.1zm228.484-10.65c7.954-4.4 15.66-9.23 23.085-14.47l-140.0886-198.21c-.1301.09-.265.17-.4039.25zm-274.4266-15.94 142.8869-196.2c-.3357-.25-.6585-.51-.9671-.79l-162.4782 180.31c6.5558 5.91 13.4144 11.48 20.5478 16.68zm319.0906-15.69c6.865-6.12 13.381-12.63 19.517-19.48l-180.965-161.77-.0992.1zm-358.398-19.74 180.3557-162.43c-.2728-.3-.5314-.62-.7723-.95l-196.2694 142.77c5.203 7.15 10.772 14.03 16.686 20.61zm395.019-21.21c5.238-7.38 10.069-15.04 14.472-22.94l-212.0415-118.1c-.1098.19-.2196.35-.3224.51zm-426.195-21.65 210.111-121.52c-.1863-.32-.3555-.65-.5066-.99l-221.7034 98.79c3.619 8.11 7.658 16.03 12.103 23.72zm452.44-25.34c3.443-8.12 6.466-16.41 9.059-24.83l-232.0019-71.32c-.1273.42-.2763.83-.4464 1.23zm-474.079-23.23 230.8572-74.94c-.1087-.34-.1998-.68-.2728-1.02l-237.4714 50.18c1.84 8.71 4.139 17.31 6.887 25.78zm489.54-26.86c1.682-8.41 2.965-17.01 3.815-25.57l-241.5281-23.97c-.0638.64-.1594 1.27-.2799 1.88zm-500.551-25.16 241.4183-25.08c-.0461-.44-.0686-.87-.0673-1.31v-.32h-242.715v.32c0 8.81.454 17.61 1.36 26.37zm262.9371-26.24h242.7119v-.16c0-8.45-.411-17-1.226-25.39l-241.5851 23.38c.0637.66.0956 1.33.0956 2zm-21.5188-1.51c.0425-.35.0992-.74.1771-1.1l-237.3444-50.79c-1.855 8.68-3.254 17.46-4.191 26.28zm.4535-2.12c.1134-.35.2459-.7.3968-1.03l-221.4616-99.32c-3.636 8.1-6.842 16.39-9.605 24.83zm20.7004-.36 238.0738-47.17c-1.69-8.5-3.822-17.02-6.345-25.29l-232.1469 70.86c.1666.48.3012 1.02.4146 1.58zm-19.8005-1.65c.2033-.34.4257-.68.666-1.01l-195.9687-143.25c-5.223 7.14-10.072 14.55-14.525 22.2zm18.9431-1.22 223.6022-94.43c-3.472-8.21-7.375-16.24-11.691-24.05l-212.3434 117.57c.1583.29.3014.58.4287.89zm-17.5296-.71c.2874-.32.5913-.62.9105-.9l-162.1207-180.64c-6.564 5.9-12.819 12.12-18.738 18.66zm16.7927-.68 198.2321-140.07c-5.28-7.47-10.97-14.63-17.044-21.47l-181.39 161.27c.0638.07.1276.15.1984.25zm-.2905-.35 161.9936-180.74c-6.841-6.13-14.021-11.87-21.505-17.2l-140.648 197.81c.0544.03.1064.07.1559.11zm-.5137-.36 117.9313-212.15c-7.816-4.34-15.857-8.26-24.09-11.75l-94.6809 223.49c.3189.14.5987.28.8361.41zm-14.1392-.29c.3249-.24.6619-.46 1.0097-.66l-121.1626-210.31c-7.6689 4.42-15.1023 9.24-22.2699 14.43zm11.7585-.66 71.734-231.88c-7.964-2.48-16.19-4.6-24.445-6.31l-49.6697 237.57c.8431.19 1.6473.39 2.3771.61zm-9.7603-.5c.322-.14.652-.27.9884-.38l-.1807-.55c.4039.02.8042.05 1.194.08l.0389.19c.2409-.05.4889-.09.7333-.12.4252.03.8397.08 1.2471.13l29.0118-240.98c-7.6524-.92-15.5174-1.55-23.3823-1.87l-8.9384 218.75-22.1636-217.55c-8.8264.9-17.5996 2.27-26.2838 4.08l47.8274 228.36-.2445 6.02-73.3353-227.55c-8.4685 2.73-16.7877 5.91-24.9234 9.52z" fill="#ffe2a4"/><path d="m399.929 182.874c4.675-11.285-.684-24.223-11.969-28.897-11.286-4.675-24.224.684-28.898 11.969-4.675 11.286.684 24.224 11.97 28.898 11.285 4.675 24.223-.684 28.897-11.97z" fill="#ffd270"/><path d="m395.803 181.165c3.73-9.006-.546-19.33-9.552-23.061-9.006-3.73-19.331.546-23.061 9.552s.546 19.331 9.552 23.061c9.006 3.731 19.331-.546 23.061-9.552z" fill="#ffe1a3"/><path d="m391.671 179.458c2.785-6.725-.408-14.434-7.133-17.22-6.724-2.785-14.434.408-17.219 7.133-2.786 6.725.408 14.434 7.132 17.219 6.725 2.786 14.434-.408 17.22-7.132z" fill="#ffd270"/><path d="m379.497 183.124c4.811 0 8.712-3.9 8.712-8.711s-3.901-8.712-8.712-8.712-8.712 3.901-8.712 8.712 3.901 8.711 8.712 8.711z" fill="#ffe1a3"/><path d="m385.288 165.288c14.228-14.228 14.228-37.297 0-51.525-14.228-14.2285-37.297-14.2285-51.525 0-14.229 14.228-14.229 37.297 0 51.525 14.228 14.228 37.297 14.228 51.525 0z" fill="#ffd270"/><path d="m386.384 150.651c6.145-14.834-.899-31.84-15.733-37.984-14.834-6.145-31.84.899-37.985 15.733-6.144 14.834.9 31.84 15.734 37.985 14.834 6.144 31.84-.9 37.984-15.734z" fill="#ffe1a3"/><path d="m379.583 147.834c4.589-11.077-.672-23.777-11.749-28.366-11.078-4.588-23.777.672-28.366 11.75-4.588 11.077.672 23.777 11.75 28.365 11.077 4.589 23.777-.671 28.365-11.749z" fill="#ffd270"/><path d="m359.526 153.871c7.924 0 14.348-6.424 14.348-14.348s-6.424-14.348-14.348-14.348-14.348 6.424-14.348 14.348 6.424 14.348 14.348 14.348z" fill="#ffe1a3"/><path d="m-20.8787 179.874c-4.6746-11.285.6846-24.223 11.96991-28.897 11.28534-4.675 24.22339.684 28.89789 11.969 4.6746 11.286-.6845 24.224-11.96989 28.898-11.28534 4.675-24.22341-.684-28.89791-11.97z" fill="#ffd270"/><path d="m-16.7523 178.165c-3.7303-9.006.5463-19.33 9.5522-23.061 9.00586-3.73 19.3306.546 23.0609 9.552 3.7304 9.006-.5463 19.331-9.55211 23.061-9.00586 3.731-19.33059-.546-23.06099-9.552z" fill="#ffe1a3"/><path d="m-12.6199 176.458c-2.7854-6.725.408-14.434 7.13253-17.22 6.72457-2.785 14.43392.408 17.21937 7.133 2.7854 6.725-.408 14.434-7.13252 17.219-6.72456 2.786-14.43393-.408-17.21938-7.132z" fill="#ffd270"/><path d="m-.446075 180.124c-4.811325 0-8.711655-3.9-8.711655-8.711s3.90033-8.712 8.711655-8.712 8.711695 3.901 8.711695 8.712-3.90037 8.711-8.711695 8.711z" fill="#ffe1a3"/><path d="m-6.23708 162.288c-14.22832-14.228-14.22832-37.297 0-51.525 14.2283-14.2285 37.29688-14.2285 51.52518 0 14.2283 14.228 14.2284 37.297.0001 51.525s-37.29698 14.228-51.52528 0z" fill="#ffd270"/><path d="m-7.33359 147.651c-6.14441-14.834.89983-31.84 15.73365-37.984 14.83384-6.145 31.83994.899 37.98434 15.733s-.8998 31.84-15.7336 37.985c-14.8338 6.144-31.84002-.9-37.98439-15.734z" fill="#ffe1a3"/><path d="m-.532483 144.834c-4.588437-11.077.67197-23.777 11.749383-28.366 11.0775-4.588 23.7772.672 28.3656 11.75 4.5885 11.077-.6719 23.777-11.7494 28.365-11.0774 4.589-23.77715-.671-28.365583-11.749z" fill="#ffd270"/><path d="m19.5248 150.871c-7.9243 0-14.34818-6.424-14.34818-14.348s6.42388-14.348 14.34818-14.348 14.3482 6.424 14.3482 14.348-6.4239 14.348-14.3482 14.348z" fill="#ffe1a3"/><path d="m21.1213 457.874c-4.6746-11.285.6846-24.223 11.9699-28.897 11.2853-4.675 24.2234.684 28.8979 11.969 4.6746 11.286-.6845 24.224-11.9699 28.898-11.2853 4.675-24.2234-.684-28.8979-11.97z" fill="#ffd270"/><path d="m25.2477 456.165c-3.7303-9.006.5463-19.33 9.5522-23.061 9.0059-3.73 19.3306.546 23.0609 9.552 3.7304 9.006-.5463 19.331-9.5521 23.061-9.0059 3.731-19.3306-.546-23.061-9.552z" fill="#ffe1a3"/><path d="m29.3801 454.458c-2.7854-6.725.408-14.434 7.1325-17.22 6.7246-2.785 14.434.408 17.2194 7.133s-.408 14.434-7.1325 17.219c-6.7246 2.786-14.434-.408-17.2194-7.132z" fill="#ffd270"/><path d="m41.5539 458.124c-4.8113 0-8.7116-3.9-8.7116-8.711s3.9003-8.712 8.7116-8.712 8.7117 3.901 8.7117 8.712-3.9004 8.711-8.7117 8.711z" fill="#ffe1a3"/><path d="m35.7629 440.288c-14.2283-14.228-14.2283-37.297 0-51.525 14.2283-14.229 37.2969-14.229 51.5252 0 14.2279 14.228 14.2279 37.297.0001 51.525-14.2283 14.228-37.297 14.228-51.5253 0z" fill="#ffd270"/><path d="m34.6664 425.651c-6.1444-14.834.8998-31.84 15.7337-37.984 14.8338-6.145 31.8399.899 37.9843 15.733s-.8998 31.84-15.7336 37.985c-14.8338 6.144-31.84-.9-37.9844-15.734z" fill="#ffe1a3"/><path d="m41.4675 422.834c-4.5884-11.077.672-23.777 11.7494-28.366 11.0775-4.588 23.7772.672 28.3656 11.75 4.5885 11.077-.6719 23.777-11.7494 28.365-11.0774 4.589-23.7772-.671-28.3656-11.749z" fill="#ffd270"/><path d="m61.5248 428.871c-7.9243 0-14.3482-6.424-14.3482-14.348s6.4239-14.348 14.3482-14.348 14.3482 6.424 14.3482 14.348-6.4239 14.348-14.3482 14.348z" fill="#ffe1a3"/><path d="m354.929 457.874c4.675-11.285-.684-24.223-11.969-28.897-11.286-4.675-24.224.684-28.898 11.969-4.675 11.286.684 24.224 11.97 28.898 11.285 4.675 24.223-.684 28.897-11.97z" fill="#ffd270"/><path d="m350.803 456.165c3.73-9.006-.546-19.33-9.552-23.061-9.006-3.73-19.331.546-23.061 9.552s.546 19.331 9.552 23.061c9.006 3.731 19.331-.546 23.061-9.552z" fill="#ffe1a3"/><path d="m346.671 454.458c2.785-6.725-.408-14.434-7.133-17.22-6.724-2.785-14.434.408-17.219 7.133-2.786 6.725.408 14.434 7.132 17.219 6.725 2.786 14.434-.408 17.22-7.132z" fill="#ffd270"/><path d="m334.497 458.124c4.811 0 8.712-3.9 8.712-8.711s-3.901-8.712-8.712-8.712-8.712 3.901-8.712 8.712 3.901 8.711 8.712 8.711z" fill="#ffe1a3"/><path d="m340.288 440.288c14.228-14.228 14.228-37.297 0-51.525-14.228-14.229-37.297-14.229-51.525 0-14.229 14.228-14.229 37.297 0 51.525 14.228 14.228 37.297 14.228 51.525 0z" fill="#ffd270"/><path d="m341.384 425.651c6.145-14.834-.899-31.84-15.733-37.984-14.834-6.145-31.84.899-37.985 15.733-6.144 14.834.9 31.84 15.734 37.985 14.834 6.144 31.84-.9 37.984-15.734z" fill="#ffe1a3"/><path d="m334.583 422.834c4.589-11.077-.672-23.777-11.749-28.366-11.078-4.588-23.777.672-28.366 11.75-4.588 11.077.672 23.777 11.75 28.365 11.077 4.589 23.777-.671 28.365-11.749z" fill="#ffd270"/><path d="m314.526 428.871c7.924 0 14.348-6.424 14.348-14.348s-6.424-14.348-14.348-14.348-14.348 6.424-14.348 14.348 6.424 14.348 14.348 14.348z" fill="#ffe1a3"/><path d="m21.1213 1057.87c-4.6746-11.28.6846-24.22 11.9699-28.89 11.2853-4.68 24.2234.68 28.8979 11.97 4.6746 11.28-.6845 24.22-11.9699 28.89-11.2853 4.68-24.2234-.68-28.8979-11.97z" fill="#ffd270"/><path d="m25.2477 1056.16c-3.7303-9 .5463-19.33 9.5522-23.06s19.3306.55 23.0609 9.56c3.7304 9-.5463 19.33-9.5521 23.06-9.0059 3.73-19.3306-.55-23.061-9.56z" fill="#ffe1a3"/><path d="m29.3801 1054.46c-2.7854-6.73.408-14.44 7.1325-17.22 6.7246-2.79 14.434.41 17.2194 7.13 2.7854 6.73-.408 14.43-7.1325 17.22-6.7246 2.79-14.434-.41-17.2194-7.13z" fill="#ffd270"/><path d="m41.5539 1058.12c-4.8113 0-8.7116-3.9-8.7116-8.71s3.9003-8.71 8.7116-8.71 8.7117 3.9 8.7117 8.71-3.9004 8.71-8.7117 8.71z" fill="#ffe1a3"/><path d="m35.7629 1040.29c-14.2283-14.23-14.2283-37.3 0-51.527 14.2283-14.229 37.2969-14.229 51.5252 0 14.2279 14.227 14.2279 37.297.0001 51.527-14.2283 14.23-37.297 14.23-51.5253 0z" fill="#ffd270"/><path d="m34.6664 1025.65c-6.1444-14.83.8998-31.839 15.7337-37.983 14.8338-6.145 31.8399.899 37.9843 15.733 6.1444 14.83-.8998 31.84-15.7336 37.98-14.8338 6.15-31.84-.9-37.9844-15.73z" fill="#ffe1a3"/><path d="m41.4675 1022.83c-4.5884-11.07.672-23.773 11.7494-28.362 11.0775-4.588 23.7772.672 28.3656 11.752 4.5885 11.08-.6719 23.78-11.7494 28.36-11.0774 4.59-23.7772-.67-28.3656-11.75z" fill="#ffd270"/><path d="m61.5248 1028.87c-7.9243 0-14.3482-6.42-14.3482-14.35 0-7.92 6.4239-14.35 14.3482-14.35s14.3482 6.43 14.3482 14.35c0 7.93-6.4239 14.35-14.3482 14.35z" fill="#ffe1a3"/><path d="m354.978 1057.87c4.675-11.28-.684-24.22-11.97-28.89-11.285-4.68-24.223.68-28.898 11.97-4.674 11.28.685 24.22 11.97 28.89 11.286 4.68 24.224-.68 28.898-11.97z" fill="#ffd270"/><path d="m350.852 1056.16c3.73-9-.546-19.33-9.552-23.06s-19.331.55-23.061 9.56c-3.731 9 .546 19.33 9.552 23.06s19.331-.55 23.061-9.56z" fill="#ffe1a3"/><path d="m346.719 1054.46c2.786-6.73-.407-14.44-7.132-17.22-6.725-2.79-14.434.41-17.219 7.13-2.786 6.73.408 14.43 7.132 17.22 6.725 2.79 14.434-.41 17.219-7.13z" fill="#ffd270"/><path d="m334.546 1058.12c4.811 0 8.711-3.9 8.711-8.71s-3.9-8.71-8.711-8.71c-4.812 0-8.712 3.9-8.712 8.71s3.9 8.71 8.712 8.71z" fill="#ffe1a3"/><path d="m340.337 1040.29c14.228-14.23 14.228-37.3 0-51.527-14.229-14.229-37.297-14.229-51.526 0-14.228 14.227-14.228 37.297 0 51.527 14.229 14.23 37.297 14.23 51.526 0z" fill="#ffd270"/><path d="m341.433 1025.65c6.145-14.83-.9-31.839-15.733-37.983-14.834-6.145-31.84.899-37.985 15.733-6.144 14.83.9 31.84 15.734 37.98 14.834 6.15 31.84-.9 37.984-15.73z" fill="#ffe1a3"/><path d="m334.632 1022.83c4.589-11.07-.672-23.773-11.749-28.362-11.078-4.588-23.777.672-28.366 11.752-4.588 11.08.672 23.78 11.749 28.36 11.078 4.59 23.778-.67 28.366-11.75z" fill="#ffd270"/><path d="m314.575 1028.87c7.924 0 14.348-6.42 14.348-14.35 0-7.92-6.424-14.35-14.348-14.35-7.925 0-14.348 6.43-14.348 14.35 0 7.93 6.423 14.35 14.348 14.35z" fill="#ffe1a3"/><path d="m21.1213 1663.87c-4.6746-11.28.6846-24.22 11.9699-28.89 11.2853-4.68 24.2234.68 28.8979 11.97 4.6746 11.28-.6845 24.22-11.9699 28.89-11.2853 4.68-24.2234-.68-28.8979-11.97z" fill="#ffd270"/><path d="m25.2477 1662.16c-3.7303-9 .5463-19.33 9.5522-23.06s19.3306.55 23.0609 9.56c3.7304 9-.5463 19.33-9.5521 23.06-9.0059 3.73-19.3306-.55-23.061-9.56z" fill="#ffe1a3"/><path d="m29.3801 1660.46c-2.7854-6.73.408-14.44 7.1325-17.22 6.7246-2.79 14.434.41 17.2194 7.13 2.7854 6.73-.408 14.43-7.1325 17.22-6.7246 2.79-14.434-.41-17.2194-7.13z" fill="#ffd270"/><path d="m41.5539 1664.12c-4.8113 0-8.7116-3.9-8.7116-8.71s3.9003-8.71 8.7116-8.71 8.7117 3.9 8.7117 8.71-3.9004 8.71-8.7117 8.71z" fill="#ffe1a3"/><path d="m35.7629 1646.29c-14.2283-14.23-14.2283-37.3 0-51.53s37.2969-14.23 51.5252 0c14.2279 14.23 14.2279 37.3.0001 51.53-14.2283 14.23-37.297 14.23-51.5253 0z" fill="#ffd270"/><path d="m34.6664 1631.65c-6.1444-14.83.8998-31.84 15.7337-37.98 14.8338-6.15 31.8399.9 37.9843 15.73s-.8998 31.84-15.7336 37.98c-14.8338 6.15-31.84-.9-37.9844-15.73z" fill="#ffe1a3"/><path d="m41.4675 1628.83c-4.5884-11.07.672-23.77 11.7494-28.36 11.0775-4.59 23.7772.67 28.3656 11.75 4.5885 11.08-.6719 23.78-11.7494 28.36-11.0774 4.59-23.7772-.67-28.3656-11.75z" fill="#ffd270"/><path d="m61.5248 1634.87c-7.9243 0-14.3482-6.42-14.3482-14.35 0-7.92 6.4239-14.35 14.3482-14.35s14.3482 6.43 14.3482 14.35c0 7.93-6.4239 14.35-14.3482 14.35z" fill="#ffe1a3"/><path d="m354.978 1663.87c4.675-11.28-.684-24.22-11.97-28.89-11.285-4.68-24.223.68-28.898 11.97-4.674 11.28.685 24.22 11.97 28.89 11.286 4.68 24.224-.68 28.898-11.97z" fill="#ffd270"/><path d="m350.852 1662.16c3.73-9-.546-19.33-9.552-23.06s-19.331.55-23.061 9.56c-3.731 9 .546 19.33 9.552 23.06s19.331-.55 23.061-9.56z" fill="#ffe1a3"/><path d="m346.719 1660.46c2.786-6.73-.407-14.44-7.132-17.22-6.725-2.79-14.434.41-17.219 7.13-2.786 6.73.408 14.43 7.132 17.22 6.725 2.79 14.434-.41 17.219-7.13z" fill="#ffd270"/><path d="m334.546 1664.12c4.811 0 8.711-3.9 8.711-8.71s-3.9-8.71-8.711-8.71c-4.812 0-8.712 3.9-8.712 8.71s3.9 8.71 8.712 8.71z" fill="#ffe1a3"/><path d="m340.337 1646.29c14.228-14.23 14.228-37.3 0-51.53-14.229-14.23-37.297-14.23-51.526 0-14.228 14.23-14.228 37.3 0 51.53 14.229 14.23 37.297 14.23 51.526 0z" fill="#ffd270"/><path d="m341.433 1631.65c6.145-14.83-.9-31.84-15.733-37.98-14.834-6.15-31.84.9-37.985 15.73-6.144 14.83.9 31.84 15.734 37.98 14.834 6.15 31.84-.9 37.984-15.73z" fill="#ffe1a3"/><path d="m334.632 1628.83c4.589-11.07-.672-23.77-11.749-28.36-11.078-4.59-23.777.67-28.366 11.75-4.588 11.08.672 23.78 11.749 28.36 11.078 4.59 23.778-.67 28.366-11.75z" fill="#ffd270"/><path d="m314.575 1634.87c7.924 0 14.348-6.42 14.348-14.35 0-7.92-6.424-14.35-14.348-14.35-7.925 0-14.348 6.43-14.348 14.35 0 7.93 6.423 14.35 14.348 14.35z" fill="#ffe1a3"/><path d="m21.1213 2269.87c-4.6746-11.28.6846-24.22 11.9699-28.89 11.2853-4.68 24.2234.68 28.8979 11.97 4.6746 11.28-.6845 24.22-11.9699 28.89-11.2853 4.68-24.2234-.68-28.8979-11.97z" fill="#ffd270"/><path d="m25.2477 2268.16c-3.7303-9 .5463-19.33 9.5522-23.06s19.3306.55 23.0609 9.56c3.7304 9-.5463 19.33-9.5521 23.06-9.0059 3.73-19.3306-.55-23.061-9.56z" fill="#ffe1a3"/><path d="m29.3801 2266.46c-2.7854-6.73.408-14.44 7.1325-17.22 6.7246-2.79 14.434.41 17.2194 7.13 2.7854 6.73-.408 14.43-7.1325 17.22-6.7246 2.79-14.434-.41-17.2194-7.13z" fill="#ffd270"/><path d="m41.5539 2270.12c-4.8113 0-8.7116-3.9-8.7116-8.71s3.9003-8.71 8.7116-8.71 8.7117 3.9 8.7117 8.71-3.9004 8.71-8.7117 8.71z" fill="#ffe1a3"/><path d="m35.7629 2252.29c-14.2283-14.23-14.2283-37.3 0-51.53s37.2969-14.23 51.5252 0c14.2279 14.23 14.2279 37.3.0001 51.53-14.2283 14.23-37.297 14.23-51.5253 0z" fill="#ffd270"/><path d="m34.6664 2237.65c-6.1444-14.83.8998-31.84 15.7337-37.98 14.8338-6.15 31.8399.9 37.9843 15.73s-.8998 31.84-15.7336 37.98c-14.8338 6.15-31.84-.9-37.9844-15.73z" fill="#ffe1a3"/><path d="m41.4675 2234.83c-4.5884-11.07.672-23.77 11.7494-28.36 11.0775-4.59 23.7772.67 28.3656 11.75 4.5885 11.08-.6719 23.78-11.7494 28.36-11.0774 4.59-23.7772-.67-28.3656-11.75z" fill="#ffd270"/><path d="m61.5248 2240.87c-7.9243 0-14.3482-6.42-14.3482-14.35 0-7.92 6.4239-14.35 14.3482-14.35s14.3482 6.43 14.3482 14.35c0 7.93-6.4239 14.35-14.3482 14.35z" fill="#ffe1a3"/><path d="m21.1213 2857.87c-4.6746-11.28.6846-24.22 11.9699-28.89 11.2853-4.68 24.2234.68 28.8979 11.97 4.6746 11.28-.6845 24.22-11.9699 28.89-11.2853 4.68-24.2234-.68-28.8979-11.97z" fill="#ffd270"/><path d="m25.2477 2856.17c-3.7303-9.01.5463-19.34 9.5522-23.07s19.3306.55 23.0609 9.56c3.7304 9-.5463 19.33-9.5521 23.06-9.0059 3.73-19.3306-.55-23.061-9.55z" fill="#ffe1a3"/><path d="m29.3801 2854.46c-2.7854-6.73.408-14.44 7.1325-17.22 6.7246-2.79 14.434.41 17.2194 7.13 2.7854 6.73-.408 14.43-7.1325 17.22-6.7246 2.79-14.434-.41-17.2194-7.13z" fill="#ffd270"/><path d="m41.5539 2858.12c-4.8113 0-8.7116-3.9-8.7116-8.71s3.9003-8.71 8.7116-8.71 8.7117 3.9 8.7117 8.71-3.9004 8.71-8.7117 8.71z" fill="#ffe1a3"/><path d="m35.7629 2840.29c-14.2283-14.23-14.2283-37.3 0-51.53s37.2969-14.23 51.5252 0c14.2279 14.23 14.2279 37.3.0001 51.53-14.2283 14.23-37.297 14.23-51.5253 0z" fill="#ffd270"/><path d="m34.6664 2825.65c-6.1444-14.83.8998-31.84 15.7337-37.98 14.8338-6.15 31.8399.9 37.9843 15.73s-.8998 31.84-15.7336 37.98c-14.8338 6.15-31.84-.9-37.9844-15.73z" fill="#ffe1a3"/><path d="m41.4675 2822.83c-4.5884-11.07.672-23.77 11.7494-28.36 11.0775-4.59 23.7772.67 28.3656 11.75 4.5885 11.08-.6719 23.78-11.7494 28.36-11.0774 4.59-23.7772-.67-28.3656-11.75z" fill="#ffd270"/><path d="m61.5248 2828.87c-7.9243 0-14.3482-6.42-14.3482-14.35 0-7.92 6.4239-14.35 14.3482-14.35s14.3482 6.43 14.3482 14.35c0 7.93-6.4239 14.35-14.3482 14.35z" fill="#ffe1a3"/><path d="m354.978 2269.87c4.675-11.28-.684-24.22-11.97-28.89-11.285-4.68-24.223.68-28.898 11.97-4.674 11.28.685 24.22 11.97 28.89 11.286 4.68 24.224-.68 28.898-11.97z" fill="#ffd270"/><path d="m350.852 2268.16c3.73-9-.546-19.33-9.552-23.06s-19.331.55-23.061 9.56c-3.731 9 .546 19.33 9.552 23.06s19.331-.55 23.061-9.56z" fill="#ffe1a3"/><path d="m346.719 2266.46c2.786-6.73-.407-14.44-7.132-17.22-6.725-2.79-14.434.41-17.219 7.13-2.786 6.73.408 14.43 7.132 17.22 6.725 2.79 14.434-.41 17.219-7.13z" fill="#ffd270"/><path d="m334.546 2270.12c4.811 0 8.711-3.9 8.711-8.71s-3.9-8.71-8.711-8.71c-4.812 0-8.712 3.9-8.712 8.71s3.9 8.71 8.712 8.71z" fill="#ffe1a3"/><path d="m340.337 2252.29c14.228-14.23 14.228-37.3 0-51.53-14.229-14.23-37.297-14.23-51.526 0-14.228 14.23-14.228 37.3 0 51.53 14.229 14.23 37.297 14.23 51.526 0z" fill="#ffd270"/><path d="m341.433 2237.65c6.145-14.83-.9-31.84-15.733-37.98-14.834-6.15-31.84.9-37.985 15.73-6.144 14.83.9 31.84 15.734 37.98 14.834 6.15 31.84-.9 37.984-15.73z" fill="#ffe1a3"/><path d="m334.632 2234.83c4.589-11.07-.672-23.77-11.749-28.36-11.078-4.59-23.777.67-28.366 11.75-4.588 11.08.672 23.78 11.749 28.36 11.078 4.59 23.778-.67 28.366-11.75z" fill="#ffd270"/><path d="m314.575 2240.87c7.924 0 14.348-6.42 14.348-14.35 0-7.92-6.424-14.35-14.348-14.35-7.925 0-14.348 6.43-14.348 14.35 0 7.93 6.423 14.35 14.348 14.35z" fill="#ffe1a3"/><path d="m354.978 2857.87c4.675-11.28-.684-24.22-11.97-28.89-11.285-4.68-24.223.68-28.898 11.97-4.674 11.28.685 24.22 11.97 28.89 11.286 4.68 24.224-.68 28.898-11.97z" fill="#ffd270"/><path d="m350.852 2856.17c3.73-9.01-.546-19.34-9.552-23.07s-19.331.55-23.061 9.56c-3.731 9 .546 19.33 9.552 23.06s19.331-.55 23.061-9.55z" fill="#ffe1a3"/><path d="m346.719 2854.46c2.786-6.73-.407-14.44-7.132-17.22-6.725-2.79-14.434.41-17.219 7.13-2.786 6.73.408 14.43 7.132 17.22 6.725 2.79 14.434-.41 17.219-7.13z" fill="#ffd270"/><path d="m334.546 2858.12c4.811 0 8.711-3.9 8.711-8.71s-3.9-8.71-8.711-8.71c-4.812 0-8.712 3.9-8.712 8.71s3.9 8.71 8.712 8.71z" fill="#ffe1a3"/><path d="m340.337 2840.29c14.228-14.23 14.228-37.3 0-51.53-14.229-14.23-37.297-14.23-51.526 0-14.228 14.23-14.228 37.3 0 51.53 14.229 14.23 37.297 14.23 51.526 0z" fill="#ffd270"/><path d="m341.433 2825.65c6.145-14.83-.9-31.84-15.733-37.98-14.834-6.15-31.84.9-37.985 15.73-6.144 14.83.9 31.84 15.734 37.98 14.834 6.15 31.84-.9 37.984-15.73z" fill="#ffe1a3"/><path d="m334.632 2822.83c4.589-11.07-.672-23.77-11.749-28.36-11.078-4.59-23.777.67-28.366 11.75-4.588 11.08.672 23.78 11.749 28.36 11.078 4.59 23.778-.67 28.366-11.75z" fill="#ffd270"/><path d="m314.575 2828.87c7.924 0 14.348-6.42 14.348-14.35 0-7.92-6.424-14.35-14.348-14.35-7.925 0-14.348 6.43-14.348 14.35 0 7.93 6.423 14.35 14.348 14.35z" fill="#ffe1a3"/><path d="m374.003 626.748c3.506-9.417-1.286-19.894-10.704-23.4-9.417-3.506-19.894 1.286-23.4 10.704-3.506 9.417 1.286 19.894 10.704 23.4 9.417 3.506 19.894-1.286 23.4-10.704z" fill="#ffd270"/><path d="m370.559 625.466c2.797-7.515-1.027-15.875-8.542-18.673s-15.876 1.026-18.674 8.541c-2.798 7.516 1.027 15.876 8.542 18.674s15.876-1.026 18.674-8.542z" fill="#ffe1a3"/><path d="m367.112 624.183c2.089-5.612-.766-11.855-6.378-13.944s-11.854.767-13.943 6.378c-2.09 5.612.766 11.854 6.377 13.944 5.612 2.089 11.855-.767 13.944-6.378z" fill="#ffd270"/><path d="m356.946 627.583c3.958 0 7.167-3.209 7.167-7.167s-3.209-7.166-7.167-7.166-7.167 3.208-7.167 7.166 3.209 7.167 7.167 7.167z" fill="#ffe1a3"/><path d="m387.97 673.186c11.706-11.705 11.706-30.683 0-42.388-11.705-11.705-30.682-11.705-42.387 0s-11.705 30.683 0 42.388 30.682 11.705 42.387 0z" fill="#ffd270"/><path d="m389.197 660.317c4.608-12.378-1.691-26.149-14.069-30.758-12.379-4.608-26.15 1.691-30.758 14.069-4.609 12.379 1.69 26.15 14.069 30.758 12.379 4.609 26.149-1.69 30.758-14.069z" fill="#ffe1a3"/><path d="m383.519 658.204c3.442-9.244-1.262-19.527-10.506-22.969-9.244-3.441-19.528 1.263-22.969 10.507-3.442 9.244 1.262 19.527 10.506 22.969 9.244 3.441 19.528-1.263 22.969-10.507z" fill="#ffd270"/><path d="m366.778 663.796c6.519 0 11.804-5.285 11.804-11.804s-5.285-11.804-11.804-11.804-11.803 5.285-11.803 11.804 5.284 11.804 11.803 11.804z" fill="#ffe1a3"/><path d="m303.982 827.702c50.8 0 91.981-41.182 91.981-91.982s-41.181-91.982-91.981-91.982-91.982 41.182-91.982 91.982 41.182 91.982 91.982 91.982z" fill="#ffd270"/><path d="m303.981 820.713c46.94 0 84.993-38.053 84.993-84.993s-38.053-84.993-84.993-84.993-84.993 38.053-84.993 84.993 38.053 84.993 84.993 84.993z" fill="#ffe1a3"/><path d="m303.981 813.721c43.079 0 78.001-34.922 78.001-78.001s-34.922-78.001-78.001-78.001c-43.078 0-78.001 34.922-78.001 78.001s34.923 78.001 78.001 78.001z" fill="#ffd270"/><path d="m303.982 806.729c39.217 0 71.009-31.792 71.009-71.009s-31.792-71.009-71.009-71.009c-39.218 0-71.009 31.792-71.009 71.009s31.791 71.009 71.009 71.009z" fill="#ffe1a3"/><path d="m303.982 799.737c35.356 0 64.017-28.662 64.017-64.017 0-35.356-28.661-64.017-64.017-64.017s-64.017 28.661-64.017 64.017c0 35.355 28.661 64.017 64.017 64.017z" fill="#ffd270"/><path d="m303.982 792.745c31.494 0 57.025-25.531 57.025-57.025s-25.531-57.025-57.025-57.025-57.025 25.531-57.025 57.025 25.531 57.025 57.025 57.025z" fill="#ffe1a3"/><path d="m369.003 1221.74c3.506-9.42-1.286-19.89-10.704-23.4-9.417-3.51-19.894 1.29-23.4 10.7-3.506 9.42 1.286 19.9 10.704 23.4 9.417 3.51 19.894-1.28 23.4-10.7z" fill="#ffd270"/><path d="m365.559 1220.46c2.797-7.52-1.027-15.88-8.542-18.68-7.515-2.79-15.876 1.03-18.674 8.55-2.798 7.51 1.027 15.87 8.542 18.67s15.876-1.03 18.674-8.54z" fill="#ffe1a3"/><path d="m362.112 1219.17c2.089-5.61-.766-11.85-6.378-13.94s-11.854.77-13.943 6.38c-2.09 5.61.766 11.85 6.377 13.94 5.612 2.09 11.855-.76 13.944-6.38z" fill="#ffd270"/><path d="m351.946 1222.58c3.958 0 7.167-3.21 7.167-7.17s-3.209-7.17-7.167-7.17-7.167 3.21-7.167 7.17 3.209 7.17 7.167 7.17z" fill="#ffe1a3"/><path d="m382.97 1268.18c11.706-11.71 11.706-30.68 0-42.39-11.705-11.7-30.682-11.7-42.387 0-11.705 11.71-11.705 30.68 0 42.39 11.705 11.7 30.682 11.7 42.387 0z" fill="#ffd270"/><path d="m384.197 1255.31c4.608-12.38-1.691-26.15-14.069-30.76-12.379-4.61-26.15 1.69-30.758 14.07-4.609 12.38 1.69 26.15 14.069 30.76s26.149-1.69 30.758-14.07z" fill="#ffe1a3"/><path d="m378.519 1253.2c3.442-9.25-1.262-19.53-10.506-22.97s-19.528 1.26-22.969 10.5c-3.442 9.25 1.262 19.53 10.506 22.97s19.528-1.26 22.969-10.5z" fill="#ffd270"/><path d="m361.778 1258.79c6.519 0 11.804-5.29 11.804-11.81 0-6.51-5.285-11.8-11.804-11.8s-11.803 5.29-11.803 11.8c0 6.52 5.284 11.81 11.803 11.81z" fill="#ffe1a3"/><path d="m298.982 1422.69c50.8 0 91.981-41.18 91.981-91.98s-41.181-91.98-91.981-91.98-91.982 41.18-91.982 91.98 41.182 91.98 91.982 91.98z" fill="#ffd270"/><path d="m298.981 1415.7c46.94 0 84.993-38.05 84.993-84.99s-38.053-84.99-84.993-84.99-84.993 38.05-84.993 84.99 38.053 84.99 84.993 84.99z" fill="#ffe1a3"/><path d="m298.981 1408.71c43.079 0 78.001-34.92 78.001-78s-34.922-78-78.001-78c-43.078 0-78.001 34.92-78.001 78s34.923 78 78.001 78z" fill="#ffd270"/><path d="m298.982 1401.72c39.217 0 71.009-31.79 71.009-71.01s-31.792-71.01-71.009-71.01c-39.218 0-71.009 31.79-71.009 71.01s31.791 71.01 71.009 71.01z" fill="#ffe1a3"/><path d="m298.982 1394.73c35.356 0 64.017-28.66 64.017-64.02 0-35.35-28.661-64.02-64.017-64.02s-64.017 28.67-64.017 64.02c0 35.36 28.661 64.02 64.017 64.02z" fill="#ffd270"/><path d="m298.982 1387.74c31.494 0 57.025-25.53 57.025-57.03 0-31.49-25.531-57.02-57.025-57.02s-57.025 25.53-57.025 57.02c0 31.5 25.531 57.03 57.025 57.03z" fill="#ffe1a3"/><path d="m369.003 1819.75c3.506-9.42-1.286-19.9-10.704-23.4-9.417-3.51-19.894 1.28-23.4 10.7s1.286 19.9 10.704 23.4c9.417 3.51 19.894-1.28 23.4-10.7z" fill="#ffd270"/><path d="m365.559 1818.47c2.797-7.52-1.027-15.88-8.542-18.68s-15.876 1.03-18.674 8.54c-2.798 7.52 1.027 15.88 8.542 18.68s15.876-1.03 18.674-8.54z" fill="#ffe1a3"/><path d="m362.112 1817.18c2.089-5.61-.766-11.85-6.378-13.94s-11.854.77-13.943 6.38c-2.09 5.61.766 11.85 6.377 13.94 5.612 2.09 11.855-.77 13.944-6.38z" fill="#ffd270"/><path d="m351.946 1820.58c3.958 0 7.167-3.21 7.167-7.16 0-3.96-3.209-7.17-7.167-7.17s-7.167 3.21-7.167 7.17c0 3.95 3.209 7.16 7.167 7.16z" fill="#ffe1a3"/><path d="m382.97 1866.19c11.706-11.71 11.706-30.69 0-42.39-11.705-11.71-30.682-11.71-42.387 0-11.705 11.7-11.705 30.68 0 42.39 11.705 11.7 30.682 11.7 42.387 0z" fill="#ffd270"/><path d="m384.197 1853.32c4.608-12.38-1.691-26.15-14.069-30.76-12.379-4.61-26.15 1.69-30.758 14.07-4.609 12.38 1.69 26.15 14.069 30.76 12.379 4.6 26.149-1.69 30.758-14.07z" fill="#ffe1a3"/><path d="m378.519 1851.2c3.442-9.24-1.262-19.52-10.506-22.96-9.244-3.45-19.528 1.26-22.969 10.5-3.442 9.25 1.262 19.53 10.506 22.97s19.528-1.26 22.969-10.51z" fill="#ffd270"/><path d="m361.778 1856.8c6.519 0 11.804-5.29 11.804-11.81s-5.285-11.8-11.804-11.8-11.803 5.28-11.803 11.8 5.284 11.81 11.803 11.81z" fill="#ffe1a3"/><path d="m298.982 2020.7c50.8 0 91.981-41.18 91.981-91.98s-41.181-91.98-91.981-91.98-91.982 41.18-91.982 91.98 41.182 91.98 91.982 91.98z" fill="#ffd270"/><path d="m298.981 2013.71c46.94 0 84.993-38.05 84.993-84.99s-38.053-84.99-84.993-84.99-84.993 38.05-84.993 84.99 38.053 84.99 84.993 84.99z" fill="#ffe1a3"/><path d="m298.981 2006.72c43.079 0 78.001-34.92 78.001-78s-34.922-78-78.001-78c-43.078 0-78.001 34.92-78.001 78s34.923 78 78.001 78z" fill="#ffd270"/><path d="m298.982 1999.73c39.217 0 71.009-31.79 71.009-71.01s-31.792-71.01-71.009-71.01c-39.218 0-71.009 31.79-71.009 71.01s31.791 71.01 71.009 71.01z" fill="#ffe1a3"/><path d="m298.982 1992.74c35.356 0 64.017-28.66 64.017-64.02s-28.661-64.02-64.017-64.02-64.017 28.66-64.017 64.02 28.661 64.02 64.017 64.02z" fill="#ffd270"/><path d="m298.982 1985.75c31.494 0 57.025-25.54 57.025-57.03s-25.531-57.03-57.025-57.03-57.025 25.54-57.025 57.03 25.531 57.03 57.025 57.03z" fill="#ffe1a3"/><path d="m369.003 2417.76c3.506-9.42-1.286-19.9-10.704-23.4-9.417-3.51-19.894 1.28-23.4 10.7s1.286 19.89 10.704 23.4c9.417 3.51 19.894-1.29 23.4-10.7z" fill="#ffd270"/><path d="m365.559 2416.47c2.797-7.51-1.027-15.87-8.542-18.67s-15.876 1.03-18.674 8.54c-2.798 7.52 1.027 15.88 8.542 18.68 7.515 2.79 15.876-1.03 18.674-8.55z" fill="#ffe1a3"/><path d="m362.112 2415.19c2.089-5.61-.766-11.85-6.378-13.94s-11.854.76-13.943 6.37c-2.09 5.62.766 11.86 6.377 13.95 5.612 2.09 11.855-.77 13.944-6.38z" fill="#ffd270"/><path d="m351.946 2418.59c3.958 0 7.167-3.21 7.167-7.17 0-3.95-3.209-7.16-7.167-7.16s-7.167 3.21-7.167 7.16c0 3.96 3.209 7.17 7.167 7.17z" fill="#ffe1a3"/><path d="m382.97 2464.19c11.706-11.7 11.706-30.68 0-42.38-11.705-11.71-30.682-11.71-42.387 0-11.705 11.7-11.705 30.68 0 42.38 11.705 11.71 30.682 11.71 42.387 0z" fill="#ffd270"/><path d="m384.197 2451.33c4.608-12.38-1.691-26.15-14.069-30.76-12.379-4.61-26.15 1.69-30.758 14.07-4.609 12.37 1.69 26.15 14.069 30.75 12.379 4.61 26.149-1.69 30.758-14.06z" fill="#ffe1a3"/><path d="m378.519 2449.21c3.442-9.24-1.262-19.53-10.506-22.97s-19.528 1.27-22.969 10.51c-3.442 9.24 1.262 19.53 10.506 22.97s19.528-1.26 22.969-10.51z" fill="#ffd270"/><path d="m361.778 2454.8c6.519 0 11.804-5.28 11.804-11.8s-5.285-11.8-11.804-11.8-11.803 5.28-11.803 11.8 5.284 11.8 11.803 11.8z" fill="#ffe1a3"/><path d="m298.982 2618.71c50.8 0 91.981-41.18 91.981-91.98s-41.181-91.98-91.981-91.98-91.982 41.18-91.982 91.98 41.182 91.98 91.982 91.98z" fill="#ffd270"/><path d="m298.981 2611.72c46.94 0 84.993-38.05 84.993-84.99s-38.053-84.99-84.993-84.99-84.993 38.05-84.993 84.99 38.053 84.99 84.993 84.99z" fill="#ffe1a3"/><path d="m298.981 2604.73c43.079 0 78.001-34.92 78.001-78s-34.922-78-78.001-78c-43.078 0-78.001 34.92-78.001 78s34.923 78 78.001 78z" fill="#ffd270"/><path d="m298.982 2597.74c39.217 0 71.009-31.8 71.009-71.01 0-39.22-31.792-71.01-71.009-71.01-39.218 0-71.009 31.79-71.009 71.01 0 39.21 31.791 71.01 71.009 71.01z" fill="#ffe1a3"/><path d="m298.982 2590.75c35.356 0 64.017-28.67 64.017-64.02 0-35.36-28.661-64.02-64.017-64.02s-64.017 28.66-64.017 64.02c0 35.35 28.661 64.02 64.017 64.02z" fill="#ffd270"/><path d="m298.982 2583.75c31.494 0 57.025-25.53 57.025-57.02 0-31.5-25.531-57.03-57.025-57.03s-57.025 25.53-57.025 57.03c0 31.49 25.531 57.02 57.025 57.02z" fill="#ffe1a3"/><path d="m369.003 3015.76c3.506-9.41-1.286-19.89-10.704-23.4-9.417-3.5-19.894 1.29-23.4 10.71-3.506 9.41 1.286 19.89 10.704 23.4 9.417 3.5 19.894-1.29 23.4-10.71z" fill="#ffd270"/><path d="m365.559 3014.48c2.797-7.51-1.027-15.87-8.542-18.67s-15.876 1.02-18.674 8.54c-2.798 7.51 1.027 15.88 8.542 18.67 7.515 2.8 15.876-1.02 18.674-8.54z" fill="#ffe1a3"/><path d="m362.112 3013.2c2.089-5.61-.766-11.86-6.378-13.94-5.612-2.09-11.854.76-13.943 6.37-2.09 5.61.766 11.86 6.377 13.95 5.612 2.09 11.855-.77 13.944-6.38z" fill="#ffd270"/><path d="m351.946 3016.6c3.958 0 7.167-3.21 7.167-7.17s-3.209-7.16-7.167-7.16-7.167 3.2-7.167 7.16 3.209 7.17 7.167 7.17z" fill="#ffe1a3"/><path d="m382.97 3062.2c11.706-11.7 11.706-30.68 0-42.39-11.705-11.7-30.682-11.7-42.387 0-11.705 11.71-11.705 30.69 0 42.39 11.705 11.71 30.682 11.71 42.387 0z" fill="#ffd270"/><path d="m384.197 3049.33c4.608-12.38-1.691-26.15-14.069-30.75-12.379-4.61-26.15 1.69-30.758 14.06-4.609 12.38 1.69 26.15 14.069 30.76s26.149-1.69 30.758-14.07z" fill="#ffe1a3"/><path d="m378.519 3047.22c3.442-9.24-1.262-19.53-10.506-22.97s-19.528 1.26-22.969 10.51c-3.442 9.24 1.262 19.52 10.506 22.97 9.244 3.44 19.528-1.27 22.969-10.51z" fill="#ffd270"/><path d="m361.778 3052.81c6.519 0 11.804-5.28 11.804-11.8s-5.285-11.81-11.804-11.81-11.803 5.29-11.803 11.81 5.284 11.8 11.803 11.8z" fill="#ffe1a3"/><path d="m298.982 3216.72c50.8 0 91.981-41.18 91.981-91.98s-41.181-91.99-91.981-91.99-91.982 41.19-91.982 91.99 41.182 91.98 91.982 91.98z" fill="#ffd270"/><path d="m298.981 3209.73c46.94 0 84.993-38.05 84.993-85 0-46.94-38.053-84.99-84.993-84.99s-84.993 38.05-84.993 84.99c0 46.95 38.053 85 84.993 85z" fill="#ffe1a3"/><path d="m298.981 3202.74c43.079 0 78.001-34.93 78.001-78 0-43.08-34.922-78.01-78.001-78.01-43.078 0-78.001 34.93-78.001 78.01 0 43.07 34.923 78 78.001 78z" fill="#ffd270"/><path d="m298.982 3195.74c39.217 0 71.009-31.79 71.009-71 0-39.22-31.792-71.01-71.009-71.01-39.218 0-71.009 31.79-71.009 71.01 0 39.21 31.791 71 71.009 71z" fill="#ffe1a3"/><path d="m298.982 3188.75c35.356 0 64.017-28.66 64.017-64.01 0-35.36-28.661-64.02-64.017-64.02s-64.017 28.66-64.017 64.02c0 35.35 28.661 64.01 64.017 64.01z" fill="#ffd270"/><path d="m298.982 3181.76c31.494 0 57.025-25.53 57.025-57.02 0-31.5-25.531-57.03-57.025-57.03s-57.025 25.53-57.025 57.03c0 31.49 25.531 57.02 57.025 57.02z" fill="#ffe1a3"/><path d="m5.16123 626.748c-3.50607-9.417 1.28609-19.894 10.70357-23.4 9.4175-3.506 19.8941 1.286 23.4002 10.704 3.506 9.417-1.2861 19.894-10.7036 23.4s-19.8941-1.286-23.40017-10.704z" fill="#ffd270"/><path d="m8.60548 625.466c-2.79789-7.515 1.02629-15.875 8.54152-18.673 7.5153-2.798 15.8758 1.026 18.6737 8.541 2.7979 7.516-1.0263 15.876-8.5416 18.674s-15.8757-1.026-18.67362-8.542z" fill="#ffe1a3"/><path d="m12.0522 624.183c-2.08912-5.612.7664-11.855 6.3779-13.944 5.6116-2.089 11.8542.767 13.9434 6.378 2.0892 5.612-.7663 11.854-6.3779 13.944-5.6116 2.089-11.8542-.767-13.9434-6.378z" fill="#ffd270"/><path d="m22.218 627.583c-3.9581 0-7.1668-3.209-7.1668-7.167s3.2087-7.166 7.1668-7.166 7.1668 3.208 7.1668 7.166-3.2087 7.167-7.1668 7.167z" fill="#ffe1a3"/><path d="m-8.80642 673.186c-11.70508-11.705-11.70508-30.683.00002-42.388 11.70508-11.705 30.6828-11.705 42.3879 0 11.705 11.705 11.7051 30.683 0 42.388s-30.68283 11.705-42.38792 0z" fill="#ffd270"/><path d="m-10.0328 660.317c-4.6085-12.378 1.69051-26.149 14.06915-30.758 12.37865-4.608 26.14945 1.691 30.75795 14.069 4.6084 12.379-1.6905 26.15-14.0691 30.758-12.37866 4.609-26.14947-1.69-30.758-14.069z" fill="#ffe1a3"/><path d="m-4.35529 658.204c-3.44148-9.244 1.26239-19.527 10.5064-22.969 9.24399-3.441 19.52759 1.263 22.96909 10.507s-1.2624 19.527-10.5064 22.969c-9.24397 3.441-19.527598-1.263-22.96909-10.507z" fill="#ffd270"/><path d="m12.3857 663.796c-6.51901 0-11.80372-5.285-11.80372-11.804s5.28471-11.804 11.80372-11.804c6.519 0 11.8038 5.285 11.8038 11.804s-5.2848 11.804-11.8038 11.804z" fill="#ffe1a3"/><path d="m75.1824 827.702c-50.8001 0-91.9817-41.182-91.9817-91.982s41.1816-91.982 91.9817-91.982c50.7996 0 91.9816 41.182 91.9816 91.982s-41.182 91.982-91.9816 91.982z" fill="#ffd270"/><path d="m75.1831 820.713c-46.9402 0-84.99278-38.053-84.99278-84.993s38.05258-84.993 84.99278-84.993c46.9399 0 84.9929 38.053 84.9929 84.993s-38.053 84.993-84.9929 84.993z" fill="#ffe1a3"/><path d="m75.1828 813.721c-43.0787 0-78.00088-34.922-78.00088-78.001s34.92218-78.001 78.00088-78.001c43.0782 0 78.0012 34.922 78.0012 78.001s-34.923 78.001-78.0012 78.001z" fill="#ffd270"/><path d="m75.1825 806.729c-39.2172 0-71.00899-31.792-71.00899-71.009s31.79179-71.009 71.00899-71.009c39.2175 0 71.0085 31.792 71.0085 71.009s-31.791 71.009-71.0085 71.009z" fill="#ffe1a3"/><path d="m75.1822 799.737c-35.3557 0-64.0171-28.662-64.0171-64.017 0-35.356 28.6614-64.017 64.0171-64.017 35.3558 0 64.0168 28.661 64.0168 64.017 0 35.355-28.661 64.017-64.0168 64.017z" fill="#ffd270"/><path d="m75.1819 792.745c-31.4942 0-57.0252-25.531-57.0252-57.025s25.531-57.025 57.0252-57.025c31.4941 0 57.0251 25.531 57.0251 57.025s-25.531 57.025-57.0251 57.025z" fill="#ffe1a3"/><path d="m5.16123 1221.75c-3.50607-9.42 1.28609-19.9 10.70357-23.4 9.4175-3.51 19.8941 1.28 23.4002 10.7 3.506 9.42-1.2861 19.9-10.7036 23.4-9.4175 3.51-19.8941-1.28-23.40017-10.7z" fill="#ffd270"/><path d="m8.60548 1220.47c-2.79789-7.52 1.02629-15.88 8.54152-18.68 7.5153-2.8 15.8758 1.03 18.6737 8.54 2.7979 7.52-1.0263 15.88-8.5416 18.68s-15.8757-1.03-18.67362-8.54z" fill="#ffe1a3"/><path d="m12.0522 1219.18c-2.08912-5.61.7664-11.85 6.3779-13.94 5.6116-2.09 11.8542.77 13.9434 6.38s-.7663 11.85-6.3779 13.94-11.8542-.77-13.9434-6.38z" fill="#ffd270"/><path d="m22.218 1222.58c-3.9581 0-7.1668-3.21-7.1668-7.16 0-3.96 3.2087-7.17 7.1668-7.17s7.1668 3.21 7.1668 7.17c0 3.95-3.2087 7.16-7.1668 7.16z" fill="#ffe1a3"/><path d="m-8.80642 1268.19c-11.70508-11.71-11.70508-30.69.00002-42.39 11.70508-11.71 30.6828-11.71 42.3879 0 11.705 11.7 11.7051 30.68 0 42.39-11.7051 11.7-30.68283 11.7-42.38792 0z" fill="#ffd270"/><path d="m-10.0328 1255.32c-4.6085-12.38 1.69051-26.15 14.06915-30.76 12.37865-4.61 26.14945 1.69 30.75795 14.07 4.6084 12.38-1.6905 26.15-14.0691 30.76-12.37866 4.6-26.14947-1.69-30.758-14.07z" fill="#ffe1a3"/><path d="m-4.35529 1253.2c-3.44148-9.24 1.26239-19.52 10.5064-22.96 9.24399-3.45 19.52759 1.26 22.96909 10.5 3.4415 9.25-1.2624 19.53-10.5064 22.97-9.24397 3.44-19.527598-1.26-22.96909-10.51z" fill="#ffd270"/><path d="m12.3857 1258.8c-6.51901 0-11.80372-5.29-11.80372-11.81s5.28471-11.8 11.80372-11.8c6.519 0 11.8038 5.28 11.8038 11.8s-5.2848 11.81-11.8038 11.81z" fill="#ffe1a3"/><path d="m75.1824 1422.7c-50.8001 0-91.9817-41.18-91.9817-91.98s41.1816-91.98 91.9817-91.98c50.7996 0 91.9816 41.18 91.9816 91.98s-41.182 91.98-91.9816 91.98z" fill="#ffd270"/><path d="m75.1831 1415.71c-46.9402 0-84.99278-38.05-84.99278-84.99s38.05258-84.99 84.99278-84.99c46.9399 0 84.9929 38.05 84.9929 84.99s-38.053 84.99-84.9929 84.99z" fill="#ffe1a3"/><path d="m75.1828 1408.72c-43.0787 0-78.00088-34.92-78.00088-78s34.92218-78 78.00088-78c43.0782 0 78.0012 34.92 78.0012 78s-34.923 78-78.0012 78z" fill="#ffd270"/><path d="m75.1825 1401.73c-39.2172 0-71.00899-31.79-71.00899-71.01s31.79179-71.01 71.00899-71.01c39.2175 0 71.0085 31.79 71.0085 71.01s-31.791 71.01-71.0085 71.01z" fill="#ffe1a3"/><path d="m75.1822 1394.74c-35.3557 0-64.0171-28.66-64.0171-64.02s28.6614-64.02 64.0171-64.02c35.3558 0 64.0168 28.66 64.0168 64.02s-28.661 64.02-64.0168 64.02z" fill="#ffd270"/><path d="m75.1819 1387.75c-31.4942 0-57.0252-25.54-57.0252-57.03s25.531-57.03 57.0252-57.03c31.4941 0 57.0251 25.54 57.0251 57.03s-25.531 57.03-57.0251 57.03z" fill="#ffe1a3"/><path d="m5.16123 1819.76c-3.50607-9.42 1.28609-19.9 10.70357-23.4 9.4175-3.51 19.8941 1.28 23.4002 10.7 3.506 9.42-1.2861 19.89-10.7036 23.4s-19.8941-1.29-23.40017-10.7z" fill="#ffd270"/><path d="m8.60548 1818.47c-2.79789-7.51 1.02629-15.87 8.54152-18.67 7.5153-2.8 15.8758 1.03 18.6737 8.54 2.7979 7.52-1.0263 15.88-8.5416 18.68-7.5153 2.79-15.8757-1.03-18.67362-8.55z" fill="#ffe1a3"/><path d="m12.0522 1817.19c-2.08912-5.61.7664-11.85 6.3779-13.94 5.6116-2.09 11.8542.76 13.9434 6.37 2.0892 5.62-.7663 11.86-6.3779 13.95s-11.8542-.77-13.9434-6.38z" fill="#ffd270"/><path d="m22.218 1820.59c-3.9581 0-7.1668-3.21-7.1668-7.17 0-3.95 3.2087-7.16 7.1668-7.16s7.1668 3.21 7.1668 7.16c0 3.96-3.2087 7.17-7.1668 7.17z" fill="#ffe1a3"/><path d="m-8.80642 1866.19c-11.70508-11.7-11.70508-30.68.00002-42.38 11.70508-11.71 30.6828-11.71 42.3879 0 11.705 11.7 11.7051 30.68 0 42.38-11.7051 11.71-30.68283 11.71-42.38792 0z" fill="#ffd270"/><path d="m-10.0328 1853.33c-4.6085-12.38 1.69051-26.15 14.06915-30.76 12.37865-4.61 26.14945 1.69 30.75795 14.07 4.6084 12.37-1.6905 26.15-14.0691 30.75-12.37866 4.61-26.14947-1.69-30.758-14.06z" fill="#ffe1a3"/><path d="m-4.35529 1851.21c-3.44148-9.24 1.26239-19.53 10.5064-22.97 9.24399-3.44 19.52759 1.27 22.96909 10.51s-1.2624 19.53-10.5064 22.97c-9.24397 3.44-19.527598-1.26-22.96909-10.51z" fill="#ffd270"/><path d="m12.3857 1856.8c-6.51901 0-11.80372-5.28-11.80372-11.8s5.28471-11.8 11.80372-11.8c6.519 0 11.8038 5.28 11.8038 11.8s-5.2848 11.8-11.8038 11.8z" fill="#ffe1a3"/><path d="m75.1824 2020.71c-50.8001 0-91.9817-41.18-91.9817-91.98s41.1816-91.98 91.9817-91.98c50.7996 0 91.9816 41.18 91.9816 91.98s-41.182 91.98-91.9816 91.98z" fill="#ffd270"/><path d="m75.1831 2013.72c-46.9402 0-84.99278-38.05-84.99278-84.99s38.05258-85 84.99278-85c46.9399 0 84.9929 38.06 84.9929 85s-38.053 84.99-84.9929 84.99z" fill="#ffe1a3"/><path d="m75.1828 2006.73c-43.0787 0-78.00088-34.92-78.00088-78s34.92218-78 78.00088-78c43.0782 0 78.0012 34.92 78.0012 78s-34.923 78-78.0012 78z" fill="#ffd270"/><path d="m75.1825 1999.74c-39.2172 0-71.00899-31.8-71.00899-71.01 0-39.22 31.79179-71.01 71.00899-71.01 39.2175 0 71.0085 31.79 71.0085 71.01 0 39.21-31.791 71.01-71.0085 71.01z" fill="#ffe1a3"/><path d="m75.1822 1992.74c-35.3557 0-64.0171-28.66-64.0171-64.01 0-35.36 28.6614-64.02 64.0171-64.02 35.3558 0 64.0168 28.66 64.0168 64.02 0 35.35-28.661 64.01-64.0168 64.01z" fill="#ffd270"/><path d="m75.1819 1985.75c-31.4942 0-57.0252-25.53-57.0252-57.02 0-31.5 25.531-57.03 57.0252-57.03 31.4941 0 57.0251 25.53 57.0251 57.03 0 31.49-25.531 57.02-57.0251 57.02z" fill="#ffe1a3"/><path d="m5.16123 2417.76c-3.50607-9.41 1.28609-19.89 10.70357-23.4 9.4175-3.5 19.8941 1.29 23.4002 10.71 3.506 9.41-1.2861 19.89-10.7036 23.4-9.4175 3.5-19.8941-1.29-23.40017-10.71z" fill="#ffd270"/><path d="m8.60548 2416.48c-2.79789-7.51 1.02629-15.87 8.54152-18.67 7.5153-2.8 15.8758 1.02 18.6737 8.54 2.7979 7.51-1.0263 15.88-8.5416 18.67-7.5153 2.8-15.8757-1.02-18.67362-8.54z" fill="#ffe1a3"/><path d="m12.0522 2415.2c-2.08912-5.61.7664-11.86 6.3779-13.95 5.6116-2.08 11.8542.77 13.9434 6.38s-.7663 11.86-6.3779 13.95c-5.6116 2.08-11.8542-.77-13.9434-6.38z" fill="#ffd270"/><path d="m22.218 2418.6c-3.9581 0-7.1668-3.21-7.1668-7.17s3.2087-7.17 7.1668-7.17 7.1668 3.21 7.1668 7.17-3.2087 7.17-7.1668 7.17z" fill="#ffe1a3"/><path d="m-8.80642 2464.2c-11.70508-11.7-11.70508-30.68.00002-42.39 11.70508-11.7 30.6828-11.7 42.3879 0 11.705 11.71 11.7051 30.69 0 42.39-11.7051 11.71-30.68283 11.71-42.38792 0z" fill="#ffd270"/><path d="m-10.0328 2451.33c-4.6085-12.38 1.69051-26.15 14.06915-30.76 12.37865-4.6 26.14945 1.69 30.75795 14.07 4.6084 12.38-1.6905 26.15-14.0691 30.76-12.37866 4.61-26.14947-1.69-30.758-14.07z" fill="#ffe1a3"/><path d="m-4.35529 2449.22c-3.44148-9.24 1.26239-19.53 10.5064-22.97 9.24399-3.44 19.52759 1.26 22.96909 10.51 3.4415 9.24-1.2624 19.52-10.5064 22.97-9.24397 3.44-19.527598-1.27-22.96909-10.51z" fill="#ffd270"/><path d="m12.3857 2454.81c-6.51901 0-11.80372-5.28-11.80372-11.8s5.28471-11.81 11.80372-11.81c6.519 0 11.8038 5.29 11.8038 11.81s-5.2848 11.8-11.8038 11.8z" fill="#ffe1a3"/><path d="m75.1824 2618.72c-50.8001 0-91.9817-41.18-91.9817-91.98s41.1816-91.99 91.9817-91.99c50.7996 0 91.9816 41.19 91.9816 91.99s-41.182 91.98-91.9816 91.98z" fill="#ffd270"/><path d="m75.1831 2611.73c-46.9402 0-84.99278-38.05-84.99278-85 0-46.94 38.05258-84.99 84.99278-84.99 46.9399 0 84.9929 38.05 84.9929 84.99 0 46.95-38.053 85-84.9929 85z" fill="#ffe1a3"/><path d="m75.1828 2604.74c-43.0787 0-78.00088-34.93-78.00088-78 0-43.08 34.92218-78.01 78.00088-78.01 43.0782 0 78.0012 34.93 78.0012 78.01 0 43.07-34.923 78-78.0012 78z" fill="#ffd270"/><path d="m75.1825 2597.74c-39.2172 0-71.00899-31.79-71.00899-71 0-39.22 31.79179-71.01 71.00899-71.01 39.2175 0 71.0085 31.79 71.0085 71.01 0 39.21-31.791 71-71.0085 71z" fill="#ffe1a3"/><path d="m75.1822 2590.75c-35.3557 0-64.0171-28.66-64.0171-64.02 0-35.35 28.6614-64.01 64.0171-64.01 35.3558 0 64.0168 28.66 64.0168 64.01 0 35.36-28.661 64.02-64.0168 64.02z" fill="#ffd270"/><path d="m75.1819 2583.76c-31.4942 0-57.0252-25.53-57.0252-57.02 0-31.5 25.531-57.03 57.0252-57.03 31.4941 0 57.0251 25.53 57.0251 57.03 0 31.49-25.531 57.02-57.0251 57.02z" fill="#ffe1a3"/><path d="m5.16123 3015.77c-3.50607-9.42 1.28609-19.89 10.70357-23.4 9.4175-3.51 19.8941 1.29 23.4002 10.7 3.506 9.42-1.2861 19.9-10.7036 23.4-9.4175 3.51-19.8941-1.28-23.40017-10.7z" fill="#ffd270"/><path d="m8.60548 3014.49c-2.79789-7.52 1.02629-15.88 8.54152-18.68 7.5153-2.79 15.8758 1.03 18.6737 8.55 2.7979 7.51-1.0263 15.87-8.5416 18.67s-15.8757-1.03-18.67362-8.54z" fill="#ffe1a3"/><path d="m12.0522 3013.21c-2.08912-5.62.7664-11.86 6.3779-13.95 5.6116-2.09 11.8542.77 13.9434 6.38s-.7663 11.85-6.3779 13.94-11.8542-.76-13.9434-6.37z" fill="#ffd270"/><path d="m22.218 3016.61c-3.9581 0-7.1668-3.21-7.1668-7.17s3.2087-7.17 7.1668-7.17 7.1668 3.21 7.1668 7.17-3.2087 7.17-7.1668 7.17z" fill="#ffe1a3"/><path d="m-8.80642 3062.21c-11.70508-11.71-11.70508-30.68.00002-42.39 11.70508-11.7 30.6828-11.7 42.3879 0 11.705 11.71 11.7051 30.68 0 42.39-11.7051 11.7-30.68283 11.7-42.38792 0z" fill="#ffd270"/><path d="m-10.0328 3049.34c-4.6085-12.38 1.69051-26.15 14.06915-30.76 12.37865-4.61 26.14945 1.69 30.75795 14.07 4.6084 12.38-1.6905 26.15-14.0691 30.76-12.37866 4.61-26.14947-1.69-30.758-14.07z" fill="#ffe1a3"/><path d="m-4.35529 3047.23c-3.44148-9.25 1.26239-19.53 10.5064-22.97 9.24399-3.44 19.52759 1.26 22.96909 10.5 3.4415 9.25-1.2624 19.53-10.5064 22.97-9.24397 3.44-19.527598-1.26-22.96909-10.5z" fill="#ffd270"/><path d="m12.3857 3052.82c-6.51901 0-11.80372-5.29-11.80372-11.81 0-6.51 5.28471-11.8 11.80372-11.8 6.519 0 11.8038 5.29 11.8038 11.8 0 6.52-5.2848 11.81-11.8038 11.81z" fill="#ffe1a3"/><path d="m75.1824 3216.72c-50.8001 0-91.9817-41.18-91.9817-91.98s41.1816-91.98 91.9817-91.98c50.7996 0 91.9816 41.18 91.9816 91.98s-41.182 91.98-91.9816 91.98z" fill="#ffd270"/><path d="m75.1831 3209.74c-46.9402 0-84.99278-38.06-84.99278-85s38.05258-84.99 84.99278-84.99c46.9399 0 84.9929 38.05 84.9929 84.99s-38.053 85-84.9929 85z" fill="#ffe1a3"/><path d="m75.1828 3202.74c-43.0787 0-78.00088-34.92-78.00088-78s34.92218-78 78.00088-78c43.0782 0 78.0012 34.92 78.0012 78s-34.923 78-78.0012 78z" fill="#ffd270"/><path d="m75.1825 3195.75c-39.2172 0-71.00899-31.79-71.00899-71.01 0-39.21 31.79179-71.01 71.00899-71.01 39.2175 0 71.0085 31.8 71.0085 71.01 0 39.22-31.791 71.01-71.0085 71.01z" fill="#ffe1a3"/><path d="m75.1822 3188.76c-35.3557 0-64.0171-28.66-64.0171-64.02 0-35.35 28.6614-64.01 64.0171-64.01 35.3558 0 64.0168 28.66 64.0168 64.01 0 35.36-28.661 64.02-64.0168 64.02z" fill="#ffd270"/><path d="m75.1819 3181.77c-31.4942 0-57.0252-25.53-57.0252-57.03 0-31.49 25.531-57.02 57.0252-57.02 31.4941 0 57.0251 25.53 57.0251 57.02 0 31.5-25.531 57.03-57.0251 57.03z" fill="#ffe1a3"/></g></g></svg>