<svg fill="none" height="38" viewBox="0 0 365 38" width="365" xmlns="http://www.w3.org/2000/svg" xmlns:xlink="http://www.w3.org/1999/xlink"><clipPath id="a"><path d="m0 0h364.05v37.04h-364.05z"/></clipPath><g clip-path="url(#a)"><g fill="#56a500"><path d="m20.87.31001h-16.49999c-1.15899 0-2.27052.460409-3.09006 1.27994-.819529.81954-1.27993856 1.93106-1.27993856 3.09006v27.93999c-.00131514.5747.11074756 1.1441.32977156 1.6754.219025.5314.540708 1.0143.946627 1.4211.40593.4069.88812.7297 1.41896.9499.53085.2203 1.09992.3336 1.67464.3336h16.49999c.5739 0 1.1421-.113 1.6723-.3326s1.012-.5415 1.4178-.9473.7277-.8876.9473-1.4178.3326-1.0984.3326-1.6723v-27.94999c0-.57388-.113-1.14213-.3326-1.67233-.2196-.53019-.5415-1.01193-.9473-1.41773-.4058-.40579-.8876-.727681-1.4178-.947294s-1.0984-.332646-1.6723-.332646zm-6 25.93999c-.0026.1786-.0754.349-.2027.4744-.1272.1254-.2987.1956-.4773.1956h-3.19c-.1777 0-.3481-.0706-.4738-.1962-.1256-.1257-.1962-.2961-.1962-.4738v-15.25c0-.1777.0706-.3481.1962-.4738.1257-.1256.2961-.1962.4738-.1962h3.15c.1777 0 .3481.0706.4738.1962.1256.1257.1962.2961.1962.4738zm232.51-25.98999h-20.48c-.118-.000029-.231.046006-.315.128247-.084.08224-.132.194147-.135.311753v35.84999c.003.1176.051.2295.135.3118.084.0822.197.1282.315.1282h20.48c1.157-.0026 2.266-.4642 3.084-1.2835.817-.8192 1.276-1.9292 1.276-3.0865v-27.99999c-.003-1.15553-.463-2.26298-1.28-3.08007-.817-.817085-1.924-1.277289-3.08-1.27993zm-6 25.99999c0 .1777-.071.3481-.196.4738-.126.1256-.296.1962-.474.1962h-3.63c-.067.0001-.132-.026-.18-.0726-.049-.0466-.077-.1102-.08-.1774v-16.1c-.003-.0327.001-.0656.012-.0966s.028-.0592.051-.0829.05-.0423.081-.0544c.03-.0122.063-.0176.096-.0161h3.64c.178 0 .348.0706.474.1962.125.1257.196.2961.196.4738zm-188.64-12.8v19.11c-.0013.5739-.1156 1.1419-.3365 1.6716-.2208.5297-.5438 1.0107-.9505 1.4155-.4067.4049-.8892.7257-1.4199.9441s-1.0992.3301-1.6731.3288h-16.49c-.5742.0013-1.1431-.1108-1.6739-.3299-.5308-.2192-1.013-.541-1.4191-.9471-.406-.406-.7279-.8883-.947-1.4191-.2192-.5308-.3313-1.0996-.33-1.6739v-31.69999c-.0013-.072601.012-.144729.0391-.212071.0272-.067343.0676-.128516.119-.179861.0513-.051345.1125-.091808.1798-.118967.0674-.02716.1395-.040459.2121-.039101h9.27c.0731-.001329.1457.011916.2136.038961.0678.027044.1297.067346.1818.118551.0521.051206.0935.112287.1218.179676.0283.06739.0428.139736.0428.212812v25.39999c0 .1618.0643.3169.1787.4313s.2695.1787.4313.1787h3.27c.1618 0 .3169-.0643.4313-.1787s.1787-.2695.1787-.4313v-12.8c.0026-.1451.0614-.2835.1639-.3861.1026-.1026.241-.1613.3861-.1639h9.26c.1468 0 .2878.0576.3925.1605.1047.1028.1649.2427.1675.3895zm35.35-3.34c0 .0731-.0145.1454-.0428.2128s-.0697.1285-.1218.1797-.114.0915-.1818.1185c-.0679.0271-.1405.0403-.2136.039h-21.8c-.0955 0-.187.0379-.2546.1055-.0675.0675-.1054.159-.1054.2545v25.37c-.0026.1468-.0628.2867-.1675.3895-.1047.1029-.2457.1605-.3925.1605h-9.26c-.1459 0-.2858-.0579-.3889-.1611-.1031-.1031-.1611-.243-.1611-.3889v-25.4c-.0025-.0947-.0413-.1848-.1082-.2518-.067-.0669-.1571-.1057-.2518-.1082h-11.93c-.0731.0013-.1456-.0119-.2135-.039-.0679-.027-.1297-.0673-.1819-.1185-.0521-.0512-.0935-.1123-.1218-.1797-.0282-.0674-.0428-.1397-.0428-.2128v-9.22999c0-.073076.0146-.145422.0428-.212812.0283-.067389.0697-.12847.1218-.179676.0522-.051205.114-.091507.1819-.118551.0679-.027045.1404-.04029.2135-.038961h44.82c.0731-.001329.1457.011916.2136.038961.0678.027044.1297.067346.1818.118551.0521.051206.0935.112287.1218.179676.0283.06739.0428.139736.0428.212812zm-4.09 12.35c.5739.0026 1.1416.1183 1.6708.3403s1.0095.5461 1.4134.9538c.404.4076.7236.8909.9408 1.4221s.3276 1.0999.325 1.6738v5.82c-.0131 1.1469-.4766 2.2426-1.2904 3.0508s-1.9127 1.264-3.0596 1.2692h-16.11c-.1459 0-.2858-.0579-.3889-.1611-.1031-.1031-.1611-.243-.1611-.3889v-7.22c0-.1468.0576-.2877.1605-.3925.1028-.1047.2427-.1649.3895-.1675h9.81c.1644 0 .3221-.0653.4384-.1816s.1816-.274.1816-.4384v-.05c0-.1644-.0653-.3221-.1816-.4384s-.274-.1816-.4384-.1816l-5.7-.08c-2.42 0-4.37-1.16-4.37-3.57v-6.42c0-1.159.4604-2.2705 1.28-3.09.8195-.8196 1.931-1.28 3.09-1.28h15.61c.1468.0026.2867.0628.3895.1675.1029.1048.1605.2457.1605.3925v7.05c0 .1459-.0579.2858-.1611.3889-.1031.1032-.243.1611-.3889.1611h-9.31c-.0809 0-.1611.0161-.2358.0474-.0746.0313-.1423.0771-.1991.1348s-.1015.1261-.1316.2013c-.03.0752-.0448.1556-.0435.2365v.07c0 .1618.0643.3169.1787.4313s.2695.1787.4313.1787l5.72.07zm16.8-21.60999v35.52999c-.003.1468-.063.2867-.168.3895-.104.1029-.245.1605-.392.1605h-9.24c-.1459 0-.2858-.0579-.3889-.1611-.1031-.1031-.1611-.243-.1611-.3889v-35.52999c0-.145869.058-.285764.1611-.388909s.243-.161091.3889-.161091h9.26c.144.002621.281.061722.382.164584.101.102863.158.241263.158.385416zm53-.55c.073-.001329.146.011916.214.038961.067.027044.129.067346.181.118551.053.051206.094.112287.122.179676.028.06739.043.139736.043.212812v9.26999c-.003.1468-.063.2867-.167.3895-.105.1029-.246.1605-.393.1605h-12.8v2.49c0 .0416.008.0827.025.121.016.0383.039.0729.069.1018s.066.0516.104.0665c.039.015.08.022.122.0207h12.48c.147 0 .288.0576.393.1605.104.1028.164.2427.167.3895v9.28c0 .1485-.059.291-.164.396s-.247.164-.396.164h-12.5c-.042-.0015-.084.0058-.123.0215s-.074.0394-.103.0696c-.029.0301-.052.0661-.066.1055-.015.0395-.021.0815-.018.1234v2.07c0 .0849.034.1663.094.2263s.141.0937.226.0937h12.48c.149 0 .291.059.396.164.105.1051.164.2475.164.396v9.24c-.003.1468-.063.2867-.168.3895-.104.1029-.245.1605-.392.1605h-22.62c-.147 0-.288-.0576-.392-.1605-.105-.1028-.165-.2427-.168-.3895v-35.51999c0-.073076.015-.145422.043-.212812.028-.067389.069-.12847.122-.179676.052-.051205.114-.091507.181-.118551.068-.027045.141-.04029.214-.038961zm41.69 26.27999c.147.0026.287.0628.39.1675.102.1048.16.2457.16.3925v9.25c0 .1468-.058.2878-.16.3925-.103.1047-.243.1649-.39.1675h-34c-.073 0-.145-.0145-.213-.0428-.067-.0283-.128-.0697-.179-.1218-.052-.0521-.092-.114-.119-.1818-.027-.0679-.04-.1405-.039-.2136v-35.51999c0-.14512.056-.284609.157-.389073s.238-.165744.383-.170927h9.26c.149 0 .291.059.396.16402s.164.247459.164.39598v25.33999c0 .0981.039.1923.108.2616.07.0694.164.1084.262.1084h23.8zm-3.82-26.27999h-13.67c-.574-.002633-1.143.107796-1.674.32498-.531.217185-1.014.53687-1.422.94081-.408.40393-.732.88421-.954 1.4134s-.337 1.09693-.34 1.67081v19.25999c0 .1114.044.2182.123.297s.186.123.297.123h9.14c.055 0 .11-.0109.161-.032s.097-.052.136-.091.07-.0853.091-.1363c.021-.0509.032-.1055.032-.1607v-4.46c-.001-.035.004-.0699.017-.1026.012-.0327.031-.0625.056-.0877.024-.0253.053-.0453.085-.059s.067-.0207.102-.0207h2c.072 0 .14.0285.191.0791s.079.1193.079.1909v4.46c-.001.0547.008.1091.028.16s.05.0973.089.1364c.038.0391.083.0702.134.0915.05.0212.104.0321.159.0321h9.15c.055 0 .109-.0109.159-.0321.051-.0213.096-.0524.135-.0915.038-.0391.068-.0855.088-.1364s.029-.1053.028-.16v-19.23999c.001-.57679-.112-1.14811-.333-1.68087s-.545-1.01637-.955-1.42283c-.409-.40645-.895-.727662-1.429-.945028s-1.106-.326565-1.683-.321272zm-5.58 13.07999c0 .0699-.027.1371-.076.1875-.048.0503-.114.0799-.184.0825h-2c-.07-.0026-.136-.0322-.184-.0825-.049-.0504-.076-.1176-.076-.1875v-3.99999c0-.1777.071-.34811.196-.47376.126-.12565.296-.19624.474-.19624h1.18c.178 0 .348.07059.474.19624.125.12565.196.29606.196.47376zm37.51-13.06999c.149 0 .291.059.396.16402s.164.247459.164.39598v35.51999c0 .0736-.014.1464-.043.2143-.028.068-.069.1297-.121.1817s-.114.0932-.182.1214c-.068.0281-.14.0426-.214.0426h-9.26c-.111-.0011-.22-.0349-.312-.0971-.093-.0622-.165-.1501-.208-.2529l-4.82-10.47c-.012-.0245-.03-.0451-.053-.0593s-.05-.0214-.077-.0207c-.021-.0013-.042.0015-.062.0083s-.038.0175-.054.0314-.029.0309-.038.0498-.015.0395-.016.0605v10.19c.001.0731-.012.1457-.039.2136-.027.0678-.067.1297-.119.1818-.051.0521-.112.0935-.179.1218-.068.0283-.14.0428-.213.0428h-9.26c-.073 0-.145-.0145-.213-.0428-.067-.0283-.128-.0697-.179-.1218-.052-.0521-.092-.114-.119-.1818-.027-.0679-.04-.1405-.039-.2136v-35.51999c-.001-.073064.012-.145661.039-.213548.027-.067888.067-.129706.119-.181842.051-.052136.112-.093545.179-.121808.068-.028264.14-.042814.213-.042802h9.26c.087-.000502.172.020198.249.060291.076.040094.142.09836.191.169709.049.061363.083.133232.1.21l4.83 10.49999c.009.031.03.0574.058.074.027.0167.06.0224.092.016.018-.0013.036-.0061.053-.0144.016-.0082.031-.0196.043-.0336.012-.0139.021-.0301.027-.0476s.008-.036.007-.0544v-10.31999c-.001-.073064.012-.145661.039-.213548.027-.067888.067-.129706.119-.181842.051-.052136.112-.093545.179-.121808.068-.028264.14-.042814.213-.042802zm53.1 17.20999v15c0 1.159-.46 2.2705-1.28 3.0901-.819.8195-1.931 1.2799-3.09 1.2799h-17.72c-.146 0-.286-.0579-.389-.1611-.103-.1031-.161-.243-.161-.3889v-9.3c0-.1459.058-.2858.161-.3889s.243-.1611.389-.1611h11.39c.162 0 .317-.0643.431-.1787.115-.1144.179-.2695.179-.4313v-1.66c.003-.1541-.054-.3035-.158-.4171s-.248-.1826-.402-.1929h-7.65c-.574 0-1.143-.1134-1.673-.3338-.53-.2203-1.012-.5433-1.417-.9503s-.726-.89-.944-1.4212c-.218-.5313-.329-1.1004-.326-1.6747v-14.55999c-.001-.57594.111-1.14643.332-1.67853.22-.53211.544-1.01527.952-1.42159s.893-.727742 1.426-.945703 1.104-.328142 1.68-.324177h17.57c.073-.001329.146.011916.214.038961.067.027044.129.067346.181.118551.053.051206.094.112287.122.179676.028.06739.043.139736.043.212812v9.25999c0 .0731-.015.1454-.043.2128s-.069.1285-.122.1797c-.052.0512-.114.0915-.181.1185-.068.0271-.141.0403-.214.039h-11.26c-.164 0-.322.0653-.438.1816-.117.1163-.182.274-.182.4384v1.27c.002.1544.062.3025.167.4153s.249.1823.403.1947h7.64c1.157 0 2.267.459 3.087 1.2764.819.8174 1.28 1.9263 1.283 3.0836zm-152.7-17.26999h-20.5c-.118.002614-.23.051176-.312.135286-.082.084109-.128.197079-.128.314714v35.83999c0 .1167.046.2286.129.3111.082.0826.194.1289.311.1289h20.5c1.159 0 2.271-.4604 3.09-1.2799.82-.8196 1.28-1.9311 1.28-3.0901v-27.99999c-.003-1.15726-.464-2.26622-1.283-3.08359-.82-.817377-1.93-1.276413-3.087-1.27641zm-6 25.99999c-.005.1778-.079.3467-.205.4716-.127.1248-.297.1959-.475.1984h-3.63c-.066 0-.13-.0263-.177-.0732s-.073-.1105-.073-.1768v-16.1c0-.0663.026-.1299.073-.1768s.111-.0732.177-.0732h3.63c.089-.0013.177.015.259.0481.083.0331.158.0822.221.1446.064.0623.114.1366.148.2186.034.0819.052.1699.052.2587z"/><path d="m302.59 10.19h-5.23l-.59 1.63h-2.83l4.15-11.360009h3.57l4.15 11.360009h-2.63zm-1.11-3.00001-1.3-3.54h-.41l-1.3 3.54z"/><path d="m306.32 7.37999v-6.919999h2.48v6.869999c0 .95 1 1.66 2.33 1.66s2.32-.71 2.32-1.66v-6.869999h2.49v6.919999c0 1.27569-.507 2.49913-1.409 3.40121-.902.902-2.125 1.4088-3.401 1.4088s-2.499-.5068-3.401-1.4088c-.902-.90208-1.409-2.12552-1.409-3.40121z"/><path d="m329.26 5.00001v6.81999h-1.91v-1.90999c-.408.68619-.997 1.24639-1.703 1.61869-.706.3724-1.501.5424-2.297.4913-.788.0284-1.573-.103-2.309-.3863-.735-.2833-1.406-.7126-1.971-1.262-.566-.5494-1.014-1.20757-1.318-1.93484s-.458-1.50858-.452-2.29685c-.006-.7909.149-1.5748.455-2.30414.305-.72935.756-1.38894 1.325-1.93878.568-.54983 1.243-.978456 1.982-1.259867.739-.28141 1.528-.409744 2.318-.377217 1.234-.061239 2.455.286892 3.471.990314 1.016.70343 1.772 1.72277 2.149 2.89969h-2.93c-.773-.59154-1.727-.8956-2.7-.86-2 0-3.48 1.22-3.48 2.85s1.51 2.86 3.49 2.86c.552.0261 1.104-.06262 1.621-.26056.516-.19794.986-.5008 1.379-.88944h-3v-2.85z"/><path d="m330.9 10.13c.071-.52229.329-1.00109.726-1.34773.398-.34664.907-.53764 1.434-.53764s1.036.191 1.433.53764c.398.34664.656.82544.727 1.34773-.071.5223-.329 1.0011-.727 1.3477-.397.3467-.906.5377-1.433.5377s-1.036-.191-1.434-.5377c-.397-.3466-.655-.8254-.726-1.3477z"/><path d="m348.66 8.14999c0 2.21001-1.9 3.87001-4.38 3.87001-1.059.0813-2.108-.2534-2.924-.9331s-1.335-1.65077-1.446-2.70691h2.6c.23.22795.509.40114.815.50673.307.1056.633.14089.955.10327 1 0 1.81-.4 1.81-.92s-.78-.94-1.81-.94c-.551-.01015-1.094.13171-1.57.41h-2.71l.64-7.079999h7.17v2.999999h-5l-.1 1.32c.558-.31503 1.189-.48038 1.83-.48.526-.02833 1.052.04985 1.547.22985.495.18001.948.45813 1.333.81768.385.35954.693.79311.906 1.27468.213.48158.327 1.00123.334 1.52779z"/><path d="m350.18 4.69h5v2.87h-5z"/><path d="m364.05.460013v2.299997l-4.25 9.05999h-3.21l4.48-8.39999h-5.13v-2.999997z"/><path d="m309.65 31.32v5.36h-14.65v-4.35l7.9-6.77c.66-.53 2-1.7 2-2.71 0-.83-1-1.4-2.54-1.4s-2.68.6-2.68 1.46h-4.65c-.013-.9552.169-1.9031.533-2.7862.364-.8832.904-1.6832 1.586-2.3516.683-.6685 1.494-1.1915 2.384-1.5374.891-.3458 1.842-.5074 2.797-.4748 4.12 0 7.22 2.92 7.22 6.82-.044 1.086-.323 2.1495-.816 3.1178-.494.9683-1.191 1.8185-2.044 2.4922l-3.37 3.13z"/><path d="m312.05 26.4c0-6.29 3.4-10.64 8.26-10.64s8.26 4.35 8.26 10.64-3.4 10.6-8.26 10.6-8.26-4.31-8.26-10.6zm11.87 0c0-3-1.46-5.16-3.61-5.16s-3.6 2.12-3.6 5.16 1.52 5.16 3.6 5.16 3.61-2.12 3.61-5.16z"/><path d="m345.22 31.32v5.36h-14.64v-4.35l7.9-6.77c.66-.53 2-1.7 2-2.71 0-.83-.95-1.4-2.53-1.4s-2.69.6-2.69 1.46h-4.65c-.013-.9631.171-1.9188.54-2.8082.37-.8894.918-1.6937 1.61-2.3634.693-.6698 1.515-1.1908 2.416-1.531.901-.3403 1.862-.4925 2.824-.4474.927-.0473 1.853.0937 2.724.4147.87.321 1.666.8152 2.34 1.4527s1.212 1.4051 1.581 2.2564.561 1.7685.565 2.6962c-.044 1.086-.323 2.1496-.816 3.1179-.494.9683-1.191 1.8184-2.044 2.4921l-3.37 3.13z"/><path d="m362.49 31.32v5.36h-14.64v-4.35l7.9-6.77c.65-.53 2-1.7 2-2.71 0-.83-1-1.4-2.54-1.4s-2.68.6-2.68 1.46h-4.65c-.013-.9552.169-1.9031.533-2.7862.364-.8832.904-1.6832 1.586-2.3516.683-.6685 1.494-1.1915 2.384-1.5374.891-.3458 1.842-.5074 2.797-.4748 4.12 0 7.22 2.92 7.22 6.82-.044 1.086-.323 2.1495-.816 3.1178-.494.9683-1.191 1.8185-2.044 2.4922l-3.37 3.13z"/></g><path d="m285.91 0v36.72" stroke="#7b0c00" stroke-miterlimit="10"/></g></svg>