<svg fill="none" height="1256" viewBox="0 0 744 1256" width="744" xmlns="http://www.w3.org/2000/svg" xmlns:xlink="http://www.w3.org/1999/xlink"><clipPath id="a"><path d="m0 0h744v1256h-744z"/></clipPath><mask id="b" height="1258" maskUnits="userSpaceOnUse" width="744" x="0" y="-2"><path d="m0-2h744v1258h-744z" fill="#c4c4c4"/></mask><g clip-path="url(#a)"><path d="m0 0h744v1256h-744z" fill="#fc6"/><g mask="url(#b)"><path d="m768.746-14.6439 1.108 1.1077 1.067 1.1532c3.035 3.31305 6.07 6.74241 8.873 10.19199l-121.108 102.47601c-.506-.5969-2.459-3.2575-2.98-3.8493l-.465-.4147.05-.0556-.764-.8346 8.094-7.496 97.449-110.4323c2.954 2.61 5.878 5.3514 8.676 8.1536zm-24.61-20.738-91.49 129.3392c-1.177-.8289-2.411-1.5727-3.693-2.2255l71.908-141.1851c8.085 4.1213 15.863 8.8189 23.275 14.0563zm46.888 48.193c4.876 7.1289 9.291 14.5626 13.218 22.2554l-141.211 71.8745c-.855-1.663-1.814-3.269-2.873-4.81zm-88.819-70.5242-56.206 148.1349c-1.362-.5146-2.758-.9304-4.179-1.2443l34.399-154.6648c8.836 1.9696 17.52 4.5676 25.986 7.7742zm110.212 111.1454c3.287 8.57 5.937 17.3714 7.926 26.3322l-154.722 34.2225c-.295-1.299-.682-2.575-1.158-3.819zm-156.246-122.2579-17.614 157.4568c-1.478-.1629-2.965-.222-4.451-.177l-4.958-158.3623c9.022-.2795 18.053.0822 27.023 1.0825zm167.491 169.2526c.956 9.311 1.189 18.683.698 28.031l-158.223-8.401c.062-1.149.034-2.301-.086-3.445zm-214.743-168.6103 21.868 156.9207c-1.453.2024-2.89.5083-4.299.9155l-44.091-152.1914c8.694-2.5133 17.558-4.3997 26.522-5.6448zm213.144 217.4403c-1.543 9.069-3.758 18.011-6.626 26.752l-150.555-49.417c.415-1.249.735-2.527.956-3.824zm-258.919-205.0633 60.273 146.5265c-1.33.5467-2.618 1.1891-3.855 1.922l-80.77-136.3142c7.815-4.6243 15.953-8.6796 24.352-12.1343zm244.887 250.8133c-3.695 8.144-7.951 16.021-12.738 23.575l-133.835-84.818c.842-1.328 1.593-2.712 2.246-4.142zm-286.186-227.349 95.016 126.795c-1.197.8974-2.328 1.8795-3.384 2.9387l.066-.0708-112.544-111.5298.435-.435c6.376-6.3752 13.197-12.2894 20.411-17.6981zm261.955 267.161c-4.809 6.106-9.974 11.923-15.469 17.42-.729.728-1.462 1.45-2.201 2.164l-110.277-113.775.43-.425c1.068-1.067 2.071-2.197 3.005-3.384zm-172.63-134.8578c-.91 1.1308-1.736 2.3258-2.474 3.5758l-136.516-80.4226c4.604-7.8075 9.764-15.27388 15.439-22.341397zm41.799 43.1958 98.264 124.296c-6.952 5.492-14.268 10.506-21.899 15.007l-80.432-136.496c1.419-.841 2.778-1.779 4.067-2.807zm-45.755-36.757c-.594 1.311-1.093 2.664-1.492 4.047l-152.294-43.7475c2.506-8.7069 5.633-17.2229 9.358-25.4824zm38.567 41.183 65.686 144.179c-8.264 3.766-16.79 6.931-25.51 9.469l-44.192-152.156c1.372-.401 2.715-.899 4.016-1.492zm-40.798-33.92c-.249 1.46-.398 2.936-.445 4.416l-158.385-4.638c.267-9.026 1.175-18.0217 2.717-26.919zm33.944 36.074 26.851 156.147c-9.184 1.576-18.475 2.447-27.792 2.605l-2.626-158.418c1.196-.019 2.388-.131 3.567-.334zm-34.308-28.325c.117 1.472.337 2.934.658 4.376l-154.606 34.733c-1.986-8.818-3.338-17.766-4.047-26.777zm28.151 28.548-15.798 157.649c-9.261-.929-18.437-2.568-27.448-4.901l39.7-153.385c1.164.306 2.349.521 3.546.642zm-142.541 82.016-14.898-17.197s2.054-6.935 5.651-4.881c3.597 2.053 14.639 3.08 29.537-3.597 14.898-6.676 40.975-15.28 61.639-15.406 20.665-.127 22.992 2.438 22.992 2.438l26.81-46.959c1.398.775 2.848 1.451 4.34 2.023l-56.368 148.074c-8.324-3.179-16.42-6.925-24.23-11.213l36.093-65.755zm115.938-103.042c.466 1.362 1.029 2.689 1.685 3.97l-141.039 72.244c-4.138-8.083-7.688-16.454-10.623-25.047zm12.141 15.174-89.092 131.003c-6.845-4.651-13.42-9.686-19.694-15.083l103.5-119.982c1.682 1.459 3.447 2.82 5.286 4.077zm-8.827-8.371c.803 1.221 1.694 2.382 2.665 3.475l-44.252 39.23zm-115.903 108.566c-6.004-6.773-11.515-13.967-16.491-21.527z" fill="#ffe2a4"/><path d="m493.578 244.303c-6.004-6.773-11.515-13.967-16.491-21.527m291.659-237.4199 1.108 1.1077 1.067 1.1532c3.035 3.31306 6.07 6.7424 8.873 10.19199l-121.108 102.47601c-.506-.5969-2.459-3.2575-2.98-3.8493l-.465-.4147.05-.0556-.764-.8346 8.094-7.496 97.449-110.4323c2.954 2.61 5.878 5.3514 8.676 8.1536zm-24.61-20.738-91.49 129.3392c-1.177-.8289-2.411-1.5727-3.693-2.2255l71.908-141.1851c8.085 4.1213 15.863 8.8189 23.275 14.0563zm46.888 48.193c4.876 7.1289 9.291 14.5626 13.218 22.2554l-141.211 71.8745c-.855-1.663-1.814-3.269-2.873-4.81zm-88.819-70.5242-56.206 148.1348c-1.362-.5145-2.758-.9303-4.179-1.2442l34.399-154.6648c8.836 1.9696 17.52 4.5676 25.986 7.7742zm110.212 111.1454c3.287 8.57 5.937 17.3714 7.926 26.3321l-154.722 34.2226c-.295-1.299-.682-2.575-1.158-3.819zm-156.246-122.2579-17.614 157.4568c-1.478-.1629-2.965-.222-4.451-.177l-4.958-158.3623c9.022-.2795 18.053.0822 27.023 1.0825zm167.491 169.2526c.956 9.311 1.189 18.683.698 28.031l-158.223-8.401c.062-1.149.034-2.301-.086-3.445zm-214.743-168.6103 21.868 156.9207c-1.453.2024-2.89.5083-4.299.9155l-44.091-152.1914c8.694-2.5133 17.558-4.3997 26.522-5.6448zm213.144 217.4403c-1.543 9.069-3.758 18.011-6.626 26.752l-150.555-49.417c.415-1.249.735-2.527.956-3.824zm-258.919-205.0633 60.273 146.5265c-1.33.5467-2.618 1.1891-3.855 1.922l-80.77-136.3142c7.815-4.6243 15.953-8.6796 24.352-12.1343zm244.887 250.8133c-3.695 8.144-7.951 16.021-12.738 23.575l-133.835-84.818c.842-1.328 1.593-2.712 2.246-4.142zm-286.186-227.349 95.016 126.795c-1.197.8974-2.328 1.8795-3.384 2.9387l.066-.0708-112.544-111.5298.435-.435c6.376-6.3751 13.197-12.2894 20.411-17.6981zm261.955 267.161c-4.809 6.106-9.974 11.923-15.469 17.42-.729.728-1.462 1.45-2.201 2.164l-110.277-113.775.43-.425c1.068-1.067 2.071-2.197 3.005-3.384zm-172.63-134.8578c-.91 1.1308-1.736 2.3258-2.474 3.5758l-136.516-80.4226c4.604-7.8075 9.764-15.27388 15.439-22.341398zm41.799 43.1958 98.264 124.296c-6.952 5.492-14.268 10.506-21.899 15.007l-80.432-136.496c1.419-.841 2.778-1.779 4.067-2.807zm-45.755-36.757c-.594 1.311-1.093 2.664-1.492 4.047l-152.294-43.7475c2.506-8.7069 5.633-17.2229 9.358-25.4824zm38.567 41.183 65.686 144.179c-8.264 3.766-16.79 6.931-25.51 9.469l-44.192-152.156c1.373-.401 2.715-.899 4.016-1.492zm-40.798-33.92c-.249 1.46-.398 2.936-.445 4.416l-158.385-4.638c.267-9.026 1.175-18.0217 2.717-26.919zm33.944 36.074 26.851 156.147c-9.184 1.576-18.475 2.447-27.792 2.605l-2.626-158.418c1.196-.019 2.388-.131 3.567-.334zm-34.308-28.325c.117 1.472.337 2.934.658 4.376l-154.606 34.733c-1.986-8.818-3.338-17.766-4.047-26.777zm28.151 28.548-15.798 157.649c-9.261-.929-18.437-2.568-27.448-4.901l39.7-153.385c1.164.306 2.349.521 3.546.642zm-142.541 82.016-14.898-17.197s2.054-6.935 5.651-4.881c3.597 2.053 14.639 3.08 29.537-3.597 14.898-6.676 40.975-15.28 61.639-15.406 20.665-.127 22.992 2.438 22.992 2.438l26.81-46.959c1.398.775 2.848 1.451 4.34 2.023l-56.368 148.074c-8.324-3.179-16.42-6.925-24.23-11.213l36.093-65.755zm115.938-103.042c.466 1.362 1.029 2.689 1.685 3.97l-141.039 72.244c-4.138-8.083-7.688-16.454-10.623-25.047zm12.141 15.174-89.092 131.003c-6.845-4.651-13.42-9.686-19.694-15.083l103.5-119.982c1.682 1.459 3.447 2.82 5.286 4.077zm-8.827-8.371c.803 1.221 1.694 2.382 2.665 3.475l-44.252 39.23z" stroke="#7b0c00" stroke-miterlimit="10" stroke-width=".5"/><path d="m6.51984-22.7975 97.43416 110.4323 8.093 7.496-.763.8346.05.0556-.465.4148c-.506.5918-2.494 3.2523-2.98 3.8492l-121.0876-102.47599c2.8227-3.44959 5.80728-6.87894 8.86774-10.19201l1.06736-1.1532 1.10784-1.1077c2.782232-2.8022 5.72128-5.5436 8.6755-8.1536zm39.20926-26.6558 71.9079 141.1851c-1.281.6517-2.514 1.3955-3.688 2.2255l-91.4945-129.3543c7.4111-5.2374 15.1894-9.935 23.2746-14.0563zm60.7029 151.5843c-1.059 1.541-2.018 3.147-2.873 4.81l-141.2109-71.8593c3.9267-7.6928 8.3418-15.1265 13.2181-22.2554zm-16.0607-167.6183 34.3987 154.6648c-1.421.3139-2.818.7297-4.179 1.2443l-56.226-148.1349c8.4725-3.2075 17.1634-5.8055 26.0063-7.7742zm11.7557 175.6353c-.476 1.244-.863 2.52-1.158 3.819l-154.7224-34.2025c1.9919-8.9602 4.6414-17.7614 7.9268-26.3322zm35.315-180.0662-4.958 158.3623c-1.486-.045-2.974.0141-4.451.177l-17.635-157.4467c8.978-1.0013 18.015-1.363 27.044-1.0825zm-36.903 186.5452c-.117 1.145-.146 2.296-.086 3.445l-158.2331 8.386c-.4952-9.347-.2635-18.72.6931-28.031zm83.654-179.1655-44.091 152.1914c-1.409-.4077-2.846-.7137-4.299-.9155l21.868-156.9207c8.964 1.2451 17.828 3.1315 26.522 5.6448zm-83.441 185.3065c.224 1.296.543 2.574.956 3.824l-150.5546 49.417c-2.8687-8.741-5.0837-17.683-6.6268-26.752zm127.046-166.4097-80.77 136.289c-1.237-.734-2.525-1.3764-3.855-1.9221l60.273-146.5314c8.398 3.4571 16.537 7.514 24.352 12.1393zm-124.912 173.2637c.653 1.43 1.404 2.814 2.246 4.142l-133.8453 84.818c-4.7866-7.554-9.0427-15.431-12.7376-23.575zm162.27-144.2659.435.435-112.544 111.5298.066.0708c-1.056-1.0592-2.187-2.0413-3.384-2.9387l95.016-126.795c7.214 5.4087 14.035 11.323 20.411 17.6981zm-157.859 151.4629c.934 1.188 1.939 2.318 3.01 3.384l.43.425-110.277363 113.776c-.745301-.715-1.480487-1.437-2.205547-2.165-5.49511-5.497-10.66049-11.314-15.46919-17.42zm171.679-136.061157c5.672 7.068897 10.83 14.535157 15.434 22.341357l-136.516 80.4228c-.736-1.25-1.561-2.445-2.469-3.5759zm-161.263 145.206157-80.4318 136.496c-7.6309-4.501-14.9473-9.514-21.8987-15.007l98.2385-124.296c1.298 1.028 2.665 1.966 4.092 2.807zm186.091-104.7469c3.725 8.2595 6.852 16.7755 9.358 25.4824l-152.294 43.7475c-.399-1.383-.898-2.736-1.492-4.047zm-178.979 107.8579-44.1915 152.156c-8.7204-2.538-17.2461-5.703-25.5106-9.469l65.6861-144.154c1.302.584 2.644 1.074 4.016 1.467zm192.895-62.553c1.541 8.8976 2.451 17.893 2.722 26.919l-158.39 4.638c-.045-1.48-.193-2.956-.445-4.416zm-186.49 63.549-2.621 158.418c-9.317-.158-18.608-1.029-27.792-2.605l26.851-156.147c1.177.203 2.368.314 3.562.334zm188.716-16.357c-.709 9.01-2.061 17.959-4.047 26.777l-154.586-34.698c.321-1.442.541-2.904.658-4.376zm-182.58 15.614 39.705 153.385c-9.013 2.333-18.19 3.972-27.453 4.901l-15.798-157.649c1.196-.119 2.382-.333 3.546-.637zm47.429 70.195 36.093 65.755c-7.81 4.288-15.906 8.035-24.23 11.213l-56.368-148.109c1.492-.572 2.942-1.248 4.34-2.023l26.81 46.959s2.307-2.57 22.987-2.438c20.679.131 46.746 8.74 61.659 15.416 14.913 6.677 25.941 5.65 29.537 3.597 3.597-2.054 5.651 4.881 5.651 4.881l-14.898 17.197zm125.615-39.427c-2.935 8.593-6.485 16.964-10.623 25.047l-141.044-72.219c.652-1.282 1.213-2.609 1.68-3.97zm-156.816-40.055 103.463 119.987c-6.271 5.409-12.844 10.456-19.688 15.119l-89.092-131.004c1.841-1.263 3.608-2.631 5.291-4.097zm45.128 38.376-44.253-39.231c.972-1.092 1.862-2.253 2.666-3.475zm90.781 44.359c-4.976 7.56-10.487 14.754-16.491 21.527z" fill="#ffe2a4"/><g stroke="#7b0c00" stroke-miterlimit="10" stroke-width=".5"><path d="m289.503 222.776c-4.976 7.56-10.487 14.754-16.491 21.527m-266.49215-267.1005 97.43415 110.4323 8.093 7.496-.763.8346.05.0556-.465.4148c-.506.5918-2.494 3.2523-2.98 3.8492l-121.0876-102.476c2.8227-3.44958 5.80728-6.87894 8.86774-10.192l1.06736-1.1532 1.10784-1.1077c2.782231-2.8022 5.72128-5.5436 8.67551-8.1536zm39.20925-26.6558 71.9079 141.1851c-1.281.6517-2.514 1.3955-3.688 2.2255l-91.4945-129.3543c7.4111-5.2374 15.1894-9.935 23.2746-14.0563zm60.7029 151.5843c-1.059 1.541-2.018 3.147-2.873 4.81l-141.2109-71.8593c3.9267-7.6928 8.3418-15.1265 13.2181-22.2554zm-16.0607-167.6183 34.3987 154.6648c-1.421.3139-2.818.7297-4.179 1.2443l-56.226-148.1349c8.4725-3.2075 17.1634-5.8055 26.0063-7.7742zm11.7557 175.6353c-.476 1.244-.863 2.52-1.158 3.819l-154.7224-34.2025c1.9919-8.9602 4.6414-17.7614 7.9268-26.3322zm35.315-180.0662-4.958 158.3623c-1.486-.045-2.974.0141-4.451.177l-17.635-157.4467c8.978-1.0013 18.015-1.363 27.044-1.0825zm-36.903 186.5452c-.117 1.145-.146 2.296-.086 3.445l-158.2331 8.386c-.4952-9.347-.2635-18.72.6931-28.031zm83.654-179.1655-44.091 152.1914c-1.409-.4077-2.846-.7137-4.299-.9155l21.868-156.9207c8.964 1.2451 17.828 3.1315 26.522 5.6448zm-83.441 185.3065c.224 1.296.543 2.574.956 3.824l-150.5546 49.417c-2.8687-8.741-5.0837-17.683-6.6268-26.752zm127.046-166.4097-80.77 136.289c-1.237-.734-2.525-1.3764-3.855-1.9221l60.273-146.5314c8.398 3.4571 16.537 7.514 24.352 12.1393zm-124.912 173.2637c.653 1.43 1.404 2.814 2.246 4.142l-133.8453 84.818c-4.7866-7.554-9.0427-15.431-12.7376-23.575zm162.27-144.2659.435.435-112.544 111.5298.066.0708c-1.056-1.0592-2.187-2.0413-3.384-2.9387l95.016-126.795c7.214 5.4087 14.035 11.323 20.411 17.6981zm-157.859 151.4629c.934 1.188 1.939 2.318 3.01 3.384l.43.425-110.277364 113.775c-.745301-.714-1.480486-1.436-2.205556-2.164-5.4951-5.497-10.66048-11.314-15.46918-17.42zm171.679-136.061158c5.672 7.068898 10.83 14.535158 15.434 22.341358l-136.516 80.4228c-.736-1.25-1.561-2.445-2.469-3.5759zm-161.263 145.206158-80.4318 136.496c-7.6309-4.501-14.9473-9.514-21.8987-15.007l98.2385-124.296c1.298 1.028 2.665 1.966 4.092 2.807zm186.091-104.7469c3.725 8.2595 6.852 16.7755 9.358 25.4824l-152.294 43.7475c-.399-1.383-.898-2.736-1.492-4.047zm-178.979 107.8579-44.1915 152.156c-8.7204-2.538-17.2461-5.703-25.5106-9.469l65.6861-144.154c1.302.584 2.644 1.074 4.016 1.467zm192.895-62.553c1.541 8.8976 2.451 17.893 2.722 26.919l-158.39 4.638c-.045-1.48-.193-2.956-.445-4.416zm-186.49 63.549-2.621 158.418c-9.317-.158-18.608-1.029-27.792-2.605l26.851-156.147c1.177.203 2.368.314 3.562.334zm188.716-16.357c-.709 9.01-2.061 17.959-4.047 26.777l-154.586-34.698c.321-1.442.541-2.904.658-4.376zm-182.58 15.614 39.705 153.385c-9.013 2.333-18.19 3.971-27.453 4.901l-15.798-157.649c1.196-.119 2.382-.333 3.546-.637zm47.429 70.195 36.093 65.755c-7.81 4.288-15.906 8.035-24.23 11.213l-56.368-148.109c1.492-.572 2.942-1.248 4.34-2.023l26.81 46.959s2.307-2.57 22.987-2.438c20.679.131 46.746 8.74 61.659 15.416 14.913 6.677 25.941 5.65 29.537 3.597 3.597-2.054 5.651 4.881 5.651 4.881l-14.898 17.197zm125.615-39.427c-2.935 8.593-6.485 16.964-10.623 25.047l-141.044-72.219c.652-1.282 1.213-2.609 1.68-3.97zm-156.816-40.055 103.463 119.987c-6.271 5.409-12.844 10.456-19.688 15.119l-89.092-131.004c1.841-1.263 3.608-2.631 5.291-4.097zm45.128 38.376-44.253-39.231c.972-1.092 1.862-2.253 2.666-3.475z"/><path d="m621.198 94.0576c16.113-6.6739 23.766-25.1456 17.091-41.2578s-25.148-23.7634-41.262-17.0895-23.767 25.1456-17.092 41.2578 25.149 23.7639 41.263 17.0895z" fill="#ffd270"/><path d="m618.757 88.1648c12.859-5.3259 18.965-20.0666 13.639-32.9243s-20.069-18.9635-32.928-13.6377c-12.859 5.3259-18.966 20.0665-13.639 32.9243 5.326 12.8577 20.069 18.9635 32.928 13.6377z" fill="#ffe1a3"/><path d="m616.314 82.2674c9.601-3.9767 14.161-14.9834 10.184-24.5841-3.977-9.6008-14.985-14.1599-24.587-10.1831-9.602 3.9767-14.161 14.9834-10.184 24.5841s14.985 14.1599 24.587 10.1831z" fill="#ffd270"/><path d="m609.111 77.3213c6.87 0 12.439-5.5686 12.439-12.4378 0-6.8691-5.569-12.4377-12.439-12.4377s-12.439 5.5686-12.439 12.4377c0 6.8692 5.569 12.4378 12.439 12.4378z" fill="#ffe1a3"/><path d="m695.712 130.174c20.316-20.314 20.316-53.249 0-73.5629s-53.255-20.3139-73.571 0c-20.316 20.3138-20.316 53.2489 0 73.5629s53.255 20.314 73.571 0z" fill="#ffd270"/><path d="m674.813 131.744c21.18-8.772 31.239-33.0523 22.465-54.2306-8.773-21.1784-33.056-31.2354-54.236-22.4631-21.181 8.7724-31.239 33.0522-22.466 54.2307 8.773 21.178 33.056 31.235 54.237 22.463z" fill="#ffe1a3"/><path d="m670.79 122.033c15.817-6.551 23.328-24.6824 16.777-40.4977-6.552-15.8154-24.686-23.3257-40.503-16.7748-15.817 6.551-23.328 24.6825-16.776 40.4975 6.551 15.816 24.685 23.326 40.502 16.775z" fill="#ffd270"/><path d="m658.928 113.881c11.315 0 20.487-9.172 20.487-20.4853 0-11.3136-9.172-20.4851-20.487-20.4851s-20.488 9.1715-20.488 20.4851c0 11.3133 9.173 20.4853 20.488 20.4853z" fill="#ffe1a3"/><path d="m141.239 80.0991c6.675-16.1122-.977-34.5839-17.091-41.2578s-34.5881.9773-41.2627 17.0895.9775 34.5839 17.0914 41.2578c16.1143 6.6744 34.5873-.9773 41.2623-17.0895z" fill="#ffd270"/><path d="m135.346 77.6584c5.327-12.8577-.78-27.5984-13.639-32.9242-12.859-5.3259-27.6014.7799-32.9279 13.6376-5.3264 12.8578.7801 27.5985 13.6389 32.9243 12.86 5.3259 27.602-.7799 32.928-13.6377z" fill="#ffe1a3"/><path d="m129.448 75.2157c3.977-9.6007-.582-20.6075-10.184-24.5842-9.602-3.9768-20.6099.5824-24.5871 10.1831s.5825 20.6074 10.1841 24.5842c9.602 3.9767 20.61-.5824 24.587-10.1831z" fill="#ffd270"/><path d="m112.062 80.4575c6.87 0 12.439-5.5686 12.439-12.4377 0-6.8692-5.569-12.4378-12.439-12.4378s-12.439 5.5686-12.439 12.4378c0 6.8691 5.569 12.4377 12.439 12.4377z" fill="#ffe1a3"/><path d="m99.0287 133.309c20.3163-20.314 20.3163-53.2488 0-73.5627-20.3162-20.3138-53.2551-20.3138-73.5712 0-20.31616 20.3139-20.31616 53.2487 0 73.5627 20.3161 20.314 53.255 20.314 73.5712 0z" fill="#ffd270"/><path d="m100.593 112.412c8.773-21.1784-1.2852-45.4583-22.466-54.2307-21.1807-8.7723-45.4632 1.2847-54.2366 22.4631-8.7733 21.1786 1.2848 45.4586 22.4656 54.2306 21.1807 8.772 45.4633-1.285 54.237-22.463z" fill="#ffe1a3"/><path d="m90.881 108.39c6.5517-15.8158-.9594-33.9473-16.7766-40.4983-15.8171-6.5509-33.9506.9594-40.5023 16.7748-6.5517 15.8155.9595 33.9465 16.7766 40.4975 15.8172 6.551 33.9507-.959 40.5023-16.774z" fill="#ffd270"/><path d="m62.2452 117.012c11.3148 0 20.4873-9.171 20.4873-20.4849 0-11.3136-9.1725-20.4851-20.4873-20.4851-11.3149 0-20.4874 9.1715-20.4874 20.4851 0 11.3139 9.1725 20.4849 20.4874 20.4849z" fill="#ffe1a3"/><path d="m323.589 53.999c6.674-16.1122-.978-34.5839-17.092-41.2578s-34.587.9773-41.262 17.0895.977 34.5839 17.091 41.2578 34.588-.9773 41.263-17.0895z" fill="#ffd270"/><path d="m317.695 51.5583c5.326-12.8577-.78-27.5984-13.639-32.9243-12.859-5.3258-27.602.78-32.928 13.6377-5.327 12.8578.78 27.5985 13.639 32.9243 12.859 5.3259 27.602-.7799 32.928-13.6377z" fill="#ffe1a3"/><path d="m311.798 49.1156c3.977-9.6007-.583-20.6075-10.185-24.5842-9.601-3.9768-20.609.5824-24.586 10.1831-3.978 9.6007.582 20.6074 10.184 24.5842 9.602 3.9767 20.61-.5824 24.587-10.1831z" fill="#ffd270"/><path d="m294.41 54.353c6.87 0 12.439-5.5686 12.439-12.4377 0-6.8692-5.569-12.4378-12.439-12.4378s-12.439 5.5686-12.439 12.4378c0 6.8691 5.569 12.4377 12.439 12.4377z" fill="#ffe1a3"/><path d="m281.377 107.211c20.316-20.3142 20.316-53.2494 0-73.5633s-53.255-20.3139-73.571 0-20.316 53.2491 0 73.5633c20.316 20.314 53.255 20.314 73.571 0z" fill="#ffd270"/><path d="m282.947 86.3133c8.773-21.1784-1.285-45.4582-22.465-54.2306-21.181-8.7723-45.464 1.2847-54.237 22.4631-8.773 21.1783 1.285 45.4582 22.465 54.2302 21.181 8.773 45.464-1.284 54.237-22.4627z" fill="#ffe1a3"/><path d="m272.118 83.1295c6.506-15.7489-.989-33.7893-16.74-40.2943-15.75-6.505-33.793.9887-40.299 16.7376-6.505 15.749.989 33.7894 16.74 40.2944 15.751 6.5048 33.793-.9887 40.299-16.7377z" fill="#ffd270"/><path d="m244.593 90.912c11.315 0 20.487-9.1714 20.487-20.485s-9.172-20.4851-20.487-20.4851-20.488 9.1715-20.488 20.4851 9.173 20.485 20.488 20.485z" fill="#ffe1a3"/><path d="m383.512 294.23c88.172 0 159.649-71.469 159.649-159.631 0-88.1626-71.477-159.6322-159.649-159.6322s-159.65 71.4696-159.65 159.6322c0 88.162 71.478 159.631 159.65 159.631z" fill="#ffd270"/><path d="m383.512 282.102c81.473 0 147.519-66.04 147.519-147.503 0-81.4636-66.046-147.5028-147.519-147.5028-81.472 0-147.519 66.0392-147.519 147.5028 0 81.463 66.047 147.503 147.519 147.503z" fill="#ffe1a3"/><path d="m383.512 269.967c74.771 0 135.384-60.606 135.384-135.368s-60.613-135.368531-135.384-135.368531c-74.77 0-135.383 60.606531-135.383 135.368531s60.613 135.368 135.383 135.368z" fill="#ffd270"/><path d="m383.512 257.833c68.067 0 123.247-55.174 123.247-123.235 0-68.0599-55.18-123.2337-123.247-123.2337-68.068 0-123.248 55.1738-123.248 123.2337 0 68.061 55.18 123.235 123.248 123.235z" fill="#ffe1a3"/><path d="m383.512 245.698c61.365 0 111.112-49.741 111.112-111.1 0-61.3583-49.747-111.0995-111.112-111.0995-61.366 0-111.113 49.7412-111.113 111.0995 0 61.359 49.747 111.1 111.113 111.1z" fill="#ffd270"/><path d="m383.512 233.564c54.663 0 98.977-44.308 98.977-98.966 0-54.6568-44.314-98.9652-98.977-98.9652s-98.977 44.3084-98.977 98.9652c0 54.658 44.314 98.966 98.977 98.966z" fill="#ffe1a3"/><path d="m647.041 962.322-.253-340.472-39.963 337.731c-11.539-1.366-23.078-3.232-34.288-5.564l70.234-339.339c1.492.308 3.101.566 4.791.769l-.041.323c.405 0 .794-.04 1.179-.081l35.992 344.65c-12.508 1.307-25.075 1.969-37.651 1.983zm75.09-7.875-71.787-339.016c.482-.099.958-.226 1.426-.379l107.182 329.537c-12.092 3.932-24.383 7.222-36.821 9.858zm-184.498-9.353c-11.857-3.628-23.525-7.848-34.96-12.645l134.367-319.425c.738.308 1.491.578 2.256.809zm256.836-14.162-141.282-316.431c.506-.218.961-.461 1.421-.724l173.698 299.887c-10.97 6.345-22.264 12.11-33.837 17.273zm-326.245-15.205c-11.357-6.279-22.361-13.176-32.962-20.662l200.027-282.982c.186.128.379.246.577.354zm391.844-22.761-204.023-280.114c.479-.349.94-.722 1.381-1.118l231.998 257.419c-9.362 8.44-19.155 16.389-29.34 23.813zm-455.618-22.392c-9.804-8.743-19.107-18.031-27.868-27.819l258.394-230.95.141.141zm511.744-28.183-257.524-231.901c.39-.435.759-.896 1.103-1.366l280.247 203.839c-7.429 10.214-15.382 20.036-23.826 29.428zm-564.035-30.278c-7.479-10.536-14.377-21.473-20.664-32.761l302.768-168.614c.156.278.313.505.46.738zm608.551-30.914-300.011-173.491c.266-.459.507-.932.723-1.416l316.563 141.038c-5.167 11.583-10.935 22.888-17.281 33.869zm-646.025-36.186c-4.916-11.586-9.233-23.417-12.935-35.446l331.268-101.824c.182.598.395 1.185.638 1.76zm676.922-33.165-329.633-106.988c.155-.478.285-.965.389-1.457l339.077 71.643c-2.627 12.431-5.91 24.716-9.833 36.802zm-698.998-38.35c-2.402-12.003-4.234-24.279-5.448-36.494l344.871-34.223c.091.911.227 1.811.399 2.676zm714.721-35.912-344.714-35.816c.066-.619.098-1.24.096-1.862v-.455h346.568v.455c0 12.576-.65 25.143-1.95 37.652zm-375.44-37.465h-346.56v-.228c0-12.058.587-24.278 1.75-36.256l344.952 33.383c-.091.946-.137 1.907-.137 2.853zm30.726-2.15c-.061-.506-.142-1.057-.253-1.573l338.897-72.512c2.65 12.394 4.65 24.918 5.98 37.52zm-.647-3.035c-.162-.5-.352-.992-.567-1.472l316.218-141.802c5.192 11.572 9.77 23.409 13.714 35.462zm-29.558-.506-339.938-67.347c2.413-12.14 5.458-24.309 9.06-36.11l331.475 101.161c-.238.688-.43 1.462-.592 2.261zm28.273-2.357c-.291-.497-.608-.978-.951-1.441l279.816-204.522c7.459 10.198 14.382 20.776 20.741 31.694zm-27.049-1.745-319.274-134.817c4.958-11.731 10.53-23.193 16.694-34.339l303.197 167.851c-.226.413-.43.836-.612 1.27zm25.03-1.011c-.41-.454-.844-.887-1.3-1.295l231.487-257.889c9.373 8.411 18.303 17.303 26.755 26.64zm-23.977-.971-283.05-199.985c7.54-10.658 15.665-20.889 24.337-30.647l259.001 230.237c-.091.101-.182.223-.283.359zm.414-.506-231.304-258.046c9.767-8.751 20.018-16.946 30.705-24.547l200.827 282.406c-.078.051-.152.106-.223.167zm.734-.506-168.391-302.891c11.161-6.198 22.643-11.798 34.398-16.777l135.192 319.071c-.456.213-.855.405-1.194.592zm20.189-.425c-.464-.337-.945-.649-1.442-.936l173.004-300.26c10.95 6.308 21.564 13.183 31.799 20.596zm-16.79-.941-102.427-331.049c11.372-3.54 23.118-6.575 34.905-9.018l70.922 339.192c-1.204.258-2.353.547-3.395.87zm13.937-.708c-.46-.207-.931-.388-1.412-.541l.258-.794c-.576.03-1.148.071-1.705.116l-.055.278c-.344-.075-.698-.136-1.047-.182-.607.056-1.199.122-1.781.193l-41.425-344.043c10.927-1.321 22.157-2.221 33.387-2.676l12.763 312.309 31.646-310.594c12.603 1.287 25.13 3.232 37.53 5.826l-68.291 326.022.349 8.598 104.713-324.873c12.092 3.904 23.971 8.438 35.588 13.586z" fill="#ffe2a4"/><path d="m770.084 270.638c6.675-16.113-.978-34.584-17.092-41.258s-34.587.977-41.262 17.089c-6.675 16.113.977 34.584 17.091 41.258s34.588-.977 41.263-17.089z" fill="#ffd270"/><path d="m764.19 268.197c5.326-12.858-.78-27.598-13.639-32.924s-27.602.78-32.928 13.637c-5.327 12.858.78 27.599 13.639 32.925s27.602-.78 32.928-13.638z" fill="#ffe1a3"/><path d="m758.293 265.759c3.977-9.601-.583-20.607-10.184-24.584-9.602-3.977-20.61.582-24.587 10.183-3.978 9.601.582 20.607 10.184 24.584s20.61-.582 24.587-10.183z" fill="#ffd270"/><path d="m740.908 270.994c6.87 0 12.439-5.568 12.439-12.438 0-6.869-5.569-12.437-12.439-12.437s-12.439 5.568-12.439 12.437c0 6.87 5.569 12.438 12.439 12.438z" fill="#ffe1a3"/><path d="m749.177 245.529c20.316-20.314 20.316-53.249 0-73.563s-53.255-20.314-73.571 0-20.316 53.249 0 73.563 53.255 20.314 73.571 0z" fill="#ffd270"/><path d="m750.744 224.632c8.773-21.178-1.285-45.458-22.466-54.23-21.18-8.773-45.463 1.284-54.236 22.463-8.774 21.178 1.285 45.458 22.465 54.23 21.181 8.773 45.464-1.285 54.237-22.463z" fill="#ffe1a3"/><path d="m741.032 220.61c6.552-15.816-.959-33.947-16.776-40.498s-33.951.959-40.503 16.775c-6.551 15.815.96 33.947 16.777 40.497 15.817 6.551 33.951-.959 40.502-16.774z" fill="#ffd270"/><path d="m712.392 229.23c11.315 0 20.487-9.172 20.487-20.485 0-11.314-9.172-20.485-20.487-20.485s-20.488 9.171-20.488 20.485c0 11.313 9.173 20.485 20.488 20.485z" fill="#ffe1a3"/><path d="m759.735 841.057c16.346-6.085 24.663-24.267 18.578-40.61-6.085-16.344-24.269-24.661-40.615-18.576s-24.663 24.266-18.578 40.61c6.086 16.344 24.269 24.661 40.615 18.576z" fill="#ffd270"/><path d="m757.509 835.079c13.044-4.855 19.681-19.365 14.825-32.407-4.856-13.043-19.367-19.679-32.411-14.824-13.044 4.856-19.682 19.365-14.825 32.408 4.856 13.042 19.367 19.679 32.411 14.823z" fill="#ffe1a3"/><path d="m755.282 829.097c9.74-3.625 14.696-14.459 11.07-24.198s-14.461-14.695-24.201-11.069-14.696 14.46-11.07 24.199c3.626 9.738 14.461 14.694 24.201 11.068z" fill="#ffd270"/><path d="m748.734 823.863c6.87 0 12.439-5.568 12.439-12.438 0-6.869-5.569-12.437-12.439-12.437s-12.439 5.568-12.439 12.437c0 6.87 5.569 12.438 12.439 12.438z" fill="#ffe1a3"/><path d="m768.458 903.008c20.316-20.314 20.316-53.249 0-73.563s-53.255-20.314-73.571 0-20.316 53.249 0 73.563 53.255 20.314 73.571 0z" fill="#ffd270"/><path d="m749.309 906.871c21.55-8.023 32.515-31.995 24.491-53.543s-31.999-32.512-53.549-24.489c-21.551 8.024-32.516 31.996-24.492 53.544 8.024 21.547 31.999 32.511 53.55 24.488z" fill="#ffe1a3"/><path d="m742.469 895.311c16.045-5.973 24.209-23.82 18.236-39.863-5.973-16.042-23.822-24.206-39.867-18.233-16.044 5.973-24.209 23.819-18.235 39.862 5.973 16.043 23.822 24.206 39.866 18.234z" fill="#ffd270"/><path d="m731.671 886.709c11.315 0 20.487-9.171 20.487-20.485 0-11.313-9.172-20.485-20.487-20.485s-20.487 9.172-20.487 20.485c0 11.314 9.172 20.485 20.487 20.485z" fill="#ffe1a3"/><path d="m840.663 1171.16c88.172 0 159.647-71.47 159.647-159.63 0-88.161-71.475-159.63-159.647-159.63s-159.649 71.469-159.649 159.63c0 88.16 71.477 159.63 159.649 159.63z" fill="#ffd270"/><path d="m840.664 1159.03c81.472 0 147.519-66.04 147.519-147.5 0-81.462-66.047-147.501-147.519-147.501-81.473 0-147.519 66.039-147.519 147.501 0 81.46 66.046 147.5 147.519 147.5z" fill="#ffe1a3"/><path d="m840.663 1146.9c74.77 0 135.383-60.61 135.383-135.37s-60.613-135.367-135.383-135.367-135.384 60.607-135.384 135.367 60.614 135.37 135.384 135.37z" fill="#ffd270"/><path d="m840.664 1134.77c68.068 0 123.248-55.18 123.248-123.24 0-68.058-55.18-123.232-123.248-123.232s-123.248 55.174-123.248 123.232c0 68.06 55.18 123.24 123.248 123.24z" fill="#ffe1a3"/><path d="m840.663 1122.63c61.366 0 111.112-49.74 111.112-111.1 0-61.357-49.746-111.098-111.112-111.098s-111.112 49.741-111.112 111.098c0 61.36 49.746 111.1 111.112 111.1z" fill="#ffd270"/><path d="m840.664 1110.5c54.663 0 98.977-44.31 98.977-98.97 0-54.656-44.314-98.964-98.977-98.964s-98.976 44.308-98.976 98.964c0 54.66 44.313 98.97 98.976 98.97z" fill="#ffe1a3"/><path d="m59.6258 960.349 35.992-344.649c.3845.04.774.065 1.1786.08l-.0404-.323c1.6896-.203 3.298-.461 4.79-.769l70.229 339.339c-11.205 2.322-22.764 4.188-34.282 5.564l-39.963-337.731-.2834 340.462c-12.5658-.011-25.1227-.67-37.6208-1.973zm-74.2755-15.76 107.1818-329.537c.468.153.9442.28 1.4265.379l-71.7867 339.016c-12.43887-2.636-24.72985-5.927-36.8216-9.858zm119.6567-330.796c.814-.253 1.573-.506 2.256-.81l134.366 319.446c-11.434 4.797-23.102 9.017-34.96 12.645zm-189.0101 299.871 173.6619-299.887c.4603.263.9358.506 1.4214.724l-141.2463 316.436c-11.5736-5.162-22.8681-10.927-33.837-17.273zm192.4391-301.207c.199-.107.391-.225.577-.354l200.027 282.983c-10.6 7.485-21.604 14.383-32.962 20.662zm-253.572 256.696 232.0125-257.419c.4407.396.9016.769 1.381 1.118l-204.0235 280.114c-10.196-7.424-19.999-15.372-29.37-23.813zm254.326-257.201.142-.142 258.388 230.94c-8.76 9.788-18.064 19.076-27.868 27.819zm-304.912 201.057 280.2463-203.839c.344.47.7132.93 1.1027 1.365l-257.498 231.856c-8.452-9.377-16.413-19.184-23.851-29.382zm305.312-201.513c.146-.212.303-.46.46-.738l302.768 168.615c-6.285 11.281-13.18 22.21-20.655 32.74zm-343.267 135.864 316.5623-141.038c.2158.485.4573.957.7234 1.416l-300.0107 173.491c-6.345-10.988-12.111-22.299-17.275-33.889zm344.324-137.836c.243-.576.456-1.163.637-1.761l331.268 101.824c-3.707 12.024-8.031 23.848-12.955 35.426zm-367.791 65.501 339.0783-71.642c.1042.492.2342.978.3895 1.457l-329.6338 107.008c-3.924-12.093-7.206-24.384-9.834-36.823zm369.01-69.588c.172-.865.309-1.765.4-2.676l344.87 34.228c-1.214 12.215-3.035 24.491-5.448 36.494zm-376.866-5.564v-.455h346.565v.455c-.0019.622.0303 1.243.0961 1.861l-344.7131 35.816c-1.29-12.514-1.934-25.086-1.928-37.667zm377.372 0c0-.946-.046-1.907-.137-2.853l344.952-33.383c1.163 11.998 1.75 24.198 1.75 36.256v.228h-346.515zm-375.349-38.487c1.338-12.603 3.336-25.127 5.985-37.52l338.9263 72.507c-.1113.506-.1922 1.047-.253 1.573zm15.905-74.282c3.948-12.053 8.528-23.89 13.719-35.462l316.2484 141.797c-.2155.48-.4046.971-.5666 1.472zm358.351 104.995 331.475-101.161c3.602 11.8 6.647 23.95 9.06 36.109l-339.938 67.348c-.152-.799-.344-1.573-.566-2.301zm-327.291-174.27c6.358-10.917 13.281-21.496 20.74-31.694l279.8114 204.467c-.3431.462-.6606.944-.951 1.441zm326.016 171.2 303.244-167.857c6.163 11.146 11.735 22.608 16.693 34.339l-319.279 134.782c-.182-.434-.386-.857-.612-1.27zm-281.359-232.286c8.465-9.341 17.41-18.235 26.8-26.646l231.4872 257.89c-.4558.408-.8898.84-1.3001 1.294zm280.631 231.213 259.001-230.237c8.691 9.755 16.834 19.985 24.392 30.642l-283.059 199.949c-.089-.125-.185-.245-.288-.359zm-.339-.298 200.827-282.406c10.687 7.601 20.938 15.796 30.705 24.547l-231.274 258.021c-.067-.06-.138-.116-.212-.167zm-1.71-.896 135.237-319.076c11.756 4.979 23.238 10.579 34.399 16.778l-168.401 302.865c-.386-.211-.783-.402-1.189-.572zm-222.315-280.458c10.234-7.413 20.848-14.288 31.7981-20.596l173.0043 300.26c-.4967.287-.9779.599-1.4417.936zm216.741 278.789 70.921-339.192c11.802 2.463 23.548 5.498 34.905 9.019l-102.417 331.043c-1.042-.323-2.19-.612-3.409-.87zm-151.0452-316.608c11.6188-5.147 23.4992-9.681 35.5924-13.586l104.7384 324.853.349-8.599-68.2911-326.021c12.3999-2.594 24.9269-4.539 37.5298-5.827l31.6466 310.594 12.7481-312.293c11.214.455 22.44 1.356 33.386 2.676l-41.4246 344.043c-.5817-.071-1.1736-.137-1.7806-.193-.3541.044-.7031.105-1.0471.182l-.0556-.278c-.5565-.045-1.1281-.086-1.7048-.116l.258.794c-.4804.153-.9516.334-1.4113.541z" fill="#ffe2a4"/><path d="m15.4787 287.73c16.114-6.674 23.7661-25.146 17.0915-41.258s-25.14845-23.763-41.26242-17.089c-16.11398 6.674-23.76608 25.145-17.09148 41.257 6.6747 16.113 25.14846 23.764 41.2624 17.09z" fill="#ffd270"/><path d="m13.0372 281.837c12.8592-5.326 18.9656-20.066 13.6392-32.924-5.3265-12.858-20.0688-18.964-32.92797-13.638-12.85913 5.326-18.96563 20.067-13.63923 32.924 5.3265 12.858 20.068814 18.964 32.928 13.638z" fill="#ffe1a3"/><path d="m10.5949 275.94c9.6018-3.977 14.1614-14.984 10.1842-24.584-3.9772-9.601-14.98511-14.16-24.58689-10.183-9.60181 3.976-14.16141 14.983-10.18421 24.584 3.9772 9.6 14.985109 14.16 24.5869 10.183z" fill="#ffd270"/><path d="m3.39321 270.995c6.86989 0 12.43909-5.569 12.43909-12.438s-5.5692-12.438-12.43909-12.438c-6.86993 0-12.43911 5.569-12.43911 12.438s5.56918 12.438 12.43911 12.438z" fill="#ffe1a3"/><path d="m77.1408 675.55c16.114-6.674 23.7662-25.145 17.0915-41.257-6.6746-16.113-25.1484-23.764-41.2624-17.09s-23.7661 25.146-17.0915 41.258c6.6747 16.112 25.1485 23.763 41.2624 17.089z" fill="#ffd270"/><path d="m74.6993 669.657c12.8592-5.325 18.9656-20.066 13.6392-32.924-5.3265-12.858-20.0688-18.963-32.928-13.638-12.8591 5.326-18.9656 20.067-13.6392 32.925 5.3265 12.857 20.0688 18.963 32.928 13.637z" fill="#ffe1a3"/><path d="m72.257 663.76c9.6018-3.977 14.1614-14.983 10.1842-24.584s-14.9851-14.16-24.5869-10.183-14.1614 14.983-10.1842 24.584 14.9851 14.16 24.5869 10.183z" fill="#ffd270"/><path d="m65.0553 658.815c6.8699 0 12.4391-5.569 12.4391-12.438s-5.5692-12.438-12.4391-12.438-12.4391 5.569-12.4391 12.438 5.5692 12.438 12.4391 12.438z" fill="#ffe1a3"/><path d="m667.002 675.55c-16.114-6.674-23.766-25.145-17.092-41.257 6.675-16.113 25.149-23.764 41.263-17.09s23.766 25.146 17.091 41.258c-6.674 16.112-25.148 23.763-41.262 17.089z" fill="#ffd270"/><path d="m669.443 669.657c-12.859-5.325-18.965-20.066-13.639-32.924 5.327-12.858 20.069-18.963 32.928-13.638 12.859 5.326 18.966 20.067 13.639 32.925-5.326 12.857-20.069 18.963-32.928 13.637z" fill="#ffe1a3"/><path d="m671.886 663.76c-9.602-3.977-14.162-14.983-10.185-24.584 3.978-9.601 14.985-14.16 24.587-10.183s14.162 14.983 10.184 24.584c-3.977 9.601-14.985 14.16-24.586 10.183z" fill="#ffd270"/><path d="m679.086 658.815c-6.87 0-12.439-5.569-12.439-12.438s5.569-12.438 12.439-12.438 12.439 5.569 12.439 12.438-5.569 12.438-12.439 12.438z" fill="#ffe1a3"/><path d="m68.6947 245.524c20.3161-20.314 20.3161-53.249 0-73.563s-53.2551-20.314-73.57121 0c-20.31609 20.314-20.31609 53.249 0 73.563 20.31611 20.314 53.25511 20.314 73.57121 0z" fill="#ffd270"/><path d="m47.796 247.094c21.1807-8.773 31.2389-33.053 22.4655-54.231-8.7733-21.178-33.0559-31.235-54.2366-22.463-21.18071 8.772-31.2389 33.052-22.46554 54.231 8.77334 21.178 33.05594 31.235 54.23664 22.463z" fill="#ffe1a3"/><path d="m43.7734 237.383c15.8171-6.551 23.3282-24.683 16.7766-40.498-6.5517-15.815-24.6852-23.326-40.5023-16.775-15.81718 6.551-23.32832 24.683-16.77664 40.498 6.55167 15.815 24.68514 23.326 40.50234 16.775z" fill="#ffd270"/><path d="m31.9053 229.23c11.3149 0 20.4874-9.172 20.4874-20.485 0-11.314-9.1725-20.485-20.4874-20.485-11.3148 0-20.4873 9.171-20.4873 20.485 0 11.313 9.1725 20.485 20.4873 20.485z" fill="#ffe1a3"/><path d="m130.357 633.344c20.316-20.313 20.316-53.249 0-73.563-20.316-20.313-53.2553-20.313-73.5714 0-20.3161 20.314-20.3161 53.25 0 73.563 20.3161 20.314 53.2554 20.314 73.5714 0z" fill="#ffd270"/><path d="m109.458 634.914c21.181-8.772 31.239-33.052 22.466-54.231-8.774-21.178-33.0563-31.235-54.237-22.463-21.1807 8.773-31.2389 33.052-22.4655 54.231 8.7733 21.178 33.0559 31.235 54.2365 22.463z" fill="#ffe1a3"/><path d="m105.435 625.203c15.818-6.551 23.329-24.682 16.777-40.498-6.552-15.815-24.6851-23.325-40.5022-16.775-15.8172 6.551-23.3283 24.683-16.7766 40.498 6.5516 15.816 24.6851 23.326 40.5018 16.775z" fill="#ffd270"/><path d="m93.5674 617.05c11.3146 0 20.4876-9.171 20.4876-20.485 0-11.313-9.173-20.485-20.4876-20.485-11.3148 0-20.4873 9.172-20.4873 20.485 0 11.314 9.1725 20.485 20.4873 20.485z" fill="#ffe1a3"/><path d="m613.786 633.344c-20.316-20.313-20.316-53.249 0-73.563 20.316-20.313 53.255-20.313 73.571 0 20.316 20.314 20.316 53.25 0 73.563-20.316 20.314-53.255 20.314-73.571 0z" fill="#ffd270"/><path d="m634.684 634.914c-21.18-8.772-31.238-33.052-22.465-54.231 8.773-21.178 33.056-31.235 54.237-22.463 21.18 8.773 31.238 33.052 22.465 54.231-8.773 21.178-33.056 31.235-54.237 22.463z" fill="#ffe1a3"/><path d="m638.707 625.203c-15.817-6.551-23.328-24.682-16.777-40.498 6.552-15.815 24.686-23.325 40.503-16.775 15.817 6.551 23.328 24.683 16.776 40.498-6.551 15.816-24.685 23.326-40.502 16.775z" fill="#ffd270"/><path d="m650.575 617.05c-11.315 0-20.487-9.171-20.487-20.485 0-11.313 9.172-20.485 20.487-20.485s20.487 9.172 20.487 20.485c0 11.314-9.172 20.485-20.487 20.485z" fill="#ffe1a3"/><path d="m25.1722 822.415c6.0854-16.344-2.2322-34.526-18.57783-40.611-16.3456-6.084-34.52957 2.232-40.61487 18.576-6.0854 16.344 2.2322 34.526 18.5778 40.61 16.345598 6.085 34.5295-2.231 40.6149-18.575z" fill="#ffd270"/><path d="m19.1945 820.189c4.8562-13.042-1.7813-27.552-14.82532-32.407-13.04401-4.856-27.55498 1.781-32.41118 14.824-4.8562 13.042 1.7813 27.551 14.8253 32.407 13.044006 4.856 27.555-1.781 32.4112-14.824z" fill="#ffe1a3"/><path d="m13.2115 817.962c3.6261-9.738-1.33-20.572-11.06986-24.198-9.73981-3.626-20.57494 1.33-24.20104 11.069s1.3301 20.572 11.0699 24.198c9.73978 3.626 20.57494-1.33 24.201-11.069z" fill="#ffd270"/><path d="m-4.43199 823.863c6.86993 0 12.43911-5.568 12.43911-12.437 0-6.87-5.56918-12.438-12.43911-12.438-6.86991 0-12.43911 5.568-12.43911 12.438 0 6.869 5.5692 12.437 12.43911 12.437z" fill="#ffe1a3"/><path d="m49.4144 903.006c20.3161-20.314 20.3161-53.249 0-73.563s-53.25507-20.314-73.5712 0c-20.3161 20.314-20.3161 53.249 0 73.563 20.31612 20.314 53.2551 20.314 73.5712 0z" fill="#ffd270"/><path d="m51.5418 880.672c7.9988-21.482-2.9341-45.381-24.4193-53.379s-45.3867 2.934-53.3855 24.416c-7.9988 21.483 2.9341 45.382 24.41924 53.38 21.48516 7.998 45.38676-2.934 53.38556-24.417z" fill="#ffe1a3"/><path d="m41.6903 877.006c5.9733-16.043-2.1911-33.89-18.2356-39.863-16.0445-5.972-33.8934 2.191-39.8667 18.234-5.9732 16.043 2.1911 33.89 18.23557 39.862 16.04453 5.973 33.89343-2.191 39.86673-18.233z" fill="#ffd270"/><path d="m12.6309 886.709c11.3149 0 20.4874-9.171 20.4874-20.485 0-11.313-9.1725-20.485-20.4874-20.485-11.31484 0-20.48735 9.172-20.48735 20.485 0 11.314 9.17251 20.485 20.48735 20.485z" fill="#ffe1a3"/><path d="m-96.3622 1171.16c88.17204 0 159.6496-71.47 159.6496-159.63s-71.47756-159.63-159.6496-159.63c-88.1718 0-159.6498 71.47-159.6498 159.63s71.478 159.63 159.6498 159.63z" fill="#ffd270"/><path d="m-96.3618 1159.03c81.4725 0 147.519-66.03 147.519-147.5 0-81.462-66.0465-147.501-147.519-147.501-81.4722 0-147.5192 66.039-147.5192 147.501 0 81.47 66.047 147.5 147.5192 147.5z" fill="#ffe1a3"/><path d="m-96.3617 1146.9c74.7702 0 135.3835-60.61 135.3835-135.37s-60.6133-135.366-135.3835-135.366c-74.7703 0-135.3833 60.606-135.3833 135.366s60.613 135.37 135.3833 135.37z" fill="#ffd270"/><path d="m-96.3625 1134.77c68.0679 0 123.2479-55.18 123.2479-123.24 0-68.058-55.18-123.232-123.2479-123.232-68.0675 0-123.2475 55.174-123.2475 123.232 0 68.06 55.18 123.24 123.2475 123.24z" fill="#ffe1a3"/><path d="m-96.3624 1122.63c61.3656 0 111.1122-49.74 111.1122-111.1 0-61.357-49.7466-111.098-111.1122-111.098s-111.1126 49.741-111.1126 111.098c0 61.36 49.747 111.1 111.1126 111.1z" fill="#ffd270"/><path d="m-96.3622 1110.5c54.6633 0 98.97667-44.31 98.97667-98.97 0-54.655-44.31337-98.964-98.97667-98.964-54.6638 0-98.9768 44.309-98.9768 98.964 0 54.66 44.313 98.97 98.9768 98.97z" fill="#ffe1a3"/></g></g></g></svg>